/* XPM */
static char * closeA_xpm[] = {
"22 48 123 2",
"  	c None",
". 	c #9B9882",
"+ 	c #F5F2E6",
"@ 	c #FBF9F5",
"# 	c #F5F4EA",
"$ 	c #F5F2EA",
"% 	c #C5B5AF",
"& 	c #83605D",
"* 	c #4E1D1C",
"= 	c #380000",
"- 	c #F5F3EA",
"; 	c #C5B6AF",
"> 	c #5E302F",
", 	c #78302C",
"' 	c #A85A53",
") 	c #C3756D",
"! 	c #C77971",
"~ 	c #F4F1E9",
"{ 	c #86615E",
"] 	c #792C28",
"^ 	c #C16D66",
"/ 	c #C47068",
"( 	c #F3F1E7",
"_ 	c #581D1C",
": 	c #A24941",
"< 	c #BE635A",
"[ 	c #F3F0E7",
"} 	c #480000",
"| 	c #B45047",
"1 	c #B85249",
"2 	c #B64E45",
"3 	c #FFFFFF",
"4 	c #F0DAD8",
"5 	c #B74F45",
"6 	c #EFECE1",
"7 	c #4F0000",
"8 	c #B14339",
"9 	c #AB352A",
"0 	c #EBD0CD",
"a 	c #EED5D3",
"b 	c #AF3F35",
"c 	c #EAE6DA",
"d 	c #570000",
"e 	c #AD382D",
"f 	c #A82B1F",
"g 	c #960000",
"h 	c #E7CCCC",
"i 	c #EDD2D0",
"j 	c #AA3024",
"k 	c #E7E4D8",
"l 	c #5F0000",
"m 	c #A92E22",
"n 	c #A72A1E",
"o 	c #9F1508",
"p 	c #8E0000",
"q 	c #E6CCCC",
"r 	c #F2E0E0",
"s 	c #E5E1D5",
"t 	c #670000",
"u 	c #A42418",
"v 	c #A22013",
"w 	c #990A00",
"x 	c #870000",
"y 	c #EFE0E0",
"z 	c #E1DDD0",
"A 	c #6F0000",
"B 	c #A11C10",
"C 	c #9D1306",
"D 	c #E8CCCC",
"E 	c #EDE0E0",
"F 	c #DBD7CB",
"G 	c #770000",
"H 	c #9F170A",
"I 	c #9D1205",
"J 	c #EACCCC",
"K 	c #E3CCCC",
"L 	c #710000",
"M 	c #D9D5C9",
"N 	c #7F0000",
"O 	c #800000",
"P 	c #8B0000",
"Q 	c #D9D4C9",
"R 	c #9F170B",
"S 	c #A0180B",
"T 	c #9A0900",
"U 	c #820000",
"V 	c #950000",
"W 	c #9C0F01",
"X 	c #D7D2C7",
"Y 	c #98211A",
"Z 	c #A1190E",
"` 	c #A82013",
" .	c #A10F01",
"..	c #920000",
"+.	c #900000",
"@.	c #9E0600",
"#.	c #A61C0E",
"$.	c #D5D0C4",
"%.	c #B46157",
"&.	c #B0281B",
"*.	c #B1291C",
"=.	c #AF2417",
"-.	c #AB190B",
";.	c #AC1B0D",
">.	c #AF2517",
",.	c #D6D1C4",
"'.	c #CEA99E",
").	c #A83A2F",
"!.	c #A51D10",
"~.	c #B93124",
"{.	c #BA3225",
"].	c #D4CFC3",
"^.	c #D8D3C9",
"/.	c #D1ACA2",
"(.	c #BA685D",
"_.	c #A72F22",
":.	c #D3CFC2",
"<.	c #D7D3C8",
"[.	c #DDDAD0",
"}.	c #E2DFD7",
"|.	c #E4E2DA",
"1.	c #CECBC0",
"2.	c #BBB8A4",
". . . . . . . . . . . . . . . . . . . . . . ",
"+ + + + + + + + + + + + + + + + + + + + + + ",
"@ @ @ @ @ @ @ @ @ @ @ @ @ @ @ @ @ @ @ @ @ @ ",
"# # # # # # # # # # # # # # # # # # # # # # ",
"$ $ % & * = = = = = = = = = = = * & % $ $ $ ",
"- ; > , ' ) ! ! ! ! ! ! ! ! ! ) ' , > ; - - ",
"~ { ] ^ / / / / / / / / / / / / / ^ ] { ~ ~ ",
"( _ : < < < < < < < < < < < < < < < : _ ( ( ",
"[ } | 1 1 2 3 4 5 1 1 1 5 4 3 2 1 1 | } [ [ ",
"6 7 8 8 8 9 0 3 a b 8 b a 3 0 9 8 8 8 7 6 6 ",
"c d e e e f g h 3 i j i 3 h g f e e e d c c ",
"k l m m m n o p q 3 r 3 q p o n m m m l k k ",
"s t u u u u v w x y 3 y x w v u u u u t s s ",
"z A B B B B B C D 3 E 3 D C B B B B B A z z ",
"F G H H H H I J 3 K L K 3 J I H H H H G F F ",
"M N H H H I J 3 K O P O K 3 J I H H H N M M ",
"Q x R S S T 3 K U V W V U K 3 T S S R x Q Q ",
"X Y Z ` `  ...+.@.#.` #.@.+... .` ` Z Y X X ",
"$.%.R &.*.=.-.;.>.*.*.*.>.;.-.=.*.&.R %.$.$.",
",.'.).!.*.~.{.{.{.{.{.{.{.{.{.~.*.!.).'.,.,.",
"].^./.(._.H H H H H H H H H H H _.(./.^.].].",
":.:.<.[.}.|.|.|.|.|.|.|.|.|.|.|.}.[.<.:.:.:.",
"1.1.1.1.1.1.1.1.1.1.1.1.1.1.1.1.1.1.1.1.1.1.",
"2.2.2.2.2.2.2.2.2.2.2.2.2.2.2.2.2.2.2.2.2.2.",
"                                            ",
"                                            ",
"                                            ",
"                                            ",
"                                            ",
"                                            ",
"                                            ",
"                                            ",
"                                            ",
"                                            ",
"                                            ",
"                                            ",
"                                            ",
"                                            ",
"                                            ",
"                                            ",
"                                            ",
"                                            ",
"                                            ",
"                                            ",
"                                            ",
"                                            ",
"                                            ",
"                                            "};
