/* XPM */
static char * closeO_xpm[] = {
"22 48 202 2",
"  	c None",
". 	c #9B9882",
"+ 	c #F5F2E6",
"@ 	c #FBF9F5",
"# 	c #F5F4EA",
"$ 	c #F5F2EA",
"% 	c #C9B5AF",
"& 	c #8C605D",
"* 	c #5B1D1C",
"= 	c #460000",
"- 	c #F5F3EA",
"; 	c #C9B6AF",
"> 	c #68302F",
", 	c #863631",
"' 	c #B4625C",
") 	c #CF7F78",
"! 	c #D2847C",
"~ 	c #F4F1E9",
"{ 	c #8D615E",
"] 	c #84332E",
"^ 	c #CD7971",
"/ 	c #CF7C73",
"( 	c #F3F1E7",
"_ 	c #611D1C",
": 	c #AF534C",
"< 	c #CB6F66",
"[ 	c #F3F0E7",
"} 	c #500000",
"| 	c #C25D54",
"1 	c #C66157",
"2 	c #C55D53",
"3 	c #FFFFFF",
"4 	c #F3DDDB",
"5 	c #C55E54",
"6 	c #EFECE1",
"7 	c #550000",
"8 	c #C05348",
"9 	c #BB463A",
"0 	c #EFD4D1",
"a 	c #F1D9D6",
"b 	c #BF5044",
"c 	c #EAE6DA",
"d 	c #590000",
"e 	c #BD493D",
"f 	c #B93D30",
"g 	c #AA1606",
"h 	c #ECCCCC",
"i 	c #F0D6D4",
"j 	c #BA4235",
"k 	c #E7E4D8",
"l 	c #5E0000",
"m 	c #BA3F33",
"n 	c #B93B2F",
"o 	c #B2281B",
"p 	c #A40300",
"q 	c #EBCCCC",
"r 	c #F5E3E1",
"s 	c #E5E1D5",
"t 	c #630000",
"u 	c #B6362A",
"v 	c #B53226",
"w 	c #AD1E11",
"x 	c #9F0000",
"y 	c #F2E0E0",
"z 	c #E1DDD0",
"A 	c #690000",
"B 	c #B42F22",
"C 	c #B12719",
"D 	c #EDCDCC",
"E 	c #F0E0E0",
"F 	c #DBD7CB",
"G 	c #6E0000",
"H 	c #B22A1D",
"I 	c #B02618",
"J 	c #EECFCC",
"K 	c #E8CCCC",
"L 	c #8E0000",
"M 	c #D9D5C9",
"N 	c #730000",
"O 	c #E9CCCC",
"P 	c #990000",
"Q 	c #A20000",
"R 	c #D9D4C9",
"S 	c #770000",
"T 	c #B1291D",
"U 	c #B32B1E",
"V 	c #AE1D0F",
"W 	c #9B0000",
"X 	c #AA1203",
"Y 	c #B02215",
"Z 	c #D7D2C7",
"` 	c #891B1A",
" .	c #A9251B",
"..	c #BB3326",
"+.	c #B62416",
"@.	c #AA0000",
"#.	c #A80000",
"$.	c #B31B0C",
"%.	c #BA2F22",
"&.	c #D5D0C4",
"*.	c #A75A57",
"=.	c #991712",
"-.	c #C23A2E",
";.	c #C43C2F",
">.	c #C3372A",
",.	c #C02D1F",
"'.	c #C02F21",
").	c #C3382B",
"!.	c #D6D1C4",
"~.	c #C8A59D",
"{.	c #962D2C",
"].	c #9F1A15",
"^.	c #B83228",
"/.	c #CA4236",
"(.	c #CD4538",
"_.	c #D4CFC3",
":.	c #D8D3C9",
"<.	c #CAA6A0",
"[.	c #AC5A57",
"}.	c #921B1A",
"|.	c #870000",
"1.	c #D3CFC2",
"2.	c #D7D3C8",
"3.	c #DDDAD0",
"4.	c #E2DFD7",
"5.	c #E4E2DA",
"6.	c #CECBC0",
"7.	c #BBB8A4",
"8.	c #C2B5AF",
"9.	c #7B605D",
"0.	c #431D1C",
"a.	c #2B0000",
"b.	c #C2B6AF",
"c.	c #53302F",
"d.	c #621B1B",
"e.	c #8E3434",
"f.	c #AA4545",
"g.	c #AE4848",
"h.	c #7D615E",
"i.	c #631818",
"j.	c #A84040",
"k.	c #AB4141",
"l.	c #491D1C",
"m.	c #8A2828",
"n.	c #A63737",
"o.	c #360000",
"p.	c #9E2A2A",
"q.	c #A12C2C",
"r.	c #9F2727",
"s.	c #EBD2D2",
"t.	c #9F2828",
"u.	c #3C0000",
"v.	c #9C2020",
"w.	c #940F0F",
"x.	c #E6CCCC",
"y.	c #E9CDCD",
"z.	c #9A1C1C",
"A.	c #400000",
"B.	c #991818",
"C.	c #920909",
"D.	c #7C0000",
"E.	c #E1CCCC",
"F.	c #950F0F",
"G.	c #961111",
"H.	c #940C0C",
"I.	c #8A0000",
"J.	c #750000",
"K.	c #4C0000",
"L.	c #920A0A",
"M.	c #900505",
"N.	c #850000",
"O.	c #6F0000",
"P.	c #ECE0E0",
"Q.	c #530000",
"R.	c #900404",
"S.	c #8B0000",
"T.	c #E4CCCC",
"U.	c #E9E0E0",
"V.	c #8C0000",
"W.	c #DECCCC",
"X.	c #580000",
"Y.	c #5F0000",
"Z.	c #6A0000",
"`.	c #760000",
" +	c #860000",
".+	c #810000",
"++	c #890000",
"@+	c #781B1A",
"#+	c #930000",
"$+	c #910000",
"%+	c #9C5A57",
"&+	c #7E0000",
"*+	c #980000",
"=+	c #970000",
"-+	c #920000",
";+	c #C4A59D",
">+	c #882D2C",
",+	c #820000",
"'+	c #9D0000",
")+	c #C6A6A0",
"!+	c #A15A57",
"~+	c #821B1A",
". . . . . . . . . . . . . . . . . . . . . . ",
"+ + + + + + + + + + + + + + + + + + + + + + ",
"@ @ @ @ @ @ @ @ @ @ @ @ @ @ @ @ @ @ @ @ @ @ ",
"# # # # # # # # # # # # # # # # # # # # # # ",
"$ $ % & * = = = = = = = = = = = * & % $ $ $ ",
"- ; > , ' ) ! ! ! ! ! ! ! ! ! ) ' , > ; - - ",
"~ { ] ^ / / / / / / / / / / / / / ^ ] { ~ ~ ",
"( _ : < < < < < < < < < < < < < < < : _ ( ( ",
"[ } | 1 1 2 3 4 5 1 1 1 5 4 3 2 1 1 | } [ [ ",
"6 7 8 8 8 9 0 3 a b 8 b a 3 0 9 8 8 8 7 6 6 ",
"c d e e e f g h 3 i j i 3 h g f e e e d c c ",
"k l m m m n o p q 3 r 3 q p o n m m m l k k ",
"s t u u u u v w x y 3 y x w v u u u u t s s ",
"z A B B B B B C D 3 E 3 D C B B B B B A z z ",
"F G H H H H I J 3 K L K 3 J I H H H H G F F ",
"M N H H H I J 3 O P Q P O 3 J I H H H N M M ",
"R S T U U V 3 O W X Y X W O 3 V U U T S R R ",
"Z `  .....+.@.#.$.%...%.$.#.@.+..... .` Z Z ",
"&.*.=.-.;.>.,.'.).;.;.;.).'.,.>.;.-.=.*.&.&.",
"!.~.{.].^./.(.(.(.(.(.(.(.(.(./.^.].{.~.!.!.",
"_.:.<.[.}.|.|.|.|.|.|.|.|.|.|.|.}.[.<.:._._.",
"1.1.2.3.4.5.5.5.5.5.5.5.5.5.5.5.4.3.2.1.1.1.",
"6.6.6.6.6.6.6.6.6.6.6.6.6.6.6.6.6.6.6.6.6.6.",
"7.7.7.7.7.7.7.7.7.7.7.7.7.7.7.7.7.7.7.7.7.7.",
". . . . . . . . . . . . . . . . . . . . . . ",
"+ + + + + + + + + + + + + + + + + + + + + + ",
"@ @ @ @ @ @ @ @ @ @ @ @ @ @ @ @ @ @ @ @ @ @ ",
"# # # # # # # # # # # # # # # # # # # # # # ",
"$ $ 8.9.0.a.a.a.a.a.a.a.a.a.a.a.0.9.8.$ $ $ ",
"- b.c.d.e.f.g.g.g.g.g.g.g.g.g.f.e.d.c.b.- - ",
"~ h.i.j.k.k.k.k.k.k.k.k.k.k.k.k.k.j.i.h.~ ~ ",
"( l.m.n.n.n.n.n.n.n.n.n.n.n.n.n.n.n.m.l.( ( ",
"[ o.p.q.q.r.3 s.t.q.q.q.t.s.3 r.q.q.p.o.[ [ ",
"6 u.v.v.v.w.x.3 y.z.v.z.y.3 x.w.v.v.v.u.6 6 ",
"c A.B.B.B.C.D.E.3 K F.K 3 E.D.C.B.B.B.A.c c ",
"k = G.G.G.H.I.J.E.3 E 3 E.J.I.H.G.G.G.= k k ",
"s K.L.L.L.L.M.N.O.P.3 P.O.N.M.L.L.L.L.K.s s ",
"z Q.R.R.R.R.R.S.T.3 U.3 T.S.R.R.R.R.R.Q.z z ",
"F d L L L L V.x.3 W.X.W.3 x.V.L L L L d F F ",
"M Y.L L L V.x.3 W.Z.`.Z.W.3 x.V.L L L Y.M M ",
"R t V.L L  +3 W.Z..+++.+Z.W.3  +L L V.t R R ",
"Z @+|.#+#+S.S J. +$+#+$+ +J.S S.#+#+|.@+Z Z ",
"&.%+&+*+P =+$+-+=+P P P =+-+$+=+P *+&+%+&.&.",
"!.;+>+,+$+W '+'+'+'+'+'+'+'+'+W $+,+>+;+!.!.",
"_.:.)+!+~+J.J.J.J.J.J.J.J.J.J.J.~+!+)+:._._.",
"1.1.2.3.4.5.5.5.5.5.5.5.5.5.5.5.4.3.2.1.1.1.",
"6.6.6.6.6.6.6.6.6.6.6.6.6.6.6.6.6.6.6.6.6.6.",
"7.7.7.7.7.7.7.7.7.7.7.7.7.7.7.7.7.7.7.7.7.7."};
