/* XPM */
static char * closeI_xpm[] = {
"22 48 72 1",
" 	c None",
".	c #9B9882",
"+	c #F5F2E6",
"@	c #FBF9F5",
"#	c #F5F4EA",
"$	c #F5F2EA",
"%	c #D9D8D5",
"&	c #B3B5B8",
"*	c #9599A1",
"=	c #888D97",
"-	c #F5F3EA",
";	c #D9D9D5",
">	c #9DA1A7",
",	c #ADB0B8",
"'	c #F4F1E9",
")	c #B2B3B6",
"!	c #AAAEB5",
"~	c #F3F1E7",
"{	c #91959D",
"]	c #F3F0E7",
"^	c #818690",
"/	c #686B71",
"(	c #7C7E85",
"_	c #EFECE1",
":	c #7F848E",
"<	c #797C82",
"[	c #66696F",
"}	c #EAE6DA",
"|	c #7C818B",
"1	c #777A80",
"2	c #65686F",
"3	c #777A81",
"4	c #E7E4D8",
"5	c #787D87",
"6	c #75787F",
"7	c #64686E",
"8	c #6F7278",
"9	c #E5E1D5",
"0	c #757A84",
"a	c #6D7077",
"b	c #64676D",
"c	c #E1DDD0",
"d	c #727781",
"e	c #73777D",
"f	c #63666C",
"g	c #6C6F76",
"h	c #DBD7CB",
"i	c #6E737D",
"j	c #73767D",
"k	c #62666C",
"l	c #71757C",
"m	c #D9D5C9",
"n	c #6B707A",
"o	c #D9D4C9",
"p	c #686D77",
"q	c #D7D2C7",
"r	c #72767E",
"s	c #D5D0C4",
"t	c #909192",
"u	c #848992",
"v	c #D6D1C4",
"w	c #B8B6AE",
"x	c #787B80",
"y	c #848892",
"z	c #D4CFC3",
"A	c #B6B4AD",
"B	c #8D8E90",
"C	c #6D7178",
"D	c #5F646E",
"E	c #D3CFC2",
"F	c #CECBC0",
"G	c #BBB8A4",
"......................",
"++++++++++++++++++++++",
"@@@@@@@@@@@@@@@@@@@@@@",
"######################",
"$$%&*===========*&%$$$",
"-;>,-------------,>;--",
"')!'''''''''''''''!)''",
"~{~~~~~~~~~~~~~~~~~{~~",
"]^]]]]/(]]]]](/]]]]^]]",
"_:____<[<___<[<____:__",
"}|}}}}}123}321}}}}}|}}",
"4544444467876444444544",
"909999999aba9999999099",
"cdccccccefgfeccccccdcc",
"hihhhhhjklhlkjhhhhhihh",
"mnmmmmjklmmmlkjmmmmnmm",
"opooooklooooolkoooopoo",
"qrqqqqqqqqqqqqqqqqqrqq",
"stusssssssssssssssutss",
"vwxyvvvvvvvvvvvvvyxwvv",
"zzABCDDDDDDDDDDDCBAzzz",
"EEEEEEEEEEEEEEEEEEEEEE",
"FFFFFFFFFFFFFFFFFFFFFF",
"GGGGGGGGGGGGGGGGGGGGGG",
"                      ",
"                      ",
"                      ",
"                      ",
"                      ",
"                      ",
"                      ",
"                      ",
"                      ",
"                      ",
"                      ",
"                      ",
"                      ",
"                      ",
"                      ",
"                      ",
"                      ",
"                      ",
"                      ",
"                      ",
"                      ",
"                      ",
"                      ",
"                      "};
