/* XPM */
static char * dframeITR_xpm[] = {
"6 30 40 1",
" 	c None",
".	c #9B9882",
"+	c #F5F2E6",
"@	c #FBF9F5",
"#	c #F8F5EB",
"$	c #BBB9B0",
"%	c #F5F4EA",
"&	c #EBE9E1",
"*	c #F5F2EA",
"=	c #EAE7DF",
"-	c #DAD7D1",
";	c #F5F3EA",
">	c #DFDCD4",
",	c #D6D4CA",
"'	c #F4F1E9",
")	c #E0DDD4",
"!	c #D4CFC3",
"~	c #F3F1E7",
"{	c #DDDAD1",
"]	c #F3F0E7",
"^	c #D9D6CD",
"/	c #EFECE1",
"(	c #D4D1C8",
"_	c #EAE6DA",
":	c #D2CEC4",
"<	c #E7E4D8",
"[	c #D2CEC3",
"}	c #E5E1D5",
"|	c #D0CDC3",
"1	c #E1DDD0",
"2	c #D0CCC0",
"3	c #DBD7CB",
"4	c #D3CFC2",
"5	c #D9D5C9",
"6	c #D9D4C9",
"7	c #D7D2C7",
"8	c #D5D0C4",
"9	c #D6D1C4",
"0	c #CECBC0",
"a	c #BBB8A4",
"      ",
"      ",
"      ",
"      ",
"      ",
"..    ",
"++..  ",
"@@#$. ",
"%%%&. ",
"***=-.",
";;;>,.",
"''')!.",
"~~~{!.",
"]]]^!.",
"///(!.",
"___:!.",
"<<<[!.",
"}}}|!.",
"1112!.",
"3334!.",
"5554!.",
"6664!.",
"7774!.",
"8884!.",
"9994!.",
"!!!4!.",
"4444!.",
"0004!.",
"aa04!.",
" a04!."};
