/* XPM */
static char * maximizeI_xpm[] = {
"22 48 64 1",
" 	c None",
".	c #9B9882",
"+	c #F5F2E6",
"@	c #FBF9F5",
"#	c #F5F4EA",
"$	c #F5F2EA",
"%	c #D9D8D5",
"&	c #B3B5B8",
"*	c #9599A1",
"=	c #888D97",
"-	c #F5F3EA",
";	c #D9D9D5",
">	c #9DA1A7",
",	c #ADB0B8",
"'	c #F4F1E9",
")	c #B2B3B6",
"!	c #AAAEB5",
"~	c #F3F1E7",
"{	c #91959D",
"]	c #F3F0E7",
"^	c #818690",
"/	c #72747A",
"(	c #686B71",
"_	c #EFECE1",
":	c #7F848E",
"<	c #66696F",
"[	c #EAE6DA",
"}	c #7C818B",
"|	c #777A81",
"1	c #E7E4D8",
"2	c #787D87",
"3	c #76797F",
"4	c #E5E1D5",
"5	c #757A84",
"6	c #74787E",
"7	c #E1DDD0",
"8	c #727781",
"9	c #73777D",
"0	c #DBD7CB",
"a	c #6E737D",
"b	c #72767D",
"c	c #D9D5C9",
"d	c #6B707A",
"e	c #D9D4C9",
"f	c #686D77",
"g	c #797C83",
"h	c #73767D",
"i	c #D7D2C7",
"j	c #72767E",
"k	c #D5D0C4",
"l	c #909192",
"m	c #848992",
"n	c #D6D1C4",
"o	c #B8B6AE",
"p	c #787B80",
"q	c #848892",
"r	c #D4CFC3",
"s	c #B6B4AD",
"t	c #8D8E90",
"u	c #6D7178",
"v	c #5F646E",
"w	c #D3CFC2",
"x	c #CECBC0",
"y	c #BBB8A4",
"......................",
"++++++++++++++++++++++",
"@@@@@@@@@@@@@@@@@@@@@@",
"######################",
"$$%&*===========*&%$$$",
"-;>,-------------,>;--",
"')!'''''''''''''''!)''",
"~{~~~~~~~~~~~~~~~~~{~~",
"]^]]]/(((((((((/]]]^]]",
"_:___<<<<<<<<<<<___:__",
"[}[[[|[[[[[[[[[|[[[}[[",
"1211131111111113111211",
"4544464444444446444544",
"7877797777777779777877",
"0a000b000000000b000a00",
"cdcccbcccccccccbcccdcc",
"efeeeghhhhhhhhhgeeefee",
"ijiiiiiiiiiiiiiiiiijii",
"klmkkkkkkkkkkkkkkkmlkk",
"nopqnnnnnnnnnnnnnqponn",
"rrstuvvvvvvvvvvvutsrrr",
"wwwwwwwwwwwwwwwwwwwwww",
"xxxxxxxxxxxxxxxxxxxxxx",
"yyyyyyyyyyyyyyyyyyyyyy",
"                      ",
"                      ",
"                      ",
"                      ",
"                      ",
"                      ",
"                      ",
"                      ",
"                      ",
"                      ",
"                      ",
"                      ",
"                      ",
"                      ",
"                      ",
"                      ",
"                      ",
"                      ",
"                      ",
"                      ",
"                      ",
"                      ",
"                      ",
"                      "};
