/* XPM */
static char * maximizeO_xpm[] = {
"22 48 182 2",
"  	c None",
". 	c #9B9882",
"+ 	c #F5F2E6",
"@ 	c #FBF9F5",
"# 	c #F5F4EA",
"$ 	c #F5F2EA",
"% 	c #B7BAAF",
"& 	c #626C5D",
"* 	c #1D2E1C",
"= 	c #001300",
"- 	c #F5F3EA",
"; 	c #31402F",
"> 	c #54612F",
", 	c #939C59",
"' 	c #B7BD74",
") 	c #BBC178",
"! 	c #F4F1E9",
"~ 	c #626D5E",
"{ 	c #51602B",
"] 	c #B3BA6D",
"^ 	c #B7BE6F",
"/ 	c #F3F1E7",
"( 	c #1E331C",
"_ 	c #899348",
": 	c #B0B762",
"< 	c #F3F0E7",
"[ 	c #041D00",
"} 	c #A3AB4F",
"| 	c #A8B052",
"1 	c #A6AE4E",
"2 	c #F5F6EC",
"3 	c #FFFFFF",
"4 	c #EFECE1",
"5 	c #092200",
"6 	c #A0A942",
"7 	c #99A234",
"8 	c #EAE6DA",
"9 	c #0C2500",
"0 	c #9BA438",
"a 	c #919B23",
"b 	c #E4E6CC",
"c 	c #6C7A00",
"d 	c #717D00",
"e 	c #E7E4D8",
"f 	c #112A00",
"g 	c #959F2D",
"h 	c #8B9619",
"i 	c #E5E7CC",
"j 	c #818D05",
"k 	c #899415",
"l 	c #E5E1D5",
"m 	c #162F00",
"n 	c #889210",
"o 	c #E1DDD0",
"p 	c #1D3600",
"q 	c #8D971B",
"r 	c #838E08",
"s 	c #DBD7CB",
"t 	c #223B00",
"u 	c #8A9516",
"v 	c #808C02",
"w 	c #E3E6CC",
"x 	c #D9D5C9",
"y 	c #274000",
"z 	c #D9D4C9",
"A 	c #2A4300",
"B 	c #879316",
"C 	c #8B9617",
"D 	c #818D03",
"E 	c #D7DBB7",
"F 	c #E4E7CC",
"G 	c #E6E8CD",
"H 	c #D7D2C7",
"I 	c #455A1A",
"J 	c #778616",
"K 	c #939E1F",
"L 	c #8D9812",
"M 	c #7F8C00",
"N 	c #7C8900",
"O 	c #7E8B00",
"P 	c #D5D0C4",
"Q 	c #798757",
"R 	c #5B6E0F",
"S 	c #99A527",
"T 	c #9AA625",
"U 	c #96A21C",
"V 	c #94A016",
"W 	c #D6D1C4",
"X 	c #B5B89D",
"Y 	c #5A6D2C",
"Z 	c #607412",
"` 	c #869523",
" .	c #A1AC2F",
"..	c #A5B031",
"+.	c #D4CFC3",
"@.	c #D8D3C9",
"#.	c #B7BBA0",
"$.	c #7F8C57",
"%.	c #4F651A",
"&.	c #3B5400",
"*.	c #D3CFC2",
"=.	c #D7D3C8",
"-.	c #DDDAD0",
";.	c #E2DFD7",
">.	c #E4E2DA",
",.	c #CECBC0",
"'.	c #BBB8A4",
").	c #B7B5AF",
"!.	c #62605D",
"~.	c #1D1D1C",
"{.	c #000000",
"].	c #B7B6AF",
"^.	c #31302F",
"/.	c #333A1B",
"(.	c #5C6A34",
"_.	c #768645",
":.	c #7B8B48",
"<.	c #62615E",
"[.	c #313818",
"}.	c #738440",
"|.	c #768741",
"1.	c #1E1D1C",
"2.	c #536128",
"3.	c #6F8137",
"4.	c #63752A",
"5.	c #677A2C",
"6.	c #637727",
"7.	c #EEF0E8",
"8.	c #000100",
"9.	c #5E7220",
"0.	c #52670F",
"a.	c #000600",
"b.	c #596E18",
"c.	c #485F00",
"d.	c #D2D8CC",
"e.	c #0C2A00",
"f.	c #133000",
"g.	c #000B00",
"h.	c #536911",
"i.	c #435B00",
"j.	c #D4DACC",
"k.	c #324C00",
"l.	c #3F5800",
"m.	c #001100",
"n.	c #4E640A",
"o.	c #3F5700",
"p.	c #D5DACC",
"q.	c #001800",
"r.	c #4A6004",
"s.	c #3B5200",
"t.	c #D4D9CC",
"u.	c #011E00",
"v.	c #475E00",
"w.	c #375000",
"x.	c #D3D9CC",
"y.	c #072400",
"z.	c #0B2800",
"A.	c #455C00",
"B.	c #C0C8B7",
"C.	c #D7DCCC",
"D.	c #2A441A",
"E.	c #4B6300",
"F.	c #415A00",
"G.	c #2A4700",
"H.	c #244200",
"I.	c #294500",
"J.	c #687757",
"K.	c #2C4700",
"L.	c #4F6700",
"M.	c #4E6700",
"N.	c #476000",
"O.	c #425C00",
"P.	c #AEB29D",
"Q.	c #43582C",
"R.	c #314B00",
"S.	c #455E00",
"T.	c #546B00",
"U.	c #566D00",
"V.	c #B0B5A0",
"W.	c #6E7E57",
"X.	c #354F1A",
"Y.	c #1E3B00",
". . . . . . . . . . . . . . . . . . . . . . ",
"+ + + + + + + + + + + + + + + + + + + + + + ",
"@ @ @ @ @ @ @ @ @ @ @ @ @ @ @ @ @ @ @ @ @ @ ",
"# # # # # # # # # # # # # # # # # # # # # # ",
"$ $ % & * = = = = = = = = = = = * & % $ $ $ ",
"- % ; > , ' ) ) ) ) ) ) ) ) ) ' , > ; % - - ",
"! ~ { ] ^ ^ ^ ^ ^ ^ ^ ^ ^ ^ ^ ^ ^ ] { ~ ! ! ",
"/ ( _ : : : : : : : : : : : : : : : _ ( / / ",
"< [ } | 1 2 3 3 3 3 3 3 3 3 3 2 1 | } [ < < ",
"4 5 6 6 7 3 3 3 3 3 3 3 3 3 3 3 7 6 6 5 4 4 ",
"8 9 0 0 a b c d d d d d d d c b a 0 0 9 8 8 ",
"e f g g h i j k k k k k k k j i h g g f e e ",
"l m a a n i n a a a a a a a n i n a a m l l ",
"o p q q r b r q q q q q q q r b r q q p o o ",
"s t u u v w v u u u u u u u v w v u u t s s ",
"x y u u v w v u u u u u u u v w v u u y x x ",
"z A B C D E F G G G G G G G F E D C B A z z ",
"H I J K L M N O O O O O O O N M L K J I H H ",
"P Q R S T U V V V V V V V V V U T S R Q P P ",
"W X Y Z `  ................... .` Z Y X W W ",
"+.@.#.$.%.&.&.&.&.&.&.&.&.&.&.&.%.$.#.@.+.+.",
"*.*.=.-.;.>.>.>.>.>.>.>.>.>.>.>.;.-.=.*.*.*.",
",.,.,.,.,.,.,.,.,.,.,.,.,.,.,.,.,.,.,.,.,.,.",
"'.'.'.'.'.'.'.'.'.'.'.'.'.'.'.'.'.'.'.'.'.'.",
". . . . . . . . . . . . . . . . . . . . . . ",
"+ + + + + + + + + + + + + + + + + + + + + + ",
"@ @ @ @ @ @ @ @ @ @ @ @ @ @ @ @ @ @ @ @ @ @ ",
"# # # # # # # # # # # # # # # # # # # # # # ",
"$ $ ).!.~.{.{.{.{.{.{.{.{.{.{.{.~.!.).$ $ $ ",
"- ].^./.(._.:.:.:.:.:.:.:.:.:._.(./.^.].- - ",
"! <.[.}.|.|.|.|.|.|.|.|.|.|.|.|.|.}.[.<.! ! ",
"/ 1.2.3.3.3.3.3.3.3.3.3.3.3.3.3.3.3.2.1./ / ",
"< {.4.5.6.7.3 3 3 3 3 3 3 3 3 7.6.5.4.{.< < ",
"4 8.9.9.0.3 3 3 3 3 3 3 3 3 3 3 0.9.9.8.4 4 ",
"8 a.b.b.c.d.e.f.f.f.f.f.f.f.e.d.c.b.b.a.8 8 ",
"e g.h.h.i.j.k.l.l.l.l.l.l.l.k.j.i.h.h.g.e e ",
"l m.n.n.o.p.o.n.n.n.n.n.n.n.o.p.o.n.n.m.l l ",
"o q.r.r.s.t.s.r.r.r.r.r.r.r.s.t.s.r.r.q.o o ",
"s u.v.v.w.x.w.v.v.v.v.v.v.v.w.x.w.v.v.u.s s ",
"x y.v.v.w.x.w.v.v.v.v.v.v.v.w.x.w.v.v.y.x x ",
"z z.A.v.w.B.j.C.C.C.C.C.C.C.j.B.w.v.A.z.z z ",
"H D.&.E.F.G.H.I.I.I.I.I.I.I.H.G.F.E.&.D.H H ",
"P J.K.L.M.N.O.O.O.O.O.O.O.O.O.N.M.L.K.J.P P ",
"W P.Q.R.S.T.U.U.U.U.U.U.U.U.U.T.S.R.Q.P.W W ",
"+.@.V.W.X.Y.Y.Y.Y.Y.Y.Y.Y.Y.Y.Y.X.W.V.@.+.+.",
"*.*.=.-.;.>.>.>.>.>.>.>.>.>.>.>.;.-.=.*.*.*.",
",.,.,.,.,.,.,.,.,.,.,.,.,.,.,.,.,.,.,.,.,.,.",
"'.'.'.'.'.'.'.'.'.'.'.'.'.'.'.'.'.'.'.'.'.'."};
