/* XPM */
static char * minimizeO_xpm[] = {
"22 48 157 2",
"  	c None",
". 	c #9B9882",
"+ 	c #F5F2E6",
"@ 	c #FBF9F5",
"# 	c #F5F4EA",
"$ 	c #F5F2EA",
"% 	c #D3B5AF",
"& 	c #A4605D",
"* 	c #7E1D1C",
"= 	c #6E0000",
"- 	c #F5F3EA",
"; 	c #D3B6AF",
"> 	c #88302F",
", 	c #A54E30",
"' 	c #CC885A",
") 	c #E2AA75",
"! 	c #E5AF79",
"~ 	c #F4F1E9",
"{ 	c #A5615E",
"] 	c #A54B2C",
"^ 	c #E1A76D",
"/ 	c #E3AA70",
"( 	c #F3F1E7",
"_ 	c #831D1C",
": 	c #C87C49",
"< 	c #E0A263",
"[ 	c #F3F0E7",
"} 	c #780400",
"| 	c #DA9450",
"1 	c #DD9852",
"2 	c #EFECE1",
"3 	c #7D0900",
"4 	c #DA8F43",
"5 	c #EAE6DA",
"6 	c #810C00",
"7 	c #D98938",
"8 	c #E7E4D8",
"9 	c #861100",
"0 	c #D6832E",
"a 	c #E5E1D5",
"b 	c #8B1600",
"c 	c #D47D24",
"d 	c #E1DDD0",
"e 	c #911D00",
"f 	c #D3781C",
"g 	c #DBD7CB",
"h 	c #962200",
"i 	c #D27517",
"j 	c #D9D5C9",
"k 	c #9B2700",
"l 	c #D17212",
"m 	c #F5E2CD",
"n 	c #FFFFFF",
"o 	c #D9D4C9",
"p 	c #9F2A00",
"q 	c #D17317",
"r 	c #D37618",
"s 	c #D06D0A",
"t 	c #F4DDCC",
"u 	c #D7D2C7",
"v 	c #AC451A",
"w 	c #CC6817",
"x 	c #DB7E20",
"y 	c #D97612",
"z 	c #D25F00",
"A 	c #CD4A00",
"B 	c #CC4700",
"C 	c #D5D0C4",
"D 	c #BF7857",
"E 	c #BE530F",
"F 	c #E28528",
"G 	c #E48729",
"H 	c #E38525",
"I 	c #E27F1B",
"J 	c #E17B13",
"K 	c #E17911",
"L 	c #D6D1C4",
"M 	c #D2B29D",
"N 	c #B7592C",
"O 	c #C45913",
"P 	c #DB7724",
"Q 	c #EA8D30",
"R 	c #ED9032",
"S 	c #D4CFC3",
"T 	c #D8D3C9",
"U 	c #D4B5A0",
"V 	c #C47E57",
"W 	c #B54F1A",
"X 	c #AF3B00",
"Y 	c #D3CFC2",
"Z 	c #D7D3C8",
"` 	c #DDDAD0",
" .	c #E2DFD7",
"..	c #E4E2DA",
"+.	c #CECBC0",
"@.	c #BBB8A4",
"#.	c #CDB5AF",
"$.	c #97605D",
"%.	c #6B1D1C",
"&.	c #590000",
"*.	c #CDB6AF",
"=.	c #78302F",
"-.	c #89331B",
";.	c #AF5C34",
">.	c #C57645",
",.	c #C97B48",
"'.	c #99615E",
").	c #893118",
"!.	c #C57340",
"~.	c #C77641",
"{.	c #721D1C",
"].	c #AC5328",
"^.	c #C46F37",
"/.	c #640000",
"(.	c #BE632A",
"_.	c #C1672C",
":.	c #6A0000",
"<.	c #BE5E20",
"[.	c #BB5918",
"}.	c #740000",
"|.	c #B95311",
"1.	c #7A0000",
"2.	c #B74E0A",
"3.	c #810000",
"4.	c #B54A04",
"5.	c #870100",
"6.	c #B44700",
"7.	c #8C0700",
"8.	c #B24300",
"9.	c #EFD8CC",
"0.	c #910B00",
"a.	c #B34500",
"b.	c #ECD1CC",
"c.	c #9F2A1A",
"d.	c #B84B00",
"e.	c #B44000",
"f.	c #A71F00",
"g.	c #9C0300",
"h.	c #9A0000",
"i.	c #B86657",
"j.	c #A82C00",
"k.	c #BD4F00",
"l.	c #BE5100",
"m.	c #BD4E00",
"n.	c #BA4500",
"o.	c #B73F00",
"p.	c #B73D00",
"q.	c #CFAB9D",
"r.	c #AD422C",
"s.	c #AD3100",
"t.	c #B94500",
"u.	c #C25400",
"v.	c #C35600",
"w.	c #D2ADA0",
"x.	c #BD6C57",
"y.	c #AB351A",
"z.	c #A31E00",
". . . . . . . . . . . . . . . . . . . . . . ",
"+ + + + + + + + + + + + + + + + + + + + + + ",
"@ @ @ @ @ @ @ @ @ @ @ @ @ @ @ @ @ @ @ @ @ @ ",
"# # # # # # # # # # # # # # # # # # # # # # ",
"$ $ % & * = = = = = = = = = = = * & % $ $ $ ",
"- ; > , ' ) ! ! ! ! ! ! ! ! ! ) ' , > ; - - ",
"~ { ] ^ / / / / / / / / / / / / / ^ ] { ~ ~ ",
"( _ : < < < < < < < < < < < < < < < : _ ( ( ",
"[ } | 1 1 1 1 1 1 1 1 1 1 1 1 1 1 1 | } [ [ ",
"2 3 4 4 4 4 4 4 4 4 4 4 4 4 4 4 4 4 4 3 2 2 ",
"5 6 7 7 7 7 7 7 7 7 7 7 7 7 7 7 7 7 7 6 5 5 ",
"8 9 0 0 0 0 0 0 0 0 0 0 0 0 0 0 0 0 0 9 8 8 ",
"a b c c c c c c c c c c c c c c c c c b a a ",
"d e f f f f f f f f f f f f f f f f f e d d ",
"g h i i i i i i i i i i i i i i i i i h g g ",
"j k i i i l m n n n n n n n m l i i i k j j ",
"o p q r r s t n n n n n n n t s r r q p o o ",
"u v w x x y z A B B B B B A z y x x w v u u ",
"C D E F G H I J K K K K K J I H G F E D C C ",
"L M N O P Q R R R R R R R R R Q P O N M L L ",
"S T U V W X X X X X X X X X X X W V U T S S ",
"Y Y Z `  ....................... .` Z Y Y Y ",
"+.+.+.+.+.+.+.+.+.+.+.+.+.+.+.+.+.+.+.+.+.+.",
"@.@.@.@.@.@.@.@.@.@.@.@.@.@.@.@.@.@.@.@.@.@.",
". . . . . . . . . . . . . . . . . . . . . . ",
"+ + + + + + + + + + + + + + + + + + + + + + ",
"@ @ @ @ @ @ @ @ @ @ @ @ @ @ @ @ @ @ @ @ @ @ ",
"# # # # # # # # # # # # # # # # # # # # # # ",
"$ $ #.$.%.&.&.&.&.&.&.&.&.&.&.&.%.$.#.$ $ $ ",
"- *.=.-.;.>.,.,.,.,.,.,.,.,.,.>.;.-.=.*.- - ",
"~ '.).!.~.~.~.~.~.~.~.~.~.~.~.~.~.!.).'.~ ~ ",
"( {.].^.^.^.^.^.^.^.^.^.^.^.^.^.^.^.].{.( ( ",
"[ /.(._._._._._._._._._._._._._._._.(./.[ [ ",
"2 :.<.<.<.<.<.<.<.<.<.<.<.<.<.<.<.<.<.:.2 2 ",
"5 = [.[.[.[.[.[.[.[.[.[.[.[.[.[.[.[.[.= 5 5 ",
"8 }.|.|.|.|.|.|.|.|.|.|.|.|.|.|.|.|.|.}.8 8 ",
"a 1.2.2.2.2.2.2.2.2.2.2.2.2.2.2.2.2.2.1.a a ",
"d 3.4.4.4.4.4.4.4.4.4.4.4.4.4.4.4.4.4.3.d d ",
"g 5.6.6.6.6.6.6.6.6.6.6.6.6.6.6.6.6.6.5.g g ",
"j 7.6.6.6.8.9.n n n n n n n 9.8.6.6.6.7.j j ",
"o 0.a.6.6.X b.n n n n n n n b.X 6.6.a.0.o o ",
"u c.X d.d.e.f.g.h.h.h.h.h.g.f.e.d.d.X c.u u ",
"C i.j.k.l.m.n.o.p.p.p.p.p.o.n.m.l.k.j.i.C C ",
"L q.r.s.t.u.v.v.v.v.v.v.v.v.v.u.t.s.r.q.L L ",
"S T w.x.y.z.z.z.z.z.z.z.z.z.z.z.y.x.w.T S S ",
"Y Y Z `  ....................... .` Z Y Y Y ",
"+.+.+.+.+.+.+.+.+.+.+.+.+.+.+.+.+.+.+.+.+.+.",
"@.@.@.@.@.@.@.@.@.@.@.@.@.@.@.@.@.@.@.@.@.@."};
