/* XPM */
static char * minimizeI_xpm[] = {
"22 48 57 1",
" 	c None",
".	c #9B9882",
"+	c #F5F2E6",
"@	c #FBF9F5",
"#	c #F5F4EA",
"$	c #F5F2EA",
"%	c #D9D8D5",
"&	c #B3B5B8",
"*	c #9599A1",
"=	c #888D97",
"-	c #F5F3EA",
";	c #D9D9D5",
">	c #9DA1A7",
",	c #ADB0B8",
"'	c #F4F1E9",
")	c #B2B3B6",
"!	c #AAAEB5",
"~	c #F3F1E7",
"{	c #91959D",
"]	c #F3F0E7",
"^	c #818690",
"/	c #EFECE1",
"(	c #7F848E",
"_	c #EAE6DA",
":	c #7C818B",
"<	c #E7E4D8",
"[	c #787D87",
"}	c #E5E1D5",
"|	c #757A84",
"1	c #E1DDD0",
"2	c #727781",
"3	c #DBD7CB",
"4	c #6E737D",
"5	c #D9D5C9",
"6	c #6B707A",
"7	c #73767D",
"8	c #62666C",
"9	c #D9D4C9",
"0	c #686D77",
"a	c #72757D",
"b	c #D7D2C7",
"c	c #72767E",
"d	c #D5D0C4",
"e	c #909192",
"f	c #848992",
"g	c #D6D1C4",
"h	c #B8B6AE",
"i	c #787B80",
"j	c #848892",
"k	c #D4CFC3",
"l	c #B6B4AD",
"m	c #8D8E90",
"n	c #6D7178",
"o	c #5F646E",
"p	c #D3CFC2",
"q	c #CECBC0",
"r	c #BBB8A4",
"......................",
"++++++++++++++++++++++",
"@@@@@@@@@@@@@@@@@@@@@@",
"######################",
"$$%&*===========*&%$$$",
"-;>,-------------,>;--",
"')!'''''''''''''''!)''",
"~{~~~~~~~~~~~~~~~~~{~~",
"]^]]]]]]]]]]]]]]]]]^]]",
"/(/////////////////(//",
"_:_________________:__",
"<[<<<<<<<<<<<<<<<<<[<<",
"}|}}}}}}}}}}}}}}}}}|}}",
"1211111111111111111211",
"3433333333333333333433",
"5655557888888875555655",
"909999a8888888a9999099",
"bcbbbbbbbbbbbbbbbbbcbb",
"defdddddddddddddddfedd",
"ghijgggggggggggggjihgg",
"kklmnooooooooooonmlkkk",
"pppppppppppppppppppppp",
"qqqqqqqqqqqqqqqqqqqqqq",
"rrrrrrrrrrrrrrrrrrrrrr",
"                      ",
"                      ",
"                      ",
"                      ",
"                      ",
"                      ",
"                      ",
"                      ",
"                      ",
"                      ",
"                      ",
"                      ",
"                      ",
"                      ",
"                      ",
"                      ",
"                      ",
"                      ",
"                      ",
"                      ",
"                      ",
"                      ",
"                      ",
"                      "};
