/* XPM */
static char * restoreI_xpm[] = {
"22 48 69 1",
" 	c None",
".	c #9B9882",
"+	c #F5F2E6",
"@	c #FBF9F5",
"#	c #F5F4EA",
"$	c #F5F2EA",
"%	c #D9D8D5",
"&	c #B3B5B8",
"*	c #9599A1",
"=	c #888D97",
"-	c #F5F3EA",
";	c #D9D9D5",
">	c #9DA1A7",
",	c #ADB0B8",
"'	c #F4F1E9",
")	c #B2B3B6",
"!	c #AAAEB5",
"~	c #F3F1E7",
"{	c #91959D",
"]	c #F3F0E7",
"^	c #818690",
"/	c #72747A",
"(	c #686B71",
"_	c #EFECE1",
":	c #7F848E",
"<	c #66696F",
"[	c #EAE6DA",
"}	c #7C818B",
"|	c #777A81",
"1	c #E7E4D8",
"2	c #787D87",
"3	c #76797F",
"4	c #64686E",
"5	c #6D7177",
"6	c #E5E1D5",
"7	c #757A84",
"8	c #74787E",
"9	c #64676D",
"0	c #E1DDD0",
"a	c #727781",
"b	c #797D84",
"c	c #73777E",
"d	c #73767D",
"e	c #DBD7CB",
"f	c #6E737D",
"g	c #909192",
"h	c #72757D",
"i	c #D9D5C9",
"j	c #6B707A",
"k	c #72767D",
"l	c #D9D4C9",
"m	c #686D77",
"n	c #797C83",
"o	c #D7D2C7",
"p	c #72767E",
"q	c #D5D0C4",
"r	c #848992",
"s	c #D6D1C4",
"t	c #B8B6AE",
"u	c #787B80",
"v	c #848892",
"w	c #D4CFC3",
"x	c #B6B4AD",
"y	c #8D8E90",
"z	c #6D7178",
"A	c #5F646E",
"B	c #D3CFC2",
"C	c #CECBC0",
"D	c #BBB8A4",
"......................",
"++++++++++++++++++++++",
"@@@@@@@@@@@@@@@@@@@@@@",
"######################",
"$$%&*===========*&%$$$",
"-;>,-------------,>;--",
"')!'''''''''''''''!)''",
"~{~~~~~~~~~~~~~~~~~{~~",
"]^]]]/((((((/]]]]]]^]]",
"_:___<<<<<<<<______:__",
"[}[[[|[[[[[[|[[[[[[}[[",
"1211131111113445111211",
"6766686666668449666766",
"0a000bccccccb00d000a00",
"efeeeeeegeeeeeeheeefee",
"ijiiiiiidiiiiiikiiijii",
"lmllllllbddddddnlllmll",
"opooooooooooooooooopoo",
"qgrqqqqqqqqqqqqqqqrgqq",
"stuvsssssssssssssvutss",
"wwxyzAAAAAAAAAAAzyxwww",
"BBBBBBBBBBBBBBBBBBBBBB",
"CCCCCCCCCCCCCCCCCCCCCC",
"DDDDDDDDDDDDDDDDDDDDDD",
"                      ",
"                      ",
"                      ",
"                      ",
"                      ",
"                      ",
"                      ",
"                      ",
"                      ",
"                      ",
"                      ",
"                      ",
"                      ",
"                      ",
"                      ",
"                      ",
"                      ",
"                      ",
"                      ",
"                      ",
"                      ",
"                      ",
"                      ",
"                      "};
