/* XPM */
static char * collapse_xpm[] = {
"11 11 2 1",
" 	c None",
".	c #F0F0F0",
"           ",
"           ",
"  .   .    ",
"  ..  ..   ",
"   ..  ..  ",
"    ..  .. ",
"    ..  .. ",
"   ..  ..  ",
"  ..  ..   ",
"  .   .    ",
"           "};
