/* XPM */
static char * taskbuttonminimized_xpm[] = {
"220 28 328 2",
"  	c #F5F2E6",
". 	c #FBF9F5",
"+ 	c #F5F4EA",
"@ 	c #F5F2EA",
"# 	c #C7C6C5",
"$ 	c #C6C6C4",
"% 	c #F5F3EA",
"& 	c #CBCAC8",
"* 	c #ECE9E1",
"= 	c #EFEEE5",
"- 	c #F0F0E7",
"; 	c #F0EFE6",
"> 	c #EDEBE3",
", 	c #ECE8E0",
"' 	c #EDEBE2",
") 	c #EAE7E0",
"! 	c #E8E6DE",
"~ 	c #E8E5D9",
"{ 	c #E8E5D7",
"] 	c #E8E6DF",
"^ 	c #BBBBBB",
"/ 	c #C9C9C6",
"( 	c #CDCCC9",
"_ 	c #EAE8E0",
": 	c #E9E7DF",
"< 	c #ECE8E1",
"[ 	c #ECEAE2",
"} 	c #EEECE4",
"| 	c #B9B9B9",
"1 	c #F4F1E9",
"2 	c #BABABA",
"3 	c #E8E6E0",
"4 	c #E8E5D8",
"5 	c #E8E6DD",
"6 	c #E8E6DC",
"7 	c #E8E6DB",
"8 	c #E8E5DB",
"9 	c #E8E5DA",
"0 	c #E8E5D6",
"a 	c #F3F1E7",
"b 	c #F3F0E7",
"c 	c #E5E1D7",
"d 	c #E7E3D7",
"e 	c #E7E4D7",
"f 	c #EFECE1",
"g 	c #DFDCCE",
"h 	c #DFDCCD",
"i 	c #DEDCCD",
"j 	c #DEDBCD",
"k 	c #E0DCCF",
"l 	c #E0DDD0",
"m 	c #E1DDD0",
"n 	c #E1DED1",
"o 	c #E2DED2",
"p 	c #E2DFD3",
"q 	c #E3DFD4",
"r 	c #E3E0D5",
"s 	c #E4E0D5",
"t 	c #E4E0D6",
"u 	c #E6E1D8",
"v 	c #E5E1D8",
"w 	c #EAE6DA",
"x 	c #DEDACC",
"y 	c #DDDACC",
"z 	c #E7E4D8",
"A 	c #DDD7C5",
"B 	c #DED7C5",
"C 	c #DAD6C5",
"D 	c #D7D4C6",
"E 	c #D6D3C5",
"F 	c #D8D5C7",
"G 	c #D9D6C8",
"H 	c #DAD7C9",
"I 	c #DBD8CA",
"J 	c #DCD9CB",
"K 	c #DBD7C9",
"L 	c #DBD7C8",
"M 	c #DCD8CA",
"N 	c #E5E1D5",
"O 	c #D6D4C6",
"P 	c #D9D4C4",
"Q 	c #D9D3C4",
"R 	c #D8D3C3",
"S 	c #D8D4C5",
"T 	c #DAD5C6",
"U 	c #D9D4C5",
"V 	c #DAD4C5",
"W 	c #DCD6C5",
"X 	c #DED8C6",
"Y 	c #DED9C6",
"Z 	c #DFD9C6",
"` 	c #DFD9C7",
" .	c #DFDAC7",
"..	c #DFDBC8",
"+.	c #B8B8B8",
"@.	c #D7D3C5",
"#.	c #D6D2C5",
"$.	c #D6D2C4",
"%.	c #D6D1C4",
"&.	c #D5D1C4",
"*.	c #D5D0C3",
"=.	c #D5CFC2",
"-.	c #D5CFC3",
";.	c #D6D0C3",
">.	c #D6D1C3",
",.	c #DBD7CB",
"'.	c #D5D1C3",
").	c #B6B6B6",
"!.	c #D9D5C9",
"~.	c #D6D3C4",
"{.	c #D7D4C5",
"].	c #B5B5B5",
"^.	c #D9D4C9",
"/.	c #D9D5C6",
"(.	c #D8D5C6",
"_.	c #D7D2C5",
":.	c #D8D4C6",
"<.	c #DBD6C5",
"[.	c #DCD7C5",
"}.	c #D5D0C2",
"|.	c #D4CFC1",
"1.	c #D5CFC1",
"2.	c #B4B4B4",
"3.	c #D7D2C7",
"4.	c #B3B3B3",
"5.	c #D7D5C7",
"6.	c #DAD5C7",
"7.	c #D9D5C7",
"8.	c #D9D4C6",
"9.	c #D9D5C5",
"0.	c #DAD6C7",
"a.	c #D7D3C4",
"b.	c #D7D3C3",
"c.	c #D6D2C2",
"d.	c #D5D1C2",
"e.	c #D6D2C3",
"f.	c #D4D0C1",
"g.	c #D4D0C2",
"h.	c #D4D0C3",
"i.	c #D2CEC1",
"j.	c #D2CEC0",
"k.	c #D2CEBF",
"l.	c #D3CEBF",
"m.	c #D3CEBE",
"n.	c #D5CFBE",
"o.	c #D5CFBD",
"p.	c #D4CEBD",
"q.	c #D4CFBD",
"r.	c #D4CEBC",
"s.	c #D4CFBE",
"t.	c #D5D0BF",
"u.	c #D6CFBE",
"v.	c #D2CDBF",
"w.	c #D1CDBF",
"x.	c #D1CEC0",
"y.	c #D0CDBF",
"z.	c #D0CCBE",
"A.	c #D6D1C6",
"B.	c #B2B2B2",
"C.	c #D5D2C3",
"D.	c #D7D2C2",
"E.	c #D6D1C2",
"F.	c #D5D0C1",
"G.	c #D3CFBF",
"H.	c #D1CEBF",
"I.	c #D1CEC1",
"J.	c #D1CCBE",
"K.	c #D3CFC2",
"L.	c #D3CFC1",
"M.	c #D2CDC0",
"N.	c #D2CFBF",
"O.	c #D2CEBE",
"P.	c #D2CEBD",
"Q.	c #D2CDBD",
"R.	c #D1CCBD",
"S.	c #D1CDBD",
"T.	c #D1CDBE",
"U.	c #D0CCBC",
"V.	c #D0CBBC",
"W.	c #D0CBBD",
"X.	c #D0CCBF",
"Y.	c #D1CDC0",
"Z.	c #D0CCBD",
"`.	c #CFCBBB",
" +	c #D1CDBC",
".+	c #D0CCBB",
"++	c #D1CCBB",
"@+	c #D1CCBC",
"#+	c #D0CDBD",
"$+	c #CFCDBD",
"%+	c #CFCCBD",
"&+	c #CECCBD",
"*+	c #CFCCBE",
"=+	c #D5D0C4",
"-+	c #B3B2B2",
";+	c #D5D0BE",
">+	c #D6D0C0",
",+	c #D5D1C1",
"'+	c #D4CFC0",
")+	c #D4CEBE",
"!+	c #D0CBBA",
"~+	c #CFCABA",
"{+	c #CFCBBA",
"]+	c #CECABA",
"^+	c #CECABB",
"/+	c #CFCABB",
"(+	c #D0CBBB",
"_+	c #CEC9BB",
":+	c #CFCBBD",
"<+	c #CFCBBC",
"[+	c #CFCABC",
"}+	c #CECABC",
"|+	c #CECBBC",
"1+	c #CEC9BA",
"2+	c #CEC9B9",
"3+	c #CFCCBC",
"4+	c #CECBBB",
"5+	c #CDCBBC",
"6+	c #CCCABB",
"7+	c #B2B2B1",
"8+	c #CFC9B8",
"9+	c #D2CDBC",
"0+	c #D0CABB",
"a+	c #D1CBBB",
"b+	c #D1CBBA",
"c+	c #D0C9B9",
"d+	c #D0CABA",
"e+	c #CFCAB9",
"f+	c #CFCCBB",
"g+	c #CEC8BA",
"h+	c #CEC7B7",
"i+	c #CEC8B9",
"j+	c #CEC8B8",
"k+	c #CEC8B7",
"l+	c #CEC7B6",
"m+	c #CEC7B8",
"n+	c #CCC7B7",
"o+	c #CCC8B9",
"p+	c #CBC7B8",
"q+	c #CBC8B9",
"r+	c #CAC7B8",
"s+	c #CAC6B7",
"t+	c #C9C5B6",
"u+	c #CAC8B9",
"v+	c #CBC9BA",
"w+	c #CBC8BA",
"x+	c #CCC9BB",
"y+	c #CCC9BA",
"z+	c #CBC7B7",
"A+	c #CCC6B5",
"B+	c #CDC6B6",
"C+	c #CDC7B6",
"D+	c #AFAFAF",
"E+	c #D2CDBE",
"F+	c #D2CEBC",
"G+	c #D2CCBC",
"H+	c #D3CEBD",
"I+	c #D2CFC0",
"J+	c #D1CBBD",
"K+	c #CFC9BC",
"L+	c #D0CDBE",
"M+	c #D0C9BC",
"N+	c #D0CABC",
"O+	c #D2CCBD",
"P+	c #D1CBBC",
"Q+	c #CDC8BA",
"R+	c #CCC7B9",
"S+	c #CCC8BA",
"T+	c #CBC7B9",
"U+	c #CAC7B9",
"V+	c #CAC6B8",
"W+	c #CAC6B9",
"X+	c #C9C5B8",
"Y+	c #CBC9B9",
"Z+	c #CCC7BA",
"`+	c #CBC6B8",
" @	c #CAC5B6",
".@	c #CAC5B7",
"+@	c #CAC5B8",
"@@	c #C7C3B7",
"#@	c #D4CFC3",
"$@	c #AEAEAE",
"%@	c #CECABE",
"&@	c #D3CFBE",
"*@	c #CFCBBE",
"=@	c #D1CEBE",
"-@	c #D1CEBD",
";@	c #CDC9BC",
">@	c #CECABD",
",@	c #CFCABD",
"'@	c #D0CBBE",
")@	c #CDC9BA",
"!@	c #CDC9BB",
"~@	c #CDC8BB",
"{@	c #CDC8B9",
"]@	c #CDC7B9",
"^@	c #CCC7B8",
"/@	c #CDC8B8",
"(@	c #CDC7B8",
"_@	c #B3B3B1",
":@	c #C7C3B4",
"<@	c #C8C4B5",
"[@	c #C7C3B5",
"}@	c #C5C0B3",
"|@	c #C4BFB3",
"1@	c #C5C0B4",
"2@	c #C6C1B4",
"3@	c #C6C1B3",
"4@	c #C4BFB2",
"5@	c #C5C0B2",
"6@	c #C5C0B1",
"7@	c #C6C1B2",
"8@	c #C7C0B1",
"9@	c #C7C0B0",
"0@	c #C6BFAF",
"a@	c #C6BFAE",
"b@	c #C6BFAD",
"c@	c #C6BFB0",
"d@	c #C5C0B0",
"e@	c #C5C1B3",
"f@	c #B1B1AE",
"g@	c #A2A1A0",
"h@	c #A3A2A0",
"i@	c #A3A1A0",
"j@	c #A5A3A1",
"k@	c #A3A2A1",
"l@	c #A1A19F",
"m@	c #C2BEB4",
"                                                                                                                                                                                                                                                                                                                                                                                                                                                        ",
". . . . . . . . . . . . . . . . . . . . . . . . . . . . . . . . . . . . . . . . . . . . . . . . . . . . . . . . . . . . . . . . . . . . . . . . . . . . . . . . . . . . . . . . . . . . . . . . . . . . . . . . . . . . . . . . . . . . . . . . . . . . . . . . . . . . . . . . . . . . . . . . . . . . . . . . . . . . . . . . . . . . . . . . . . . . . . . . . . . . . . . . . . . . . . . . . . . . . . . . . . . . . . . . . . . . . . . . . . . . ",
"+ + + + + + + + + + + + + + + + + + + + + + + + + + + + + + + + + + + + + + + + + + + + + + + + + + + + + + + + + + + + + + + + + + + + + + + + + + + + + + + + + + + + + + + + + + + + + + + + + + + + + + + + + + + + + + + + + + + + + + + + + + + + + + + + + + + + + + + + + + + + + + + + + + + + + + + + + + + + + + + + + + + + + + + + + + + + + + + + + + + + + + + + + + + + + + + + + + + + + + + + + + + + + + + + + + + + + + + + + + + + ",
"@ @ # # # # # # # # # # # # # # # # # # # # # # # # # # # # # # # # # # # # # # # # # # # # # # # # # # # # # # # # # # # # # # # # # # # # # # # # # # # # # # # # # # # # # # # # # # # # # # # # # # # # # # # # # # # # # # # # # # # # # # # # # # # # # # # # # # # # # # # # # # # # # # # # # # # # # # # # # # # # # # # # # # # # # # # # # # # # # # # # # # # # # # # # # # # # # # # # # # # # # # # # # # # # # # # # # # # # # $ # @ @ @ ",
"% & * * * * * * * = - ; ; ; ; ; ; ; ; ; > , * , ; ; ; ; ; ; ; ; ; ; ; ; ; ; ; ; ; ; ; ; ; ; ; ; ; ; ; ; ; ' ) ! ~ { ] ] ] ] ] ] ] ] ] ] ] ] ] ] ] ] ] ] ] ] ] ] ] ] ] ] ] ] ] ] ] ] ] ] ] ] ] ] ] ] ] ] ] ] ] ] ] ] ] ] ] ] ] ] ] ] ] ] ] ] ] ] ] ] ] ] ] ] ] ] ] ] ] ] ] ] ] ] ] ] ] ] ] ] ] ] ] ] ] ] ] ] ] ] ] ] ] ] ] ] ] ] ] ] ] ] ] ] ] ] ] ] ] ] ] ] ] ] ] ] ] ] ] ] ] ] ] ] ] ] ] ] ] ] ] ] ] ] ] ] ] ] ] ] ] ] ] ] ] ] ] ] ] ] ] ] ] ] ^ / % % ",
"( ] ] ] ] _ * : ] ] ) * * * * = * = = * * * * * * * * * * * * * * * * * * * * * * * * * * < [ = - ; - } * * * * * * * * * * * * * * * * * * * * * * * * * * * * * * * * * * * * * * * * * * * * * * * * * * * * * * * * * * * * * * * * * * * * * * * * * * * * * * * * * * * * * * * * * * * * * * * * * * * * * * * * * * * * * * * * * * * * * * * * * * * * * * * * * * * * * * * * * * * * * * * * * * * * * * * * * * * * * * * * * * * * * | 1 1 ",
"2 ] ] ] ] ] ] ] ] ] 3 ] 4 ~ ] ] ] ] ] ] ] ] ] ] ] ] ] ] ] ] ] ] ] ] ] ] ] ] ] ] ] ] ] ] ] ] ] ] ] ] ] ] ] ] ] ] ] ] ] ] ] ] ] ] ] ] ] ] ] ] ] ] ] ] ] ] ] ] ] ] ] ] ] ] ] ] ] ] ] ] ] ] ] 3 3 3 3 3 3 ] ] ! ! 5 6 7 8 9 ~ ~ 4 { { 0 0 0 0 0 0 0 { { { { { { { { { { { { { ] ! ! 5 6 7 8 9 ~ ~ 4 { { 0 0 0 0 0 0 0 { { { { { { { { { { ] ! ! 5 6 7 8 9 ~ ~ 4 { { 0 0 0 0 0 0 0 { { { { { { { { { { { { { { { { { { { { { { { { { { { { { { { { { { | a a ",
"2 { { { { { { { { { { { { { { { { { { { { { { { { { { { { { { { { { { { { { { { { { { { { { { { { { { { { { { { { { { { { { { { { { { { { { { { { { { { { { { { { { { { { { { { { { { { { { { { { { { { { { { { { { { { { { { { { { { { { { { { { { { { { { { { { { { { { { { { { { { { { { { { { { { { { { { { { { { { { { { { { { { { { { { { { { { { { { { { { { { { { { { { { { { { { { { { { { { { { { { { { { { { { { { { { { { { { { { { { | b b ",
"| c c c c c c c c c c c c c c c c c c c c c c c c c c c c c c c c c c c c c c c c c c c c c c c c c c c c c c c c c c c c c c c c c c c c c c c c c c c c c c c c c c c c c c c c c c c c c c c c c c c c c c c c c c c c c c c c c c c c c c c c c c c c c c c c c c c c c c c c c c c c c c c c c c c c c c c c c c c c c c c c c c c c c c c c c c c c c c c c c c c c c c c c c c c c c c c c c c c c c c c d e e e { { { { { { { { { { { { { | f f ",
"| g g g g g g g g g g g g g g g g g g g g g g g g g g g g g g g g g g g g g g g g g g g g g g g g g g g g g g g g g g g g g g g g g g g g g g g g g g g g g g g g g g g g g g g g g g g g g g g g g g g g g g g g g g g g g g g g g g g h h i j j j h g g k l m n o p q r g g g g g g g g g g g g g g g g h h i j j j h g g k l m n o g g g g g g g g g g g g g g g g h h i j j j h g g k l m n o p q r s t c c u v c c c c t s t c c c c c c c c | w w ",
"| g g g g g g g g g g g g g g g g g g g g g g g g g g g g g g g g g g g g g g g g g g g g g g g g g g g g g g g g g g g g g g g g g g g g g g g g g g g g g g g g g g g g g g g g g g g g g g g g g g g g g g g g g g g g g g g g g g g g g g g g g g g g g g g g g g g g g g g g g g g g g g g g g g g g g g g g g g g g g g g g g g g g g g g g g g g g g g g g g g g g g g g g g g g g g g g g g g g g g g g g g g g g g x y y j g g g g g g g | z z ",
"| A A A B C D D D D D D D D D D D D D D D D D D D D D D D D D D D D D D D D D D D D D D D D D D D D E E D F F G G H H I I I J J J I I y j j y y j g g g g g g g g g g g g g g g g g g g g g g g g g g g g g g g g g g g g g g g g g g g g g g g g g g g g g g g g g g g g g g g g g g g g g g g g g g g g g g g g g g g g g g g g g g g g g g g g g g g g g g g g g g g g g g g g g g g g g g g g g g g g g g g g g j j x J K L M j g g g g g g g | N N ",
"| D D D D D D D D D D D D D D D D D D D D D D D D D D D D D D D D D D D D D D D D D D D D D D D D D D D D D D D D D D D D D D D D D D D D D D D D D D D D D D D D D D D D D D D D D D D D D D D D D D D D D D D D D D D D D D D D D D D D D D D D D D D D D D D D O O O O D D D D D D D D D D D D D D D D D D D D D D D D D D D D D O D D D D D D D D D D D D D D D D D D D D D D D D D D D D D O O O O O D D D P Q R Q S T U V W X Y Z `  . . ...+.m m ",
"| D D D D D D D D D D D D D D D D D D D D D D D D D D D D D D D D D D D D D D D D D D D D D D D D D D D D D D D D D D D D D D D D D D D D D D D D D D D D D D D D D D D D D D D D D D D D D D D D D D D D D D D D D D D D D D D D D D D D D D D D D D D D D @.E E #.$.%.%.D D D D D D D D D D D D D D D D D D D D D D D D D D @.E E #.D D D D D D D D D D D D D D D D D D D D D D D D D D @.E E #.$.%.%.&.*.*.*.=.=.=.-.;.>.>.*.*.*.*.$.#.E E @.D +.,.,.",
"+.D D D D D D D D D D D D D D D D D D D D D D D D D D D D D D D D D D D D D D D D D D D D D D D D D D D D D D D D D D D D D D D D D D D D D D D D D D D D D D D D D D D D D D D D D D D D D D D D D D D D D D D D D D D D D D D D D D D D D D D D D D D D D @.E #.$.%.%.'.D D D D D D D D D D D D D D D D D D D D D D D D D D @.E #.$.D D D D D D D D D D D D D D D D D D D D D D D D D D @.E #.$.%.%.'.*.*.*.*.$.#.#.E %.&.$.E E D D D D D D D D ).!.!.",
"+.D D D O O O O O O O O O O O O O O O O O O O O O O O O O O O O O O O O O O O O O O O O O O O O O O O D D D E %.%.%.%.%.%.%.%.&.%.%.%.%.%.%.%.%.%.%.%.%.%.%.%.%.%.%.%.%.%.%.%.%.%.%.%.%.%.%.$.$.$.$.$.$.$.$.$.$.$.$.$.$.$.$.$.$.$.$.$.$.$.$.$.$.$.$.$.$.$.$.$.%.%.'.'.'.*.$.$.$.$.$.$.$.$.$.$.$.$.$.$.$.$.$.$.$.$.$.$.$.$.$.$.$.%.%.'.$.$.$.$.$.$.$.$.$.$.$.$.$.$.$.$.$.$.$.$.$.$.$.$.$.$.$.%.%.'.'.'.*.*.*.*.*.'.'.>.%.$.$.$.$.~.E E @.@.@.{.D D ].^.^.",
").D D D /././././././././././././././././././././././././././././././././././././././././././././././.(.D D #.&.&.&.&.&.&.&.&.&.&.&.&.&.&.&.&.&.&.&.&.&.&.&.&.&.&.&.&.&.&.&.&.&.&.&.&.&.&.&.*.*.*.*.*.*.*.*.*.*.*.*.*.*.*.*.*.*.*.*.*.*.*.*.*.*.*.*.*.*.*.*.*.*.*.*.*.*.*.*.*.*.*.*.*.*.*.*.*.*.*.*.*.*.*.*.*.*.*.*.*.*.*.*.*.*.*.*.*.*.*.*.*.*.*.*.*.*.*.*.*.*.*.*.*.*.*.*.*.*.*.*.*.*.*.*.*.*.*.*.*.*.*.*.*.*.*.*.*.*.*.*.*.*.'.%.%.%.$.$.$._.@.].^.^.",
"].D O :.<.B A A A A A A A A A A A A A A A A A A A A [.A W A A A A A A A A A A A A A A A [.W W W W <.<.C U {.{.{.~.~.$.$.E $.E E E E $.$.E E E $.E D D D E E D D D E E D D D E E E ~.@.E E $.$.$.%.&.*.*.*.*.*.*.*.*.*.*.}.|.1.1.}.*.*.*.*.*.*.*.*.*.*.*.*.*.*.*.*.*.*.*.*.*.*.*.*.*.*.*.*.}.|.1.1.}.*.*.*.*.*.*.*.*.*.*.*.*.*.*.*.*.*.*.*.*.*.*.*.*.*.}.|.1.1.}.*.*.*.*.*.*.*.*.*.*.*.*.*.*.*.*.*.*.*.*.*.*.*.*.*.*.*.*.*.*.*.*.*.*.*.*.*.*.*.*.*.2.3.3.",
"4.5.5.F T 6.7.7.7.:.8.:.9.:.S S S S /.0.0.0.0.S 0.0.@.S @./.0.0.0.0.0././.S S /././././.S a.a.a.b.c.c.d.e.f.g.}.f.}.}.d.$.d.'.e.}.f.g.'.'.g.g.'.'.'.g.g.'.'.'.g.g.'.'.'.g.g.h.h.i.j.k.k.k.k.k.k.l.l.l.m.m.n.o.o.p.p.o.o.q.r.q.s.t.u.n.n.s.s.l.l.k.k.v.w.w.w.w.x.w.y.w.w.j.m.n.o.o.p.p.o.o.q.r.q.s.t.u.n.n.s.s.l.l.k.k.v.w.w.w.w.x.w.y.m.n.o.o.p.p.o.o.q.r.q.s.t.u.n.n.s.s.l.l.k.k.v.w.w.w.w.x.w.y.w.w.j.w.w.j.j.w.w.w.w.w.w.w.w.y.z.y.w.w.w.w.w.w.2.A.A.",
"B.c.e.~.a.C.D.E.F.t.t.t.t.G.G.H.G.H.H.k.j.H.i.j.x.I.J.J.w.w.x.x.I.K.L.i.M.y.w.w.j.j.x.H.H.H.N.N.k.O.P.Q.R.S.R.R.R.R.R.R.T.T.T.J.J.U.V.V.W.W.T.w.w.X.Y.Y.w.w.Y.Y.w.w.w.X.W.W.W.W.W.W.W.W.W.W.W.W.W.W.Z.Z.W.Z.Z.U.`.`.`.`. + +.+++++Q.Q.@+S.#+#+$+$+%+&+&+&+&+%+%+*+&+&+%+%+W.Z.Z.U.`.`.`.`. + +.+++++Q.Q.@+S.#+#+$+$+%+&+&+&+&+%+%+*+&+W.Z.Z.U.`.`.`.`. + +.+++++Q.Q.@+S.#+#+$+$+%+&+&+&+&+%+%+*+&+&+%+%+z.&+%+&+&+%+&+%+&+&+&+%+&+&+&+&+&+&+&+&+&+2.=+=+",
"-+;+>+,+F.'+s.s.)+++++!+!+!+!+!+!+!+~+{+{+~+~+~+]+]+~+]+]+]+]+]+]+]+]+]+]+]+]+]+]+]+^+^+]+/+V.(+(+@+@+`.`./+_+_+:+:+<+[+[+[+[+/+:+^+/+/+[+:+:+:+:+:+<+^+^+}+}+*+:+%+|+}+1+1+2+2+2+2+^+/+[+_+<+`.1+^+1+}+}+:+:+^+]+`.<+3+4+<+<+(+V.`.R.Z.*+*+%+*+*+%+%+*+*+*+&+&+&+&+&+&+&+}+:+:+^+]+`.<+3+4+<+<+(+V.`.R.Z.*+*+%+*+*+%+%+*+*+*+&+&+&+&+}+:+:+^+]+`.<+3+4+<+<+(+V.`.R.Z.*+*+%+*+*+%+%+*+*+*+&+&+&+&+&+&+&+&+&+5+6+&+&+&+&+&+&+&+&+5+|+5+*+&+*+*+*+*+4.=+=+",
"7+8+(+9+Q.@+0+a+b+c+c+d+b+e+~+f+~+f+{+<+<+[+g+g+h+h+i+j+j+j+j+h+h+h+h+h+h+h+h+h+h+h+h+h+h+h+h+h+h+h+h+k+j+j+h+h+j+j+j+h+h+j+j+j+h+h+h+h+l+l+l+l+l+l+l+l+l+k+k+k+k+l+k+k+k+h+l+l+l+l+l+l+h+h+h+l+l+l+l+l+l+l+l+h+h+h+l+l+l+l+l+l+l+h+j+j+m+n+o+p+q+r+s+s+t+s+p+u+u+v+v+q+v+l+l+l+h+h+h+l+l+l+l+l+l+l+h+j+j+m+n+o+p+q+r+s+s+t+s+p+u+u+v+l+l+l+h+h+h+l+l+l+l+l+l+l+h+j+j+m+n+o+p+q+r+s+s+t+s+p+u+u+v+v+q+v+q+r+v+r+u+w+x+6+6+u+v+y+u+q+q+o+o+z+A+B+C+4.*.*.",
"D+*+E+Q.F+G+G+G+G+H+p.9+9+Q.H+G.H+G.I+x.z.w.v.J+K+:+R.V.L+Z.M+K+:+W.W.<+<+V.Z.z.z.W.J.z.W.S.Z.R.@+@+@+@+W.:+:+:+:+W.z.T.z.W.W.V.1+_+_+^+<+_+_+_+_+_+_+^+<+}+}+[+[+N+N+0+@+d+(+(+++!+0+U.(+V.R.O+P+a+d+d+d+e+!+~+~+~+e+/+~+/+/+~+{+~+]+1+1+1+Q+R+R+S+o+R+T+o+T+U+r+V+q+q+q+d+e+!+~+~+~+e+/+~+/+/+~+{+~+]+1+1+1+Q+R+R+S+o+R+T+o+T+U+r+V+d+e+!+~+~+~+e+/+~+/+/+~+{+~+]+1+1+1+Q+R+R+S+o+R+T+o+T+U+r+V+q+q+q+q+U+q+W+T+X+X+V+T+q+q+Y+x+Z+`+`+ @.@+@+@@@4.#@#@",
"$@%@J.J.k.E+l.O.O.G.G.&@S.O.O.w.O.w.w.Y.z.*@y.x./+V.x.T.=@S.(+/+V.R.S.-@=@=@=@T.L+H.H.H.k.k.O.G.G.m.E+S.:+;@>@>@*@*@>@*@*@*@*@:+:+W.W.W.W.W.V.V.Z.z.W.<+}+}+>@>@*@,@*@*@*@:+:+:+z.'@'@W.W.Z.Z.Z.U.U.U.U.U.U.`.`.U.U.V.(+/+/+1+1+/+/+)@o+T+T+S+S+S+Z+R+Z+Q+S+!@~@x+y+y+y+y+U.U.`.`.U.U.V.(+/+/+1+1+/+/+)@o+T+T+S+S+S+Z+R+Z+Q+S+!@~@x+y+U.U.`.`.U.U.V.(+/+/+1+1+/+/+)@o+T+T+S+S+S+Z+R+Z+Q+S+!@~@x+y+y+y+y+y+y+y+y+T+S+p+q+q+S+!@)@)@{@]@^@^@/@/@(@.@B.K.K.",
"_@2.:@:@:@:@:@:@:@:@:@<@<@[@}@}@}@}@}@}@}@|@}@}@1@}@}@}@}@2@1@1@}@}@}@}@}@}@}@}@}@}@}@}@}@2@3@}@}@2@|@1@2@}@}@}@}@}@}@}@}@}@}@}@}@}@}@}@}@}@1@1@1@1@2@2@2@4@5@6@7@8@9@0@a@a@b@b@b@b@b@a@a@0@c@d@6@5@5@}@}@}@1@1@1@1@1@}@}@}@}@}@}@}@}@}@}@}@}@}@}@}@}@}@}@}@}@}@}@}@}@}@}@}@}@1@1@1@1@1@}@}@}@}@}@}@}@}@}@}@}@}@}@}@}@}@}@}@}@}@}@}@}@}@}@1@1@1@1@1@}@}@}@}@}@}@}@}@}@}@}@}@}@}@}@}@}@}@}@}@}@}@}@}@}@}@}@}@}@}@}@3@2@e@}@}@}@}@}@}@}@}@}@}@}@}@B.B.K.K.",
"K.f@g@g@g@g@g@g@g@g@g@g@h@i@g@g@g@g@g@g@g@g@g@g@g@g@g@g@g@g@g@g@g@g@g@g@g@g@g@g@g@g@g@g@g@g@g@g@g@g@g@g@g@g@g@g@g@g@g@g@g@g@g@g@g@g@g@g@g@g@g@g@g@g@h@j@h@g@g@g@g@h@g@g@g@g@g@g@g@g@g@g@g@g@g@g@g@g@g@g@g@g@g@g@g@g@g@g@g@g@g@g@g@g@g@g@g@g@g@g@g@g@g@g@g@g@g@g@g@g@g@g@g@g@g@g@g@g@g@g@g@g@g@g@g@g@g@g@g@g@g@g@g@g@g@g@g@g@g@g@g@g@g@g@g@g@g@g@g@g@g@g@g@g@g@g@g@g@g@g@g@g@g@g@g@g@g@g@g@g@g@g@g@g@g@g@g@g@g@g@g@i@k@i@g@g@g@g@g@g@g@g@g@g@g@l@4.K.K.K.",
"K.K.K.K.K.K.K.K.K.K.K.K.K.K.K.K.K.K.K.K.K.K.K.K.K.K.K.K.K.K.K.K.K.K.K.K.K.K.K.K.K.K.K.K.K.K.K.K.K.K.K.K.K.K.K.K.K.K.K.K.K.K.K.K.K.K.K.K.K.K.K.K.K.K.K.K.K.K.K.K.K.K.K.K.K.K.K.K.K.K.K.K.K.K.K.K.K.K.K.K.K.K.K.K.K.K.K.K.K.K.K.K.K.K.K.K.K.K.K.K.K.K.K.K.K.K.K.K.K.K.K.K.K.K.K.K.K.K.K.K.K.K.K.K.K.K.K.K.K.K.K.K.K.K.K.K.K.K.K.K.K.K.K.K.K.K.K.K.K.K.K.K.K.K.K.K.K.K.K.K.K.K.K.K.K.K.K.K.K.K.K.K.K.K.K.K.K.K.K.K.K.K.K.K.K.K.K.K.K.K.K.K.K.K.K.K.K.K.K.K.",
"m@m@m@m@m@m@m@m@m@m@m@m@m@m@m@m@m@m@m@m@m@m@m@m@m@m@m@m@m@m@m@m@m@m@m@m@m@m@m@m@m@m@m@m@m@m@m@m@m@m@m@m@m@m@m@m@m@m@m@m@m@m@m@m@m@m@m@m@m@m@m@m@m@m@m@m@m@m@m@m@m@m@m@m@m@m@m@m@m@m@m@m@m@m@m@m@m@m@m@m@m@m@m@m@m@m@m@m@m@m@m@m@m@m@m@m@m@m@m@m@m@m@m@m@m@m@m@m@m@m@m@m@m@m@m@m@m@m@m@m@m@m@m@m@m@m@m@m@m@m@m@m@m@m@m@m@m@m@m@m@m@m@m@m@m@m@m@m@m@m@m@m@m@m@m@m@m@m@m@m@m@m@m@m@m@m@m@m@m@m@m@m@m@m@m@m@m@m@m@m@m@m@m@m@m@m@m@m@m@m@m@m@m@m@m@m@m@m@m@m@"};
