/* XPM */
static char * taskbuttonbg_xpm[] = {
"220 28 272 2",
"  	c #F5F2E6",
". 	c #FBF9F5",
"+ 	c #F5F2EA",
"@ 	c #C7C6C5",
"# 	c #C6C6C4",
"$ 	c #F5F3EA",
"% 	c #CBCAC8",
"& 	c #F0EFE6",
"* 	c #EFEEE5",
"= 	c #EEEEE5",
"- 	c #EEEEE4",
"; 	c #EFEEE6",
"> 	c #F0EEE5",
", 	c #EFEFE5",
"' 	c #EFEEE4",
") 	c #EFEDE5",
"! 	c #EFEDE4",
"~ 	c #EEEDE4",
"{ 	c #EEEDE3",
"] 	c #EEECE3",
"^ 	c #EEECE4",
"/ 	c #EDECE3",
"( 	c #BBBBBB",
"_ 	c #C9C9C6",
": 	c #CDCCC9",
"< 	c #F0EEE6",
"[ 	c #F0EFE5",
"} 	c #EFEFE6",
"| 	c #EDECE2",
"1 	c #EEECE2",
"2 	c #EEEDE2",
"3 	c #EDEDE3",
"4 	c #EDEBE2",
"5 	c #EDEBE1",
"6 	c #ECECE2",
"7 	c #EDECE1",
"8 	c #ECECE1",
"9 	c #ECEBE1",
"0 	c #ECEBE2",
"a 	c #ECEAE1",
"b 	c #ECEBE0",
"c 	c #B9B9B9",
"d 	c #F4F1E9",
"e 	c #BABABA",
"f 	c #EFEDE3",
"g 	c #EBEBE1",
"h 	c #ECEAE0",
"i 	c #EBEAE1",
"j 	c #EBEBE0",
"k 	c #EBEAE0",
"l 	c #EBE9DF",
"m 	c #EBEADF",
"n 	c #EBE9E0",
"o 	c #EAEAE0",
"p 	c #EAE9DF",
"q 	c #F3F1E7",
"r 	c #EAE9DE",
"s 	c #EBE9DE",
"t 	c #EAE8DF",
"u 	c #EBE8DE",
"v 	c #EAE8DE",
"w 	c #E9E9DE",
"x 	c #E9E9DD",
"y 	c #E9E8DD",
"z 	c #E9E8DE",
"A 	c #EAE8DD",
"B 	c #E9E7DE",
"C 	c #E9E7DD",
"D 	c #EAE7DD",
"E 	c #F3F0E7",
"F 	c #E9E7DC",
"G 	c #E8E7DC",
"H 	c #E9E6DC",
"I 	c #E8E6DB",
"J 	c #E8E7DB",
"K 	c #E8E6DC",
"L 	c #EFECE1",
"M 	c #E7E6DB",
"N 	c #E8E5DB",
"O 	c #E7E5DA",
"P 	c #E7E6DA",
"Q 	c #E8E5DA",
"R 	c #E6E5DA",
"S 	c #E7E5D9",
"T 	c #E7E4DA",
"U 	c #E6E4DA",
"V 	c #EAE6DA",
"W 	c #E8E7DD",
"X 	c #E6E4D9",
"Y 	c #E6E5D9",
"Z 	c #E7E4D9",
"` 	c #E6E4D8",
" .	c #E5E3D8",
"..	c #E5E4D8",
"+.	c #E6E3D8",
"@.	c #E5E3D7",
"#.	c #E6E3D7",
"$.	c #E7E4D8",
"%.	c #E8E6DA",
"&.	c #E7E5DB",
"*.	c #E5E2D8",
"=.	c #E6E3D9",
"-.	c #E5E2D7",
";.	c #E4E2D7",
">.	c #E5E2D6",
",.	c #E4E3D7",
"'.	c #E4E2D6",
").	c #E4E1D6",
"!.	c #E4E2D5",
"~.	c #E3E2D6",
"{.	c #E4E1D5",
"].	c #E3E1D6",
"^.	c #E5E4D9",
"/.	c #E3E1D5",
"(.	c #E2E1D4",
"_.	c #E3E0D5",
":.	c #E3E0D4",
"<.	c #E3E1D4",
"[.	c #E2E1D5",
"}.	c #E2E0D4",
"|.	c #E2E0D5",
"1.	c #E2E0D3",
"2.	c #E5E1D5",
"3.	c #E2DFD3",
"4.	c #E1E0D3",
"5.	c #E1DFD2",
"6.	c #E1DFD3",
"7.	c #E2DFD2",
"8.	c #E1DED3",
"9.	c #E2DED2",
"0.	c #E1DED2",
"a.	c #B8B8B8",
"b.	c #E1DDD0",
"c.	c #E0DED2",
"d.	c #E1DED1",
"e.	c #E0DFD1",
"f.	c #E0DFD2",
"g.	c #E0DED1",
"h.	c #E1DDD1",
"i.	c #E0DDD1",
"j.	c #E0DED0",
"k.	c #E0DDD0",
"l.	c #DFDDD0",
"m.	c #DFDDD1",
"n.	c #DBD7CB",
"o.	c #E0DDCF",
"p.	c #DFDCCF",
"q.	c #DFDCD0",
"r.	c #E0DCD0",
"s.	c #DFDDCF",
"t.	c #DEDCCF",
"u.	c #DEDCCE",
"v.	c #DEDBCF",
"w.	c #DFDBCE",
"x.	c #DFDBCF",
"y.	c #DFDCCE",
"z.	c #DEDBCE",
"A.	c #B6B6B6",
"B.	c #D9D5C9",
"C.	c #DEDBCD",
"D.	c #DDDBCE",
"E.	c #DEDACE",
"F.	c #DDDACD",
"G.	c #DDDBCD",
"H.	c #DEDACD",
"I.	c #DDDACC",
"J.	c #DCDACC",
"K.	c #DCD9CC",
"L.	c #DCD9CD",
"M.	c #B5B5B5",
"N.	c #D9D4C9",
"O.	c #DDD9CC",
"P.	c #DDD9CD",
"Q.	c #DCDACB",
"R.	c #DDD9CB",
"S.	c #DCD9CB",
"T.	c #DCD8CB",
"U.	c #DBD9CB",
"V.	c #DBD8CB",
"W.	c #DBD9CA",
"X.	c #DCD8CA",
"Y.	c #DBD8CA",
"Z.	c #DCD9CA",
"`.	c #DDDACE",
" +	c #DBD7CA",
".+	c #DBD8C9",
"++	c #DBD7C9",
"@+	c #DAD8CA",
"#+	c #DAD7C9",
"$+	c #D9D6C9",
"%+	c #DAD7C8",
"&+	c #B4B4B4",
"*+	c #D7D2C7",
"=+	c #B3B3B3",
"-+	c #DAD6C8",
";+	c #DAD6C9",
">+	c #D9D7C8",
",+	c #D9D6C8",
"'+	c #D9D6C7",
")+	c #D8D5C7",
"!+	c #D9D5C8",
"~+	c #D9D5C7",
"{+	c #D8D6C6",
"]+	c #D9D5C6",
"^+	c #D8D5C6",
"/+	c #D6D1C6",
"(+	c #B2B2B2",
"_+	c #DAD8C9",
":+	c #DAD7CA",
"<+	c #D8D4C6",
"[+	c #D8D6C7",
"}+	c #D9D4C6",
"|+	c #D8D4C7",
"1+	c #D9D4C7",
"2+	c #D8D4C5",
"3+	c #D7D4C5",
"4+	c #D7D4C6",
"5+	c #D7D4C4",
"6+	c #D7D3C5",
"7+	c #D7D3C4",
"8+	c #D5D0C4",
"9+	c #B3B2B2",
"0+	c #D9D7C9",
"a+	c #DAD6C7",
"b+	c #D6D4C5",
"c+	c #D8D3C5",
"d+	c #D6D3C4",
"e+	c #D6D4C4",
"f+	c #D7D2C4",
"g+	c #D6D3C3",
"h+	c #D7D2C3",
"i+	c #D6D2C3",
"j+	c #D6D2C4",
"k+	c #D5D2C3",
"l+	c #B2B2B1",
"m+	c #D6D2C2",
"n+	c #D5D2C2",
"o+	c #D5D1C2",
"p+	c #D5D1C3",
"q+	c #D4D1C2",
"r+	c #D4D1C1",
"s+	c #D5D1C1",
"t+	c #D4D0C1",
"u+	c #D5D0C1",
"v+	c #D5D0C3",
"w+	c #AFAFAF",
"x+	c #D4D0C2",
"y+	c #D4D0C0",
"z+	c #D4D1C0",
"A+	c #D3D0C0",
"B+	c #D4D0BF",
"C+	c #D3CFC0",
"D+	c #D4CFC0",
"E+	c #D3D0BF",
"F+	c #D3CFBF",
"G+	c #D4CFC3",
"H+	c #AEAEAE",
"I+	c #D2CFBF",
"J+	c #D4CFBF",
"K+	c #D3CEBF",
"L+	c #D2CEBF",
"M+	c #D2CEBE",
"N+	c #D3CEBE",
"O+	c #D3CFC2",
"P+	c #B3B3B1",
"Q+	c #B1B1AE",
"R+	c #A2A1A0",
"S+	c #A3A2A0",
"T+	c #A3A1A0",
"U+	c #A3A2A1",
"V+	c #A1A19F",
"W+	c #C2BEB4",
"                                                                                                                                                                                                                                                                                                                                                                                                                                                        ",
". . . . . . . . . . . . . . . . . . . . . . . . . . . . . . . . . . . . . . . . . . . . . . . . . . . . . . . . . . . . . . . . . . . . . . . . . . . . . . . . . . . . . . . . . . . . . . . . . . . . . . . . . . . . . . . . . . . . . . . . . . . . . . . . . . . . . . . . . . . . . . . . . . . . . . . . . . . . . . . . . . . . . . . . . . . . . . . . . . . . . . . . . . . . . . . . . . . . . . . . . . . . . . . . . . . . . . . . . . . . ",
"+ + @ @ @ @ @ @ @ @ @ @ @ @ @ @ @ @ @ @ @ @ @ @ @ @ @ @ @ @ @ @ @ @ @ @ @ @ @ @ @ @ @ @ @ @ @ @ @ @ @ @ @ @ @ @ @ @ @ @ @ @ @ @ @ @ @ @ @ @ @ @ @ @ @ @ @ @ @ @ @ @ @ @ @ @ @ @ @ @ @ @ @ @ @ @ @ @ @ @ @ @ @ @ @ @ @ @ @ @ @ @ @ @ @ @ @ @ @ @ @ @ @ @ @ @ @ @ @ @ @ @ @ @ @ @ @ @ @ @ @ @ @ @ @ @ @ @ @ @ @ @ @ @ @ @ @ @ @ @ @ @ @ @ @ @ @ @ @ @ @ @ @ @ @ @ @ @ @ @ @ @ @ @ @ @ @ @ @ @ @ @ @ @ @ @ @ @ @ @ @ @ @ @ @ @ @ @ @ @ @ @ @ @ @ # @ + + + ",
"$ % & & & & & & & & & & & & & & * = - ; * > * , > ' * ' ' ) ' ) * ' ) ' ' ' ' ! ! ' ' ' ~ * = - > * ; * > * , > ' * ' ' ) ' ) * ' ) ' ' ' ' ! ! ' ' ' ~ * = - * ' ) ' ' ' ' ! ! ' ' ' ~ * = - ) ' ) * ' ) ' ' ' ' ! ! ' ' ' ~ * = - ! ! - - > ' * ' ' ) ' ) * ' ) ' ' ' ' ! ! ' ' ' ~ * = - * ' ) ' ' ' ' ! ! ' ' ' ~ * = - ) ' ) * ' ) ' ' ' ' ! ! ' ' ' ~ * = - ! ! - - ' ! { ~ ' - ~ ~ ! { ~ { ] { { { ] ~ { ~ ^ ] { ] ~ / / { / ] ] ] { { / ( _ $ $ ",
": & > & < , > * < [ [ > } & < * | 1 / { { { ] { / ] { ] 2 / ] ] 3 / | { | / ] / | | 1 / / | 1 / { ^ { { { ] { / ] { ] 2 / ] ] 3 / | { | / ] / | | 1 / / | 1 / 3 / | { | / ] / | | 1 / / | 1 / / ] ] 3 / | { | / ] / | | 1 / / | 1 / 1 | ] | / ] { ] 2 / ] ] 3 / | { | / ] / | | 1 / / | 1 / 3 / | { | / ] / | | 1 / / | 1 / / ] ] 3 / | { | / ] / | | 1 / / | 1 / 1 | ] | | 4 | | 4 5 6 5 | | 5 7 8 5 9 9 5 4 8 5 7 4 5 0 9 9 9 a 9 9 9 5 a 9 9 b c d d ",
"e f ! ~ f { ~ ~ ~ { ~ ~ { ! { ~ b a b 9 0 7 5 9 9 5 9 9 9 9 9 9 a 9 9 5 9 9 b a g b h a b b a b 9 5 9 0 7 5 9 9 5 9 9 9 9 9 9 a 9 9 5 9 9 b a g b h a b b a b a 9 9 5 9 9 b a g b h a b b a b 9 9 9 a 9 9 5 9 9 b a g b h a b b a b i h j h 9 5 9 9 9 9 9 9 a 9 9 5 9 9 b a g b h a b b a b a 9 9 5 9 9 b a g b h a b b a b 9 9 9 a 9 9 5 9 9 b a g b h a b b a b i h j h h k h h k h k h h k l k m m k h k m l l n m k l m m l l m m o m l l m p c q q ",
"e 4 | | | 4 4 5 | | 6 | 4 4 0 0 r p s m n k m l n m l l l l p l l p m l m s t p r t p l s r p s m h m n k m l n m l l l l p l l p m l m s t p r t p l s r p s l p m l m s t p r t p l s r p s l p l l p m l m s t p r t p l s r p s u p l l n m l l l l p l l p m l m s t p r t p l s r p s l p m l m s t p r t p l s r p s l p l l p m l m s t p r t p l s r p s u p l l r p r r v l r r t w x y v z z v z v v v v v v A B z y A A y C y y D z y c E E ",
"c h h k h h h h k h h h k m l k D C C r A v z y D A A z z y y A v y A C D y y C y C F y C D C C z v r A v z y D A A z z y y A v y A C D y y C y C F y C D C C v y A C D y y C y C F y C D C C y y A v y A C D y y C y C F y C D C C C C C F D A A z z y y A v y A C D y y C y C F y C D C C v y A C D y y C y C F y C D C C y y A v y A C D y y C y C F y C D C C C C C F F C F F C G G C H G G G F G F F H G G G F G I I J I I K K K G I I K I I c L L ",
"c r r v p r r v r v u v x v v v M I I K K J K I J I I I K I K G K G G I I N I I I I M M I M I I K J K K J K I J I I I K I K G K G G I I N I I I I M M I M I I K G G I I N I I I I M M I M I I I K G K G G I I N I I I I M M I M I I I N M O J I I I K I K G K G G I I N I I I I M M I M I I K G G I I N I I I I M M I M I I I K G K G G I I N I I I I M M I M I I I N M O I P M I P I I Q O O O O O O O O O O O O O R S S S S O T O S O S S R S U c V V ",
"c F F y F G W C G F C G G F K G S X T O S S O R R R O T Y S O O R S Y T Z Y Y Y X Z Z Z X S X T O O O S S O R R R O T Y S O O R S Y T Z Y Y Y X Z Z Z X S X T R S Y T Z Y Y Y X Z Z Z X S X T S O O R S Y T Z Y Y Y X Z Z Z X S X T X ` X ` R R O T Y S O O R S Y T Z Y Y Y X Z Z Z X S X T R S Y T Z Y Y Y X Z Z Z X S X T S O O R S Y T Z Y Y Y X Z Z Z X S X T X ` X ` X ` ` X X ` `  ..... .` ` X `  .` +.` `  . . .@.+.+.#.@.` +. . . . . .@.c $.$.",
"c I Q %.O M &.%.%.P %.O M O O O @.@.@. .@. ... .`  . . .+.@.@. .` +. .@.@.@. . .*.@.@. .@.@.@.@. .=. .@. ... .`  . . .+.@.@. .` +. .@.@.@. . .*.@.@. .@.@.@.@.` +. .@.@.@. . .*.@.@. .@.@.@.@.@.@. .` +. .@.@.@. . .*.@.@. .@.@.@.@.-.;.>.-.`  . . .+.@.@. .` +. .@.@.@. . .*.@.@. .@.@.@.@.` +. .@.@.@. . .*.@.@. .@.@.@.@.@.@. .` +. .@.@.@. . .*.@.@. .@.@.@.@.-.;.>.-.@.@.,.-.,.;.>.;.>.-.'.@.'.;.'.'.;.'.;.>.'.'.).!.'.~.{.'.].).'.'.'.'.{.'.c $.$.",
"c X X ` X ` X ` X X ..+.^.` X ` ~.].].'.'.].'.).{.'.!.'.'.).).).'.!.!./.{.!.!.).).!./.!.].~.].].;.'.'.'.].'.).{.'.!.'.'.).).).'.!.!./.{.!.!.).).!./.!.].~.].].'.!.!./.{.!.!.).).!./.!.].~.].].).).).'.!.!./.{.!.!.).).!./.!.].~.].]./.{.{.{.{.'.!.'.'.).).).'.!.!./.{.!.!.).).!./.!.].~.].].'.!.!./.{.!.!.).).!./.!.].~.].].).).).'.!.!./.{.!.!.).).!./.!.].~.].]./.{.{.{././.{././.(._.:.<.[.(._.<.:././.:._./.}.:.}.<.:.}.:.:.[.:.(.(.|.<.}.1.1.c 2.2.",
"c ;.;.,.;.@.'.;.@.'.>.>.'.'.'.;.}.}.3.}.:.:.:.:.}.(.:.}.:.:.(.}.1.}.1.1.1.}.}.}.1.}.1.1.3.}.}.3./.<.}.:.:.:.:.}.(.:.}.:.:.(.}.1.}.1.1.1.}.}.}.1.}.1.1.3.}.}.3.1.}.1.1.1.}.}.}.1.}.1.1.3.}.}.3.:.(.}.1.}.1.1.1.}.}.}.1.}.1.1.3.}.}.3.}.3.1.3.}.(.:.}.:.:.(.}.1.}.1.1.1.}.}.}.1.}.1.1.3.}.}.3.1.}.1.1.1.}.}.}.1.}.1.1.3.}.}.3.:.(.}.1.}.1.1.1.}.}.}.1.}.1.1.3.}.}.3.}.3.1.3.3.4.1.3.1.3.5.5.4.3.3.3.3.5.3.6.7.6.3.8.5.5.5.5.9.5.6.0.5.9.5.5.8.0.5.0.a.b.b.",
"c /./.{./.{./.{.[._._._.<././.:.c.d.d.3.5.8.5.5.5.7.5.0.5.0.0.5.0.0.0.e.0.5.0.f.c.d.0.0.g.c.d.d.0.5.3.5.8.5.5.5.7.5.0.5.0.0.5.0.0.0.e.0.5.0.f.c.d.0.0.g.c.d.d.0.0.0.e.0.5.0.f.c.d.0.0.g.c.d.d.0.0.5.0.0.0.e.0.5.0.f.c.d.0.0.g.c.d.d.d.d.g.h.5.7.5.0.5.0.0.5.0.0.0.e.0.5.0.f.c.d.0.0.g.c.d.d.0.0.0.e.0.5.0.f.c.d.0.0.g.c.d.d.0.0.5.0.0.0.e.0.5.0.f.c.d.0.0.g.c.d.d.d.d.g.h.d.d.g.g.d.g.g.g.i.i.d.d.i.g.g.g.g.j.i.k.i.i.k.g.l.k.g.m.i.k.k.j.l.l.k.k.a.n.n.",
"a.6.3.1.1.3.3.1.7.6.7.5.3.6.6.5.l.o.p.i.k.k.k.k.m.k.k.i.j.l.m.k.k.q.r.s.l.q.k.k.l.k.q.l.q.l.o.p.k.k.i.k.k.k.k.m.k.k.i.j.l.m.k.k.q.r.s.l.q.k.k.l.k.q.l.q.l.o.p.k.q.r.s.l.q.k.k.l.k.q.l.q.l.o.p.l.m.k.k.q.r.s.l.q.k.k.l.k.q.l.q.l.o.p.s.p.o.s.m.k.k.i.j.l.m.k.k.q.r.s.l.q.k.k.l.k.q.l.q.l.o.p.k.q.r.s.l.q.k.k.l.k.q.l.q.l.o.p.l.m.k.k.q.r.s.l.q.k.k.l.k.q.l.q.l.o.p.s.p.o.s.p.s.q.s.p.t.p.s.p.p.p.t.p.p.t.p.t.u.v.w.w.x.u.u.t.p.y.y.t.t.z.y.z.z.u.z.A.B.B.",
"a.g.g.d.d.g.d.c.d.i.i.d.i.h.g.g.C.D.z.z.w.w.x.w.t.t.u.t.x.z.t.v.z.z.u.u.z.v.z.z.u.z.z.u.z.C.D.z.t.p.z.w.w.x.w.t.t.u.t.x.z.t.v.z.z.u.u.z.v.z.z.u.z.z.u.z.C.D.z.z.z.u.u.z.v.z.z.u.z.z.u.z.C.D.z.z.t.v.z.z.u.u.z.v.z.z.u.z.z.u.z.C.D.z.z.E.C.z.t.t.u.t.x.z.t.v.z.z.u.u.z.v.z.z.u.z.z.u.z.C.D.z.z.z.u.u.z.v.z.z.u.z.z.u.z.C.D.z.z.t.v.z.z.u.u.z.v.z.z.u.z.z.u.z.C.D.z.z.E.C.z.z.z.C.z.z.C.F.C.D.G.H.H.H.F.G.F.E.G.I.I.G.F.F.F.G.F.I.G.I.F.I.J.I.I.K.L.M.N.N.",
"A.q.q.l.p.l.s.p.p.p.p.p.t.p.p.p.J.J.O.F.F.F.F.I.F.F.I.F.F.I.F.L.O.J.F.O.I.J.J.O.I.P.J.I.I.J.J.O.F.F.F.F.F.F.I.F.F.I.F.F.I.F.L.O.J.F.O.I.J.J.O.I.P.J.I.I.J.J.O.O.J.F.O.I.J.J.O.I.P.J.I.I.J.J.O.I.F.L.O.J.F.O.I.J.J.O.I.P.J.I.I.J.J.O.Q.I.K.J.F.F.I.F.F.I.F.L.O.J.F.O.I.J.J.O.I.P.J.I.I.J.J.O.O.J.F.O.I.J.J.O.I.P.J.I.I.J.J.O.I.F.L.O.J.F.O.I.J.J.O.I.P.J.I.I.J.J.O.Q.I.K.J.K.R.K.J.K.S.K.K.S.S.K.S.S.S.K.S.T.T.T.T.U.V.S.U.S.T.W.W.U.X.Y.V.Z.V.V.Y.M.N.N.",
"M.`.G.C.C.G.F.E.F.H.C.F.C.H.H.H.Y.Y.Y.U.S.Z.S.T.S.T.S.S.V.V.T.V.W.V.Y.Y.Y.V.W.V.V.V.Y. +Y.Y.Y.Y.S.V.U.S.Z.S.T.S.T.S.S.V.V.T.V.W.V.Y.Y.Y.V.W.V.V.V.Y. +Y.Y.Y.Y.W.V.Y.Y.Y.V.W.V.V.V.Y. +Y.Y.Y.Y.V.T.V.W.V.Y.Y.Y.V.W.V.V.V.Y. +Y.Y.Y.Y.Y.Y.Y.Y.S.T.S.S.V.V.T.V.W.V.Y.Y.Y.V.W.V.V.V.Y. +Y.Y.Y.Y.W.V.Y.Y.Y.V.W.V.V.V.Y. +Y.Y.Y.Y.V.T.V.W.V.Y.Y.Y.V.W.V.V.V.Y. +Y.Y.Y.Y.Y.Y.Y.Y.Y.Y.Y.Y.Y.Y. +.+++Y.@+@+ +@+++#+#+#+#+#+++#+#+++++#+#+#+++$+%+%+%+#+#+#+&+*+*+",
"=+K.K.J.S.S.S.K.K.K.S.S.K.S.S.S.-+$+$+.+#+++#+#+@+++#+#+;+;+#+%+%+#+;+;+;+%+;+;+%+%+>+-+%+-+$+$+#+#+.+#+++#+#+@+++#+#+;+;+#+%+%+#+;+;+;+%+;+;+%+%+>+-+%+-+$+$+%+#+;+;+;+%+;+;+%+%+>+-+%+-+$+$+;+#+%+%+#+;+;+;+%+;+;+%+%+>+-+%+-+$+$+-+,+-+,+@+++#+#+;+;+#+%+%+#+;+;+;+%+;+;+%+%+>+-+%+-+$+$+%+#+;+;+;+%+;+;+%+%+>+-+%+-+$+$+;+#+%+%+#+;+;+;+%+;+;+%+%+>+-+%+-+$+$+-+,+-+,+>+-+,+,+-+,+'+,+,+,+'+'+-+'+'+'+)+'+'+!+~+~+,+~+~+'+'+~+{+~+~+~+]+^+)+)+&+/+/+",
"(+Y.Y.Y..+Y.#+Y.@+++#+_+:+.+.+:+^+<+]+~+'+~+'+~+!+'+~+{+)+'+~+[+~+^+]+~+)+~+~+~+)+}+^+|+1+^+<+]+'+~+~+'+~+'+~+!+'+~+{+)+'+~+[+~+^+]+~+)+~+~+~+)+}+^+|+1+^+<+]+~+^+]+~+)+~+~+~+)+}+^+|+1+^+<+]+'+~+[+~+^+]+~+)+~+~+~+)+}+^+|+1+^+<+]+]+)+^+}+!+'+~+{+)+'+~+[+~+^+]+~+)+~+~+~+)+}+^+|+1+^+<+]+~+^+]+~+)+~+~+~+)+}+^+|+1+^+<+]+'+~+[+~+^+]+~+)+~+~+~+)+}+^+|+1+^+<+]+]+)+^+}+)+)+]+^+^+^+<+2+^+<+<+<+^+3+3+4+4+2+4+2+4+<+3+2+2+2+3+3+5+6+3+3+3+6+7+3+&+8+8+",
"9+0+-+-+,+-+,+'+,+,+'+'+,+a+,+a+6+b+b+2+2+<+2+2+3+3+3+c+3+3+6+3+5+3+6+3+3+3+3+6+3+d+6+7+7+6+b+b+3+2+2+2+<+2+2+3+3+3+c+3+3+6+3+5+3+6+3+3+3+3+6+3+d+6+7+7+6+b+b+5+3+6+3+3+3+3+6+3+d+6+7+7+6+b+b+3+6+3+5+3+6+3+3+3+3+6+3+d+6+7+7+6+b+b+7+7+e+3+3+3+3+c+3+3+6+3+5+3+6+3+3+3+3+6+3+d+6+7+7+6+b+b+5+3+6+3+3+3+3+6+3+d+6+7+7+6+b+b+3+6+3+5+3+6+3+3+3+3+6+3+d+6+7+7+6+b+b+7+7+e+3+6+e+6+7+7+f+7+d+d+d+d+d+7+g+h+d+i+j+d+7+7+j+j+i+f+h+k+i+i+g+i+g+i+i+g+i+=+8+8+",
"l+^+^+^+^+^+^+<+^+^+<+^+2+<+<+4+m+i+i+i+j+j+d+g+g+g+k+k+i+k+i+i+k+g+i+i+d+i+g+i+m+k+i+i+n+m+i+i+d+d+i+j+j+d+g+g+g+k+k+i+k+i+i+k+g+i+i+d+i+g+i+m+k+i+i+n+m+i+i+k+g+i+i+d+i+g+i+m+k+i+i+n+m+i+i+k+i+i+k+g+i+i+d+i+g+i+m+k+i+i+n+m+i+i+i+o+n+o+g+g+k+k+i+k+i+i+k+g+i+i+d+i+g+i+m+k+i+i+n+m+i+i+k+g+i+i+d+i+g+i+m+k+i+i+n+m+i+i+k+i+i+k+g+i+i+d+i+g+i+m+k+i+i+n+m+i+i+i+o+n+o+p+p+p+o+n+o+o+p+p+n+o+n+q+o+o+o+o+o+o+o+q+r+o+o+o+s+r+r+r+q+r+t+q+u+o+r+=+v+v+",
"w+d+d+f+7+d+d+d+d+7+d+7+d+d+d+7+t+t+r+q+q+s+r+r+t+t+r+o+r+r+r+r+r+r+r+x+s+u+r+r+t+r+y+t+r+t+t+r+s+q+q+q+s+r+r+t+t+r+o+r+r+r+r+r+r+r+x+s+u+r+r+t+r+y+t+r+t+t+r+r+r+r+x+s+u+r+r+t+r+y+t+r+t+t+r+r+r+r+r+r+r+x+s+u+r+r+t+r+y+t+r+t+t+r+t+z+r+t+t+t+r+o+r+r+r+r+r+r+r+x+s+u+r+r+t+r+y+t+r+t+t+r+r+r+r+x+s+u+r+r+t+r+y+t+r+t+t+r+r+r+r+r+r+r+x+s+u+r+r+t+r+y+t+r+t+t+r+t+z+r+t+z+t+y+y+y+A+y+A+y+t+y+y+B+C+D+D+C+E+y+A+C+C+A+y+C+C+E+A+F+F+F+C+F+F+E+F+=+G+G+",
"H+o+o+o+o+o+o+n+k+n+n+o+n+o+m+q+F+I+I+y+D+D+C+C+C+C+F+F+F+E+C+F+C+J+C+C+F+F+I+F+F+K+L+I+F+F+I+I+E+y+y+D+D+C+C+C+C+F+F+F+E+C+F+C+J+C+C+F+F+I+F+F+K+L+I+F+F+I+I+C+J+C+C+F+F+I+F+F+K+L+I+F+F+I+I+E+C+F+C+J+C+C+F+F+I+F+F+K+L+I+F+F+I+I+K+K+F+K+C+C+F+F+F+E+C+F+C+J+C+C+F+F+I+F+F+K+L+I+F+F+I+I+C+J+C+C+F+F+I+F+F+K+L+I+F+F+I+I+E+C+F+C+J+C+C+F+F+I+F+F+K+L+I+F+F+I+I+K+K+F+K+F+M+N+L+N+M+M+K+F+L+M+M+M+M+M+M+M+M+M+M+M+M+M+M+M+M+M+M+M+M+M+M+M+M+M+M+(+O+O+",
"P+&+A+y+y+y+A+D+y+y+t+t+A+A+E+y+M+M+M+M+M+M+M+M+M+M+M+M+M+M+M+M+M+M+M+M+M+M+M+M+M+M+M+M+M+M+M+M+M+M+M+M+M+M+M+M+M+M+M+M+M+M+M+M+M+M+M+M+M+M+M+M+M+M+M+M+M+M+M+M+M+M+M+M+M+M+M+M+M+M+M+M+M+M+M+M+M+M+M+M+M+M+M+M+M+M+M+M+M+M+M+M+M+M+M+M+M+M+M+M+M+M+M+M+M+M+M+M+M+M+M+M+M+M+M+M+M+M+M+M+M+M+M+M+M+M+M+M+M+M+M+M+M+M+M+M+M+M+M+M+M+M+M+M+M+M+M+M+M+M+M+M+M+M+M+M+M+M+M+M+M+M+M+M+M+M+M+M+M+M+M+M+M+M+M+M+M+M+M+M+M+M+M+M+M+M+M+M+M+M+M+M+M+M+M+M+(+(+O+O+",
"O+Q+R+R+R+R+R+R+R+R+R+S+T+R+R+R+R+R+R+R+R+R+R+R+R+R+R+R+R+R+R+R+R+R+R+R+R+R+R+R+R+R+R+R+R+R+R+R+R+R+R+R+R+R+R+R+R+R+R+R+R+R+R+R+R+R+R+R+R+R+R+R+R+R+R+R+R+R+R+R+R+R+R+R+R+R+R+R+R+R+R+R+R+R+R+R+R+R+R+R+R+R+R+R+R+R+R+R+R+R+R+R+R+R+R+R+R+R+R+R+R+R+R+R+R+R+R+R+R+R+R+R+R+R+R+R+R+R+R+R+R+R+R+R+R+R+R+R+R+R+R+R+R+R+R+R+R+R+R+R+R+R+R+R+R+R+R+R+R+R+R+R+R+R+R+R+R+R+R+R+R+R+R+R+R+R+R+R+R+R+R+R+R+R+R+R+R+R+R+S+R+T+U+T+R+R+R+R+R+R+R+R+R+R+R+V+=+O+O+O+",
"O+O+O+O+O+O+O+O+O+O+O+O+O+O+O+O+O+O+O+O+O+O+O+O+O+O+O+O+O+O+O+O+O+O+O+O+O+O+O+O+O+O+O+O+O+O+O+O+O+O+O+O+O+O+O+O+O+O+O+O+O+O+O+O+O+O+O+O+O+O+O+O+O+O+O+O+O+O+O+O+O+O+O+O+O+O+O+O+O+O+O+O+O+O+O+O+O+O+O+O+O+O+O+O+O+O+O+O+O+O+O+O+O+O+O+O+O+O+O+O+O+O+O+O+O+O+O+O+O+O+O+O+O+O+O+O+O+O+O+O+O+O+O+O+O+O+O+O+O+O+O+O+O+O+O+O+O+O+O+O+O+O+O+O+O+O+O+O+O+O+O+O+O+O+O+O+O+O+O+O+O+O+O+O+O+O+O+O+O+O+O+O+O+O+O+O+O+O+O+O+O+O+O+O+O+O+O+O+O+O+O+O+O+O+O+O+O+O+O+O+",
"W+W+W+W+W+W+W+W+W+W+W+W+W+W+W+W+W+W+W+W+W+W+W+W+W+W+W+W+W+W+W+W+W+W+W+W+W+W+W+W+W+W+W+W+W+W+W+W+W+W+W+W+W+W+W+W+W+W+W+W+W+W+W+W+W+W+W+W+W+W+W+W+W+W+W+W+W+W+W+W+W+W+W+W+W+W+W+W+W+W+W+W+W+W+W+W+W+W+W+W+W+W+W+W+W+W+W+W+W+W+W+W+W+W+W+W+W+W+W+W+W+W+W+W+W+W+W+W+W+W+W+W+W+W+W+W+W+W+W+W+W+W+W+W+W+W+W+W+W+W+W+W+W+W+W+W+W+W+W+W+W+W+W+W+W+W+W+W+W+W+W+W+W+W+W+W+W+W+W+W+W+W+W+W+W+W+W+W+W+W+W+W+W+W+W+W+W+W+W+W+W+W+W+W+W+W+W+W+W+W+W+W+W+W+W+W+W+W+W+W+"};
