/* XPM */
static char * taskbuttonactive_xpm[] = {
"220 28 193 2",
"  	c #F5F2E6",
". 	c #F5F4EA",
"+ 	c #FBF9F5",
"@ 	c #F5F2EA",
"# 	c #91A182",
"$ 	c #91A082",
"% 	c #F5F3EA",
"& 	c #99A78A",
"* 	c #CAE4A5",
"= 	c #778C66",
"- 	c #96A687",
"; 	c #9EAC8F",
"> 	c #C8E2A3",
", 	c #C8E2A4",
"' 	c #C9E2A3",
") 	c #C9E2A4",
"! 	c #C8E1A4",
"~ 	c #C8E1A3",
"{ 	c #728961",
"] 	c #748A61",
"^ 	c #C6E0A1",
"/ 	c #C6DFA2",
"( 	c #C7E0A2",
"_ 	c #C7E0A1",
": 	c #C6E0A2",
"< 	c #C7DFA2",
"[ 	c #728960",
"} 	c #F4F1E9",
"| 	c #C4DEA0",
"1 	c #C5DDA0",
"2 	c #C4DDA1",
"3 	c #C4DDA0",
"4 	c #C4DEA1",
"5 	c #C5DEA1",
"6 	c #C5DEA0",
"7 	c #C5DDA1",
"8 	c #F3F1E7",
"9 	c #C2DC9F",
"0 	c #C2DC9E",
"a 	c #C2DB9F",
"b 	c #C3DC9F",
"c 	c #C3DC9E",
"d 	c #C3DB9F",
"e 	c #C2DB9E",
"f 	c #F3F0E7",
"g 	c #C1DA9D",
"h 	c #C0DA9D",
"i 	c #C0DA9E",
"j 	c #C1D99D",
"k 	c #C0D99D",
"l 	c #C1DA9E",
"m 	c #EFECE1",
"n 	c #BED89B",
"o 	c #BFD89B",
"p 	c #BFD79B",
"q 	c #BFD89C",
"r 	c #BED89C",
"s 	c #BFD79C",
"t 	c #BED79B",
"u 	c #BED79C",
"v 	c #EAE6DA",
"w 	c #BCD699",
"x 	c #BDD599",
"y 	c #BDD59A",
"z 	c #BCD599",
"A 	c #BCD69A",
"B 	c #BCD59A",
"C 	c #BDD699",
"D 	c #BDD69A",
"E 	c #E7E4D8",
"F 	c #BBD498",
"G 	c #BAD398",
"H 	c #BBD398",
"I 	c #BAD498",
"J 	c #BAD397",
"K 	c #BAD497",
"L 	c #BBD397",
"M 	c #BBD497",
"N 	c #E5E1D5",
"O 	c #B9D197",
"P 	c #B8D197",
"Q 	c #B9D196",
"R 	c #B9D296",
"S 	c #B8D196",
"T 	c #B8D296",
"U 	c #B9D297",
"V 	c #B8D297",
"W 	c #E1DDD0",
"X 	c #748A63",
"Y 	c #B7CF95",
"Z 	c #B7CF94",
"` 	c #B6CF95",
" .	c #B7D095",
"..	c #B6D095",
"+.	c #B6D094",
"@.	c #B7D094",
"#.	c #B6CF94",
"$.	c #DBD7CB",
"%.	c #B5CE94",
"&.	c #B5CD93",
"*.	c #B4CD93",
"=.	c #B4CE93",
"-.	c #B5CE93",
";.	c #B4CD94",
">.	c #B5CD94",
",.	c #B4CE94",
"'.	c #D9D5C9",
").	c #B2CB92",
"!.	c #B3CB91",
"~.	c #B2CC92",
"{.	c #B3CC92",
"].	c #B2CC91",
"^.	c #B3CB92",
"/.	c #B3CC91",
"(.	c #B2CB91",
"_.	c #D9D4C9",
":.	c #B1C990",
"<.	c #B1CA90",
"[.	c #B0C990",
"}.	c #B1C98F",
"|.	c #B1CA8F",
"1.	c #B0CA90",
"2.	c #B0C98F",
"3.	c #B0CA8F",
"4.	c #DCDBCE",
"5.	c #AEC88F",
"6.	c #AFC78E",
"7.	c #AEC88E",
"8.	c #AFC88F",
"9.	c #AFC88E",
"0.	c #AEC78E",
"a.	c #AFC78F",
"b.	c #AEC78F",
"c.	c #D7D3C7",
"d.	c #ADC68C",
"e.	c #ADC58D",
"f.	c #ADC58C",
"g.	c #ADC68D",
"h.	c #ACC58D",
"i.	c #DBD9CD",
"j.	c #ABC38B",
"k.	c #ACC38B",
"l.	c #ABC48C",
"m.	c #ABC48B",
"n.	c #ABC38C",
"o.	c #ACC38C",
"p.	c #D5D1C5",
"q.	c #758B64",
"r.	c #A9C189",
"s.	c #A9C18A",
"t.	c #A9C289",
"u.	c #AAC189",
"v.	c #AAC28A",
"w.	c #A9C28A",
"x.	c #AAC18A",
"y.	c #AAC289",
"z.	c #D5D0C4",
"A.	c #A7BF88",
"B.	c #A8BF88",
"C.	c #A7BF87",
"D.	c #A7C088",
"E.	c #A8C088",
"F.	c #A8BF87",
"G.	c #A7C087",
"H.	c #D5D0C3",
"I.	c #A4BD86",
"J.	c #A5BD86",
"K.	c #A5BC86",
"L.	c #A5BD85",
"M.	c #A4BC86",
"N.	c #A4BD85",
"O.	c #A4BC85",
"P.	c #D4CFC3",
"Q.	c #A3BB84",
"R.	c #A3BA85",
"S.	c #A3BA84",
"T.	c #A3BB85",
"U.	c #A2BB85",
"V.	c #D3CFC2",
"W.	c #8FA478",
"X.	c #91A879",
"Y.	c #A1B982",
"Z.	c #A2B982",
"`.	c #A1B883",
" +	c #A2B883",
".+	c #A1B983",
"++	c #A2B882",
"@+	c #A1B882",
"#+	c #A2B983",
"$+	c #738960",
"%+	c #97AD7C",
"&+	c #848670",
"*+	c #C2BEB4",
"                                                                                                                                                                                                                                                                                                                                                                                                                                                        ",
". . . . . . . . . . . . . . . . . . . . . . . . . . . . . . . . . . . . . . . . . . . . . . . . . . . . . . . . . . . . . . . . . . . . . . . . . . . . . . . . . . . . . . . . . . . . . . . . . . . . . . . . . . . . . . . . . . . . . . . . . . . . . . . . . . . . . . . . . . . . . . . . . . . . . . . . . . . . . . . . . . . . . . . . . . . . . . . . . . . . . . . . . . . . . . . . . . . . . . . . . . . . . . . . . . . . . . . . . . + + ",
"@ @ # # $ $ $ $ $ $ $ $ $ $ $ $ $ $ $ $ $ # $ $ $ $ $ $ $ $ $ $ $ $ $ $ $ # # # $ $ $ $ $ $ $ $ $ $ $ $ # $ $ $ $ $ $ $ $ $ $ $ $ $ $ $ # $ $ $ $ $ $ $ $ $ $ $ $ $ $ $ # # $ $ $ $ $ $ $ $ $ $ $ $ $ $ $ # # # $ $ $ $ $ $ # $ $ $ $ $ $ $ $ $ $ $ $ $ $ $ # # $ $ $ # $ $ $ $ $ $ $ $ $ $ $ $ $ $ $ # # $ $ $ $ $ $ $ $ $ $ $ $ $ $ $ # # # $ $ $ $ $ $ $ $ $ $ $ $ $ $ # $ $ $ $ $ $ $ $ # $ $ $ $ $ $ $ $ $ $ $ $ $ $ $ # # $ $ $ $ $ # # # $ @ . . ",
"% & * * * * * * * * * * * * * * * * * * * * * * * * * * * * * * * * * * * * * * * * * * * * * * * * * * * * * * * * * * * * * * * * * * * * * * * * * * * * * * * * * * * * * * * * * * * * * * * * * * * * * * * * * * * * * * * * * * * * * * * * * * * * * * * * * * * * * * * * * * * * * * * * * * * * * * * * * * * * * * * * * * * * * * * * * * * * * * * * * * * * * * * * * * * * * * * * * * * * * * * * * * * * * * * * * * * * * * = - @ @ ",
"; > , > > , ' > > , > ) ! > ) > > > , > > > > > > > , > , , ~ > > > > > > > ) , > > > , > > > , ' > ) , > > , , > ! > , ' ) , , > , ) > > > , , ' > , , > , > > > > , > , ) > , > > , ' , > , , ~ > > ' , , > ' > , , > ) > > > , , ' > , , > , > > > > , > , ) > ) > > > , , ' > , , > , > > > > , > , ) > , > > , ' , > , , ~ > > ' , , > ' > , , > > , > , > > , > > > > , > > ' > , > > > , , , > > > , ' > , , , > , , , > ) , > > , , , > > { % % ",
"] ^ / ^ ( _ : ( : : _ : : ( ^ : _ : : : : ^ : : : : : : : : / ( : ( ^ : : ( : : : ( : : ^ : ^ : ^ : : : : ( ^ : ^ : : : : ^ : _ : ^ ^ ^ ( : : : ( : _ : : _ : : ( : ^ : : : : : : : : : _ : ( ( : : ( : ^ ^ ( : : : : : ^ ^ ( : : : ( : _ : : _ : : ( : ^ : : : : ^ ^ ( : : : ( : _ : : _ : : ( : ^ : : : : : : : : : _ : ( ( : : ( : ^ ^ ( : : : : : : : ( < : ^ : : : : ( : : ^ : ( : ( : : ( : : : : ( : : : / : : : : : : : : _ : ^ : : : ^ : [ } } ",
"] | 1 2 | 3 | 4 | 2 5 6 6 | | | | | | 4 | 6 | 5 1 6 | 6 4 5 | 6 3 | | 4 2 5 | 5 | 4 | | | | | | 6 | | 6 | 6 3 6 4 6 6 | 4 1 5 | 4 | | 1 4 | | 2 4 | 4 | | | 6 | 6 | | 6 | 2 | 6 | 4 4 4 4 3 | | | 1 4 | | | | | | | 4 7 | 1 4 | | 2 4 | 4 | | | 6 | 6 | | 6 | 2 | | 1 4 | | 2 4 | 4 | | | 6 | 6 | | 6 | 2 | 6 | 4 4 4 4 3 | | | 1 4 | | | | | | | 4 7 5 | | | 5 | | | | 5 | 4 6 | 5 6 4 6 5 4 | | | 4 | 4 | | 1 6 | 5 | 4 | | 6 3 6 6 | 6 | | | | [ 8 8 ",
"] 9 9 9 0 9 9 9 9 9 a b b 0 b 9 0 9 0 9 b 0 a 0 9 9 0 0 c 9 9 9 0 c 0 9 9 b b b 9 c 0 9 0 b 0 0 b 0 0 0 b 0 0 b 9 0 9 c d 9 9 9 b c 9 9 9 a c b c e a c b 9 a 9 9 9 9 9 d 9 9 b c c 9 0 0 9 9 c b 0 c b b 0 0 0 e 9 9 9 9 9 9 a c b c e a c b 9 a 9 9 9 9 9 d 9 9 9 9 9 a c b c e a c b 9 a 9 9 9 9 9 d 9 9 b c c 9 0 0 9 9 c b 0 c b b 0 0 0 e 9 9 9 b c 0 9 c 0 9 b 9 a 9 b 0 9 b c 9 b c 9 b 9 0 9 0 0 0 0 9 c a b c b 0 9 9 b b c 9 c 9 c a 9 [ f f ",
"] g h i g h h g g g g g g g h h g j g h g g h g h g g h h h h g k h g k g g h h h h h i i h g h g i h g h k l h h g h h g g g g h h h h h h g g g g g h h g k g g g g g h h h g h g h h h g g h h g h h h h g g h h h k h h h h g g g g g h h g k g g g g g h h h h h h h g g g g g h h g k g g g g g h h h g h g h h h g g h h g h h h h g g h h h k h g g g h g h g g h h g h h g g l g j h j g h h g h g g h g g g h g j h g g g h h h g g h h [ m m ",
"] n n n o p q q o q o n r r r o q s q r o o n r q r t r r o q n n q n r o n n q s r o q q n o o r n n q o q n o r u q o t q s r r o q n n s r t r n q r r n o q r q q r o q q o o n q q p o o o o r u n q r o q o q r q q n n s r t r n q r r n o q r q q r o q q q n n s r t r n q r r n o q r q q r o q q o o n q q p o o o o r u n q r o q o q r q q r s q r q o r o n q o o o q q n u u q o r q n n n u r o o o r p q n n o q o q p o o o n o [ v v ",
"] w x x y w z A B z B B B w z y B B A z B A A A w w B A w x w y w B C w y B z w z w z w C w w z B A C B w D w x B A A w A w B w w C B B A A x z B C z B x C y w z A z z A B A A y y C x B w A w B z z z z w B w y y z y B B A A x z B C z B x C y w z A z z A B A B B A A x z B C z B x C y w z A z z A B A A y y C x B w A w B z z z z w B w y y z y z x A y w B z y B B B z z A z z z z B C w B B x x w w z z B z w A B z B z z C A y w y C A B [ E E ",
"] F G H I H I J G I G G H G F K G J I K G I G I G G G I H G G I H I I I I G G H I I I I L G J G I G H H I H G F G G G H H G I I G J I G G G F G J G H I I G I G G I G G H I G H H H G I G H I H I G I G K G G J I G I H I G G G F G J G H I I G I G G I G G H I G I G G G F G J G H I I G I G G I G G H I G H H H G I G H I H I G I G K G G J I G I H I H I G I G G H I F G H G K J K G G G G G H G G J G G I I G F G M K G I H I G I H H K G I H [ N N ",
"] O P Q R Q S O Q Q T R R Q R P Q P S P S S P T S T S S P R S S S S P Q S S P Q S U Q Q O Q S T V T Q S S T P S S P O S S V T S S P T U V Q S O S S T Q V Q R P V T Q S Q Q R P Q V Q S O S S Q U T Q V Q T S P S S O P T U V Q S O S S T Q V Q R P V T Q S Q Q R T U V Q S O S S T Q V Q R P V T Q S Q Q R P Q V Q S O S S Q U T Q V Q T S P S S O P P Q V S U P P T T Q S R U P S P S S V O Q S V P Q P T U Q S T Q S U O S P P T P P R Q Q T T [ W W ",
"X Y Z Y ` ` Y  . .Z ` Y ` .. .Y  .` Z Y ` +...` Z ` ..` Y ..@. .` +. .` Y  .@.` Y ` Y `  .Y  .` Y ..#.Y @.`  . .@...Y #.` Z Z #. .#.Z `  .#.+.Y @.Y ` +.` Z Z Y ` Z ` ` Z Y ..Y Y #.Z ` ` ..` ..Y Z Y +.` Y Z @. .Z ..Z Z `  .#.+.Y @.Y ` +.` Z Z Y ` Z ` ` Z Y ..Z `  .#.+.Y @.Y ` +.` Z Z Y ` Z ` ` Z Y ..Y Y #.Z ` ` ..` ..Y Z Y +.` Y Z @. .Z ..Z  .` Y ` Y +.` ..Z Z #.#.#.`  .` Z Y ..` @.Y Y @.+.+.#.Z +.` Y Y ` #.Z Y ..Z ` ..Y #.` +.Z ` [ $.$.",
"X %.&.*.*.&.=.&.-.*.&.-.;.*.-.=.&.*.-.*.&.>.-.-.&.&.;.*.&.-.-.*.=.*.*.-.=.=.&.>.*.-.&.=.&.&.%.-.-.&.-.&.-.*.&.&.&.&.-.*.&.*.-.*.&.-.;.&.&.;.-.&.*.;.&.&.&.&.&.&.*.=.,.&.&.&.*.>.&.=.=.*.*.*.*.*.-.*.&.&.*.&.&.-.%.&.-.&.;.&.&.;.-.&.*.;.&.&.&.&.&.&.*.=.,.&.&.&.*.;.&.&.;.-.&.*.;.&.&.&.&.&.&.*.=.,.&.&.&.*.>.&.=.=.*.*.*.*.*.-.*.&.&.*.&.&.-.%.&.-.&.=.>.*.=.*.=.=.*.&.&.&.-.&.-.-.>.&.&.*.;.*.&.-.&.*.-.=.-.*.&.=.-.&.*.&.=.&.&.=.*.*.&.*.-.-.&.[ '.'.",
"X ).!.~.{.].^./.{.^.{.(.!.).!.^.^.!.(.{.).(.!.)./.!.].^.!.!.!.].!.!.!.^.^.).!.(.).^.!.].^.^.{.^.{.!.(.^.{.!.^.!.!.{.(.^.(.!.!.^.).(.(.!./.{./.^.].^.!.(./.!.].).).!.!.(.^.!.!.)./.(.!.{.!./.!.{.^.!.^.^.^.].^.!.^.^.!.^.(.!./.{./.^.].^.!.(./.!.].).).!.!.(.^.!.!.(.!./.{./.^.].^.!.(./.!.].).).!.!.(.^.!.!.)./.(.!.{.!./.!.{.^.!.^.^.^.].^.!.^.^.!.^.(./.!.(.~.!.!./.(.).^.^.(.).(./.).^.(.!.).{.!.!.^.).{.(.).^.).~.^.!.).).^.{.^.!.].!.^.!.).~.[ _._.",
"X :.<.:.:.<.:.:.:.[.}.<.}.[.:.|.<.[.<.:.<.:.:.:.1.:.:.<.:.:.:.:.:.:.:.2.}.:.:.<.[.<.:.:.[.:.[.:.:.|.:.<.[.:.:.<.:.:.:.[.:.}.:.:.:.[.[.<.[.:.1.:.:.:.:.:.1.:.}.:.<.<.:.[.:.1.:.:.:.:.:.:.:.:.:.:.<.:.:.:.[.[.:.[.:.:.}.:.[.<.[.:.1.:.:.:.:.:.1.:.}.:.<.<.:.[.:.1.:.[.<.[.:.1.:.:.:.:.:.1.:.}.:.<.<.:.[.:.1.:.:.:.:.:.:.:.:.:.:.<.:.:.:.[.[.:.[.:.:.}.:.:.[.1.3.[.:.[.<.:.:.2.<.[.:.:.}.:.1.<.<.1.:.<.:.:.<.[.:.:.:.:.:.:.[.[.<.:.:.:.:.<.<.:.:.[.<.[ 4.4.",
"X 5.6.7.6.7.8.6.9.9.8.6.9.6.0.6.6.a.6.a.6.6.a.0.a.9.8.6.a.a.9.a.6.6.6.a.0.6.6.9.a.b.6.6.6.6.a.a.6.0.a.6.6.8.6.6.6.6.6.6.a.8.9.9.0.6.5.6.6.a.6.a.6.6.9.a.6.8.0.0.6.a.0.6.7.9.0.a.6.9.6.a.6.a.8.6.9.6.9.6.6.8.6.6.a.a.6.9.5.6.6.a.6.a.6.6.9.a.6.8.0.0.6.a.0.6.7.9.0.5.6.6.a.6.a.6.6.9.a.6.8.0.0.6.a.0.6.7.9.0.a.6.9.6.a.6.a.8.6.9.6.9.6.6.8.6.6.a.a.6.9.b.6.9.5.6.0.6.6.6.7.6.a.0.6.6.9.6.6.a.6.6.a.6.6.6.6.9.a.6.6.a.0.6.a.8.9.6.8.b.6.a.6.6.5.9.b.[ c.c.",
"X d.e.d.e.e.f.g.e.g.g.e.f.g.e.e.f.e.e.e.e.f.f.d.e.e.e.e.e.d.e.e.e.e.f.e.f.f.f.g.f.g.h.g.e.g.f.e.f.d.f.f.d.e.d.f.g.e.e.e.f.f.g.e.e.e.e.h.g.f.e.e.e.f.f.f.e.g.f.e.f.e.e.g.e.e.e.e.e.e.e.e.f.e.e.g.g.e.e.f.e.e.e.e.f.e.g.e.e.h.g.f.e.e.e.f.f.f.e.g.f.e.f.e.e.g.e.e.e.e.h.g.f.e.e.e.f.f.f.e.g.f.e.f.e.e.g.e.e.e.e.e.e.e.e.f.e.e.g.g.e.e.f.e.e.e.e.f.e.g.e.g.f.e.e.e.g.e.g.e.e.e.d.e.g.f.e.e.f.g.f.d.f.h.e.f.g.g.g.e.e.g.g.e.e.e.e.g.f.e.d.g.e.f.e.f.g.[ i.i.",
"X j.j.j.j.j.j.j.j.j.j.j.k.j.k.l.m.m.n.k.o.k.j.j.n.j.n.n.m.j.l.j.j.j.j.m.j.j.l.j.j.n.k.m.j.j.j.j.n.j.j.j.m.j.j.m.j.l.n.j.j.k.j.j.n.j.j.m.j.k.j.j.j.j.j.m.m.n.j.j.m.j.m.j.m.j.k.j.m.j.j.j.j.j.j.m.l.j.j.n.j.j.j.j.j.m.j.j.j.m.j.k.j.j.j.j.j.m.m.n.j.j.m.j.m.j.m.j.k.j.m.j.k.j.j.j.j.j.m.m.n.j.j.m.j.m.j.m.j.k.j.m.j.j.j.j.j.j.m.l.j.j.n.j.j.j.j.j.m.j.j.m.k.j.n.j.j.j.j.j.j.j.j.j.m.j.n.j.m.j.j.j.j.m.j.j.m.n.j.j.j.j.j.j.j.j.m.j.m.j.j.j.j.j.m.j.j.[ p.p.",
"q.r.s.r.t.s.s.s.u.r.s.v.w.s.r.t.r.r.u.r.r.r.s.s.t.s.u.r.x.s.w.x.r.s.x.r.s.u.x.r.s.r.w.w.r.s.s.s.w.s.s.s.r.s.r.r.s.r.s.r.r.s.u.x.s.r.r.s.r.r.w.y.r.s.r.s.s.r.s.r.r.r.t.x.r.s.t.r.u.w.u.s.s.x.r.r.s.r.s.r.t.s.r.r.r.x.r.x.r.s.r.r.w.y.r.s.r.s.s.r.s.r.r.r.t.x.r.s.t.r.s.r.r.w.y.r.s.r.s.s.r.s.r.r.r.t.x.r.s.t.r.u.w.u.s.s.x.r.r.s.r.s.r.t.s.r.r.r.x.r.x.r.s.s.r.s.x.r.u.v.r.r.s.s.u.r.t.s.v.s.y.s.s.s.s.r.r.s.r.s.x.s.t.s.r.s.r.w.s.x.r.s.r.t.s.r.w.[ z.z.",
"q.A.B.B.A.A.C.B.A.A.D.B.B.E.C.A.A.F.A.B.B.B.B.A.B.G.D.A.B.B.A.A.D.B.A.C.B.D.A.A.E.B.A.B.B.A.A.A.D.A.B.D.B.A.C.B.A.A.D.E.A.A.A.A.A.B.B.B.A.B.A.B.A.B.B.A.B.A.C.A.A.A.A.A.B.A.A.A.A.B.A.D.F.B.A.A.A.A.B.A.A.A.B.A.B.B.D.A.B.B.A.B.A.B.A.B.B.A.B.A.C.A.A.A.A.A.B.A.A.B.B.A.B.A.B.A.B.B.A.B.A.C.A.A.A.A.A.B.A.A.A.A.B.A.D.F.B.A.A.A.A.B.A.A.A.B.A.B.B.D.A.D.A.A.E.A.A.A.A.A.A.A.A.A.A.C.A.D.D.F.A.A.E.A.A.D.A.A.A.E.A.B.B.F.A.A.A.B.A.B.B.A.B.A.G.A.A.[ H.H.",
"q.I.J.K.J.K.J.L.K.K.K.K.J.K.K.K.J.K.J.I.J.K.J.J.J.J.M.K.J.I.K.J.K.J.J.J.K.J.I.J.K.K.J.J.J.K.K.I.J.J.J.K.J.K.J.J.J.K.K.J.J.J.J.J.J.K.K.K.J.K.K.L.K.K.K.J.J.J.K.K.K.J.K.I.K.J.J.J.I.K.J.K.K.K.K.I.J.K.L.J.J.K.J.K.J.J.J.J.K.K.J.K.K.L.K.K.K.J.J.J.K.K.K.J.K.I.K.J.J.K.K.J.K.K.L.K.K.K.J.J.J.K.K.K.J.K.I.K.J.J.J.I.K.J.K.K.K.K.I.J.K.L.J.J.K.J.K.J.J.J.J.K.J.J.J.M.M.I.K.I.K.J.N.J.J.J.J.J.J.K.K.J.K.J.M.J.K.K.K.K.J.K.J.K.K.O.J.J.K.J.J.K.K.J.K.J.I.[ P.P.",
"q.Q.Q.R.S.R.T.T.T.R.S.S.Q.T.T.S.T.S.T.Q.T.R.S.R.S.T.R.T.Q.S.Q.S.Q.Q.S.T.Q.R.Q.R.R.T.S.R.R.S.T.Q.T.S.R.T.T.T.S.Q.S.Q.Q.S.S.S.Q.T.T.R.Q.Q.Q.T.S.S.T.R.Q.Q.T.T.R.T.T.Q.Q.T.Q.R.S.Q.Q.Q.T.R.T.S.Q.Q.T.Q.R.T.S.R.S.Q.S.T.T.Q.Q.Q.Q.T.S.S.T.R.Q.Q.T.T.R.T.T.Q.Q.T.Q.R.S.Q.Q.Q.T.S.S.T.R.Q.Q.T.T.R.T.T.Q.Q.T.Q.R.S.Q.Q.Q.T.R.T.S.Q.Q.T.Q.R.T.S.R.S.Q.S.T.T.Q.Q.Q.Q.Q.S.R.Q.R.S.T.Q.Q.Q.Q.U.S.T.S.Q.T.S.S.T.T.T.S.Q.Q.Q.S.S.Q.S.Q.Q.Q.Q.Q.R.S.R.S.T.T.R.Q.[ V.V.",
"W.X.Y.Z.`.Z. +`..+`..+Y..+.+.+++`.Z..+.+`.Y. +.+`..+`..+.+.+.+ +Y.`..+Y.Y.`. +Y..+.+.+.+`.Y.`.`..+.+.+Y..+.+Y.`..+.+.+`.Y.`.Y.`..+`..+.+.+`..+.+@+@+Y..+.+@+Y.@+`.Y.#+.+@+.+`.`.`..+#+.+Y.`..+Y..+`..+#+`..+++`..+.+.+Y..+.+.+`..+.+@+@+Y..+.+@+Y.@+`.Y.#+.+@+.+`..+.+.+`..+.+@+@+Y..+.+@+Y.@+`.Y.#+.+@+.+`.`.`..+#+.+Y.`..+Y..+`..+#+`..+++`..+.+.+Y.`.`.`..+.+Y..+ +`.Y..+Y..+`..+`.#+`.`..+.+Y..+Y.`.Y..+`..+`.@+@+`..+.+Y..+.+.+Y.`.#+`..+`.$+$+V.V.",
"V.%+&+&+&+&+&+&+&+&+&+&+&+&+&+&+&+&+&+&+&+&+&+&+&+&+&+&+&+&+&+&+&+&+&+&+&+&+&+&+&+&+&+&+&+&+&+&+&+&+&+&+&+&+&+&+&+&+&+&+&+&+&+&+&+&+&+&+&+&+&+&+&+&+&+&+&+&+&+&+&+&+&+&+&+&+&+&+&+&+&+&+&+&+&+&+&+&+&+&+&+&+&+&+&+&+&+&+&+&+&+&+&+&+&+&+&+&+&+&+&+&+&+&+&+&+&+&+&+&+&+&+&+&+&+&+&+&+&+&+&+&+&+&+&+&+&+&+&+&+&+&+&+&+&+&+&+&+&+&+&+&+&+&+&+&+&+&+&+&+&+&+&+&+&+&+&+&+&+&+&+&+&+&+&+&+&+&+&+&+&+&+&+&+&+&+&+&+&+&+&+&+&+&+&+&+&+&+&+&+&+&+&+&+&+&+] V.V.V.",
"V.V.V.V.V.V.V.V.V.V.V.V.V.V.V.V.V.V.V.V.V.V.V.V.V.V.V.V.V.V.V.V.V.V.V.V.V.V.V.V.V.V.V.V.V.V.V.V.V.V.V.V.V.V.V.V.V.V.V.V.V.V.V.V.V.V.V.V.V.V.V.V.V.V.V.V.V.V.V.V.V.V.V.V.V.V.V.V.V.V.V.V.V.V.V.V.V.V.V.V.V.V.V.V.V.V.V.V.V.V.V.V.V.V.V.V.V.V.V.V.V.V.V.V.V.V.V.V.V.V.V.V.V.V.V.V.V.V.V.V.V.V.V.V.V.V.V.V.V.V.V.V.V.V.V.V.V.V.V.V.V.V.V.V.V.V.V.V.V.V.V.V.V.V.V.V.V.V.V.V.V.V.V.V.V.V.V.V.V.V.V.V.V.V.V.V.V.V.V.V.V.V.V.V.V.V.V.V.V.V.V.V.V.V.V.V.V.V.V.V.",
"*+*+*+*+*+*+*+*+*+*+*+*+*+*+*+*+*+*+*+*+*+*+*+*+*+*+*+*+*+*+*+*+*+*+*+*+*+*+*+*+*+*+*+*+*+*+*+*+*+*+*+*+*+*+*+*+*+*+*+*+*+*+*+*+*+*+*+*+*+*+*+*+*+*+*+*+*+*+*+*+*+*+*+*+*+*+*+*+*+*+*+*+*+*+*+*+*+*+*+*+*+*+*+*+*+*+*+*+*+*+*+*+*+*+*+*+*+*+*+*+*+*+*+*+*+*+*+*+*+*+*+*+*+*+*+*+*+*+*+*+*+*+*+*+*+*+*+*+*+*+*+*+*+*+*+*+*+*+*+*+*+*+*+*+*+*+*+*+*+*+*+*+*+*+*+*+*+*+*+*+*+*+*+*+*+*+*+*+*+*+*+*+*+*+*+*+*+*+*+*+*+*+*+*+*+*+*+*+*+*+*+*+*+*+*+*+*+*+*+*+"};
