/* XPM */
static char * workspacebuttonactive_xpm[] = {
"31 28 154 2",
"  	c #F5F2E6",
". 	c #FBF9F5",
"+ 	c #F5F4EA",
"@ 	c #F5F2EA",
"# 	c #91A182",
"$ 	c #91A082",
"% 	c #F5F3EA",
"& 	c #99A78A",
"* 	c #CAE4A5",
"= 	c #778C66",
"- 	c #96A687",
"; 	c #9EAC8F",
"> 	c #C8E2A3",
", 	c #C8E2A4",
"' 	c #C9E2A3",
") 	c #C9E2A4",
"! 	c #728961",
"~ 	c #F4F1E9",
"{ 	c #748A61",
"] 	c #C6E0A1",
"^ 	c #C6DFA2",
"/ 	c #C7E0A2",
"( 	c #C7E0A1",
"_ 	c #C6E0A2",
": 	c #728960",
"< 	c #F3F1E7",
"[ 	c #C4DEA0",
"} 	c #C5DDA0",
"| 	c #C4DDA1",
"1 	c #C4DDA0",
"2 	c #C5DEA0",
"3 	c #C4DEA1",
"4 	c #F3F0E7",
"5 	c #C2DC9F",
"6 	c #C2DC9E",
"7 	c #C3DC9F",
"8 	c #C3DC9E",
"9 	c #C2DB9F",
"0 	c #EFECE1",
"a 	c #C1DA9D",
"b 	c #C0DA9D",
"c 	c #C0DA9E",
"d 	c #EAE6DA",
"e 	c #BED89B",
"f 	c #BFD89B",
"g 	c #BFD79B",
"h 	c #BFD89C",
"i 	c #BED89C",
"j 	c #E7E4D8",
"k 	c #BCD699",
"l 	c #BDD599",
"m 	c #BDD59A",
"n 	c #BCD59A",
"o 	c #BCD599",
"p 	c #BCD69A",
"q 	c #BDD699",
"r 	c #E5E1D5",
"s 	c #BBD498",
"t 	c #BAD398",
"u 	c #BBD398",
"v 	c #BAD498",
"w 	c #BAD397",
"x 	c #BAD497",
"y 	c #E1DDD0",
"z 	c #B9D197",
"A 	c #B8D197",
"B 	c #B9D196",
"C 	c #B9D296",
"D 	c #B8D196",
"E 	c #B8D297",
"F 	c #B8D296",
"G 	c #DBD7CB",
"H 	c #748A63",
"I 	c #B7CF95",
"J 	c #B7CF94",
"K 	c #B6CF95",
"L 	c #B6CF94",
"M 	c #B6D095",
"N 	c #B6D094",
"O 	c #D9D5C9",
"P 	c #B5CE94",
"Q 	c #B5CD93",
"R 	c #B4CD93",
"S 	c #B4CE93",
"T 	c #B5CE93",
"U 	c #D9D4C9",
"V 	c #B2CB92",
"W 	c #B3CB91",
"X 	c #B2CC92",
"Y 	c #B3CC92",
"Z 	c #B2CC91",
"` 	c #B3CB92",
" .	c #B3CC91",
"..	c #B2CB91",
"+.	c #DCDBCE",
"@.	c #B1C990",
"#.	c #B1CA90",
"$.	c #B0CA90",
"%.	c #B0C990",
"&.	c #B1C98F",
"*.	c #D7D3C7",
"=.	c #AEC88F",
"-.	c #AFC78E",
";.	c #AEC88E",
">.	c #AFC88E",
",.	c #AFC78F",
"'.	c #AFC88F",
").	c #AEC78F",
"!.	c #DBD9CD",
"~.	c #ADC68C",
"{.	c #ADC58D",
"].	c #ADC68D",
"^.	c #ACC68D",
"/.	c #ACC58D",
"(.	c #ADC58C",
"_.	c #D5D1C5",
":.	c #ABC38B",
"<.	c #ABC48B",
"[.	c #D5D0C4",
"}.	c #758B64",
"|.	c #A9C189",
"1.	c #A9C18A",
"2.	c #A9C289",
"3.	c #AAC18A",
"4.	c #AAC189",
"5.	c #A9C28A",
"6.	c #D5D0C3",
"7.	c #A7BF88",
"8.	c #A8BF88",
"9.	c #A7C088",
"0.	c #A8C088",
"a.	c #A7C087",
"b.	c #D4CFC3",
"c.	c #A4BD86",
"d.	c #A5BD86",
"e.	c #A5BC86",
"f.	c #A5BD85",
"g.	c #D3CFC2",
"h.	c #A3BB84",
"i.	c #A3BA85",
"j.	c #A3BA84",
"k.	c #A3BB85",
"l.	c #8FA478",
"m.	c #91A879",
"n.	c #A1B982",
"o.	c #A2B982",
"p.	c #A1B883",
"q.	c #A1B983",
"r.	c #A1B882",
"s.	c #A2B983",
"t.	c #738960",
"u.	c #97AD7C",
"v.	c #848670",
"w.	c #C2BEB4",
"                                                              ",
". . + + + + + + + + + + + + + + + + + + + + + + + + + + + . . ",
"+ + @ @ # # $ $ # # # $ $ $ $ $ $ $ $ $ $ $ $ $ # # # $ @ + + ",
"@ @ % & * * * * * * * * * * * * * * * * * * * * * * * = - @ @ ",
"% % ; > , > > , > ' , > > > , > > > ) ) , > > , , , > > ! % % ",
"~ ~ { ] ^ ] / ( _ ] _ _ _ _ _ _ ] _ _ _ ( _ ] _ _ _ ] _ : ~ ~ ",
"< < { [ } | [ 1 [ [ [ 2 [ 1 [ [ 1 [ 3 1 2 2 [ 2 [ [ [ [ : < < ",
"4 4 { 5 5 5 6 5 7 5 7 8 6 5 6 6 5 6 8 7 7 8 5 8 5 8 9 5 : 4 4 ",
"0 0 { a b c a b b b a b b a a a a b a a a b b b a a b b : 0 0 ",
"d d { e e e f g f h i i h e f f i i i h f h g f f f e f : d d ",
"j j { k l l m k n k o m n p p o p n o o q p m k m q p n : j j ",
"r r { s t u v u v u w t t v t u t v v v t v u u x t v u : r r ",
"y y { z A B C B A D D D D E B D A C A A F A A C B B F F : y y ",
"G G H I J I K K L I K M N M I K L J K J K M I L K N J K : G G ",
"O O H P Q R R Q S R P S R R R R T P R Q S R R Q R T T Q : O O ",
"U U H V W X Y Z ` `  ...` `  .W Y X V Y ` W Z W ` W V X : U U ",
"+.+.H @.#.@.@.#.@.@.@.$.@.%.@.@.&.#.@.@.@.@.#.#.@.@.%.#.: +.+.",
"*.*.H =.-.;.-.;.-.>.,.-.>.-.-.>.>.,.,.'.).-.,.-.-.=.>.).: *.*.",
"!.!.H ~.{.~.{.{.{.~.].^.{./.{.].].{.(.(.{.~.].{.(.{.(.].: !.!.",
"_._.H :.:.:.:.:.<.:.:.:.<.:.:.:.:.:.:.<.:.:.:.:.:.<.:.:.: _._.",
"[.[.}.|.1.|.2.1.3.1.1.2.2.4.1.1.|.|.4.1.3.|.1.|.2.1.|.5.: [.[.",
"6.6.}.7.8.8.7.7.7.7.9.7.8.8.0.7.7.7.7.7.8.8.7.8.7.a.7.7.: 6.6.",
"b.b.}.c.d.e.d.e.e.f.d.e.d.e.e.d.d.d.d.e.d.d.e.e.d.e.d.c.: b.b.",
"g.g.}.h.h.i.j.i.i.h.j.h.h.h.i.k.k.h.h.h.i.j.i.j.k.k.i.h.: g.g.",
"g.g.l.m.n.o.p.o.p.q.q.p.p.r.q.s.q.r.n.q.q.n.p.s.p.q.p.t.t.g.g.",
"g.g.g.u.v.v.v.v.v.v.v.v.v.v.v.v.v.v.v.v.v.v.v.v.v.v.v.{ g.g.g.",
"g.g.g.g.g.g.g.g.g.g.g.g.g.g.g.g.g.g.g.g.g.g.g.g.g.g.g.g.g.g.g.",
"w.w.w.w.w.w.w.w.w.w.w.w.w.w.w.w.w.w.w.w.w.w.w.w.w.w.w.w.w.w.w."};
