/* XPM */
static char * taskbuttonbg_xpm[] = {
"162 28 333 2",
"  	c None",
". 	c #F5F2E6",
"+ 	c #FBF9F5",
"@ 	c #F5F4EA",
"# 	c #F5F2EA",
"$ 	c #C7C6C5",
"% 	c #C6C6C4",
"& 	c #F5F3EA",
"* 	c #CBCAC8",
"= 	c #ECE9E1",
"- 	c #EFEEE5",
"; 	c #F0F0E7",
"> 	c #F0EFE6",
", 	c #EDEBE3",
"' 	c #ECE8E0",
") 	c #EDEBE2",
"! 	c #EAE7E0",
"~ 	c #E8E6DE",
"{ 	c #E8E5D9",
"] 	c #E8E5D7",
"^ 	c #E8E6DF",
"/ 	c #BBBBBB",
"( 	c #C9C9C6",
"_ 	c #CDCCC9",
": 	c #EAE8E0",
"< 	c #E9E7DF",
"[ 	c #ECE8E1",
"} 	c #ECEAE2",
"| 	c #EEECE4",
"1 	c #B9B9B9",
"2 	c #F4F1E9",
"3 	c #BABABA",
"4 	c #E8E6E0",
"5 	c #E8E5D8",
"6 	c #E8E6DD",
"7 	c #E8E6DC",
"8 	c #E8E6DB",
"9 	c #E8E5DB",
"0 	c #E8E5DA",
"a 	c #E8E5D6",
"b 	c #F3F1E7",
"c 	c #F3F0E7",
"d 	c #E5E1D7",
"e 	c #E6E2D7",
"f 	c #E6E3D7",
"g 	c #E7E3D7",
"h 	c #E7E4D7",
"i 	c #EFECE1",
"j 	c #DFDCCE",
"k 	c #DFDCCD",
"l 	c #DEDCCD",
"m 	c #DEDBCD",
"n 	c #E0DCCF",
"o 	c #E0DDD0",
"p 	c #E1DDD0",
"q 	c #E1DED1",
"r 	c #E2DED2",
"s 	c #E2DFD3",
"t 	c #E3DFD4",
"u 	c #E3E0D5",
"v 	c #E4E0D5",
"w 	c #E4E0D6",
"x 	c #E5E1D8",
"y 	c #E6E1D8",
"z 	c #E6E2D8",
"A 	c #EAE6DA",
"B 	c #DEDACC",
"C 	c #DDDACC",
"D 	c #E7E4D8",
"E 	c #DDD7C5",
"F 	c #DED7C5",
"G 	c #DAD6C5",
"H 	c #D7D4C6",
"I 	c #D6D3C5",
"J 	c #D8D5C7",
"K 	c #D9D6C8",
"L 	c #DAD7C9",
"M 	c #DBD8CA",
"N 	c #DCD9CB",
"O 	c #DBD7C9",
"P 	c #DBD7C8",
"Q 	c #DCD8CA",
"R 	c #E5E1D5",
"S 	c #D6D4C6",
"T 	c #D8D4C6",
"U 	c #D8D4C5",
"V 	c #D7D3C4",
"W 	c #D8D3C4",
"X 	c #D9D4C4",
"Y 	c #D9D3C4",
"Z 	c #D8D3C3",
"` 	c #DAD5C6",
" .	c #D9D4C5",
"..	c #DAD4C5",
"+.	c #DCD6C5",
"@.	c #DED8C6",
"#.	c #DED9C6",
"$.	c #DFD9C6",
"%.	c #DFD9C7",
"&.	c #DFDAC7",
"*.	c #DFDBC8",
"=.	c #B8B8B8",
"-.	c #D7D3C5",
";.	c #D6D2C5",
">.	c #D6D2C4",
",.	c #D6D1C4",
"'.	c #D5D1C4",
").	c #D5D0C3",
"!.	c #D5CFC3",
"~.	c #D5CFC2",
"{.	c #D6D0C3",
"].	c #D6D1C3",
"^.	c #DBD7CB",
"/.	c #D5D1C3",
"(.	c #B6B6B6",
"_.	c #D9D5C9",
":.	c #D6D3C4",
"<.	c #D7D4C5",
"[.	c #B5B5B5",
"}.	c #D9D4C9",
"|.	c #D9D5C6",
"1.	c #D8D5C6",
"2.	c #D7D2C5",
"3.	c #DBD6C5",
"4.	c #DCD7C5",
"5.	c #D5D0C2",
"6.	c #D4CFC1",
"7.	c #D5CFC1",
"8.	c #B4B4B4",
"9.	c #D7D2C7",
"0.	c #B3B3B3",
"a.	c #D7D5C7",
"b.	c #DAD5C7",
"c.	c #D9D5C7",
"d.	c #D9D4C6",
"e.	c #D9D5C5",
"f.	c #DAD6C7",
"g.	c #D7D3C3",
"h.	c #D6D2C2",
"i.	c #D5D1C2",
"j.	c #D6D2C3",
"k.	c #D4D0C1",
"l.	c #D4D0C2",
"m.	c #D4D0C3",
"n.	c #D2CEC1",
"o.	c #D2CEC0",
"p.	c #D2CEBF",
"q.	c #D3CEBF",
"r.	c #D3CEBE",
"s.	c #D5CFBE",
"t.	c #D5CFBD",
"u.	c #D4CEBD",
"v.	c #D4CFBD",
"w.	c #D4CEBC",
"x.	c #D4CFBE",
"y.	c #D5D0BF",
"z.	c #D6CFBE",
"A.	c #D2CDBF",
"B.	c #D1CDBF",
"C.	c #D1CEC0",
"D.	c #D0CDBF",
"E.	c #D0CCBE",
"F.	c #D6D1C6",
"G.	c #B2B2B2",
"H.	c #D5D2C3",
"I.	c #D7D2C2",
"J.	c #D6D1C2",
"K.	c #D5D0C1",
"L.	c #D3CFBF",
"M.	c #D1CEBF",
"N.	c #D1CEC1",
"O.	c #D1CCBE",
"P.	c #D3CFC2",
"Q.	c #D3CFC1",
"R.	c #D2CDC0",
"S.	c #D2CFBF",
"T.	c #D2CEBE",
"U.	c #D2CEBD",
"V.	c #D2CDBD",
"W.	c #D1CCBD",
"X.	c #D1CDBD",
"Y.	c #D1CDBE",
"Z.	c #D0CCBC",
"`.	c #D0CBBC",
" +	c #D0CBBD",
".+	c #D0CCBF",
"++	c #D1CDC0",
"@+	c #D0CCBD",
"#+	c #CFCBBB",
"$+	c #D1CDBC",
"%+	c #D0CCBB",
"&+	c #D1CCBB",
"*+	c #D1CCBC",
"=+	c #D0CDBD",
"-+	c #CFCDBD",
";+	c #CFCCBD",
">+	c #CECCBD",
",+	c #CFCCBE",
"'+	c #D5D0C4",
")+	c #B3B2B2",
"!+	c #D5D0BE",
"~+	c #D6D0C0",
"{+	c #D5D1C1",
"]+	c #D4CFC0",
"^+	c #D4CEBE",
"/+	c #D0CBBA",
"(+	c #CFCABA",
"_+	c #CFCBBA",
":+	c #CECABA",
"<+	c #CECABB",
"[+	c #CFCABB",
"}+	c #D0CBBB",
"|+	c #CEC9BB",
"1+	c #CFCBBD",
"2+	c #CFCBBC",
"3+	c #CFCABC",
"4+	c #CECABC",
"5+	c #CECBBC",
"6+	c #CEC9BA",
"7+	c #CEC9B9",
"8+	c #CFCCBC",
"9+	c #CECBBB",
"0+	c #CDCBBC",
"a+	c #CCCABB",
"b+	c #B2B2B1",
"c+	c #CFC9B8",
"d+	c #D2CDBC",
"e+	c #D0CABB",
"f+	c #D1CBBB",
"g+	c #D1CBBA",
"h+	c #D0C9B9",
"i+	c #D0CABA",
"j+	c #CFCAB9",
"k+	c #CFCCBB",
"l+	c #CEC8BA",
"m+	c #CEC7B7",
"n+	c #CEC8B9",
"o+	c #CEC8B8",
"p+	c #CEC8B7",
"q+	c #CEC7B6",
"r+	c #CEC7B8",
"s+	c #CCC7B7",
"t+	c #CCC8B9",
"u+	c #CBC7B8",
"v+	c #CBC8B9",
"w+	c #CAC7B8",
"x+	c #CAC6B7",
"y+	c #C9C5B6",
"z+	c #CAC8B9",
"A+	c #CBC9BA",
"B+	c #CBC8BA",
"C+	c #CCC9BB",
"D+	c #CCC9BA",
"E+	c #CBC7B7",
"F+	c #CCC6B5",
"G+	c #CDC6B6",
"H+	c #CDC7B6",
"I+	c #AFAFAF",
"J+	c #D2CDBE",
"K+	c #D2CEBC",
"L+	c #D2CCBC",
"M+	c #D3CEBD",
"N+	c #D2CFC0",
"O+	c #D1CBBD",
"P+	c #CFC9BC",
"Q+	c #D0CDBE",
"R+	c #D0C9BC",
"S+	c #D0CABC",
"T+	c #D2CCBD",
"U+	c #D1CBBC",
"V+	c #CDC8BA",
"W+	c #CCC7B9",
"X+	c #CCC8BA",
"Y+	c #CBC7B9",
"Z+	c #CAC7B9",
"`+	c #CAC6B8",
" @	c #CAC6B9",
".@	c #C9C5B8",
"+@	c #CBC9B9",
"@@	c #CCC7BA",
"#@	c #CBC6B8",
"$@	c #CAC5B6",
"%@	c #CAC5B7",
"&@	c #CAC5B8",
"*@	c #C7C3B7",
"=@	c #D4CFC3",
"-@	c #AEAEAE",
";@	c #CECABE",
">@	c #D3CFBE",
",@	c #CFCBBE",
"'@	c #D1CEBE",
")@	c #D1CEBD",
"!@	c #CDC9BC",
"~@	c #CECABD",
"{@	c #CFCABD",
"]@	c #D0CBBE",
"^@	c #CDC9BA",
"/@	c #CDC9BB",
"(@	c #CDC8BB",
"_@	c #CDC8B9",
":@	c #CDC7B9",
"<@	c #CCC7B8",
"[@	c #CDC8B8",
"}@	c #CDC7B8",
"|@	c #B3B3B1",
"1@	c #C7C3B4",
"2@	c #C8C4B5",
"3@	c #C7C3B5",
"4@	c #C5C0B3",
"5@	c #C4BFB3",
"6@	c #C5C0B4",
"7@	c #C6C1B4",
"8@	c #C6C1B3",
"9@	c #C4BFB2",
"0@	c #C5C0B2",
"a@	c #C5C0B1",
"b@	c #C6C1B2",
"c@	c #C7C0B1",
"d@	c #C7C0B0",
"e@	c #C6BFAF",
"f@	c #C6BFAE",
"g@	c #C6BFAD",
"h@	c #C6BFB0",
"i@	c #C5C0B0",
"j@	c #C5C1B3",
"k@	c #B1B1AE",
"l@	c #A2A1A0",
"m@	c #A3A2A0",
"n@	c #A3A1A0",
"o@	c #A5A3A1",
"p@	c #A3A2A1",
"q@	c #A1A19F",
"r@	c #C2BEB4",
". . . . . . . . . . . . . . . . . . . . . . . . . . . . . . . . . . . . . . . . . . . . . . . . . . . . . . . . . . . . . . . . . . . . . . . . . . . . . . . . . . . . . . . . . . . . . . . . . . . . . . . . . . . . . . . . . . . . . . . . . . . . . . . . . . . . . . . . . . . . . . . . . . . . . . . . . . . . . . . . . . ",
"+ + + + + + + + + + + + + + + + + + + + + + + + + + + + + + + + + + + + + + + + + + + + + + + + + + + + + + + + + + + + + + + + + + + + + + + + + + + + + + + + + + + + + + + + + + + + + + + + + + + + + + + + + + + + + + + + + + + + + + + + + + + + + + + + + + + + + + + + + + + + + + + + + + + + + + + + + + + + + + + + + + ",
"@ @ @ @ @ @ @ @ @ @ @ @ @ @ @ @ @ @ @ @ @ @ @ @ @ @ @ @ @ @ @ @ @ @ @ @ @ @ @ @ @ @ @ @ @ @ @ @ @ @ @ @ @ @ @ @ @ @ @ @ @ @ @ @ @ @ @ @ @ @ @ @ @ @ @ @ @ @ @ @ @ @ @ @ @ @ @ @ @ @ @ @ @ @ @ @ @ @ @ @ @ @ @ @ @ @ @ @ @ @ @ @ @ @ @ @ @ @ @ @ @ @ @ @ @ @ @ @ @ @ @ @ @ @ @ @ @ @ @ @ @ @ @ @ @ @ @ @ @ @ @ @ @ @ @ @ @ @ @ @ @ @ ",
"# # $ $ $ $ $ $ $ $ $ $ $ $ $ $ $ $ $ $ $ $ $ $ $ $ $ $ $ $ $ $ $ $ $ $ $ $ $ $ $ $ $ $ $ $ $ $ $ $ $ $ $ $ $ $ $ $ $ $ $ $ $ $ $ $ $ $ $ $ $ $ $ $ $ $ $ $ $ $ $ $ $ $ $ $ $ $ $ $ $ $ $ $ $ $ $ $ $ $ $ $ $ $ $ $ $ $ $ $ $ $ $ $ $ $ $ $ $ $ $ $ $ $ $ $ $ $ $ $ $ $ $ $ $ $ $ $ $ $ $ $ $ $ $ $ $ $ $ $ $ $ $ $ $ $ $ % $ # # # ",
"& * = = = = = = = - ; > > > > > > > > > , ' = ' > > > > > > > > > > > > > > > > > > > > > > > > > > > > > ) ! ~ { ] ^ ^ ^ ^ ^ ^ ^ ^ ^ ^ ^ ^ ^ ^ ^ ^ ^ ^ ^ ^ ^ ^ ^ ^ ^ ^ ^ ^ ^ ^ ^ ^ ^ ^ ^ ^ ^ ^ ^ ^ ^ ^ ^ ^ ^ ^ ^ ^ ^ ^ ^ ^ ^ ^ ^ ^ ^ ^ ^ ^ ^ ^ ^ ^ ^ ^ ^ ^ ^ ^ ^ ^ ^ ^ ^ ^ ^ ^ ^ ^ ^ ^ ^ ^ ^ ^ ^ ^ ^ ^ ^ ^ ^ ^ ^ ^ ^ ^ ^ ^ / ( & & ",
"_ ^ ^ ^ ^ : = < ^ ^ ! = = = = - = - - = = = = = = = = = = = = = = = = = = = = = = = = = = [ } - ; > ; | = = = = = = = = = = = = = = = = = = = = = = = = = = = = = = = = = = = = = = = = = = = = = = = = = = = = = = = = = = = = = = = = = = = = = = = = = = = = = = = = = = = = = = = = = = = = = = = = = = = = = = = = = = = 1 2 2 ",
"3 ^ ^ ^ ^ ^ ^ ^ ^ ^ 4 ^ 5 { ^ ^ ^ ^ ^ ^ ^ ^ ^ ^ ^ ^ ^ ^ ^ ^ ^ ^ ^ ^ ^ ^ ^ ^ ^ ^ ^ ^ ^ ^ ^ ^ ^ ^ ^ ^ ^ ^ ^ ^ ^ ^ ^ ^ ^ ^ ^ ^ ^ ^ ^ ^ ^ ^ ^ ^ ^ ^ ^ ^ ^ ^ ^ ^ ^ ^ ^ ^ ^ ^ ^ ^ ^ ^ ^ ^ ^ ^ ^ 4 4 4 4 4 4 ^ ^ ~ ~ 6 7 8 9 0 { { 5 ] ] a a a a a a a ] ] ] ] ] ] ] ] ] ] ] ] ] ] ] ] ] ] ] ] ] ] ] ] ] ] ] ] ] ] ] ] ] ] ] ] ] ] ] 1 b b ",
"3 ] ] ] ] ] ] ] ] ] ] ] ] ] ] ] ] ] ] ] ] ] ] ] ] ] ] ] ] ] ] ] ] ] ] ] ] ] ] ] ] ] ] ] ] ] ] ] ] ] ] ] ] ] ] ] ] ] ] ] ] ] ] ] ] ] ] ] ] ] ] ] ] ] ] ] ] ] ] ] ] ] ] ] ] ] ] ] ] ] ] ] ] ] ] ] ] ] ] ] ] ] ] ] ] ] ] ] ] ] ] ] ] ] ] ] ] ] ] ] ] ] ] ] ] ] ] ] ] ] ] ] ] ] ] ] ] ] ] ] ] ] ] ] ] ] ] ] ] ] ] ] ] ] ] ] ] ] ] 1 c c ",
"1 d d d d d d d d d d d d d d d d d d d d d d d d d d d d d d d d d d d d d d d d d d d d d d d d d d d d d d d d d d d d d d d d d d d d d d d d d d d d d d d d d d d d d d d d d d d d d d d d d d d d d d d d d d d d d d d d d d d d d d d d d d d d d d d d d d d d d d d d d e e e f g h h h ] ] ] ] ] ] ] ] ] ] ] ] ] 1 i i ",
"1 j j j j j j j j j j j j j j j j j j j j j j j j j j j j j j j j j j j j j j j j j j j j j j j j j j j j j j j j j j j j j j j j j j j j j j j j j j j j j j j j j j j j j j j j j j j j j j j j j j j j j j j j j j j j j j j j j j j k k l m m m k j j n o p q r s t u v w d d x y z z z y x d d d d w v w d d d d d d d d 1 A A ",
"1 j j j j j j j j j j j j j j j j j j j j j j j j j j j j j j j j j j j j j j j j j j j j j j j j j j j j j j j j j j j j j j j j j j j j j j j j j j j j j j j j j j j j j j j j j j j j j j j j j j j j j j j j j j j j j j j j j j j j j j j j j j j j j j j j j j j j j j j j j j j j j j j j j j j B C C m j j j j j j j 1 D D ",
"1 E E E F G H H H H H H H H H H H H H H H H H H H H H H H H H H H H H H H H H H H H H H H H H H H H I I H J J K K L L M M M N N N M M C m m C C m j j j j j j j j j j j j j j j j j j j j j j j j j j j j j j j j j j j j j j j j j j j j j j j j j j j j j j j j j j j j j j j j j j j j j j j m m B N O P Q m j j j j j j j 1 R R ",
"1 H H H H H H H H H H H H H H H H H H H H H H H H H H H H H H H H H H H H H H H H H H H H H H H H H H H H H H H H H H H H H H H H H H H H H H H H H H H H H H H H H H H H H H H H H H H H H H H H H H H H H H H H H H H H H H H H H H H H H H H H H H H H H H H H S S S S S H H H T T U V W X Y Z Y U `  ...+.@.#.$.%.&.&.&.*.=.p p ",
"1 H H H H H H H H H H H H H H H H H H H H H H H H H H H H H H H H H H H H H H H H H H H H H H H H H H H H H H H H H H H H H H H H H H H H H H H H H H H H H H H H H H H H H H H H H H H H H H H H H H H H H H H H H H H H H H H H H H H H H H H H H H H H H -.I I ;.>.,.,.'.).).).).).!.~.~.~.~.~.!.{.].].).).).).>.;.I I -.H =.^.^.",
"=.H H H H H H H H H H H H H H H H H H H H H H H H H H H H H H H H H H H H H H H H H H H H H H H H H H H H H H H H H H H H H H H H H H H H H H H H H H H H H H H H H H H H H H H H H H H H H H H H H H H H H H H H H H H H H H H H H H H H H H H H H H H H H -.I ;.>.,.,./.).).).).).).).).).>.;.;.I ,.'.>.I I H H H H H H H H (._._.",
"=.H H H S S S S S S S S S S S S S S S S S S S S S S S S S S S S S S S S S S S S S S S S S S S S S S S H H H I ,.,.,.,.,.,.,.,.'.,.,.,.,.,.,.,.,.,.,.,.,.,.,.,.,.,.,.,.,.,.,.,.,.,.,.,.,.,.,.>.>.>.>.>.>.>.>.>.>.>.>.>.>.>.>.>.>.>.>.>.>.>.>.>.>.>.>.>.>.>.>.>.,.,./././.).).).).).).).).)./././.].,.>.>.>.>.:.I I -.-.-.<.H H [.}.}.",
"(.H H H |.|.|.|.|.|.|.|.|.|.|.|.|.|.|.|.|.|.|.|.|.|.|.|.|.|.|.|.|.|.|.|.|.|.|.|.|.|.|.|.|.|.|.|.|.|.|.1.H H ;.'.'.'.'.'.'.'.'.'.'.'.'.'.'.'.'.'.'.'.'.'.'.'.'.'.'.'.'.'.'.'.'.'.'.'.'.'.'.'.).).).).).).).).).).).).).).).).).).).).).).).).).).).).).).).).).).).).).).).).).).).).).).).).).).).).).).).)./.,.,.,.>.>.>.2.-.[.}.}.",
"[.H S T 3.F E E E E E E E E E E E E E E E E E E E E 4.E +.E E E E E E E E E E E E E E E 4.+.+.+.+.3.3.G  .<.<.<.:.:.>.>.I >.I I I I >.>.I I I >.I H H H I I H H H I I H H H I I I :.-.I I >.>.>.,.'.).).).).).).).).).).5.6.7.7.5.).).).).).).).).).).).).).).).).).).).).).).).).).).).).).).).).).).).).).).).).).).).).).).8.9.9.",
"0.a.a.J ` b.c.c.c.T d.T e.T U U U U |.f.f.f.f.U f.f.-.U -.|.f.f.f.f.f.|.|.U U |.|.|.|.|.U V V V g.h.h.i.j.k.l.5.k.5.5.i.>.i./.j.5.k.l././.l.l./././.l.l./././.l.l./././.l.l.m.m.n.o.p.p.p.p.p.p.q.q.q.r.r.s.t.t.u.u.t.t.v.w.v.x.y.z.s.s.x.x.q.q.p.p.A.B.B.B.B.C.B.D.B.B.o.B.B.o.o.B.B.B.B.B.B.B.B.B.B.B.B.B.D.E.D.B.B.B.B.B.B.8.F.F.",
"G.h.j.:.V H.I.J.K.y.y.y.y.L.L.M.L.M.M.p.o.M.n.o.C.N.O.O.B.B.C.C.N.P.Q.n.R.D.B.B.o.o.C.M.M.M.S.S.p.T.U.V.W.X.W.W.W.W.W.W.Y.Y.Y.O.O.Z.`.`. + +Y.B.B..+++++B.B.++++B.B.B..+ + + + + + + + + + + + + + +@+@+ +@+@+Z.#+#+#+#+$+$+%+&+&+V.V.*+X.=+=+-+-+;+>+>+>+>+;+;+,+>+>+;+;+E.>+;+>+,+>+>+>+>+>+;+>+;+>+>+>+;+>+>+>+>+>+>+>+>+>+8.'+'+",
")+!+~+{+K.]+x.x.^+&+&+/+/+/+/+/+/+/+(+_+_+(+(+(+:+:+(+:+:+:+:+:+:+:+:+:+:+:+:+:+:+:+<+<+:+[+`.}+}+*+*+#+#+[+|+|+1+1+2+3+3+3+3+[+1+<+[+[+3+1+1+1+1+1+2+<+<+4+4+,+1+;+5+4+6+6+7+7+7+7+<+[+3+|+2+#+6+<+6+4+4+1+1+<+:+#+2+8+9+2+2+}+`.#+W.@+,+,+;+,+,+;+;+,+,+,+>+>+>+>+>+>+>+>+>+0+a+a+a+0+>+>+>+>+>+>+>+>+>+>+0+5+0+,+>+,+,+,+,+0.'+'+",
"b+c+}+d+V.*+e+f+g+h+h+i+g+j+(+k+(+k+_+2+2+3+l+l+m+m+n+o+o+o+o+m+m+m+m+m+m+m+m+m+m+m+m+m+m+m+m+m+m+m+m+p+o+o+m+m+o+o+o+m+m+o+o+o+m+m+m+m+q+q+q+q+q+q+q+q+q+p+p+p+p+q+p+p+p+m+q+q+q+q+q+q+m+m+m+q+q+q+q+q+q+q+q+m+m+m+q+q+q+q+q+q+q+m+o+o+r+s+t+u+v+w+x+x+y+x+u+z+z+A+A+v+A+v+w+A+w+v+z+v+B+B+z+B+C+a+a+z+A+D+z+v+v+t+t+E+F+G+H+0.).).",
"I+,+J+V.K+L+L+L+L+M+u.d+d+V.M+L.M+L.N+C.E.B.A.O+P+1+W.`.Q+@+R+P+1+ + +2+2+`.@+E.E. +O.E. +X.@+W.*+*+*+*+ +1+1+1+1+ +E.Y.E. + +`.6+|+|+<+2+|+|+|+|+|+|+<+2+4+4+3+3+S+S+e+*+i+}+}+&+/+e+Z.}+`.W.T+U+f+i+i+i+j+/+(+(+(+j+[+(+[+[+(+_+(+:+6+6+6+V+W+W+X+t+W+Y+t+Y+Z+w+`+v+v+v+v+Z+v+ @w+Y+`+Z+Y+Y+.@.@`+Y+v+v++@C+@@#@#@$@%@&@&@*@0.=@=@",
"-@;@O.O.p.J+q.T.T.L.L.>@X.T.T.B.T.B.B.++E.,@D.C.[+`.C.Y.'@X.}+[+`.W.X.)@'@'@'@Y.Q+M.M.M.p.p.T.L.L.r.J+X.1+!@~@~@,@,@~@,@,@,@,@1+1+ + + + + +`.`.@+E. +2+4+4+~@~@,@{@,@,@,@1+1+1+E.]@]@ + +@+@+@+Z.Z.Z.Z.Z.Z.#+#+Z.Z.`.}+[+[+6+6+[+[+^@t+Y+Y+X+X+X+@@W+@@V+X+/@(@C+D+D+D+D+D+D+D+D+D+X+v+v+v+Y+X+u+v+v+X+/@^@^@_@:@<@<@[@[@}@%@G.P.P.",
"|@8.1@1@1@1@1@1@1@1@1@2@2@3@4@4@4@4@4@4@4@5@4@4@6@4@4@4@4@7@6@6@4@4@4@4@4@4@4@4@4@4@4@4@4@7@8@4@4@7@5@6@7@4@4@4@4@4@4@4@4@4@4@4@4@4@4@4@4@4@6@6@6@6@7@7@7@9@0@a@b@c@d@e@f@f@g@g@g@g@g@f@f@e@h@i@a@0@0@4@4@4@6@6@6@6@6@4@4@4@4@4@4@4@4@4@4@4@4@4@4@4@4@4@4@4@4@4@4@4@4@4@4@4@4@4@4@4@4@4@4@7@4@8@7@j@4@4@4@4@4@4@4@4@4@4@4@4@G.G.P.P.",
"P.k@l@l@l@l@l@l@l@l@l@l@m@n@l@l@l@l@l@l@l@l@l@l@l@l@l@l@l@l@l@l@l@l@l@l@l@l@l@l@l@l@l@l@l@l@l@l@l@l@l@l@l@l@l@l@l@l@l@l@l@l@l@l@l@l@l@l@l@l@l@l@l@l@m@o@m@l@l@l@l@m@l@l@l@l@l@l@l@l@l@l@l@l@l@l@l@l@l@l@l@l@l@l@l@l@l@l@l@l@l@l@l@l@l@l@l@l@l@l@l@l@l@l@l@l@l@l@l@l@l@l@l@l@l@l@l@l@l@l@l@m@l@n@p@n@l@l@l@l@l@l@l@l@l@l@l@q@0.P.P.P.",
"P.P.P.P.P.P.P.P.P.P.P.P.P.P.P.P.P.P.P.P.P.P.P.P.P.P.P.P.P.P.P.P.P.P.P.P.P.P.P.P.P.P.P.P.P.P.P.P.P.P.P.P.P.P.P.P.P.P.P.P.P.P.P.P.P.P.P.P.P.P.P.P.P.P.P.P.P.P.P.P.P.P.P.P.P.P.P.P.P.P.P.P.P.P.P.P.P.P.P.P.P.P.P.P.P.P.P.P.P.P.P.P.P.P.P.P.P.P.P.P.P.P.P.P.P.P.P.P.P.P.P.P.P.P.P.P.P.P.P.P.P.P.P.P.P.P.P.P.P.P.P.P.P.P.P.P.P.P.P.P.P.P.",
"r@r@r@r@r@r@r@r@r@r@r@r@r@r@r@r@r@r@r@r@r@r@r@r@r@r@r@r@r@r@r@r@r@r@r@r@r@r@r@r@r@r@r@r@r@r@r@r@r@r@r@r@r@r@r@r@r@r@r@r@r@r@r@r@r@r@r@r@r@r@r@r@r@r@r@r@r@r@r@r@r@r@r@r@r@r@r@r@r@r@r@r@r@r@r@r@r@r@r@r@r@r@r@r@r@r@r@r@r@r@r@r@r@r@r@r@r@r@r@r@r@r@r@r@r@r@r@r@r@r@r@r@r@r@r@r@r@r@r@r@r@r@r@r@r@r@r@r@r@r@r@r@r@r@r@r@r@r@r@r@r@r@"};
