/* XPM */
static char * closeI_xpm[] = {
"32 70 457 2",
"  	c None",
". 	c #9E9B85",
"+ 	c #D1CEBF",
"@ 	c #F6F3E9",
"# 	c #FAF8F3",
"$ 	c #F8F6EF",
"% 	c #F8F7EF",
"& 	c #F8F7F0",
"* 	c #F9F7F0",
"= 	c #F9F8F0",
"- 	c #F5F3EA",
"; 	c #F5F4EA",
"> 	c #F4F2E9",
", 	c #EFEEE5",
"' 	c #E9E8E0",
") 	c #E3E3DC",
"! 	c #DFDFD8",
"~ 	c #DDDDD7",
"{ 	c #DCDCD6",
"] 	c #DDDDD6",
"^ 	c #DEDED7",
"/ 	c #E1E1DA",
"( 	c #E6E5DE",
"_ 	c #ECEBE3",
": 	c #F1F0E7",
"< 	c #F5F2EA",
"[ 	c #EEECE4",
"} 	c #DCDBD7",
"| 	c #C8C8C8",
"1 	c #B6B8BA",
"2 	c #ACAEB1",
"3 	c #A4A7AB",
"4 	c #A1A4A9",
"5 	c #A2A5A9",
"6 	c #A2A4A9",
"7 	c #A7AAAE",
"8 	c #B0B2B5",
"9 	c #BDBFC0",
"0 	c #D1D1CF",
"a 	c #E5E3DE",
"b 	c #F3F0E8",
"c 	c #EDEBE4",
"d 	c #DADAD6",
"e 	c #BCBDBE",
"f 	c #AEB0B6",
"g 	c #BABCBF",
"h 	c #D3D3D0",
"i 	c #D6D6D1",
"j 	c #D5D4D0",
"k 	c #D7D6D2",
"l 	c #CACAC9",
"m 	c #B1B3B9",
"n 	c #B1B4B7",
"o 	c #C9CAC8",
"p 	c #F2EFE7",
"q 	c #E2E0DB",
"r 	c #C4C5C4",
"s 	c #A8ACB1",
"t 	c #B7B9BD",
"u 	c #D7D6D4",
"v 	c #F6F4EB",
"w 	c #F6F3EA",
"x 	c #E8E6E0",
"y 	c #C8C9CA",
"z 	c #ABAEB3",
"A 	c #B2B4B7",
"B 	c #D2D2CF",
"C 	c #B5B7BB",
"D 	c #D9D8D5",
"E 	c #F1EEE7",
"F 	c #F4F1E9",
"G 	c #EBE8E2",
"H 	c #C6C7C7",
"I 	c #AFB2B6",
"J 	c #BEBEBF",
"K 	c #E7E5DE",
"L 	c #F2F0E6",
"M 	c #CAC9C7",
"N 	c #AFB1B3",
"O 	c #D9D9D4",
"P 	c #EDEBE3",
"Q 	c #F4F2E8",
"R 	c #F3F1E8",
"S 	c #F4F1E8",
"T 	c #F2F0E7",
"U 	c #C6C6C5",
"V 	c #AFB0B3",
"W 	c #E2E1DA",
"X 	c #F5F2E9",
"Y 	c #F1EFE6",
"Z 	c #C3C3C1",
"` 	c #ACAEAF",
" .	c #E9E7DF",
"..	c #F3F1E7",
"+.	c #F4F1E7",
"@.	c #E6E4DC",
"#.	c #CFCEC7",
"$.	c #CECDC7",
"%.	c #E0DED6",
"&.	c #F5F2E8",
"*.	c #EDEAE1",
"=.	c #D5D4CD",
"-.	c #CCCBC5",
";.	c #D8D7CF",
">.	c #F0EDE4",
",.	c #D0CFCB",
"'.	c #A4A6AA",
").	c #DFDED7",
"!.	c #F1EEE5",
"~.	c #BFBFBD",
"{.	c #A6A8AA",
"].	c #E7E5DD",
"^.	c #F3F0E6",
"/.	c #D2D0CA",
"(.	c #858789",
"_.	c #7D7F84",
":.	c #B5B5B2",
"<.	c #E7E4DC",
"[.	c #F2EFE6",
"}.	c #EFECE3",
"|.	c #D6D4CE",
"1.	c #969799",
"2.	c #75777D",
"3.	c #A7A7A5",
"4.	c #EAE7DF",
"5.	c #F3F0E7",
"6.	c #CCCCC8",
"7.	c #9EA1A5",
"8.	c #DEDCD6",
"9.	c #EEEBE1",
"0.	c #BDBDBA",
"a.	c #A4A6A8",
"b.	c #E4E2D9",
"c.	c #F2EEE4",
"d.	c #F0EDE3",
"e.	c #F1EEE4",
"f.	c #D0CEC7",
"g.	c #808286",
"h.	c #696C74",
"i.	c #838488",
"j.	c #AFAFAD",
"k.	c #E1DFD6",
"l.	c #EFECE1",
"m.	c #CDCBC5",
"n.	c #999A9B",
"o.	c #74767C",
"p.	c #6A6D75",
"q.	c #A4A4A3",
"r.	c #E7E5DB",
"s.	c #CAC9C4",
"t.	c #9C9EA2",
"u.	c #DCDAD2",
"v.	c #F2EFE4",
"w.	c #EBE8DC",
"x.	c #BABAB7",
"y.	c #A2A3A5",
"z.	c #E1DFD5",
"A.	c #EEEBDF",
"B.	c #EDE9DE",
"C.	c #EDEADE",
"D.	c #DDDAD0",
"E.	c #B6B4AF",
"F.	c #848688",
"G.	c #656971",
"H.	c #7D7F83",
"I.	c #B6B5B1",
"J.	c #DCD9D0",
"K.	c #E7E4D9",
"L.	c #CDCBC4",
"M.	c #9D9D9C",
"N.	c #6B6E76",
"O.	c #6E7177",
"P.	c #9C9C9A",
"Q.	c #C9C6BF",
"R.	c #E8E5DA",
"S.	c #EEEADE",
"T.	c #C7C6C1",
"U.	c #9A9CA0",
"V.	c #D9D6CE",
"W.	c #E8E4D9",
"X.	c #B8B7B4",
"Y.	c #9FA1A2",
"Z.	c #DEDBD1",
"`.	c #EBE7DB",
" +	c #EAE6DA",
".+	c #E1DDD2",
"++	c #B0AFAB",
"@+	c #7F8184",
"#+	c #6C6F76",
"$+	c #777A7F",
"%+	c #B3B2AD",
"&+	c #CDCAC2",
"*+	c #939494",
"=+	c #6C7077",
"-+	c #72747A",
";+	c #919293",
">+	c #CAC8C0",
",+	c #E9E6DA",
"'+	c #C5C3BD",
")+	c #989A9D",
"!+	c #D6D3CA",
"~+	c #E6E3D7",
"{+	c #B6B5B2",
"]+	c #9D9FA0",
"^+	c #DCDACF",
"/+	c #E9E6D9",
"(+	c #E8E4D8",
"_+	c #E8E5D9",
":+	c #DCD9CF",
"<+	c #B6B5B0",
"[+	c #797B80",
"}+	c #696D74",
"|+	c #7F8183",
"1+	c #8C8D8D",
"2+	c #717479",
"3+	c #939394",
"4+	c #CDCBC2",
"5+	c #E2DFD4",
"6+	c #C2C1BC",
"7+	c #95979B",
"8+	c #D4D1C9",
"9+	c #E4E1D5",
"0+	c #B4B3B0",
"a+	c #9B9D9E",
"b+	c #DBD8CE",
"c+	c #E7E4D8",
"d+	c #D8D5CB",
"e+	c #B4B3AE",
"f+	c #818285",
"g+	c #64686F",
"h+	c #65686F",
"i+	c #6A6E74",
"j+	c #9A9A98",
"k+	c #C6C4BC",
"l+	c #E2DFD3",
"m+	c #C1C0BA",
"n+	c #939598",
"o+	c #D2D0C7",
"p+	c #E3DFD3",
"q+	c #B2B1AE",
"r+	c #999B9C",
"s+	c #D9D6CB",
"t+	c #E6E2D5",
"u+	c #E4E0D4",
"v+	c #E5E1D4",
"w+	c #DFDBD0",
"x+	c #C9C6BE",
"y+	c #64676F",
"z+	c #6D7076",
"A+	c #ACAAA6",
"B+	c #D7D3C9",
"C+	c #BFBDB7",
"D+	c #919396",
"E+	c #D0CDC4",
"F+	c #E0DCCF",
"G+	c #979899",
"H+	c #D6D3C8",
"I+	c #E3DFD2",
"J+	c #E1DDD1",
"K+	c #E2DDD1",
"L+	c #E1DDD0",
"M+	c #E0DCD0",
"N+	c #C4C2B9",
"O+	c #8E8F90",
"P+	c #6F7277",
"Q+	c #6A6D73",
"R+	c #6E7176",
"S+	c #696B71",
"T+	c #7A7C80",
"U+	c #A6A5A2",
"V+	c #D7D3C8",
"W+	c #E2DED1",
"X+	c #BDBBB4",
"Y+	c #8F9194",
"Z+	c #CECBC1",
"`+	c #DCD8CC",
" @	c #ADACA8",
".@	c #949597",
"+@	c #D3CFC5",
"@@	c #DFDBCE",
"#@	c #DEDACD",
"$@	c #DBD7CB",
"%@	c #BFBCB5",
"&@	c #959694",
"*@	c #676B72",
"=@	c #949492",
"-@	c #A9A7A2",
";@	c #7B7D80",
">@	c #61666E",
",@	c #AAA9A4",
"'@	c #B9B8B1",
")@	c #8C8E91",
"!@	c #CAC7BE",
"~@	c #D9D5C9",
"{@	c #AAA9A5",
"]@	c #929394",
"^@	c #D0CCC2",
"/@	c #D5D1C6",
"(@	c #C2BFB7",
"_@	c #909090",
":@	c #676B73",
"<@	c #6D7075",
"[@	c #BCB9B2",
"}@	c #CFCBC1",
"|@	c #A4A3A0",
"1@	c #7B7E81",
"2@	c #666A71",
"3@	c #73767B",
"4@	c #CDCAC0",
"5@	c #B6B5AF",
"6@	c #8A8C8F",
"7@	c #C7C4BB",
"8@	c #D8D4C8",
"9@	c #A8A7A4",
"0@	c #909192",
"a@	c #DBD7CA",
"b@	c #DAD6CA",
"c@	c #8B8B8D",
"d@	c #6D7176",
"e@	c #6A6D74",
"f@	c #88898B",
"g@	c #C0BDB5",
"h@	c #D6D2C6",
"i@	c #D0CDC2",
"j@	c #A8A7A3",
"k@	c #74777C",
"l@	c #696D73",
"m@	c #77797D",
"n@	c #A3A39F",
"o@	c #D3CFC4",
"p@	c #B5B3AD",
"q@	c #888A8D",
"r@	c #C6C3BA",
"s@	c #A7A6A3",
"t@	c #8F9091",
"u@	c #CECAC0",
"v@	c #D9D4C9",
"w@	c #DAD5CA",
"x@	c #BBB8B0",
"y@	c #707378",
"z@	c #636870",
"A@	c #D4CFC5",
"B@	c #CBC7BE",
"C@	c #ABAAA5",
"D@	c #787A7E",
"E@	c #5E636C",
"F@	c #929290",
"G@	c #D1CDC2",
"H@	c #B4B2AD",
"I@	c #87888B",
"J@	c #C5C2BA",
"K@	c #DBD6CA",
"L@	c #D7D2C7",
"M@	c #A8A6A3",
"N@	c #909091",
"O@	c #D8D3C8",
"P@	c #C4C0B7",
"Q@	c #9A9995",
"R@	c #969695",
"S@	c #B7B4AE",
"T@	c #CDC8BF",
"U@	c #939291",
"V@	c #ABA8A3",
"W@	c #D3CEC4",
"X@	c #B5B2AD",
"Y@	c #88898C",
"Z@	c #C5C1B9",
"`@	c #AAA8A4",
" #	c #929293",
".#	c #C9C5BC",
"+#	c #D6D1C7",
"@#	c #D4D0C5",
"##	c #D0CCC1",
"$#	c #D0CBC1",
"%#	c #D1CCC2",
"&#	c #D2CDC3",
"*#	c #D6D1C6",
"=#	c #B2B0AB",
"-#	c #8C8D8F",
";#	c #D4CFC4",
">#	c #B1AFA9",
",#	c #8F9092",
"'#	c #A4A4A4",
")#	c #D6D1C5",
"!#	c #D7D2C6",
"~#	c #D7D1C6",
"{#	c #B6B4B0",
"]#	c #97989A",
"^#	c #969696",
"/#	c #C7C3B9",
"(#	c #D4CFC3",
"_#	c #BCB9B1",
":#	c #989998",
"<#	c #86898F",
"[#	c #A6A5A4",
"}#	c #C5C2B9",
"|#	c #D7D2C5",
"1#	c #CFCAC0",
"2#	c #BAB7B2",
"3#	c #929497",
"4#	c #898C90",
"5#	c #A7A6A2",
"6#	c #CBC6BC",
"7#	c #D5D0C4",
"8#	c #D5D0C3",
"9#	c #C8C4BA",
"0#	c #AEADA7",
"a#	c #8B8C8E",
"b#	c #85888E",
"c#	c #A3A2A3",
"d#	c #CECABE",
"e#	c #CDC9BD",
"f#	c #BBB8B1",
"g#	c #919397",
"h#	c #83858A",
"i#	c #BCB9B0",
"j#	c #D0CBBF",
"k#	c #D6D1C4",
"l#	c #D1CDC1",
"m#	c #C5C2B8",
"n#	c #ACABA5",
"o#	c #959697",
"p#	c #8C8D90",
"q#	c #939392",
"r#	c #90908F",
"s#	c #8D8D8D",
"t#	c #8E8E8D",
"u#	c #8D8F92",
"v#	c #9F9F9D",
"w#	c #B8B6AE",
"x#	c #CDC8BD",
"y#	c #D3CEC2",
"z#	c #D4D0C3",
"A#	c #D1CCC0",
"B#	c #B8B5AE",
"C#	c #ABA9A4",
"D#	c #A1A09C",
"E#	c #9C9C98",
"F#	c #9B9A97",
"G#	c #9B9B97",
"H#	c #9E9D99",
"I#	c #A5A49F",
"J#	c #B0AEA8",
"K#	c #BEBBB3",
"L#	c #CBC7BC",
"M#	c #D3CFC2",
"N#	c #D2CEC2",
"O#	c #D1CEC1",
"P#	c #D1CDC0",
"Q#	c #D0CCC0",
"R#	c #CFCCC0",
"S#	c #CFCCBF",
"T#	c #CFCBBF",
"U#	c #D2CEC1",
"V#	c #CFCCC1",
"W#	c #C5C2B3",
"X#	c #BCB9A5",
". . . . . . . . . . . . . . . . . . . . . . . . . . . . . . . . ",
"+ + + + + + + + + + + + + + + + + + + + + + + + + + + + + + + + ",
"@ @ @ @ @ @ @ @ @ @ @ @ @ @ @ @ @ @ @ @ @ @ @ @ @ @ @ @ @ @ @ @ ",
"# # # # # # # # # # # # # # # # # # # # # # # # # # # # # # # # ",
"$ $ $ % & * * = = = = = = = = = = = = = = = = = * * % % $ $ $ $ ",
"- ; > , ' ) ! ~ { { { { { { { { { { { { { { ] ^ / ( _ : - ; - - ",
"< < [ } | 1 2 3 4 5 5 5 5 5 5 5 5 5 5 5 5 6 5 7 8 9 0 a b < < < ",
"< c d e f g h i j j j j j j j j j j j j j j j k l m n o a p - - ",
"> q r s t u p v w w w w w w w w w w w w w w w v x y z A B _ - < ",
"b j A C D E F F F F F F F F F F F F F F F F F F b G H I J K < F ",
"L M N O P Q R R S Q Q S R R R R R R R Q Q S R R Q T ( U V W X R ",
"Y Z `  .X ....+.@.#.$.%...S ......&.*.=.-.;.>.S ....Q ,.'.).&...",
"!.~.{.].S ^.^.+./.(._.:.<.!.^.^.[.}.|.1.2.3.4.+.^.^.5.6.7.8.S ^.",
"9.0.a.b.c.d.d.e.f.g.h.i.j.k.e.d.l.m.n.o.p.q.r.e.d.d.d.s.t.u.v.d.",
"w.x.y.z.A.B.B.C.D.E.F.G.H.I.J.K.L.M.N.O.P.Q.R.S.B.B.C.T.U.V.A.B.",
"W.X.Y.Z.`. + + + +.+++@+#+$+%+&+*+=+-+;+>+W.,+ + + + +'+)+!+`. +",
"~+{+]+^+/+(+(+(+_+~+:+<+[+}+|+1+2+p.3+4+5+_+(+(+(+(+_+6+7+8+,+(+",
"9+0+a+b+c+~+~+~+~+~+c+d+e+f+g+h+i+j+k+l+c+~+~+~+~+~+~+m+n+o+(+~+",
"p+q+r+s+t+u+u+u+u+u+v+w+x+1+y+h+z+A+B+l+v+u+u+u+u+u+v+C+D+E+t+u+",
"F+++G+H+I+J+J+J+K+L+M+N+O+P+Q+R+S+T+U+V+W+J+J+J+J+J+W+X+Y+Z+I+J+",
"`+ @.@+@@@#@#@#@@@$@%@&@i+*@=@-@;@>@;@,@Z+@@#@#@#@#@#@'@)@!@@@#@",
"~@{@]@^@`+$@$@$@/@(@_@:@<@1+[@}@|@1@2@3@,@4@~@$@$@$@$@5@6@7@`+$@",
"8@9@0@Z+a@~@~@b@(@c@d@e@f@g@h@8@i@j@k@l@m@n@o@b@~@~@b@p@q@r@a@~@",
"V+s@t@u@b@v@v@w@x@y@z@_@[@A@b@~@~@B@C@D@E@F@G@b@v@v@~@H@I@J@K@v@",
"L@M@N@u@w@O@O@v@P@Q@R@S@L@v@O@O@O@w@T@|@U@V@W@v@O@v@v@X@Y@Z@w@O@",
"/@`@ #.#+#L@L@L@@###$#W@L@L@L@L@L@L@/@%#$#&#*#L@L@L@A@=#-#Z@O@L@",
";#>#,#'#J@)#)#)#)#!#!#*#)#)#)#)#)#)#)#!#!#*#)#)#~#&#{#]#^#/#!#)#",
"(#_#:#<#[#}#(#|#|#|#|#|#|#|#|#|#|#|#|#|#|#|#|#|#1#2#3#4#5#6#)#7#",
"8#9#0#a#b#c#9#d#e#e#e#e#e#e#e#e#e#e#e#e#e#e#e#d#f#g#h#j+i#j#k#k#",
"(#l#m#n#o#p#q#r#s#s#s#s#s#s#s#s#s#s#s#s#s#s#t#F@N@u#v#w#x#y#8#8#",
"(#z#A#m#B#C#D#E#F#F#F#F#F#F#F#F#F#F#F#F#F#F#G#H#I#J#K#L#M#(#(#(#",
"N#N#N#O#P#Q#R#S#T#T#T#T#T#T#T#T#T#T#T#T#T#T#T#S#Q#Q#l#U#N#N#N#N#",
"R#R#R#R#V#########################################V#R#R#R#R#R#R#",
"W#W#W#W#W#W#W#W#W#W#W#W#W#W#W#W#W#W#W#W#W#W#W#W#W#W#W#W#W#W#W#W#",
"X#X#X#X#X#X#X#X#X#X#X#X#X#X#X#X#X#X#X#X#X#X#X#X#X#X#X#X#X#X#X#X#",
"                                                                ",
"                                                                ",
"                                                                ",
"                                                                ",
"                                                                ",
"                                                                ",
"                                                                ",
"                                                                ",
"                                                                ",
"                                                                ",
"                                                                ",
"                                                                ",
"                                                                ",
"                                                                ",
"                                                                ",
"                                                                ",
"                                                                ",
"                                                                ",
"                                                                ",
"                                                                ",
"                                                                ",
"                                                                ",
"                                                                ",
"                                                                ",
"                                                                ",
"                                                                ",
"                                                                ",
"                                                                ",
"                                                                ",
"                                                                ",
"                                                                ",
"                                                                ",
"                                                                ",
"                                                                ",
"                                                                "};
