/* XPM */
static char * closeA_xpm[] = {
"32 70 635 2",
"  	c None",
". 	c #9E9B85",
"+ 	c #D1CEBF",
"@ 	c #F6F3E9",
"# 	c #FAF8F3",
"$ 	c #F8F6EF",
"% 	c #F8F7F0",
"& 	c #F9F8F0",
"* 	c #F9F8F1",
"= 	c #FAF8F1",
"- 	c #F9F7F0",
"; 	c #F8F7EF",
"> 	c #F5F3EA",
", 	c #F5F4EB",
"' 	c #F3F1E7",
") 	c #EBE7DE",
"! 	c #E2DDD4",
"~ 	c #DBD6CE",
"{ 	c #D7D4CB",
"] 	c #D5D3CA",
"^ 	c #D6D3CA",
"/ 	c #D8D5CC",
"( 	c #DED9D0",
"_ 	c #E6E1D8",
": 	c #EFECE2",
"< 	c #F5F4EA",
"[ 	c #F5F2EA",
"} 	c #F4F1E9",
"| 	c #E9E4DC",
"1 	c #CCBFB9",
"2 	c #AA9691",
"3 	c #8C736E",
"4 	c #7A615D",
"5 	c #735C58",
"6 	c #715C58",
"7 	c #715D58",
"8 	c #755D59",
"9 	c #816763",
"0 	c #99817C",
"a 	c #BAA9A3",
"b 	c #DAD2CA",
"c 	c #F1EDE5",
"d 	c #F4F2E9",
"e 	c #E8E2DA",
"f 	c #CABFB8",
"g 	c #998580",
"h 	c #7E5552",
"i 	c #7D3D3A",
"j 	c #8C433E",
"k 	c #99524B",
"l 	c #A15A54",
"m 	c #A35C55",
"n 	c #A35C56",
"o 	c #A25C55",
"p 	c #9F5851",
"q 	c #934B45",
"r 	c #853E3A",
"s 	c #7B4542",
"t 	c #866864",
"u 	c #B0A19B",
"v 	c #EFEBE3",
"w 	c #F6F3EB",
"x 	c #F3F1E8",
"y 	c #D6CDC5",
"z 	c #A58F8A",
"A 	c #764A47",
"B 	c #823B37",
"C 	c #9E524C",
"D 	c #B1625B",
"E 	c #BF6F67",
"F 	c #C6756D",
"G 	c #C7776F",
"H 	c #C7766E",
"I 	c #C4736B",
"J 	c #B96962",
"K 	c #AA5B54",
"L 	c #944A45",
"M 	c #753330",
"N 	c #896A66",
"O 	c #BCACA5",
"P 	c #E8E3DB",
"Q 	c #F6F4EB",
"R 	c #F2EFE7",
"S 	c #C5B9B3",
"T 	c #865F5C",
"U 	c #813E3A",
"V 	c #A65650",
"W 	c #BE6A63",
"X 	c #C16D65",
"Y 	c #C36F67",
"Z 	c #C46F67",
"` 	c #C47068",
" .	c #C47067",
"..	c #C26E66",
"+.	c #C16C65",
"@.	c #B8655E",
"#.	c #924640",
"$.	c #7C4340",
"%.	c #9D8581",
"&.	c #E1DBD3",
"*.	c #F1EFE5",
"=.	c #BAB0A9",
"-.	c #763E3B",
";.	c #93423B",
">.	c #B15A52",
",.	c #C0675F",
"'.	c #C0685F",
").	c #C0665D",
"!.	c #BF655C",
"~.	c #C0675E",
"{.	c #BF665D",
"].	c #C1685F",
"^.	c #BC645C",
"/.	c #A44F47",
"(.	c #81312C",
"_.	c #896E6A",
":.	c #DCD8CF",
"<.	c #F1EEE5",
"[.	c #B4ACA5",
"}.	c #702D29",
"|.	c #A2473F",
"1.	c #B6574E",
"2.	c #BC5D54",
"3.	c #BB5A51",
"4.	c #C78580",
"5.	c #D8B0AD",
"6.	c #D6A7A3",
"7.	c #C98681",
"8.	c #BB5C53",
"9.	c #BB5B51",
"0.	c #BA584E",
"a.	c #C06D65",
"b.	c #D09893",
"c.	c #D8AFAC",
"d.	c #D2A3A0",
"e.	c #BF6962",
"f.	c #BA5B52",
"g.	c #B05249",
"h.	c #8A2F28",
"i.	c #7E6560",
"j.	c #DAD6CD",
"k.	c #F5F3E9",
"l.	c #F0EDE4",
"m.	c #B2ABA4",
"n.	c #702B26",
"o.	c #A9483F",
"p.	c #B75148",
"q.	c #B85148",
"r.	c #B5483E",
"s.	c #D1A3A1",
"t.	c #F5EBEB",
"u.	c #F4E5E3",
"v.	c #DEB8B6",
"w.	c #C1726C",
"x.	c #B9564E",
"y.	c #B75047",
"z.	c #B75249",
"A.	c #BA5C55",
"B.	c #CC908C",
"C.	c #EAD1D0",
"D.	c #F8EEED",
"E.	c #E9D6D5",
"F.	c #BE6F69",
"G.	c #B5493E",
"H.	c #B54F46",
"I.	c #903027",
"J.	c #7B635E",
"K.	c #D9D5CD",
"L.	c #F5F2E8",
"M.	c #F3F0E6",
"N.	c #EEEBE0",
"O.	c #B1A9A1",
"P.	c #712722",
"Q.	c #A84137",
"R.	c #B4473E",
"S.	c #B3473D",
"T.	c #B2463D",
"U.	c #AE3A2F",
"V.	c #C8908D",
"W.	c #EEDBD9",
"X.	c #F9F1F1",
"Y.	c #F2E4E3",
"Z.	c #DDB6B4",
"`.	c #BE706B",
" +	c #B14035",
".+	c #B2453B",
"++	c #B34B42",
"@+	c #CC9390",
"#+	c #E8CDCB",
"$+	c #F8EFEE",
"%+	c #F7EBEA",
"&+	c #E0C1BF",
"*+	c #B65F5A",
"=+	c #B03C31",
"-+	c #90281E",
";+	c #7C615C",
">+	c #D7D3C9",
",+	c #F2EFE5",
"'+	c #F0EDE3",
")+	c #EBE7DC",
"!+	c #B0A69E",
"~+	c #73231D",
"{+	c #A6392F",
"]+	c #B03F34",
"^+	c #AF3E34",
"/+	c #AF3D33",
"(+	c #AB3226",
"_+	c #B56561",
":+	c #CDA4A2",
"<+	c #EBDADA",
"[+	c #F8EEEE",
"}+	c #F2E2E1",
"|+	c #BD6F6A",
"1+	c #B3524B",
"2+	c #C88D89",
"3+	c #E5CAC8",
"4+	c #F7ECEB",
"5+	c #F5EAEA",
"6+	c #DEC4C3",
"7+	c #C18986",
"8+	c #AE4740",
"9+	c #AD362A",
"0+	c #B03E34",
"a+	c #8F1E13",
"b+	c #7D5F5A",
"c+	c #D5CFC5",
"d+	c #EFEBE0",
"e+	c #EDE9DE",
"f+	c #E8E4D8",
"g+	c #AFA49B",
"h+	c #751F1A",
"i+	c #A43227",
"j+	c #AE372C",
"k+	c #AD372C",
"l+	c #AC362B",
"m+	c #AA3024",
"n+	c #A22115",
"o+	c #A44B4A",
"p+	c #CCA4A4",
"q+	c #F8F1F0",
"r+	c #F1DFDE",
"s+	c #D6ADAB",
"t+	c #C58A88",
"u+	c #E6CAC8",
"v+	c #F7EBEB",
"w+	c #DFC4C4",
"x+	c #B88080",
"y+	c #9E2520",
"z+	c #A72C21",
"A+	c #AB3328",
"B+	c #8E1505",
"C+	c #7F5E58",
"D+	c #D3CCC2",
"E+	c #ECE8DC",
"F+	c #EAE6DA",
"G+	c #E6E2D6",
"H+	c #AFA39A",
"I+	c #771C17",
"J+	c #A22B20",
"K+	c #AB3125",
"L+	c #A82D21",
"M+	c #A31F11",
"N+	c #9E211C",
"O+	c #A25251",
"P+	c #C59F9F",
"Q+	c #EBD8D8",
"R+	c #F8F0F0",
"S+	c #EAD6D5",
"T+	c #F7EFEE",
"U+	c #F4E9E9",
"V+	c #DDC4C4",
"W+	c #B17A7A",
"X+	c #9E3837",
"Y+	c #A01505",
"Z+	c #A6281C",
"`+	c #A92E23",
" @	c #8E0900",
".@	c #815D57",
"+@	c #D1CBC0",
"@@	c #E9E6DA",
"#@	c #E4E0D4",
"$@	c #B0A199",
"%@	c #791A14",
"&@	c #9F2418",
"*@	c #A72A1E",
"=@	c #A7291D",
"-@	c #A6291D",
";@	c #A42418",
">@	c #A0190B",
",@	c #950000",
"'@	c #A25757",
")@	c #C4A0A0",
"!@	c #EBDFDF",
"~@	c #FAF3F3",
"{@	c #FAF2F3",
"]@	c #F7EFEF",
"^@	c #DBC6C6",
"/@	c #B38080",
"(@	c #98302E",
"_@	c #9A0000",
":@	c #A21F13",
"<@	c #A5261A",
"[@	c #8D0000",
"}@	c #835C56",
"|@	c #D0C9BF",
"1@	c #E8E5D9",
"2@	c #E6E3D7",
"3@	c #E2DED2",
"4@	c #B0A097",
"5@	c #7B1712",
"6@	c #9D1E12",
"7@	c #A42317",
"8@	c #A32317",
"9@	c #A32216",
"0@	c #A11D10",
"a@	c #9C0A00",
"b@	c #9B3837",
"c@	c #B08181",
"d@	c #E4D3D3",
"e@	c #F9F2F2",
"f@	c #FAF6F6",
"g@	c #F3E9E9",
"h@	c #CDB2B2",
"i@	c #A15B5B",
"j@	c #9B2420",
"k@	c #9E1100",
"l@	c #A22014",
"m@	c #8C0000",
"n@	c #865B55",
"o@	c #CFC7BC",
"p@	c #E0DBCF",
"q@	c #B09E94",
"r@	c #7E1510",
"s@	c #9B180C",
"t@	c #A21E12",
"u@	c #A11D11",
"v@	c #A11E13",
"w@	c #A0251E",
"x@	c #BB807F",
"y@	c #F5EDED",
"z@	c #F5EFEF",
"A@	c #F1E8E8",
"B@	c #F8F4F4",
"C@	c #EDDEDE",
"D@	c #D1AAAA",
"E@	c #AA5553",
"F@	c #9F1506",
"G@	c #A21D11",
"H@	c #885A54",
"I@	c #CEC5B9",
"J@	c #E3DFD3",
"K@	c #E1DDD1",
"L@	c #DCD7CB",
"M@	c #AF9B92",
"N@	c #81130F",
"O@	c #9A1407",
"P@	c #A1190D",
"Q@	c #A0190D",
"R@	c #9E0000",
"S@	c #A2312C",
"T@	c #C08484",
"U@	c #E0C3C3",
"V@	c #F5E9E9",
"W@	c #F3E8E8",
"X@	c #D7C6C6",
"Y@	c #C3AEAE",
"Z@	c #E8DBDB",
"`@	c #F6ECEC",
" #	c #EEDEDD",
".#	c #D1A7A7",
"+#	c #B16261",
"@#	c #9D0000",
"##	c #A01708",
"$#	c #A01A0D",
"%#	c #8B5852",
"&#	c #CBC1B6",
"*#	c #DFDCCF",
"=#	c #DEDACD",
"-#	c #D9D4C8",
";#	c #AF9990",
">#	c #84130E",
",#	c #9A1205",
"'#	c #A0170A",
")#	c #9F170A",
"!#	c #9E1203",
"~#	c #A53F3C",
"{#	c #BA7B7A",
"]#	c #E1C3C3",
"^#	c #F5E8E8",
"/#	c #F3EBEB",
"(#	c #DAC5C5",
"_#	c #AB8182",
":#	c #905555",
"<#	c #C4A5A5",
"[#	c #EFDCDB",
"}#	c #CFA5A5",
"|#	c #AE5D5B",
"1#	c #A12924",
"2#	c #9E1202",
"3#	c #8F0000",
"4#	c #8E5651",
"5#	c #C9BFB4",
"6#	c #DCD8CC",
"7#	c #DBD7CB",
"8#	c #D8D3C7",
"9#	c #B0988F",
"0#	c #88120E",
"a#	c #9B1205",
"b#	c #B97877",
"c#	c #E2C4C4",
"d#	c #F3EAEA",
"e#	c #DBC5C5",
"f#	c #A97B7B",
"g#	c #8B2D2D",
"h#	c #8A1D1D",
"i#	c #934C4C",
"j#	c #C2A2A2",
"k#	c #E9D9D9",
"l#	c #F7F0F0",
"m#	c #EFDDDD",
"n#	c #D2A8A8",
"o#	c #A64643",
"p#	c #910000",
"q#	c #915650",
"r#	c #C9BDB3",
"s#	c #D9D5C9",
"t#	c #D8D2C7",
"u#	c #B2978F",
"v#	c #8B120E",
"w#	c #A0180B",
"x#	c #9B0000",
"y#	c #C39696",
"z#	c #F4E8E8",
"A#	c #D9C4C4",
"B#	c #AE8080",
"C#	c #933838",
"D#	c #930000",
"E#	c #8E0000",
"F#	c #9D5B5B",
"G#	c #C0A0A0",
"H#	c #E9DADA",
"I#	c #F8EFEF",
"J#	c #E4CFCF",
"K#	c #A85554",
"L#	c #9C0000",
"M#	c #9F170B",
"N#	c #955550",
"O#	c #C9BDB2",
"P#	c #DAD6CB",
"Q#	c #D9D4C9",
"R#	c #D7D1C6",
"S#	c #B5978F",
"T#	c #921712",
"U#	c #9D1408",
"V#	c #A21A0D",
"W#	c #A21B0E",
"X#	c #BA8888",
"Y#	c #DFCFCF",
"Z#	c #D6BDBD",
"`#	c #B58686",
" $	c #90201F",
".$	c #960000",
"+$	c #9D1106",
"@$	c #9F1407",
"#$	c #9B0D04",
"$$	c #900000",
"%$	c #9D5555",
"&$	c #C7A4A4",
"*$	c #DECCCC",
"=$	c #D3BBBB",
"-$	c #A64C4B",
";$	c #9F0000",
">$	c #A31B0E",
",$	c #9A5651",
"'$	c #CABCB2",
")$	c #DAD5CA",
"!$	c #D8D3C8",
"~$	c #D6D0C5",
"{$	c #B9988F",
"]$	c #9B2A23",
"^$	c #A01A0F",
"/$	c #A51D10",
"($	c #A82013",
"_$	c #A81F12",
":$	c #A41506",
"<$	c #A23533",
"[$	c #A15150",
"}$	c #9E4949",
"|$	c #9C3332",
"1$	c #9E130B",
"2$	c #A4180A",
"3$	c #A71E11",
"4$	c #A71F12",
"5$	c #A61C0F",
"6$	c #A11104",
"7$	c #9D211E",
"8$	c #9D3F3F",
"9$	c #A0504F",
"0$	c #A24948",
"a$	c #A2201A",
"b$	c #A61A0B",
"c$	c #A71F13",
"d$	c #A31B0F",
"e$	c #9C0900",
"f$	c #A45C56",
"g$	c #CBBBB1",
"h$	c #D8D4C9",
"i$	c #D7D2C7",
"j$	c #D5CFC3",
"k$	c #C19E94",
"l$	c #A94A41",
"m$	c #A2251B",
"n$	c #AE2619",
"o$	c #AC2215",
"p$	c #A71000",
"q$	c #A20000",
"r$	c #A10000",
"s$	c #A50D00",
"t$	c #AA1E11",
"u$	c #AD2417",
"v$	c #AE2518",
"w$	c #A81909",
"x$	c #A30000",
"y$	c #A40000",
"z$	c #AA1C0D",
"A$	c #AC2518",
"B$	c #A41B0F",
"C$	c #A32E25",
"D$	c #B16E65",
"E$	c #CDBDB2",
"F$	c #D6D2C7",
"G$	c #D6D1C5",
"H$	c #CAADA1",
"I$	c #B8736A",
"J$	c #A63A31",
"K$	c #A71C0C",
"L$	c #AE2417",
"M$	c #B1281B",
"N$	c #B32A1D",
"O$	c #B3281B",
"P$	c #B22518",
"Q$	c #B42B1E",
"R$	c #B52D1F",
"S$	c #B52D20",
"T$	c #B42C1F",
"U$	c #B32A1C",
"V$	c #B22619",
"W$	c #B3291C",
"X$	c #B2291C",
"Y$	c #B0271A",
"Z$	c #AB2215",
"`$	c #A41F12",
" %	c #AD544B",
".%	c #C08D82",
"+%	c #D0C2B6",
"@%	c #D6D2C5",
"#%	c #D5D0C4",
"$%	c #D6D0C3",
"%%	c #D2BFB3",
"&%	c #C79C92",
"*%	c #B16259",
"=%	c #A93A30",
"-%	c #AA2C20",
";%	c #B02A1D",
">%	c #B62E21",
",%	c #B62E22",
"'%	c #B72F22",
")%	c #B52E21",
"!%	c #B22B1E",
"~%	c #AD2A1D",
"{%	c #A93127",
"]%	c #AB473E",
"^%	c #BB7E75",
"/%	c #CDAEA3",
"(%	c #D4C9BD",
"_%	c #D6D1C4",
":%	c #D5CDC2",
"<%	c #D2BFB5",
"[%	c #C89D94",
"}%	c #BC766D",
"|%	c #B14F44",
"1%	c #AA3125",
"2%	c #A72112",
"3%	c #A71D0E",
"4%	c #A71D0F",
"5%	c #A71E10",
"6%	c #A82517",
"7%	c #AD3E32",
"8%	c #B56056",
"9%	c #C2897F",
"0%	c #CDAEA4",
"a%	c #D5C8BE",
"b%	c #D5CEC3",
"c%	c #D5D0C3",
"d%	c #D4CFC3",
"e%	c #D5D1C5",
"f%	c #D6CEC3",
"g%	c #D4C1B6",
"h%	c #CEB0A6",
"i%	c #C8A299",
"j%	c #C39C94",
"k%	c #C19A94",
"l%	c #C09A94",
"m%	c #C59E96",
"n%	c #CBA79E",
"o%	c #D2B8AE",
"p%	c #D5C7BD",
"q%	c #D6D1C6",
"r%	c #D4D0C4",
"s%	c #D2CEC2",
"t%	c #D2CFC2",
"u%	c #D3CFC3",
"v%	c #D5D0C5",
"w%	c #D8D3C9",
"x%	c #DBD6CC",
"y%	c #DDD8D0",
"z%	c #DEDAD2",
"A%	c #DFDBD3",
"B%	c #DFDBD2",
"C%	c #DED9D1",
"D%	c #DCD7CE",
"E%	c #DAD5CB",
"F%	c #D3CFC2",
"G%	c #CFCCC0",
"H%	c #CFCCC1",
"I%	c #D0CDC2",
"J%	c #D1CEC3",
"K%	c #D2D0C5",
"L%	c #D3D0C6",
"M%	c #D4D1C7",
"N%	c #D3D1C7",
"O%	c #D2CFC4",
"P%	c #D0CCC1",
"Q%	c #C5C2B3",
"R%	c #BCB9A5",
". . . . . . . . . . . . . . . . . . . . . . . . . . . . . . . . ",
"+ + + + + + + + + + + + + + + + + + + + + + + + + + + + + + + + ",
"@ @ @ @ @ @ @ @ @ @ @ @ @ @ @ @ @ @ @ @ @ @ @ @ @ @ @ @ @ @ @ @ ",
"# # # # # # # # # # # # # # # # # # # # # # # # # # # # # # # # ",
"$ $ $ % & * * = = = = = = = = = = = = = = = = * * * - ; $ $ $ $ ",
"> , ' ) ! ~ { ] ] ] ] ] ] ] ] ] ] ] ] ] ] ] ] ^ / ( _ : > < > > ",
"[ } | 1 2 3 4 5 6 7 7 7 7 7 7 7 7 7 7 7 7 6 6 8 9 0 a b c [ [ [ ",
"d e f g h i j k l m n n n n n n n n n n n o p q r s t u b v w > ",
"x y z A B C D E F G G G G G G G G G G G G H I J K L M N O P Q [ ",
"R S T U V W X Y Z ` ` ` ` ` ` ` ` ` ` ` `  .Y ..+.@.#.$.%.&.w } ",
"*.=.-.;.>.,.'.,.).!.!.).~.,.,.,.,.,.~.{.!.!.~.'.].^./.(._.:.> x ",
"<.[.}.|.1.2.2.3.4.5.6.7.8.9.2.2.2.0.a.b.c.d.e.3.2.f.g.h.i.j.k.' ",
"l.m.n.o.p.q.p.r.s.t.u.v.w.x.y.p.z.A.B.C.D.E.F.G.q.p.H.I.J.K.L.M.",
"N.O.P.Q.R.S.T.U.V.W.X.Y.Z.`. +.+++@+#+$+%+&+*+=+S.S.S.-+;+>+,+'+",
")+!+~+{+]+^+/+(+_+:+<+[+}+c.|+1+2+3+4+5+6+7+8+9+^+^+0+a+b+c+d+e+",
"f+g+h+i+j+k+l+m+n+o+p+<+q+r+s+t+u+v+t.w+x+y+z+A+k+k+k+B+C+D+E+F+",
"G+H+I+J+K+m+m+L+M+N+O+P+Q+R+Y.S+T+U+V+W+X+Y+Z+`+m+m+m+ @.@+@@@f+",
"#@$@%@&@*@=@-@Z+;@>@,@'@)@!@~@{@]@^@/@(@_@:@<@-@=@=@=@[@}@|@1@2@",
"3@4@5@6@7@8@8@8@9@0@a@b@c@d@e@f@g@h@i@j@k@l@9@8@8@8@7@m@n@o@G+#@",
"p@q@r@s@t@u@u@u@0@v@w@x@w+y@z@A@B@C@D@E@F@0@u@u@u@u@G@[@H@I@J@K@",
"L@M@N@O@P@Q@Q@Q@R@S@T@U@V@W@X@Y@Z@`@ #.#+#@###$#Q@Q@Q@[@%#&#*#=#",
"-#;#>#,#'#)#)#!#~#{#]#^#/#(#_#:#<#Z@]@[#}#|#1#2#)#)#)#3#4#5#6#7#",
"8#9#0#a#'#)#)#@#b#c#t.d#e#f#g#h#i#j#k#l#m#n#o#@#)#)#)#p#q#r#7#s#",
"t#u#v#a#w#w#)#x#y#z#U+A#B#C#3#D#E#F#G#H#I#J#K#L#w#)#M#D#N#O#P#Q#",
"R#S#T#U#V#W#V#@#X#Y#Z#`# $.$+$@$#$$$%$&$*$=$-$;$>$V#P@.$,$'$)$!$",
"~${$]$^$/$($_$:$<$[$}$|$1$2$3$4$5$6$7$8$9$0$a$b$($c$d$e$f$g$h$i$",
"j$k$l$m$_$n$n$o$p$q$r$s$t$u$n$n$v$o$w$x$r$y$z$u$n$A$B$C$D$E$F$G$",
"j$H$I$J$K$L$M$N$O$P$P$O$Q$R$S$S$S$T$U$V$P$V$W$X$Y$Z$`$ %.%+%@%#%",
"$%%%&%*%=%-%;%T$>%>%,%'%'%'%'%'%'%'%'%,%,%>%)%!%~%{%]%^%/%(%G$_%",
"j$:%<%[%}%|%1%2%3%4%4%4%4%4%4%4%4%4%4%4%4%4%5%6%7%8%9%0%a%b%c%c%",
"d%e%f%g%h%i%j%k%l%l%l%l%l%l%l%l%l%l%l%l%l%l%l%k%m%n%o%p%q%r%d%d%",
"s%t%u%v%w%x%y%z%A%A%A%A%A%A%A%A%A%A%A%A%A%A%B%C%D%E%i$r%F%s%s%s%",
"G%G%H%I%J%K%L%M%M%M%M%M%M%M%M%M%M%M%M%M%M%M%M%N%L%O%J%P%G%G%G%G%",
"Q%Q%Q%Q%Q%Q%Q%Q%Q%Q%Q%Q%Q%Q%Q%Q%Q%Q%Q%Q%Q%Q%Q%Q%Q%Q%Q%Q%Q%Q%Q%Q%",
"R%R%R%R%R%R%R%R%R%R%R%R%R%R%R%R%R%R%R%R%R%R%R%R%R%R%R%R%R%R%R%R%",
"                                                                ",
"                                                                ",
"                                                                ",
"                                                                ",
"                                                                ",
"                                                                ",
"                                                                ",
"                                                                ",
"                                                                ",
"                                                                ",
"                                                                ",
"                                                                ",
"                                                                ",
"                                                                ",
"                                                                ",
"                                                                ",
"                                                                ",
"                                                                ",
"                                                                ",
"                                                                ",
"                                                                ",
"                                                                ",
"                                                                ",
"                                                                ",
"                                                                ",
"                                                                ",
"                                                                ",
"                                                                ",
"                                                                ",
"                                                                ",
"                                                                ",
"                                                                ",
"                                                                ",
"                                                                ",
"                                                                "};
