/* XPM */
static char * dframeATL_xpm[] = {
"6 30 40 1",
" 	c None",
".	c #9B9882",
"+	c #F5F2E6",
"@	c #BBB9B0",
"#	c #F8F5EB",
"$	c #FBF9F5",
"%	c #EBE9E1",
"&	c #F5F4EA",
"*	c #DAD7D1",
"=	c #EAE7DF",
"-	c #F5F2EA",
";	c #D6D4CA",
">	c #DFDCD4",
",	c #F5F3EA",
"'	c #D4CFC3",
")	c #E0DDD4",
"!	c #F4F1E9",
"~	c #DDDAD1",
"{	c #F3F1E7",
"]	c #D9D6CD",
"^	c #F3F0E7",
"/	c #D4D1C8",
"(	c #EFECE1",
"_	c #D2CEC4",
":	c #EAE6DA",
"<	c #D2CEC3",
"[	c #E7E4D8",
"}	c #D0CDC3",
"|	c #E5E1D5",
"1	c #D0CCC0",
"2	c #E1DDD0",
"3	c #D3CFC2",
"4	c #DBD7CB",
"5	c #D9D5C9",
"6	c #D9D4C9",
"7	c #D7D2C7",
"8	c #D5D0C4",
"9	c #D6D1C4",
"0	c #CECBC0",
"a	c #BBB8A4",
"      ",
"      ",
"      ",
"      ",
"      ",
"    ..",
"  ..++",
" .@#$$",
" .%&&&",
".*=---",
".;>,,,",
".')!!!",
".'~{{{",
".']^^^",
".'/(((",
".'_:::",
".'<[[[",
".'}|||",
".'1222",
".'3444",
".'3555",
".'3666",
".'3777",
".'3888",
".'3999",
".'3'''",
".'3333",
".'3000",
".'30aa",
".'30a "};
