/* XPM */
static char * maximizeI_xpm[] = {
"32 70 399 2",
"  	c None",
". 	c #9E9B85",
"+ 	c #D1CEBF",
"@ 	c #F6F3E9",
"# 	c #FAF8F3",
"$ 	c #F8F6EF",
"% 	c #F8F7EF",
"& 	c #F8F7F0",
"* 	c #F9F7F0",
"= 	c #F9F8F0",
"- 	c #F5F3EA",
"; 	c #F5F4EA",
"> 	c #F4F2E9",
", 	c #EFEEE5",
"' 	c #E9E8E0",
") 	c #E3E3DC",
"! 	c #DFDFD8",
"~ 	c #DDDDD7",
"{ 	c #DCDCD6",
"] 	c #DDDDD6",
"^ 	c #DEDED7",
"/ 	c #E1E1DA",
"( 	c #E6E5DE",
"_ 	c #ECEBE3",
": 	c #F1F0E7",
"< 	c #F5F2EA",
"[ 	c #EEECE4",
"} 	c #DCDBD7",
"| 	c #C8C8C8",
"1 	c #B6B8BA",
"2 	c #ACAEB1",
"3 	c #A4A7AB",
"4 	c #A1A4A9",
"5 	c #A2A5A9",
"6 	c #A2A4A9",
"7 	c #A7AAAE",
"8 	c #B0B2B5",
"9 	c #BDBFC0",
"0 	c #D1D1CF",
"a 	c #E5E3DE",
"b 	c #F3F0E8",
"c 	c #EDEBE4",
"d 	c #DADAD6",
"e 	c #BCBDBE",
"f 	c #AEB0B6",
"g 	c #BABCBF",
"h 	c #D3D3D0",
"i 	c #D6D6D1",
"j 	c #D5D4D0",
"k 	c #D7D6D2",
"l 	c #CACAC9",
"m 	c #B1B3B9",
"n 	c #B1B4B7",
"o 	c #C9CAC8",
"p 	c #F2EFE7",
"q 	c #E2E0DB",
"r 	c #C4C5C4",
"s 	c #A8ACB1",
"t 	c #B7B9BD",
"u 	c #D7D6D4",
"v 	c #F6F4EB",
"w 	c #F6F3EA",
"x 	c #E8E6E0",
"y 	c #C8C9CA",
"z 	c #ABAEB3",
"A 	c #B2B4B7",
"B 	c #D2D2CF",
"C 	c #B5B7BB",
"D 	c #D9D8D5",
"E 	c #F1EEE7",
"F 	c #F4F1E9",
"G 	c #EBE8E2",
"H 	c #C6C7C7",
"I 	c #AFB2B6",
"J 	c #BEBEBF",
"K 	c #E7E5DE",
"L 	c #F2F0E6",
"M 	c #CAC9C7",
"N 	c #AFB1B3",
"O 	c #D9D9D4",
"P 	c #EDEBE3",
"Q 	c #F4F2E8",
"R 	c #F3F1E8",
"S 	c #F4F1E8",
"T 	c #F2F0E7",
"U 	c #C6C6C5",
"V 	c #AFB0B3",
"W 	c #E2E1DA",
"X 	c #F5F2E9",
"Y 	c #F1EFE6",
"Z 	c #C3C3C1",
"` 	c #ACAEAF",
" .	c #E9E7DF",
"..	c #F3F1E7",
"+.	c #F1EEE5",
"@.	c #DCDAD2",
"#.	c #CDCBC5",
"$.	c #CCCBC4",
"%.	c #D0CFC8",
"&.	c #E7E5DC",
"*.	c #D0CFCB",
"=.	c #A4A6AA",
"-.	c #DFDED7",
";.	c #F5F2E8",
">.	c #BFBFBD",
",.	c #A6A8AA",
"'.	c #E7E5DD",
").	c #F4F1E7",
"!.	c #EDEAE1",
"~.	c #B1B0AD",
"{.	c #77797D",
"].	c #75777B",
"^.	c #74777A",
"/.	c #74767A",
"(.	c #74767B",
"_.	c #88898B",
":.	c #D3D1CB",
"<.	c #F3F0E6",
"[.	c #F3F0E7",
"}.	c #CCCCC8",
"|.	c #9EA1A5",
"1.	c #DEDCD6",
"2.	c #EEEBE1",
"3.	c #BDBDBA",
"4.	c #A4A6A8",
"5.	c #E4E2D9",
"6.	c #F2EEE4",
"7.	c #F1EEE4",
"8.	c #EAE7DD",
"9.	c #A8A7A4",
"0.	c #62656D",
"a.	c #64676E",
"b.	c #61656C",
"c.	c #77797C",
"d.	c #CECCC5",
"e.	c #F0EDE3",
"f.	c #CAC9C4",
"g.	c #9C9EA2",
"h.	c #F2EFE4",
"i.	c #EBE8DC",
"j.	c #BABAB7",
"k.	c #A2A3A5",
"l.	c #E1DFD5",
"m.	c #EEEBDF",
"n.	c #EEEADF",
"o.	c #E7E4D9",
"p.	c #878889",
"q.	c #ADACA7",
"r.	c #B1B0AA",
"s.	c #B1AFA9",
"t.	c #B2B0AA",
"u.	c #9F9F9C",
"v.	c #848587",
"w.	c #CCC9C2",
"x.	c #EDE9DE",
"y.	c #EDEADE",
"z.	c #C7C6C1",
"A.	c #9A9CA0",
"B.	c #D9D6CE",
"C.	c #E8E4D9",
"D.	c #B8B7B4",
"E.	c #9FA1A2",
"F.	c #DEDBD1",
"G.	c #EBE7DB",
"H.	c #E4E1D5",
"I.	c #A9A8A5",
"J.	c #A7A7A4",
"K.	c #E1DED3",
"L.	c #E8E4D8",
"M.	c #E7E3D7",
"N.	c #CDCBC2",
"O.	c #929394",
"P.	c #CAC7C0",
"Q.	c #EAE6DA",
"R.	c #C5C3BD",
"S.	c #989A9D",
"T.	c #D6D3CA",
"U.	c #E6E3D7",
"V.	c #B6B5B2",
"W.	c #9D9FA0",
"X.	c #DCDACF",
"Y.	c #E9E6D9",
"Z.	c #E9E5D9",
"`.	c #E2DFD4",
" +	c #E3E0D4",
".+	c #E9E6DA",
"++	c #E8E5D9",
"@+	c #CECCC4",
"#+	c #C8C6BE",
"$+	c #C2C1BC",
"%+	c #95979B",
"&+	c #D4D1C9",
"*+	c #B4B3B0",
"=+	c #9B9D9E",
"-+	c #DBD8CE",
";+	c #E7E4D8",
">+	c #E1DDD2",
",+	c #A6A6A3",
"'+	c #CCCAC1",
")+	c #919292",
"!+	c #C7C5BD",
"~+	c #E7E4D7",
"{+	c #C1C0BA",
"]+	c #939598",
"^+	c #D2D0C7",
"/+	c #E3DFD3",
"(+	c #B2B1AE",
"_+	c #999B9C",
":+	c #D9D6CB",
"<+	c #E6E2D5",
"[+	c #E5E1D5",
"}+	c #DFDBD0",
"|+	c #A5A4A1",
"1+	c #E4E0D4",
"2+	c #CBC8BF",
"3+	c #8F9191",
"4+	c #C5C3BB",
"5+	c #E5E1D4",
"6+	c #BFBDB7",
"7+	c #919396",
"8+	c #D0CDC4",
"9+	c #E0DCCF",
"0+	c #B0AFAB",
"a+	c #979899",
"b+	c #D6D3C8",
"c+	c #E3DFD2",
"d+	c #E2DED1",
"e+	c #DCD8CC",
"f+	c #A3A39F",
"g+	c #E1DDD1",
"h+	c #C8C6BD",
"i+	c #8E8F90",
"j+	c #C3C1B8",
"k+	c #E3DED2",
"l+	c #BDBBB4",
"m+	c #8F9194",
"n+	c #CECBC1",
"o+	c #ADACA8",
"p+	c #949597",
"q+	c #D3CFC5",
"r+	c #DFDBCE",
"s+	c #D8D5C9",
"t+	c #A1A19E",
"u+	c #DEDACD",
"v+	c #C5C3BA",
"w+	c #8C8E8F",
"x+	c #C0BDB5",
"y+	c #B9B8B1",
"z+	c #8C8E91",
"A+	c #CAC7BE",
"B+	c #D9D5C9",
"C+	c #AAA9A5",
"D+	c #D0CCC2",
"E+	c #DBD7CB",
"F+	c #D5D2C6",
"G+	c #9F9F9D",
"H+	c #D6D2C7",
"I+	c #DDD8CC",
"J+	c #8B8D8E",
"K+	c #BDBBB3",
"L+	c #B6B5AF",
"M+	c #8A8C8F",
"N+	c #C7C4BB",
"O+	c #D8D4C8",
"P+	c #909192",
"Q+	c #DBD7CA",
"R+	c #DAD6CA",
"S+	c #D4D0C5",
"T+	c #9F9E9C",
"U+	c #9D9D9B",
"V+	c #D1CDC2",
"W+	c #D7D3C7",
"X+	c #BFBCB4",
"Y+	c #8A8C8D",
"Z+	c #BCBAB3",
"`+	c #B5B3AD",
" @	c #888A8D",
".@	c #C6C3BA",
"+@	c #D7D3C8",
"@@	c #A7A6A3",
"#@	c #8F9091",
"$@	c #CECAC0",
"%@	c #DAD5CA",
"&@	c #A09F9D",
"*@	c #85868A",
"=@	c #A3A29F",
"-@	c #969695",
";@	c #838589",
">@	c #BDBAB3",
",@	c #D9D4C9",
"'@	c #B4B2AD",
")@	c #87888B",
"!@	c #C5C2BA",
"~@	c #DBD6CA",
"{@	c #D7D2C7",
"]@	c #A8A6A3",
"^@	c #909091",
"/@	c #D5D0C6",
"(@	c #B5B2AD",
"_@	c #9B9B9A",
":@	c #9A9998",
"<@	c #9A9999",
"[@	c #A2A19F",
"}@	c #C7C3BB",
"|@	c #88898C",
"1@	c #C5C1B9",
"2@	c #D8D3C8",
"3@	c #D5D1C6",
"4@	c #AAA8A4",
"5@	c #929293",
"6@	c #C9C5BC",
"7@	c #D6D1C7",
"8@	c #D3CEC4",
"9@	c #D1CCC2",
"0@	c #D5D0C5",
"a@	c #D4CFC5",
"b@	c #B2B0AB",
"c@	c #8C8D8F",
"d@	c #D4CFC4",
"e@	c #8F9092",
"f@	c #A4A4A4",
"g@	c #D6D1C5",
"h@	c #D6D1C6",
"i@	c #D7D2C6",
"j@	c #D7D1C6",
"k@	c #D2CDC3",
"l@	c #B6B4B0",
"m@	c #97989A",
"n@	c #969696",
"o@	c #C7C3B9",
"p@	c #D4CFC3",
"q@	c #BCB9B1",
"r@	c #989998",
"s@	c #86898F",
"t@	c #A6A5A4",
"u@	c #C5C2B9",
"v@	c #D7D2C5",
"w@	c #CFCAC0",
"x@	c #BAB7B2",
"y@	c #929497",
"z@	c #898C90",
"A@	c #A7A6A2",
"B@	c #CBC6BC",
"C@	c #D5D0C4",
"D@	c #D5D0C3",
"E@	c #C8C4BA",
"F@	c #AEADA7",
"G@	c #8B8C8E",
"H@	c #85888E",
"I@	c #A3A2A3",
"J@	c #CECABE",
"K@	c #CDC9BD",
"L@	c #BBB8B1",
"M@	c #919397",
"N@	c #83858A",
"O@	c #9A9A98",
"P@	c #BCB9B0",
"Q@	c #D0CBBF",
"R@	c #D6D1C4",
"S@	c #D1CDC1",
"T@	c #C5C2B8",
"U@	c #ACABA5",
"V@	c #959697",
"W@	c #8C8D90",
"X@	c #939392",
"Y@	c #90908F",
"Z@	c #8D8D8D",
"`@	c #8E8E8D",
" #	c #929290",
".#	c #8D8F92",
"+#	c #B8B6AE",
"@#	c #CDC8BD",
"##	c #D3CEC2",
"$#	c #D4D0C3",
"%#	c #D1CCC0",
"&#	c #B8B5AE",
"*#	c #ABA9A4",
"=#	c #A1A09C",
"-#	c #9C9C98",
";#	c #9B9A97",
">#	c #9B9B97",
",#	c #9E9D99",
"'#	c #A5A49F",
")#	c #B0AEA8",
"!#	c #BEBBB3",
"~#	c #CBC7BC",
"{#	c #D3CFC2",
"]#	c #D2CEC2",
"^#	c #D1CEC1",
"/#	c #D1CDC0",
"(#	c #D0CCC0",
"_#	c #CFCCC0",
":#	c #CFCCBF",
"<#	c #CFCBBF",
"[#	c #D2CEC1",
"}#	c #CFCCC1",
"|#	c #D0CCC1",
"1#	c #C5C2B3",
"2#	c #BCB9A5",
". . . . . . . . . . . . . . . . . . . . . . . . . . . . . . . . ",
"+ + + + + + + + + + + + + + + + + + + + + + + + + + + + + + + + ",
"@ @ @ @ @ @ @ @ @ @ @ @ @ @ @ @ @ @ @ @ @ @ @ @ @ @ @ @ @ @ @ @ ",
"# # # # # # # # # # # # # # # # # # # # # # # # # # # # # # # # ",
"$ $ $ % & * * = = = = = = = = = = = = = = = = = * * % % $ $ $ $ ",
"- ; > , ' ) ! ~ { { { { { { { { { { { { { { ] ^ / ( _ : - ; - - ",
"< < [ } | 1 2 3 4 5 5 5 5 5 5 5 5 5 5 5 5 6 5 7 8 9 0 a b < < < ",
"< c d e f g h i j j j j j j j j j j j j j j j k l m n o a p - - ",
"> q r s t u p v w w w w w w w w w w w w w w w v x y z A B _ - < ",
"b j A C D E F F F F F F F F F F F F F F F F F F b G H I J K < F ",
"L M N O P Q R S Q Q Q Q Q Q Q Q Q Q Q Q Q Q Q S Q T ( U V W X R ",
"Y Z `  .X ..+.@.#.$.$.$.$.$.$.$.$.$.$.$.$.$.%.&.....Q *.=.-.;...",
"+.>.,.'.S ).!.~.{.].^.^.^.^.^.^.^.^.^.^./.(._.:.).<.[.}.|.1.S <.",
"2.3.4.5.6.7.8.9.0.a.a.a.a.a.a.a.a.a.a.a.a.b.c.d.7.e.e.f.g.@.h.e.",
"i.j.k.l.m.n.o.9.p.q.r.s.s.s.s.s.s.s.s.s.t.u.v.w.n.x.y.z.A.B.m.x.",
"C.D.E.F.G.G.H.I.J.K.L.M.M.M.M.M.M.M.M.M.C.N.O.P.G.Q.Q.R.S.T.G.Q.",
"U.V.W.X.Y.Z.`.J.9. +.+++++++++++++++++++Q.@+O.#+Z.L.++$+%+&+.+L.",
"H.*+=+-+;+M.>+,+,+>+M.U.U.U.U.U.U.U.U.U.;+'+)+!+~+U.U.{+]+^+L.U.",
"/+(+_+:+<+[+}+|+|+}+[+1+1+1+1+1+1+1+1+1+<+2+3+4+[+1+5+6+7+8+<+1+",
"9+0+a+b+c+d+e+f+f+e+d+g+g+g+g+g+g+g+g+g+c+h+i+j+k+g+d+l+m+n+c+g+",
"e+o+p+q+r+r+s+t+t+s+r+u+u+u+u+u+u+u+u+u+r+v+w+x+r+u+u+y+z+A+r+u+",
"B+C+O.D+e+E+F+u.G+H+e+E+E+E+E+E+E+E+E+E+I+j+J+K+E+E+E+L+M+N+e+E+",
"O+9.P+n+Q+R+S+T+U+V+H+F+F+F+F+F+F+F+F+F+W+X+Y+Z+R+B+R+`+ @.@Q+B+",
"+@@@#@$@R+%@S+&@*@&@=@=@=@=@=@=@=@=@=@=@=@-@;@>@%@,@B+'@)@!@~@,@",
"{@]@^@$@%@,@/@(@_@:@:@:@:@:@:@:@:@:@:@:@:@<@[@}@,@,@,@(@|@1@%@2@",
"3@4@5@6@7@{@{@8@D+D+D+D+D+D+D+D+D+D+D+D+D+D+9@0@{@{@a@b@c@1@2@{@",
"d@s.e@f@!@g@g@h@i@i@i@i@i@i@i@i@i@i@i@i@i@i@i@g@j@k@l@m@n@o@i@g@",
"p@q@r@s@t@u@p@v@v@v@v@v@v@v@v@v@v@v@v@v@v@v@v@v@w@x@y@z@A@B@g@C@",
"D@E@F@G@H@I@E@J@K@K@K@K@K@K@K@K@K@K@K@K@K@K@K@J@L@M@N@O@P@Q@R@R@",
"p@S@T@U@V@W@X@Y@Z@Z@Z@Z@Z@Z@Z@Z@Z@Z@Z@Z@Z@Z@`@ #^@.#G++#@###D@D@",
"p@$#%#T@&#*#=#-#;#;#;#;#;#;#;#;#;#;#;#;#;#;#>#,#'#)#!#~#{#p@p@p@",
"]#]#]#^#/#(#_#:#<#<#<#<#<#<#<#<#<#<#<#<#<#<#<#:#(#(#S@[#]#]#]#]#",
"_#_#_#_#}#|#|#|#|#|#|#|#|#|#|#|#|#|#|#|#|#|#|#|#|#}#_#_#_#_#_#_#",
"1#1#1#1#1#1#1#1#1#1#1#1#1#1#1#1#1#1#1#1#1#1#1#1#1#1#1#1#1#1#1#1#",
"2#2#2#2#2#2#2#2#2#2#2#2#2#2#2#2#2#2#2#2#2#2#2#2#2#2#2#2#2#2#2#2#",
"                                                                ",
"                                                                ",
"                                                                ",
"                                                                ",
"                                                                ",
"                                                                ",
"                                                                ",
"                                                                ",
"                                                                ",
"                                                                ",
"                                                                ",
"                                                                ",
"                                                                ",
"                                                                ",
"                                                                ",
"                                                                ",
"                                                                ",
"                                                                ",
"                                                                ",
"                                                                ",
"                                                                ",
"                                                                ",
"                                                                ",
"                                                                ",
"                                                                ",
"                                                                ",
"                                                                ",
"                                                                ",
"                                                                ",
"                                                                ",
"                                                                ",
"                                                                ",
"                                                                ",
"                                                                ",
"                                                                "};
