/* XPM */
static char * maximizeA_xpm[] = {
"32 70 542 2",
"  	c None",
". 	c #9E9B85",
"+ 	c #D1CEBF",
"@ 	c #F6F3E9",
"# 	c #FAF8F3",
"$ 	c #F8F6EF",
"% 	c #F8F7F0",
"& 	c #F9F8F0",
"* 	c #F9F8F1",
"= 	c #FAF8F1",
"- 	c #F9F7F0",
"; 	c #F8F7EF",
"> 	c #F5F3EA",
", 	c #F6F4EB",
"' 	c #F2F1E7",
") 	c #E8E8DE",
"! 	c #DEDED4",
"~ 	c #D7D7CE",
"{ 	c #D4D4CB",
"] 	c #D4D3CA",
"^ 	c #D3D3CA",
"/ 	c #D6D5CC",
"( 	c #DADAD0",
"_ 	c #E3E2D8",
": 	c #EDECE2",
"< 	c #F5F4EA",
"[ 	c #F5F2EA",
"} 	c #F4F2E9",
"| 	c #E7E5DC",
"1 	c #C1C2B9",
"2 	c #989B91",
"3 	c #75796E",
"4 	c #65695D",
"5 	c #616458",
"6 	c #616459",
"7 	c #6A6F63",
"8 	c #83877C",
"9 	c #ABADA3",
"0 	c #F0EEE5",
"a 	c #E4E3DA",
"b 	c #C1C1B8",
"c 	c #868A80",
"d 	c #5B6352",
"e 	c #515D38",
"f 	c #636E3B",
"g 	c #758048",
"h 	c #7F8A50",
"i 	c #828C53",
"j 	c #828D53",
"k 	c #818C52",
"l 	c #7C874E",
"m 	c #6D7841",
"n 	c #5A6637",
"o 	c #525C41",
"p 	c #6B7064",
"q 	c #A2A49B",
"r 	c #EEECE3",
"s 	c #F6F3EB",
"t 	c #F3F1E8",
"u 	c #CFCFC5",
"v 	c #90958A",
"w 	c #505B47",
"x 	c #576434",
"y 	c #768249",
"z 	c #8A9657",
"A 	c #99A663",
"B 	c #A1AD6A",
"C 	c #A3AF6B",
"D 	c #A3AF6C",
"E 	c #A2AF6B",
"F 	c #9FAB67",
"G 	c #939F5E",
"H 	c #828E51",
"I 	c #6B7742",
"J 	c #47552F",
"K 	c #6C7366",
"L 	c #ADAFA5",
"M 	c #E5E4DB",
"N 	c #F2EFE7",
"O 	c #BBBCB3",
"P 	c #636D5C",
"Q 	c #526139",
"R 	c #7D8A4D",
"S 	c #97A45F",
"T 	c #9BA861",
"U 	c #9DAA63",
"V 	c #9EAB64",
"W 	c #9CA962",
"X 	c #9AA761",
"Y 	c #909D5B",
"Z 	c #66743E",
"` 	c #4E5D40",
" .	c #878C81",
"..	c #DDDCD3",
"+.	c #F4F1E9",
"@.	c #F1EFE5",
"#.	c #B2B2A9",
"$.	c #4A583A",
"%.	c #657439",
"&.	c #87944F",
"*.	c #98A55B",
"=.	c #97A459",
"-.	c #97A458",
";.	c #96A457",
">.	c #97A457",
",.	c #98A55A",
"'.	c #99A65B",
").	c #94A158",
"!.	c #788644",
"~.	c #50602A",
"{.	c #71776A",
"].	c #DAD8CF",
"^.	c #F1EEE5",
"/.	c #AEADA5",
"(.	c #455128",
"_.	c #74833C",
":.	c #8A984A",
"<.	c #909E4D",
"[.	c #B1BA8E",
"}.	c #C3C9AA",
"|.	c #C6CCB1",
"1.	c #C7CDB2",
"2.	c #C5CBAF",
"3.	c #BEC5A2",
"4.	c #A2AD75",
"5.	c #8F9D4E",
"6.	c #829145",
"7.	c #5B6A23",
"8.	c #696D60",
"9.	c #D8D6CD",
"0.	c #F5F3E9",
"a.	c #F3F1E7",
"b.	c #F0EDE4",
"c.	c #ADABA4",
"d.	c #475324",
"e.	c #7B8B3B",
"f.	c #899843",
"g.	c #86963C",
"h.	c #919F5A",
"i.	c #D3D8C3",
"j.	c #F5F6F0",
"k.	c #FAFBF9",
"l.	c #FBFCFA",
"m.	c #FBFBFA",
"n.	c #F9FAF6",
"o.	c #ECEEE4",
"p.	c #B4BC97",
"q.	c #859539",
"r.	c #869641",
"s.	c #627122",
"t.	c #676A5E",
"u.	c #D7D5CD",
"v.	c #F5F2E8",
"w.	c #F3F0E6",
"x.	c #EEEBE0",
"y.	c #ABAAA1",
"z.	c #46531F",
"A.	c #798833",
"B.	c #839339",
"C.	c #7E8E2B",
"D.	c #8A9855",
"E.	c #DBDED1",
"F.	c #FFFFFE",
"G.	c #FFFFFF",
"H.	c #F7F7F4",
"I.	c #B6BDA0",
"J.	c #7A8C25",
"K.	c #829238",
"L.	c #607018",
"M.	c #676A5C",
"N.	c #D5D3C9",
"O.	c #F2EFE5",
"P.	c #F0EDE3",
"Q.	c #EAE7DC",
"R.	c #A9A89E",
"S.	c #45521B",
"T.	c #74842A",
"U.	c #7E8F30",
"V.	c #77891F",
"W.	c #80904B",
"X.	c #D0D4C4",
"Y.	c #E4E6E0",
"Z.	c #CBCEC8",
"`.	c #C7CBC4",
" +	c #C8CBC5",
".+	c #C7CAC4",
"++	c #D6D8D2",
"@+	c #E6E9E0",
"#+	c #ACB595",
"$+	c #728514",
"%+	c #7C8D2E",
"&+	c #7D8E2F",
"*+	c #5D6D0A",
"=+	c #666A5A",
"-+	c #D2D0C5",
";+	c #EFEBE0",
">+	c #EDE9DE",
",+	c #E7E4D8",
"'+	c #A7A69B",
")+	c #445318",
"!+	c #708122",
"~+	c #798B28",
"{+	c #728417",
"]+	c #78883F",
"^+	c #C0C6AC",
"/+	c #BCC2AE",
"(+	c #63734B",
"_+	c #50642A",
":+	c #566831",
"<+	c #556831",
"[+	c #4D6127",
"}+	c #8E987E",
"|+	c #CED3BE",
"1+	c #A0AA83",
"2+	c #6D8009",
"3+	c #778826",
"4+	c #798A27",
"5+	c #596B00",
"6+	c #656A58",
"7+	c #D0CDC2",
"8+	c #ECE8DC",
"9+	c #EAE6DA",
"0+	c #E5E2D6",
"a+	c #A6A69A",
"b+	c #435315",
"c+	c #6C7D1B",
"d+	c #748620",
"e+	c #6D800B",
"f+	c #75853C",
"g+	c #BFC5AA",
"h+	c #BCC2A9",
"i+	c #637435",
"j+	c #536A00",
"k+	c #5A6F00",
"l+	c #596E00",
"m+	c #4E6500",
"n+	c #8D9874",
"o+	c #CDD2BB",
"p+	c #9EA881",
"q+	c #687B00",
"r+	c #73841E",
"s+	c #566800",
"t+	c #656B57",
"u+	c #CECCC0",
"v+	c #E8E4D8",
"w+	c #E4E0D4",
"x+	c #A5A599",
"y+	c #435413",
"z+	c #677A13",
"A+	c #708218",
"B+	c #687C00",
"C+	c #71823B",
"D+	c #BEC5AA",
"E+	c #BEC4AA",
"F+	c #6C7D3A",
"G+	c #617600",
"H+	c #677B0C",
"I+	c #677A0B",
"J+	c #5C7100",
"K+	c #929D76",
"L+	c #CED3BC",
"M+	c #9DA781",
"N+	c #637700",
"O+	c #6E8017",
"P+	c #6F8118",
"Q+	c #536600",
"R+	c #666C56",
"S+	c #CDCBBF",
"T+	c #E8E4D9",
"U+	c #E6E3D7",
"V+	c #E2DED2",
"W+	c #A5A597",
"X+	c #445511",
"Y+	c #64760B",
"Z+	c #6B7E11",
"`+	c #647800",
" @	c #6E7F3A",
".@	c #6D7F3A",
"+@	c #6A7D11",
"@@	c #6A7D10",
"#@	c #697C10",
"$@	c #5E7300",
"%@	c #939E76",
"&@	c #CDD2BC",
"*@	c #9BA581",
"=@	c #5F7400",
"-@	c #516500",
";@	c #666D55",
">@	c #CCC9BC",
",@	c #E6E2D6",
"'@	c #DFDBCF",
")@	c #A4A494",
"!@	c #45570F",
"~@	c #617406",
"{@	c #687B0C",
"]@	c #607400",
"^@	c #6B7C3A",
"/@	c #BDC3AA",
"(@	c #607500",
"_@	c #677A0C",
":@	c #66790B",
"<@	c #5B7000",
"[@	c #919C76",
"}@	c #CCD2BC",
"|@	c #9AA381",
"1@	c #4F6400",
"2@	c #676F54",
"3@	c #C9C7B9",
"4@	c #E3DFD3",
"5@	c #E1DDD1",
"6@	c #DCD8CB",
"7@	c #A2A292",
"8@	c #47590E",
"9@	c #5E7202",
"0@	c #657807",
"a@	c #5D7200",
"b@	c #687939",
"c@	c #BCC2AA",
"d@	c #647707",
"e@	c #647706",
"f@	c #637706",
"g@	c #576D00",
"h@	c #909A76",
"i@	c #CCD1BC",
"j@	c #98A281",
"k@	c #586D00",
"l@	c #637606",
"m@	c #647807",
"n@	c #677052",
"o@	c #C6C4B6",
"p@	c #E0DBCF",
"q@	c #DEDACD",
"r@	c #D8D5C8",
"s@	c #A0A190",
"t@	c #495C0D",
"u@	c #5D7100",
"v@	c #637704",
"w@	c #677839",
"x@	c #BBC1AA",
"y@	c #657635",
"z@	c #536900",
"A@	c #8E9975",
"B@	c #CBD0BC",
"C@	c #98A181",
"D@	c #566C00",
"E@	c #617504",
"F@	c #627604",
"G@	c #4F6500",
"H@	c #697251",
"I@	c #C4C1B4",
"J@	c #DCD8CC",
"K@	c #DBD7CB",
"L@	c #D7D3C7",
"M@	c #A0A28F",
"N@	c #4D600D",
"O@	c #5E7200",
"P@	c #BAC1A9",
"Q@	c #BCC2AB",
"R@	c #71804B",
"S@	c #687A2C",
"T@	c #6D7F32",
"U@	c #6D7E32",
"V@	c #637528",
"W@	c #949E7C",
"X@	c #CBD0BB",
"Y@	c #97A080",
"Z@	c #516600",
"`@	c #6A7450",
" #	c #C3C1B3",
".#	c #D9D5C9",
"+#	c #A1A28F",
"@#	c #50630D",
"##	c #637705",
"$#	c #667736",
"%#	c #B3BBA0",
"&#	c #CAD0B9",
"*#	c #BAC1A8",
"=#	c #BAC1A6",
"-#	c #BCC3A6",
";#	c #BCC2A6",
">#	c #B9C0A5",
",#	c #C1C7AF",
"'#	c #CACFB8",
")#	c #919C78",
"!#	c #576C00",
"~#	c #627605",
"{#	c #536800",
"]#	c #6D7750",
"^#	c #C3C1B2",
"/#	c #DBD6CB",
"(#	c #D9D4C9",
"_#	c #D7D2C6",
":#	c #A3A58F",
"<#	c #586A11",
"[#	c #607403",
"}#	c #657907",
"|#	c #617500",
"1#	c #647729",
"2#	c #99A37F",
"3#	c #B6BDA3",
"4#	c #BEC4AD",
"5#	c #C0C6AE",
"6#	c #C1C6AE",
"7#	c #C0C6AF",
"8#	c #BBC2AA",
"9#	c #ADB598",
"0#	c #808D5E",
"a#	c #727D51",
"b#	c #DAD5CA",
"c#	c #D8D3C8",
"d#	c #D5D1C5",
"e#	c #A7A98F",
"f#	c #667722",
"g#	c #64770B",
"h#	c #687C0B",
"i#	c #697D08",
"j#	c #63790C",
"k#	c #64782F",
"l#	c #66783E",
"m#	c #667942",
"n#	c #687A42",
"o#	c #697A42",
"p#	c #677942",
"q#	c #667840",
"r#	c #657839",
"s#	c #637821",
"t#	c #657B04",
"u#	c #6A7E0C",
"v#	c #667A0A",
"w#	c #7E8856",
"x#	c #C4C1B1",
"y#	c #D9D3C9",
"z#	c #D7D2C7",
"A#	c #D4CFC3",
"B#	c #B0B294",
"C#	c #7C8941",
"D#	c #687A1A",
"E#	c #6B7F0C",
"F#	c #708412",
"G#	c #6D810C",
"H#	c #657B00",
"I#	c #5F7500",
"J#	c #5C7300",
"K#	c #5C7400",
"L#	c #5D7400",
"M#	c #617700",
"N#	c #697E02",
"O#	c #6F8310",
"P#	c #6F8312",
"Q#	c #677B0A",
"R#	c #6E7E25",
"S#	c #909865",
"T#	c #C6C4B2",
"U#	c #D6D1C5",
"V#	c #D4D0C3",
"W#	c #BDBDA1",
"X#	c #97A069",
"Y#	c #73832F",
"Z#	c #6B7E05",
"`#	c #708410",
" $	c #738713",
".$	c #728712",
"+$	c #718611",
"@$	c #728612",
"#$	c #6E820F",
"$$	c #6A7D0D",
"%$	c #828F4A",
"&$	c #A8AD82",
"*$	c #CBC8B6",
"=$	c #D5D0C4",
"-$	c #D5D0C3",
";$	c #CBC9B3",
">$	c #B3B791",
",$	c #8B9658",
"'$	c #75852E",
")$	c #70831D",
"!$	c #738718",
"~$	c #778B19",
"{$	c #798D1B",
"]$	c #788C1A",
"^$	c #758918",
"/$	c #718519",
"($	c #718325",
"_$	c #7C8A3C",
":$	c #9EA574",
"<$	c #C0C1A3",
"[$	c #D1CDBD",
"}$	c #D6D1C4",
"|$	c #D4D0C2",
"1$	c #CBC9B5",
"2$	c #B4B893",
"3$	c #9BA46B",
"4$	c #849241",
"5$	c #748621",
"6$	c #6C7F0B",
"7$	c #697E06",
"8$	c #6A7E07",
"9$	c #6A7E08",
"0$	c #6E8111",
"a$	c #7A8B2F",
"b$	c #8D9A53",
"c$	c #A7AE7E",
"d$	c #BFC1A4",
"e$	c #D1CEBD",
"f$	c #CCCCB6",
"g$	c #C1C3A5",
"h$	c #B5B998",
"i$	c #ADB294",
"j$	c #AAAF93",
"k$	c #A9AE94",
"l$	c #ABB093",
"m$	c #B0B595",
"n$	c #BABD9D",
"o$	c #C7C7AD",
"p$	c #D1CEBC",
"q$	c #D6D1C6",
"r$	c #D4D0C4",
"s$	c #D2CEC2",
"t$	c #D2CFC2",
"u$	c #D3CFC3",
"v$	c #D7D4C9",
"w$	c #DAD7CC",
"x$	c #DCD9D0",
"y$	c #DDDBD2",
"z$	c #DEDCD3",
"A$	c #DDDCD2",
"B$	c #DDDAD1",
"C$	c #DBD8CE",
"D$	c #D9D6CB",
"E$	c #D6D3C7",
"F$	c #D3CFC2",
"G$	c #CFCCC0",
"H$	c #CFCCC1",
"I$	c #D1CEC3",
"J$	c #D2CFC5",
"K$	c #D3D0C6",
"L$	c #D4D1C7",
"M$	c #D2CFC4",
"N$	c #D1CDC3",
"O$	c #D0CCC1",
"P$	c #C5C2B3",
"Q$	c #BCB9A5",
". . . . . . . . . . . . . . . . . . . . . . . . . . . . . . . . ",
"+ + + + + + + + + + + + + + + + + + + + + + + + + + + + + + + + ",
"@ @ @ @ @ @ @ @ @ @ @ @ @ @ @ @ @ @ @ @ @ @ @ @ @ @ @ @ @ @ @ @ ",
"# # # # # # # # # # # # # # # # # # # # # # # # # # # # # # # # ",
"$ $ $ % & * = = = = = = = = = = = = = = = = = = = * - ; $ $ $ $ ",
"> , ' ) ! ~ { ] ^ ^ ^ ^ ^ ^ ^ ^ ^ ^ ^ ^ ^ ^ ^ ] / ( _ : > < > > ",
"[ } | 1 2 3 4 5 5 5 5 5 5 5 5 5 5 5 5 5 5 5 5 6 7 8 9 ] 0 [ [ [ ",
"} a b c d e f g h i j j j j j j j j j j j k l m n o p q ] r s > ",
"t u v w x y z A B C D D D D D D D D D D D E F G H I J K L M , [ ",
"N O P Q R S T U U V V V V V V V V V V V V V U W X Y Z `  ...s +.",
"@.#.$.%.&.*.*.=.-.;.;.;.;.;.;.;.;.;.;.;.;.>.-.,.'.).!.~.{.].> t ",
"^./.(._.:.<.).[.}.|.1.1.1.1.1.1.1.1.1.1.1.2.3.4.<.5.6.7.8.9.0.a.",
"b.c.d.e.f.g.h.i.j.k.l.m.m.m.m.m.m.m.m.m.l.n.o.p.q.f.r.s.t.u.v.w.",
"x.y.z.A.B.C.D.E.F.G.G.G.G.G.G.G.G.G.G.G.G.G.H.I.J.K.K.L.M.N.O.P.",
"Q.R.S.T.U.V.W.X.Y.Z.`. + + + + + + + + +.+++@+#+$+%+&+*+=+-+;+>+",
",+'+)+!+~+{+]+^+/+(+_+:+<+<+<+<+<+<+:+<+[+}+|+1+2+3+4+5+6+7+8+9+",
"0+a+b+c+d+e+f+g+h+i+j+k+k+k+k+k+k+k+k+l+m+n+o+p+q+r+d+s+t+u+9+v+",
"w+x+y+z+A+B+C+D+E+F+G+H+H+H+H+H+H+H+H+I+J+K+L+M+N+O+P+Q+R+S+T+U+",
"V+W+X+Y+Z+`+ @E+E+.@`++@@@@@@@@@@@@@+@#@$@%@&@*@=@#@+@-@;@>@,@w+",
"'@)@!@~@{@]@^@/@/@^@(@_@I+I+I+I+I+I+_@:@<@[@}@|@<@:@_@1@2@3@4@5@",
"6@7@8@9@0@a@b@c@c@b@a@d@e@e@e@e@e@e@d@f@g@h@i@j@k@l@m@1@n@o@p@q@",
"r@s@t@u@v@<@w@x@x@y@l+]@]@]@]@]@]@]@]@=@z@A@B@C@D@E@F@G@H@I@J@K@",
"L@M@N@O@v@<@w@P@Q@R@S@T@T@T@T@T@T@T@T@U@V@W@X@Y@D@E@F@Z@`@ #K@.#",
"L@+#@#O@##J+$#%#&#*#=#-#;#;#;#;#;#;#-#;#>#,#'#)#!#F@~#{#]#^#/#(#",
"_#:#<#[#}#|#1#2#3#4#5#6#6#6#6#6#6#6#6#5#7#8#9#0#J+m@m@!#a#^#b#c#",
"d#e#f#g#h#i#j#k#l#m#n#o#o#o#o#o#o#o#o#o#p#q#r#s#t#u#v#]@w#x#y#z#",
"A#B#C#D#E#F#G#H#I#J#J#K#K#K#K#K#K#K#K#K#J#L#M#N#O#P#Q#R#S#T#z#U#",
"V#W#X#Y#Z#`# $ $.$+$+$+$+$+$+$+$+$+$+$+$+$+$ $ $@$#$$$%$&$*$U#=$",
"-$;$>$,$'$)$!$~${${${${${${${${${${${${${${$]$^$/$($_$:$<$[$U#}$",
"-$|$1$2$3$4$5$6$7$8$8$8$8$8$8$8$8$8$8$8$8$8$9$0$a$b$c$d$e$V#-$-$",
"A#d#V#f$g$h$i$j$k$k$k$k$k$k$k$k$k$k$k$k$k$k$k$l$m$n$o$p$q$r$A#A#",
"s$t$u$d#v$w$x$y$z$z$z$z$z$z$z$z$z$z$z$z$z$z$A$B$C$D$E$r$F$s$s$s$",
"G$G$H$7+I$J$K$L$L$L$L$L$L$L$L$L$L$L$L$L$L$L$L$L$K$M$N$O$G$G$G$G$",
"P$P$P$P$P$P$P$P$P$P$P$P$P$P$P$P$P$P$P$P$P$P$P$P$P$P$P$P$P$P$P$P$",
"Q$Q$Q$Q$Q$Q$Q$Q$Q$Q$Q$Q$Q$Q$Q$Q$Q$Q$Q$Q$Q$Q$Q$Q$Q$Q$Q$Q$Q$Q$Q$Q$",
"                                                                ",
"                                                                ",
"                                                                ",
"                                                                ",
"                                                                ",
"                                                                ",
"                                                                ",
"                                                                ",
"                                                                ",
"                                                                ",
"                                                                ",
"                                                                ",
"                                                                ",
"                                                                ",
"                                                                ",
"                                                                ",
"                                                                ",
"                                                                ",
"                                                                ",
"                                                                ",
"                                                                ",
"                                                                ",
"                                                                ",
"                                                                ",
"                                                                ",
"                                                                ",
"                                                                ",
"                                                                ",
"                                                                ",
"                                                                ",
"                                                                ",
"                                                                ",
"                                                                ",
"                                                                ",
"                                                                "};
