/* XPM */
static char * menuButtonO_xpm[] = {
"35 70 37 1",
" 	c #9E9B85",
".	c #D1CEBF",
"+	c #F6F3E9",
"@	c #FAF8F3",
"#	c #F8F6EF",
"$	c #F5F3EA",
"%	c #F5F2EA",
"&	c #F4F1E9",
"*	c #F3F1E8",
"=	c #F3F1E7",
"-	c #F3F0E6",
";	c #F0EDE3",
">	c #EDE9DE",
",	c #EAE6DA",
"'	c #E8E4D8",
")	c #E6E3D7",
"!	c #E4E0D4",
"~	c #E1DDD1",
"{	c #DEDACD",
"]	c #DBD7CB",
"^	c #D9D5C9",
"/	c #D9D4C9",
"(	c #D8D3C8",
"_	c #D7D2C7",
":	c #D6D1C5",
"<	c #D5D0C4",
"[	c #D6D1C4",
"}	c #D5D0C3",
"|	c #D4CFC3",
"1	c #D2CEC2",
"2	c #CFCCC0",
"3	c #C6C3B4",
"4	c #B6B39F",
"5	c #A4A18C",
"6	c #D0CDBE",
"7	c #C5C2B3",
"8	c #BBB8A5",
"                                   ",
"...................................",
"+++++++++++++++++++++++++++++++++++",
"@@@@@@@@@@@@@@@@@@@@@@@@@@@@@@@@@@@",
"###################################",
"$$$$$$$$$$$$$$$$$$$$$$$$$$$$$$$$$$$",
"%%%%%%%%%%%%%%%%%%%%%%%%%%%%%%%%%%%",
"$$$$$$$$$$$$$$$$$$$$$$$$$$$$$$$$$$$",
"%%%%%%%%%%%%%%%%%%%%%%%%%%%%%%%%%%%",
"&&&&&&&&&&&&&&&&&&&&&&&&&&&&&&&&&&&",
"***********************************",
"===================================",
"-----------------------------------",
";;;;;;;;;;;;;;;;;;;;;;;;;;;;;;;;;;;",
">>>>>>>>>>>>>>>>>>>>>>>>>>>>>>>>>>>",
",,,,,,,,,,,,,,,,,,,,,,,,,,,,,,,,,,,",
"'''''''''''''''''''''''''''''''''''",
")))))))))))))))))))))))))))))))))))",
"!!!!!!!!!!!!!!!!!!!!!!!!!!!!!!!!!!!",
"~~~~~~~~~~~~~~~~~~~~~~~~~~~~~~~~~~~",
"{{{{{{{{{{{{{{{{{{{{{{{{{{{{{{{{{{{",
"]]]]]]]]]]]]]]]]]]]]]]]]]]]]]]]]]]]",
"^^^^^^^^^^^^^^^^^^^^^^^^^^^^^^^^^^^",
"///////////////////////////////////",
"(((((((((((((((((((((((((((((((((((",
"___________________________________",
":::::::::::::::::::::::::::::::::::",
"<<<<<<<<<<<<<<<<<<<<<<<<<<<<<<<<<<<",
"[[[[[[[[[[[[[[[[[[[[[[[[[[[[[[[[[[[",
"}}}}}}}}}}}}}}}}}}}}}}}}}}}}}}}}}}}",
"|||||||||||||||||||||||||||||||||||",
"11111111111111111111111111111111111",
"22222222222222222222222222222222222",
"33333333333333333333333333333333333",
"44444444444444444444444444444444444",
"55555555555555555555555555555555555",
"66666666666666666666666666666666666",
"+++++++++++++++++++++++++++++++++++",
"@@@@@@@@@@@@@@@@@@@@@@@@@@@@@@@@@@@",
"###################################",
"$$$$$$$$$$$$$$$$$$$$$$$$$$$$$$$$$$$",
"%%%%%%%%%%%%%%%%%%%%%%%%%%%%%%%%%%%",
"$$$$$$$$$$$$$$$$$$$$$$$$$$$$$$$$$$$",
"%%%%%%%%%%%%%%%%%%%%%%%%%%%%%%%%%%%",
"&&&&&&&&&&&&&&&&&&&&&&&&&&&&&&&&&&&",
"***********************************",
"===================================",
"-----------------------------------",
";;;;;;;;;;;;;;;;;;;;;;;;;;;;;;;;;;;",
">>>>>>>>>>>>>>>>>>>>>>>>>>>>>>>>>>>",
",,,,,,,,,,,,,,,,,,,,,,,,,,,,,,,,,,,",
"'''''''''''''''''''''''''''''''''''",
")))))))))))))))))))))))))))))))))))",
"!!!!!!!!!!!!!!!!!!!!!!!!!!!!!!!!!!!",
"~~~~~~~~~~~~~~~~~~~~~~~~~~~~~~~~~~~",
"{{{{{{{{{{{{{{{{{{{{{{{{{{{{{{{{{{{",
"]]]]]]]]]]]]]]]]]]]]]]]]]]]]]]]]]]]",
"^^^^^^^^^^^^^^^^^^^^^^^^^^^^^^^^^^^",
"///////////////////////////////////",
"(((((((((((((((((((((((((((((((((((",
"___________________________________",
":::::::::::::::::::::::::::::::::::",
"<<<<<<<<<<<<<<<<<<<<<<<<<<<<<<<<<<<",
"[[[[[[[[[[[[[[[[[[[[[[[[[[[[[[[[[[[",
"}}}}}}}}}}}}}}}}}}}}}}}}}}}}}}}}}}}",
"|||||||||||||||||||||||||||||||||||",
"11111111111111111111111111111111111",
"22222222222222222222222222222222222",
"77777777777777777777777777777777777",
"88888888888888888888888888888888888"};
