/* XPM */
static char * menusel_xpm[] = {
"1 28 28 1",
" 	c #73726E",
".	c #899476",
"+	c #98AD7C",
"@	c #A2B884",
"#	c #AFC78F",
"$	c #BDD59A",
"%	c #C7E0A2",
"&	c #C2DC9F",
"*	c #C0DA9D",
"=	c #BFD89C",
"-	c #BCD69A",
";	c #BAD398",
">	c #B9D197",
",	c #B7CF95",
"'	c #B5CE93",
")	c #B2CB91",
"!	c #B1C990",
"~	c #AFC78E",
"{	c #ADC58D",
"]	c #ABC38C",
"^	c #A9C28B",
"/	c #A5BC86",
"(	c #A0B781",
"_	c #9AB07C",
":	c #94AA77",
"<	c #7F9363",
"[	c #6B7858",
"}	c #54584F",
" ",
".",
"+",
"@",
"#",
"$",
"%",
"&",
"*",
"=",
"-",
";",
">",
",",
"'",
")",
"!",
"~",
"{",
"]",
"^",
"/",
"(",
"_",
":",
"<",
"[",
"}"};
