/* XPM */
static char * minimizeO_xpm[] = {
"32 70 831 2",
"  	c #9E9B85",
". 	c #D1CEBF",
"+ 	c #F6F3E9",
"@ 	c #FAF8F3",
"# 	c #F8F6EF",
"$ 	c #F8F7F0",
"% 	c #F9F8F0",
"& 	c #F9F8F1",
"* 	c #F8F7EF",
"= 	c #F5F3EA",
"- 	c #F5F4EB",
"; 	c #F3F1E7",
"> 	c #EDE7DE",
", 	c #E6DDD4",
"' 	c #E0D6CE",
") 	c #DCD4CB",
"! 	c #DAD3CA",
"~ 	c #D9D2CA",
"{ 	c #DBD3CA",
"] 	c #DED5CC",
"^ 	c #E3D9D0",
"/ 	c #EAE1D8",
"( 	c #F0ECE2",
"_ 	c #F5F4EA",
": 	c #F5F2EA",
"< 	c #F5F1E9",
"[ 	c #ECE4DC",
"} 	c #D7BFB9",
"| 	c #BF9791",
"1 	c #A8746E",
"2 	c #99655E",
"3 	c #916159",
"4 	c #8F6259",
"5 	c #8F6359",
"6 	c #906259",
"7 	c #946259",
"8 	c #9F6A63",
"9 	c #B2817C",
"0 	c #CAA9A3",
"a 	c #E1D2CA",
"b 	c #F2EDE5",
"c 	c #F5F2E9",
"d 	c #EBE2DA",
"e 	c #D5BFB8",
"f 	c #B08580",
"g 	c #A25B53",
"h 	c #A7563D",
"i 	c #B26A44",
"j 	c #BC7E52",
"k 	c #C2895B",
"l 	c #C38B5D",
"m 	c #C38C5D",
"n 	c #C28B5C",
"o 	c #C08658",
"p 	c #B8754B",
"q 	c #AD603F",
"r 	c #A35444",
"s 	c #A56A64",
"t 	c #C1A19B",
"u 	c #F1EBE3",
"v 	c #F5F3EB",
"w 	c #F4F1E8",
"x 	c #DECDC5",
"y 	c #BB908A",
"z 	c #9B5248",
"A 	c #AA5E3B",
"B 	c #C37F52",
"C 	c #D39462",
"D 	c #DFA46F",
"E 	c #E4AC75",
"F 	c #E5AE77",
"G 	c #E5AE76",
"H 	c #E3AA73",
"I 	c #DA9D69",
"J 	c #CD8B5B",
"K 	c #BA744A",
"L 	c #9E4D33",
"M 	c #A66C66",
"N 	c #CBACA5",
"O 	c #EBE3DB",
"P 	c #F6F4EB",
"Q 	c #F3EFE7",
"R 	c #D0B9B3",
"S 	c #A7635C",
"T 	c #A9583D",
"U 	c #C98856",
"V 	c #DEA46A",
"W 	c #E1A76D",
"X 	c #E2A96F",
"Y 	c #E3A96F",
"Z 	c #E3AA70",
"` 	c #E2A86E",
" .	c #E0A66C",
"..	c #D99C65",
"+.	c #B86F46",
"@.	c #A35142",
"#.	c #B48681",
"$.	c #E5DBD3",
"%.	c #F4F1E9",
"&.	c #F2EFE5",
"*.	c #C5AFA9",
"=.	c #9B4C3C",
"-.	c #BA6D41",
";.	c #D4925A",
">.	c #E1A567",
",.	c #E1A568",
"'.	c #E1A467",
").	c #E2A568",
"!.	c #DEA064",
"~.	c #C9824F",
"{.	c #AA5632",
"].	c #A3706A",
"^.	c #E1D7CF",
"/.	c #F3F1E8",
"(.	c #F1EEE5",
"_.	c #BFABA5",
":.	c #97482D",
"<.	c #C77F47",
"[.	c #DA9657",
"}.	c #DF9E5D",
"|.	c #DF9F5D",
"1.	c #DD9C5B",
"2.	c #D58E52",
"3.	c #B26430",
"4.	c #9A6761",
"5.	c #DED6CD",
"6.	c #F5F3E9",
"7.	c #F1EDE4",
"8.	c #BDAAA4",
"9.	c #984D2A",
"0.	c #CF8948",
"a.	c #DD9751",
"b.	c #DD9851",
"c.	c #DC9751",
"d.	c #DB944F",
"e.	c #B86E31",
"f.	c #97665F",
"g.	c #DDD5CD",
"h.	c #F4F2E8",
"i.	c #F3F0E6",
"j.	c #EEEBE0",
"k.	c #BCA8A1",
"l.	c #9A4C26",
"m.	c #D08741",
"n.	c #DC9247",
"o.	c #DB9147",
"p.	c #B96D29",
"q.	c #98655D",
"r.	c #DBD2C9",
"s.	c #F0EDE3",
"t.	c #EBE7DC",
"u.	c #BBA69E",
"v.	c #9B4A22",
"w.	c #D08339",
"x.	c #DB8E3F",
"y.	c #DA8C3E",
"z.	c #DA8D3E",
"A.	c #BA6921",
"B.	c #99645A",
"C.	c #D9CFC5",
"D.	c #EDE9DE",
"E.	c #E8E4D8",
"F.	c #BAA39B",
"G.	c #9D491F",
"H.	c #CF7F32",
"I.	c #DA8937",
"J.	c #D98837",
"K.	c #D98937",
"L.	c #BA6618",
"M.	c #9A6258",
"N.	c #D7CCC2",
"O.	c #EBE8DC",
"P.	c #EAE6DA",
"Q.	c #E6E2D6",
"R.	c #BAA29A",
"S.	c #9E471C",
"T.	c #CE7B2B",
"U.	c #D88531",
"V.	c #D78430",
"W.	c #B9630E",
"X.	c #9C6258",
"Y.	c #D5CBC0",
"Z.	c #E9E6DA",
"`.	c #E4E0D4",
" +	c #BBA199",
".+	c #9F4619",
"++	c #CC7724",
"@+	c #D6812A",
"#+	c #D58029",
"$+	c #B96002",
"%+	c #9E6157",
"&+	c #D4C9BF",
"*+	c #E7E5D9",
"=+	c #E6E3D7",
"-+	c #E3DED2",
";+	c #BBA097",
">+	c #A14416",
",+	c #CC741E",
"'+	c #D57D23",
")+	c #D47C23",
"!+	c #B95D00",
"~+	c #A06155",
"{+	c #D3C7BC",
"]+	c #E0DBCF",
"^+	c #BB9E94",
"/+	c #A44414",
"(+	c #CB7119",
"_+	c #D47A1E",
":+	c #D3791D",
"<+	c #BA5B00",
"[+	c #A26154",
"}+	c #D2C5B9",
"|+	c #E3DFD3",
"1+	c #E1DDD1",
"2+	c #DCD8CB",
"3+	c #BA9C92",
"4+	c #A64412",
"5+	c #CB6E15",
"6+	c #D37719",
"7+	c #D27619",
"8+	c #D27511",
"9+	c #D27300",
"0+	c #D17200",
"a+	c #D17100",
"b+	c #D27200",
"c+	c #D27404",
"d+	c #D27617",
"e+	c #BB5900",
"f+	c #A46052",
"g+	c #CFC2B6",
"h+	c #DFDCCF",
"i+	c #DEDACD",
"j+	c #D9D4C8",
"k+	c #BA9A90",
"l+	c #A84511",
"m+	c #CB6D12",
"n+	c #D37617",
"o+	c #D27517",
"p+	c #D27412",
"q+	c #D58345",
"r+	c #DB9A70",
"s+	c #DEA485",
"t+	c #DFA78C",
"u+	c #DEA78B",
"v+	c #DDA07D",
"w+	c #D99160",
"x+	c #D3792A",
"y+	c #BC5900",
"z+	c #A65F51",
"A+	c #CDBFB4",
"B+	c #DCD8CC",
"C+	c #DBD7CB",
"D+	c #D8D3C7",
"E+	c #BA998F",
"F+	c #AA4611",
"G+	c #CB6E12",
"H+	c #DD9F77",
"I+	c #F0D6C1",
"J+	c #F8EDE5",
"K+	c #FAF4F1",
"L+	c #FAF3F1",
"M+	c #FAF2EF",
"N+	c #F5E5D8",
"O+	c #E8C1A6",
"P+	c #D58145",
"Q+	c #BD5A00",
"R+	c #A86051",
"S+	c #CCBEB3",
"T+	c #DAD7CB",
"U+	c #D9D5C9",
"V+	c #D8D2C7",
"W+	c #BB998F",
"X+	c #AC4611",
"Y+	c #D37618",
"Z+	c #D06F00",
"`+	c #DEA27F",
" @	c #F4E0CF",
".@	c #FEFAF6",
"+@	c #FFFFFF",
"@@	c #FBF1E8",
"#@	c #EBC9B2",
"$@	c #D48149",
"%@	c #D17000",
"&@	c #BD5900",
"*@	c #AA6050",
"=@	c #CDBDB2",
"-@	c #DAD6CB",
";@	c #D9D4C9",
">@	c #D7D1C6",
",@	c #BE9A8F",
"'@	c #AF4914",
")@	c #CA6A13",
"!@	c #D47619",
"~@	c #D5791B",
"{@	c #D5781A",
"]@	c #D37102",
"^@	c #DB926A",
"/@	c #E9C0AD",
"(@	c #EFD5CE",
"_@	c #F1DCDA",
":@	c #F1DCD9",
"<@	c #F1DBD7",
"[@	c #EDCEC2",
"}@	c #E4AF94",
"|@	c #D57C3C",
"1@	c #D47405",
"2@	c #D27318",
"3@	c #BE5800",
"4@	c #AE6351",
"5@	c #D9D5CA",
"6@	c #D8D3C8",
"7@	c #D6D0C5",
"8@	c #C19D8F",
"9@	c #B45324",
"0@	c #C86517",
"a@	c #D5761C",
"b@	c #DB7E20",
"c@	c #DB7E1F",
"d@	c #DA7917",
"e@	c #D8762A",
"f@	c #D77443",
"g@	c #D57251",
"h@	c #D37055",
"i@	c #D36F55",
"j@	c #D47054",
"k@	c #D5734B",
"l@	c #D77539",
"m@	c #D9771D",
"n@	c #DA7B1B",
"o@	c #D97C1F",
"p@	c #D06F1A",
"q@	c #BE5703",
"r@	c #B56C56",
"s@	c #CEBDB1",
"t@	c #D8D4C9",
"u@	c #D7D2C7",
"v@	c #D5CFC3",
"w@	c #C7A594",
"x@	c #BB6742",
"y@	c #C35E1F",
"z@	c #D5751E",
"A@	c #E18426",
"B@	c #E08223",
"C@	c #DF7C17",
"D@	c #DC7300",
"E@	c #DA6B00",
"F@	c #D96700",
"G@	c #D96600",
"H@	c #DA6900",
"I@	c #DB6E00",
"J@	c #DD7709",
"K@	c #E07F1E",
"L@	c #E18325",
"M@	c #E18527",
"N@	c #DE8024",
"O@	c #CC6818",
"P@	c #BE5C27",
"Q@	c #BE7E65",
"R@	c #CFBFB2",
"S@	c #D6D2C7",
"T@	c #D6D1C5",
"U@	c #CEB3A1",
"V@	c #C38569",
"W@	c #BE5F31",
"X@	c #CC6816",
"Y@	c #DB7A22",
"Z@	c #E18227",
"`@	c #E58729",
" #	c #E78829",
".#	c #E78726",
"+#	c #E78523",
"@#	c #E78422",
"##	c #E78322",
"$#	c #E78522",
"%#	c #E78624",
"&#	c #E78827",
"*#	c #E68829",
"=#	c #E38529",
"-#	c #DF7F25",
";#	c #D67520",
">#	c #C45E16",
",#	c #BF6E4B",
"'#	c #C89982",
")#	c #D2C4B6",
"!#	c #D5D0C4",
"~#	c #D6D0C3",
"{#	c #D4C3B3",
"]#	c #CCA691",
"^#	c #BF7658",
"/#	c #C1612F",
"(#	c #CB6722",
"_#	c #D77424",
":#	c #E08129",
"<#	c #E5882D",
"[#	c #E7892D",
"}#	c #E7882D",
"|#	c #E7892E",
"1#	c #E6882D",
"2#	c #E4862C",
"3#	c #DC7B26",
"4#	c #D26E22",
"5#	c #C66328",
"6#	c #BE653C",
"7#	c #C48C74",
"8#	c #D1B5A3",
"9#	c #D5CBBD",
"0#	c #D6D1C4",
"a#	c #D6CEC2",
"b#	c #D4C3B5",
"c#	c #CDA792",
"d#	c #C78869",
"e#	c #C36D3F",
"f#	c #C15E21",
"g#	c #C15A12",
"h#	c #C25B12",
"i#	c #C35C13",
"j#	c #C35C12",
"k#	c #C15A15",
"l#	c #C1632E",
"m#	c #C47852",
"n#	c #CA967D",
"o#	c #D6CABD",
"p#	c #D5D0C3",
"q#	c #D4CFC3",
"r#	c #D5D1C5",
"s#	c #D6CFC3",
"t#	c #D6C5B5",
"u#	c #D2B6A4",
"v#	c #CDA997",
"w#	c #C9A193",
"x#	c #C79E93",
"y#	c #C69E93",
"z#	c #C89F93",
"A#	c #CBA495",
"B#	c #CFAE9C",
"C#	c #D4BDAC",
"D#	c #D6CABC",
"E#	c #D6D1C6",
"F#	c #D4D0C4",
"G#	c #D2CEC2",
"H#	c #D2CFC2",
"I#	c #D3CFC3",
"J#	c #D8D3C9",
"K#	c #DBD6CC",
"L#	c #DDD8D0",
"M#	c #DFDAD2",
"N#	c #DFDBD3",
"O#	c #DFDBD2",
"P#	c #DEDAD1",
"Q#	c #DCD7CE",
"R#	c #DAD5CA",
"S#	c #D3CFC2",
"T#	c #CFCCC0",
"U#	c #CFCCC1",
"V#	c #D0CDC2",
"W#	c #D1CEC3",
"X#	c #D2CFC5",
"Y#	c #D3D0C6",
"Z#	c #D3D1C7",
"`#	c #D4D1C7",
" $	c #D2CFC4",
".$	c #D0CEC3",
"+$	c #D0CCC1",
"@$	c #C6C3B4",
"#$	c #C5C2B4",
"$$	c #C5C2B3",
"%$	c #B6B39F",
"&$	c #A4A18C",
"*$	c #D0CDBE",
"=$	c #ECE7DE",
"-$	c #E5DDD4",
";$	c #DED6CE",
">$	c #DAD4CB",
",$	c #D8D3CA",
"'$	c #D7D3CA",
")$	c #DBD5CC",
"!$	c #E1D9D0",
"~$	c #E8E1D8",
"{$	c #EBE4DC",
"]$	c #D2BFB9",
"^$	c #B69691",
"/$	c #9C736E",
"($	c #8B625C",
"_$	c #825D56",
":$	c #805C55",
"<$	c #805D55",
"[$	c #815D56",
"}$	c #855D57",
"|$	c #926862",
"1$	c #A7817C",
"2$	c #C3A9A3",
"3$	c #DED2CA",
"4$	c #EAE2DA",
"5$	c #D1BFB8",
"6$	c #A78580",
"7$	c #905650",
"8$	c #8E3F2E",
"9$	c #974521",
"0$	c #A15327",
"a$	c #A75B2D",
"b$	c #A95E2E",
"c$	c #A95E2F",
"d$	c #A85D2E",
"e$	c #A5592B",
"f$	c #9D4C22",
"g$	c #934024",
"h$	c #8D463C",
"i$	c #976863",
"j$	c #BAA19B",
"k$	c #F0EBE3",
"l$	c #DBCDC5",
"m$	c #B18F8A",
"n$	c #894B44",
"o$	c #913F20",
"p$	c #A7562F",
"q$	c #B76539",
"r$	c #C27241",
"s$	c #C87845",
"t$	c #C97A46",
"u$	c #C97946",
"v$	c #C67644",
"w$	c #BD6C3D",
"x$	c #B05F34",
"y$	c #9F4E2B",
"z$	c #873623",
"A$	c #996A65",
"B$	c #C4ACA5",
"C$	c #EAE3DB",
"D$	c #F2EFE7",
"E$	c #CBB9B3",
"F$	c #98605B",
"G$	c #90412E",
"H$	c #AE5C31",
"I$	c #C2713E",
"J$	c #C5733F",
"K$	c #C67540",
"L$	c #C77641",
"M$	c #C77540",
"N$	c #C67440",
"O$	c #C4733F",
"P$	c #BD6B3B",
"Q$	c #9D4B28",
"R$	c #8E453C",
"S$	c #AA8580",
"T$	c #E3DBD3",
"U$	c #F1EFE5",
"V$	c #C0B0A9",
"W$	c #894037",
"X$	c #9F4A26",
"Y$	c #B86432",
"Z$	c #C5713B",
"`$	c #C5713A",
" %	c #C6723B",
".%	c #C26E39",
"+%	c #AD582B",
"@%	c #91381B",
"#%	c #986F6A",
"$%	c #DFD8CF",
"%%	c #BAACA5",
"&%	c #823320",
"*%	c #AC5425",
"=%	c #BE6630",
"-%	c #C36C33",
";%	c #C16A32",
">%	c #B9602C",
",%	c #983C01",
"'%	c #8D6560",
")%	c #DDD6CE",
"!%	c #F0EDE4",
"~%	c #B8ABA4",
"{%	c #82341A",
"]%	c #B45A24",
"^%	c #C0652B",
"/%	c #C1662B",
"(%	c #C0662B",
"_%	c #BF632A",
":%	c #9E4300",
"<%	c #8A635E",
"[%	c #DBD5CD",
"}%	c #B7A9A1",
"|%	c #843217",
"1%	c #B5581E",
"2%	c #C06123",
"3%	c #BF6023",
"4%	c #9F4100",
"5%	c #D9D3C9",
"6%	c #B6A69E",
"7%	c #863015",
"8%	c #B45518",
"9%	c #BE5D1D",
"0%	c #BD5C1D",
"a%	c #9F3E00",
"b%	c #8C605A",
"c%	c #D7CFC5",
"d%	c #EFEBE0",
"e%	c #B5A39B",
"f%	c #872F13",
"g%	c #B25112",
"h%	c #BC5918",
"i%	c #BB5817",
"j%	c #9F3B00",
"k%	c #8D5F58",
"l%	c #D5CCC2",
"m%	c #B5A29A",
"n%	c #892D12",
"o%	c #B14E0D",
"p%	c #BA5513",
"q%	c #B95412",
"r%	c #BA5413",
"s%	c #9F3700",
"t%	c #8E5E57",
"u%	c #D3CBC0",
"v%	c #B5A199",
"w%	c #8B2B10",
"x%	c #B14A08",
"y%	c #B9510E",
"z%	c #B8500E",
"A%	c #B8510E",
"B%	c #9F3400",
"C%	c #915D56",
"D%	c #D2C9BF",
"E%	c #E8E5D9",
"F%	c #B59F97",
"G%	c #8D290F",
"H%	c #B04704",
"I%	c #B84E09",
"J%	c #B74D09",
"K%	c #A03100",
"L%	c #935C55",
"M%	c #D1C7BC",
"N%	c #B59D94",
"O%	c #90280E",
"P%	c #AF4400",
"Q%	c #B64B05",
"R%	c #B54B05",
"S%	c #A02E00",
"T%	c #955B54",
"U%	c #D0C5B9",
"V%	c #DCD7CB",
"W%	c #B59B92",
"X%	c #92260D",
"Y%	c #AF4200",
"Z%	c #B54902",
"`%	c #B44802",
" &	c #B44600",
".&	c #B34100",
"+&	c #B33E00",
"@&	c #B23D00",
"#&	c #B33F00",
"$&	c #B34300",
"%&	c #B44800",
"&&	c #B54802",
"*&	c #A12C00",
"=&	c #975952",
"-&	c #CDC1B6",
";&	c #B49890",
">&	c #95260C",
",&	c #AF4100",
"'&	c #B54800",
")&	c #B44700",
"!&	c #B34500",
"~&	c #BA6040",
"{&	c #C5816D",
"]&	c #C99083",
"^&	c #CB958A",
"/&	c #CA9489",
"(&	c #C88B7B",
"_&	c #C0745D",
":&	c #B54F21",
"<&	c #B44500",
"[&	c #A22C00",
"}&	c #995851",
"|&	c #CBBEB4",
"1&	c #B5988F",
"2&	c #97270C",
"3&	c #B24000",
"4&	c #C78775",
"5&	c #E7CBC0",
"6&	c #F4E8E5",
"7&	c #F8F2F1",
"8&	c #F7F2F1",
"9&	c #F7F0EF",
"0&	c #F0DED7",
"a&	c #DBB2A5",
"b&	c #B95E41",
"c&	c #A32C00",
"d&	c #9B5850",
"e&	c #CABDB3",
"f&	c #B6978F",
"g&	c #99270C",
"h&	c #AF4000",
"i&	c #B03C00",
"j&	c #C88C7E",
"k&	c #EDD6CF",
"l&	c #FDF8F6",
"m&	c #F8EBE8",
"n&	c #DFBBB2",
"o&	c #B85E47",
"p&	c #B13E00",
"q&	c #A42C00",
"r&	c #9E5750",
"s&	c #CBBDB2",
"t&	c #B8978F",
"u&	c #9D2A10",
"v&	c #AE3E00",
"w&	c #B54700",
"x&	c #B13D00",
"y&	c #C07669",
"z&	c #D9B2AD",
"A&	c #E3D0CE",
"B&	c #E6DADA",
"C&	c #E6D9D9",
"D&	c #E6D8D7",
"E&	c #E0C4C2",
"F&	c #CF9B94",
"G&	c #B5533A",
"H&	c #B34000",
"I&	c #B34400",
"J&	c #A52A00",
"K&	c #A25951",
"L&	c #CBBCB2",
"M&	c #BC998F",
"N&	c #A43622",
"O&	c #AD3A04",
"P&	c #B54500",
"Q&	c #B84B00",
"R&	c #B84A00",
"S&	c #B64400",
"T&	c #B34525",
"U&	c #B04D42",
"V&	c #AC5450",
"W&	c #AA5755",
"X&	c #A95755",
"Y&	c #AA5654",
"Z&	c #AE514B",
"`&	c #B14937",
" *	c #B44311",
".*	c #B74800",
"+*	c #B74A00",
"@*	c #A82D00",
"#*	c #AA5F56",
"$*	c #CCBCB1",
"%*	c #C39F94",
"&*	c #AF5141",
"**	c #AC3915",
"=*	c #B54300",
"-*	c #BC4F00",
";*	c #BB4C00",
">*	c #B84300",
",*	c #B33500",
"'*	c #AE2900",
")*	c #AC2300",
"!*	c #AC2100",
"~*	c #AC2200",
"{*	c #AD2500",
"]*	c #B02E00",
"^*	c #B53B00",
"/*	c #BA4800",
"(*	c #BC4E01",
"_*	c #BA4C00",
":*	c #AF3B00",
"<*	c #AB3C23",
"[*	c #B67165",
"}*	c #CEBDB2",
"|*	c #CBAEA1",
"1*	c #BC7769",
"2*	c #AD442E",
"3*	c #B13B00",
"4*	c #B94700",
"5*	c #BC4D00",
"6*	c #BF5000",
"7*	c #BE4D00",
"8*	c #BD4A00",
"9*	c #BC4900",
"0*	c #BC4800",
"a*	c #BD4B00",
"b*	c #BE4E00",
"c*	c #BE4F00",
"d*	c #BB4B00",
"e*	c #AD3604",
"f*	c #B25A4A",
"g*	c #C38F82",
"h*	c #D1C2B6",
"i*	c #D6D2C5",
"j*	c #D3C0B3",
"k*	c #C89E91",
"l*	c #B66657",
"m*	c #B0442B",
"n*	c #B23F14",
"o*	c #B84405",
"p*	c #BC4C00",
"q*	c #BF5100",
"r*	c #BA4801",
"s*	c #B5410B",
"t*	c #B1401F",
"u*	c #B04E3A",
"v*	c #BE8174",
"w*	c #CEB0A3",
"x*	c #D4C9BD",
"y*	c #D5CDC2",
"z*	c #D3C0B5",
"A*	c #CA9F92",
"B*	c #BF7969",
"C*	c #B6553E",
"D*	c #B03D1A",
"E*	c #AD3300",
"F*	c #AC3200",
"G*	c #AE3505",
"H*	c #B2462A",
"I*	c #B96551",
"J*	c #C48B7D",
"K*	c #CEAFA3",
"L*	c #D5C8BD",
"M*	c #D5CEC3",
"N*	c #D6CEC3",
"O*	c #D5C1B5",
"P*	c #D0B1A4",
"Q*	c #CAA397",
"R*	c #C59C94",
"S*	c #C29A93",
"T*	c #C19A94",
"U*	c #C39B93",
"V*	c #C79F95",
"W*	c #CCA89C",
"X*	c #D2B9AC",
"Y*	c #D6C8BC",
"Z*	c #D5D0C5",
"`*	c #DEDAD2",
" =	c #DED9D1",
".=	c #D2D0C5",
"+=	c #BBB8A5",
"                                                                ",
". . . . . . . . . . . . . . . . . . . . . . . . . . . . . . . . ",
"+ + + + + + + + + + + + + + + + + + + + + + + + + + + + + + + + ",
"@ @ @ @ @ @ @ @ @ @ @ @ @ @ @ @ @ @ @ @ @ @ @ @ @ @ @ @ @ @ @ @ ",
"# # # $ % & & & & & & & & & & & & & & & & & & & & & $ * # # # # ",
"= - ; > , ' ) ! ~ ~ ~ ~ ~ ~ ~ ~ ~ ~ ~ ~ ~ ~ ~ { ] ^ / ( = _ = = ",
": < [ } | 1 2 3 4 4 5 5 5 5 5 5 5 5 5 5 5 4 6 7 8 9 0 a b : : : ",
"c d e f g h i j k l m l l l l l l l l l m n o p q r s t a u v = ",
"w x y z A B C D E F F F F F F F F F F F F G H I J K L M N O P : ",
"Q R S T U V W X Y Z Z Z Z Z Z Z Z Z Z Z Z Z Y `  ...+.@.#.$.v %.",
"&.*.=.-.;.>.,.>.>.>.'.>.>.>.>.>.>.>.>.>.'.>.>.>.).!.~.{.].^.= /.",
"(._.:.<.[.}.}.}.}.}.}.}.}.}.}.}.}.}.}.}.}.}.}.}.|.1.2.3.4.5.6.; ",
"7.8.9.0.a.a.a.a.a.a.a.a.a.a.a.a.a.a.a.a.a.a.a.a.b.c.d.e.f.g.h.i.",
"j.k.l.m.n.o.o.o.o.o.o.o.o.o.o.o.o.o.o.o.o.o.o.o.o.o.o.p.q.r.&.s.",
"t.u.v.w.x.y.y.y.y.y.y.y.y.y.y.y.y.y.y.y.y.y.y.y.y.y.z.A.B.C.j.D.",
"E.F.G.H.I.J.J.J.J.J.J.J.J.J.J.J.J.J.J.J.J.J.J.J.J.J.K.L.M.N.O.P.",
"Q.R.S.T.U.V.V.V.V.V.V.V.V.V.V.V.V.V.V.V.V.V.V.V.V.V.V.W.X.Y.Z.E.",
"`. +.+++@+#+#+#+#+#+#+#+#+#+#+#+#+#+#+#+#+#+#+#+#+#+#+$+%+&+*+=+",
"-+;+>+,+'+)+)+)+)+)+)+)+)+)+)+)+)+)+)+)+)+)+)+)+)+)+)+!+~+{+Q.`.",
"]+^+/+(+_+:+:+:+:+:+:+:+:+:+:+:+:+:+:+:+:+:+:+:+:+:+:+<+[+}+|+1+",
"2+3+4+5+6+7+7+7+8+9+0+a+a+a+a+a+a+a+a+a+b+c+d+7+7+7+6+e+f+g+h+i+",
"j+k+l+m+n+o+o+p+q+r+s+t+t+t+t+t+t+t+t+u+v+w+x+p+o+o+o+y+z+A+B+C+",
"D+E+F+G+n+o+o+a+H+I+J+K+L+L+L+L+L+L+L+M+N+O+P+a+o+o+o+Q+R+S+T+U+",
"V+W+X+m+Y+Y+o+Z+`+ @.@+@+@+@+@+@+@+@+@+@@@#@$@%@Y+o+o+&@*@=@-@;@",
">@,@'@)@!@~@{@]@^@/@(@_@:@:@:@:@:@:@:@<@[@}@|@1@~@{@2@3@4@=@5@6@",
"7@8@9@0@a@b@c@d@e@f@g@h@i@i@i@i@i@i@i@j@k@l@m@n@b@o@p@q@r@s@t@u@",
"v@w@x@y@z@A@A@B@C@D@E@F@G@G@G@G@G@G@F@H@I@J@K@L@M@N@O@P@Q@R@S@T@",
"v@U@V@W@X@Y@Z@`@ #.#+#@#############@#$#%#&#*#=#-#;#>#,#'#)#T@!#",
"~#{#]#^#/#(#_#:#<#[#[#[#}#}#}#}#}#}#}#[#|#1#2#3#4#5#6#7#8#9#T@0#",
"v@a#b#c#d#e#f#g#h#i#i#i#i#i#i#i#i#i#i#i#i#j#h#k#l#m#n#8#o#v@p#p#",
"q#r#s#t#u#v#w#x#x#y#y#y#y#y#y#y#y#y#y#y#y#y#x#z#A#B#C#D#E#F#q#q#",
"G#H#I#r#J#K#L#M#N#N#N#N#N#N#N#N#N#N#N#N#N#N#O#P#Q#R#u@F#S#G#G#G#",
"T#T#U#V#W#X#Y#Z#`#`#`#`#`#`#`#`#`#`#`#`#`#`#`#Z#Y# $.$+$T#T#T#T#",
"@$@$@$@$@$@$#$$$$$$$$$$$$$$$$$$$$$$$$$$$$$$$$$$$#$@$@$@$@$@$@$@$",
"%$%$%$%$%$%$%$%$%$%$%$%$%$%$%$%$%$%$%$%$%$%$%$%$%$%$%$%$%$%$%$%$",
"&$&$&$&$&$&$&$&$&$&$&$&$&$&$&$&$&$&$&$&$&$&$&$&$&$&$&$&$&$&$&$&$",
"*$*$*$*$*$*$*$*$*$*$*$*$*$*$*$*$*$*$*$*$*$*$*$*$*$*$*$*$*$*$*$*$",
"+ + + + + + + + + + + + + + + + + + + + + + + + + + + + + + + + ",
"@ @ @ @ @ @ @ @ @ @ @ @ @ @ @ @ @ @ @ @ @ @ @ @ @ @ @ @ @ @ @ @ ",
"# # # $ % & & & & & & & & & & & & & & & & & & & & & $ * # # # # ",
"= - ; =$-$;$>$,$'$'$'$'$'$'$'$'$'$'$'$'$'$'$'$,$)$!$~$( = _ = = ",
": %.{$]$^$/$($_$:$<$<$<$<$<$<$<$<$<$<$<$<$<$[$}$|$1$2$3$b : : : ",
"c 4$5$6$7$8$9$0$a$b$c$c$c$c$c$c$c$c$c$c$c$d$e$f$g$h$i$j$3$k$v = ",
"w l$m$n$o$p$q$r$s$t$t$t$t$t$t$t$t$t$t$t$t$u$v$w$x$y$z$A$B$C$P : ",
"D$E$F$G$H$I$J$K$L$L$L$L$L$L$L$L$L$L$L$L$L$L$M$N$O$P$Q$R$S$T$v %.",
"U$V$W$X$Y$Z$`$`$`$`$`$`$`$`$`$`$`$`$`$`$`$`$`$`$ %.%+%@%#%$%= /.",
"(.%%&%*%=%-%-%-%-%-%-%-%-%-%-%-%-%-%-%-%-%-%-%-%-%;%>%,%'%)%6.; ",
"!%~%{%]%^%/%/%/%/%/%/%/%/%/%/%/%/%/%/%/%/%/%/%/%/%(%_%:%<%[%h.i.",
"j.}%|%1%2%3%3%3%3%3%3%3%3%3%3%3%3%3%3%3%3%3%3%3%3%3%3%4%($5%&.s.",
"t.6%7%8%9%0%0%0%0%0%0%0%0%0%0%0%0%0%0%0%0%0%0%0%0%0%0%a%b%c%d%D.",
"E.e%f%g%h%i%i%i%i%i%i%i%i%i%i%i%i%i%i%i%i%i%i%i%i%i%i%j%k%l%O.P.",
"Q.m%n%o%p%q%q%q%q%q%q%q%q%q%q%q%q%q%q%q%q%q%q%q%q%q%r%s%t%u%Z.E.",
"`.v%w%x%y%z%z%z%z%z%z%z%z%z%z%z%z%z%z%z%z%z%z%z%z%z%A%B%C%D%E%=+",
"-+F%G%H%I%J%J%J%J%J%J%J%J%J%J%J%J%J%J%J%J%J%J%J%J%J%J%K%L%M%Q.`.",
"]+N%O%P%Q%R%R%R%R%R%R%R%R%R%R%R%R%R%R%R%R%R%R%R%R%R%Q%S%T%U%|+1+",
"V%W%X%Y%Z%`%`%`% &.&+&@&@&@&@&@&@&@&@&@&#&$&%&`%`%`%&&*&=&-&h+i+",
"j+;&>&,&'&)&)&!&~&{&]&^&^&^&^&^&^&^&^&/&(&_&:&<&)&)&)&[&}&|&B+C+",
"D+1&2&,&'&)&)&3&4&5&6&7&8&8&8&8&8&8&8&9&0&a&b&3&)&)&)&c&d&e&T+U+",
"V+f&g&h&)&)& &i&j&k&l&+@+@+@+@+@+@+@+@+@m&n&o&p&)&)& &q&r&s&-@;@",
">@t&u&v& &'&w&x&y&z&A&B&C&C&C&C&C&C&C&D&E&F&G&H&'&'&I&J&K&L&R#6@",
"7@M&N&O&P&Q&R&S&T&U&V&W&X&X&X&X&X&X&X&Y&Z&`& *.*Q&+*3&@*#*$*t@u@",
"v@%*&***=*-*-*;*>*,*'*)*!*!*!*!*!*!*~*{*]*^*/*(*-*_*:*<*[*}*S@T@",
"v@|*1*2*3*4*5*6*6*7*8*9*0*0*0*0*0*0*9*9*a*b*6*c*d*S&e*f*g*h*i*!#",
"~#j*k*l*m*n*o*p*6*q*q*q*q*q*q*q*q*q*q*q*q*q*c*r*s*t*u*v*w*x*T@0#",
"v@y*z*A*B*C*D*E*F*E*E*E*E*E*E*E*E*E*E*E*E*F*F*G*H*I*J*K*L*M*p#p#",
"q#r#N*O*P*Q*R*S*T*T*T*T*T*T*T*T*T*T*T*T*T*T*S*U*V*W*X*Y*E#F#q#q#",
"G#H#I#Z*J#K#L#`*N#N#N#N#N#N#N#N#N#N#N#N#N#N#O# =Q#R#u@F#S#G#G#G#",
"T#T#U#V#W#.=Y#`#`#`#`#`#`#`#`#`#`#`#`#`#`#`#`#Z#Y# $.$+$T#T#T#T#",
"$$$$$$$$$$$$$$$$$$$$$$$$$$$$$$$$$$$$$$$$$$$$$$$$$$$$$$$$$$$$$$$$",
"+=+=+=+=+=+=+=+=+=+=+=+=+=+=+=+=+=+=+=+=+=+=+=+=+=+=+=+=+=+=+=+="};
