/* XPM */
static char * minimizeA_xpm[] = {
"32 70 461 2",
"  	c None",
". 	c #9E9B85",
"+ 	c #D1CEBF",
"@ 	c #F6F3E9",
"# 	c #FAF8F3",
"$ 	c #F8F6EF",
"% 	c #F8F7F0",
"& 	c #F9F8F0",
"* 	c #F9F8F1",
"= 	c #F8F7EF",
"- 	c #F5F3EA",
"; 	c #F5F4EB",
"> 	c #F3F1E7",
", 	c #ECE7DE",
"' 	c #E4DDD4",
") 	c #DED6CE",
"! 	c #DAD4CB",
"~ 	c #D7D3CA",
"{ 	c #D7D2CA",
"] 	c #D8D3CA",
"^ 	c #DBD5CC",
"/ 	c #E0D9D0",
"( 	c #E8E1D8",
"_ 	c #F0ECE2",
": 	c #F5F4EA",
"< 	c #F5F2EA",
"[ 	c #F4F1E9",
"} 	c #EBE4DC",
"| 	c #D2BFB9",
"1 	c #B69791",
"2 	c #9C746E",
"3 	c #8C645D",
"4 	c #846058",
"5 	c #816158",
"6 	c #826158",
"7 	c #866159",
"8 	c #926963",
"9 	c #A7817C",
"0 	c #C3A9A3",
"a 	c #DED2CA",
"b 	c #F2EDE5",
"c 	c #F5F2E9",
"d 	c #EAE2DA",
"e 	c #D0BFB8",
"f 	c #A68580",
"g 	c #935A52",
"h 	c #965138",
"i 	c #A3633B",
"j 	c #AF7548",
"k 	c #B57F50",
"l 	c #B68253",
"m 	c #B78253",
"n 	c #B68152",
"o 	c #B37C4E",
"p 	c #AA6D41",
"q 	c #9D5937",
"r 	c #935141",
"s 	c #986964",
"t 	c #B9A19B",
"u 	c #F0EBE3",
"v 	c #F5F3EB",
"w 	c #F4F1E8",
"x 	c #DBCDC5",
"y 	c #B2908A",
"z 	c #8C5047",
"A 	c #9A5734",
"B 	c #B57649",
"C 	c #C78A57",
"D 	c #D39963",
"E 	c #D9A16A",
"F 	c #DAA36B",
"G 	c #DAA36C",
"H 	c #DAA26B",
"I 	c #D79F67",
"J 	c #CE935E",
"K 	c #BF8251",
"L 	c #AB6B42",
"M 	c #8D472F",
"N 	c #9A6C66",
"O 	c #C4ACA5",
"P 	c #EAE3DB",
"Q 	c #F6F4EB",
"R 	c #F2EFE7",
"S 	c #CBB9B3",
"T 	c #9A625C",
"U 	c #9A5239",
"V 	c #BC7D4D",
"W 	c #D2975F",
"X 	c #D59B61",
"Y 	c #D79D63",
"Z 	c #D89D63",
"` 	c #D89E64",
" .	c #D69C62",
"..	c #D59A61",
"+.	c #CC905B",
"@.	c #AA663E",
"#.	c #944E40",
"$.	c #AB8681",
"%.	c #E3DBD3",
"&.	c #F1EFE5",
"*.	c #C1B0A9",
"=.	c #8D4A3A",
"-.	c #AC6539",
";.	c #C8874F",
">.	c #D5985B",
",.	c #D6985B",
"'.	c #D6995B",
").	c #D29458",
"!.	c #BC7844",
"~.	c #9B502A",
"{.	c #99706A",
"].	c #DFD8CF",
"^.	c #F3F1E8",
"/.	c #F1EEE5",
"(.	c #BBACA5",
"_.	c #894428",
":.	c #BA743C",
"<.	c #CD8A4A",
"[.	c #D29150",
"}.	c #D18F4E",
"|.	c #C78245",
"1.	c #A45B23",
"2.	c #8F6860",
"3.	c #DDD6CD",
"4.	c #F5F3E9",
"5.	c #F1EDE4",
"6.	c #B9AAA4",
"7.	c #8A4724",
"8.	c #C27C3B",
"9.	c #CF8843",
"0.	c #CF8943",
"a.	c #CE8943",
"b.	c #CD8641",
"c.	c #AA6222",
"d.	c #8D665E",
"e.	c #DCD5CD",
"f.	c #F4F2E8",
"g.	c #F3F0E6",
"h.	c #EEEBE0",
"i.	c #B8A9A1",
"j.	c #8C461F",
"k.	c #C27933",
"l.	c #CD8339",
"m.	c #CC8338",
"n.	c #CC8238",
"o.	c #AB6018",
"p.	c #8E655C",
"q.	c #DAD3C9",
"r.	c #F2EFE5",
"s.	c #F0EDE3",
"t.	c #EBE7DC",
"u.	c #B8A69E",
"v.	c #8E451B",
"w.	c #C0742A",
"x.	c #CB7E2F",
"y.	c #CA7D2F",
"z.	c #AB5D0A",
"A.	c #91645A",
"B.	c #D8CFC5",
"C.	c #EDE9DE",
"D.	c #E8E4D8",
"E.	c #B8A49B",
"F.	c #914418",
"G.	c #BF7022",
"H.	c #C97927",
"I.	c #C87827",
"J.	c #AB5A00",
"K.	c #936458",
"L.	c #D6CCC2",
"M.	c #EBE8DC",
"N.	c #EAE6DA",
"O.	c #E6E2D6",
"P.	c #B8A49A",
"Q.	c #944315",
"R.	c #BE6C1B",
"S.	c #C77420",
"T.	c #C6731F",
"U.	c #C7741F",
"V.	c #AB5600",
"W.	c #966457",
"X.	c #D4CBC0",
"Y.	c #E9E6DA",
"Z.	c #E4E0D4",
"`.	c #B9A399",
" +	c #974313",
".+	c #BD6713",
"++	c #C56F18",
"@+	c #AC5300",
"#+	c #996456",
"$+	c #D4CABF",
"%+	c #E8E5D9",
"&+	c #E6E3D7",
"*+	c #E3DED2",
"=+	c #BAA297",
"-+	c #994411",
";+	c #BC640B",
">+	c #C46B11",
",+	c #C36A11",
"'+	c #AC5100",
")+	c #9C6555",
"!+	c #D3C8BC",
"~+	c #E0DBCF",
"{+	c #BAA194",
"]+	c #9D450F",
"^+	c #BB6106",
"/+	c #C2670C",
"(+	c #C1670B",
"_+	c #AD5000",
":+	c #A06654",
"<+	c #D1C6B9",
"[+	c #E3DFD3",
"}+	c #E1DDD1",
"|+	c #DCD8CB",
"1+	c #BA9F92",
"2+	c #A0470E",
"3+	c #BA5E02",
"4+	c #C16407",
"5+	c #C06406",
"6+	c #C06407",
"7+	c #BF6200",
"8+	c #BF5F00",
"9+	c #BE5D00",
"0+	c #BE5E00",
"a+	c #BF6000",
"b+	c #C06303",
"c+	c #AE4F00",
"d+	c #A36652",
"e+	c #CFC3B6",
"f+	c #DFDCCF",
"g+	c #DEDACD",
"h+	c #D9D5C8",
"i+	c #BB9D90",
"j+	c #A3490D",
"k+	c #BA5D00",
"l+	c #C06304",
"m+	c #BF6204",
"n+	c #BF6100",
"o+	c #C47341",
"p+	c #CD8E6D",
"q+	c #D19B83",
"r+	c #D29F8B",
"s+	c #D29F8A",
"t+	c #D29E89",
"u+	c #CF967B",
"v+	c #C9845D",
"w+	c #C06722",
"x+	c #AF4F00",
"y+	c #A66751",
"z+	c #CDC0B4",
"A+	c #DCD8CC",
"B+	c #DBD7CB",
"C+	c #D8D3C7",
"D+	c #BC9E8F",
"E+	c #A74D0D",
"F+	c #BB5E00",
"G+	c #CF9475",
"H+	c #EAD1C0",
"I+	c #F5EBE5",
"J+	c #F8F3F1",
"K+	c #F8F2F1",
"L+	c #F8F1EF",
"M+	c #F1E1D7",
"N+	c #DFBAA5",
"O+	c #C37241",
"P+	c #B15100",
"Q+	c #AA6950",
"R+	c #CDBFB3",
"S+	c #DAD7CB",
"T+	c #D9D5C9",
"U+	c #D8D2C7",
"V+	c #BF9E8F",
"W+	c #AB500D",
"X+	c #C06305",
"Y+	c #BD5A00",
"Z+	c #D1987E",
"`+	c #F0DBCF",
" @	c #FDF9F6",
".@	c #FFFFFF",
"+@	c #F9EFE8",
"@@	c #E4C2B2",
"#@	c #C37247",
"$@	c #BD5C00",
"%@	c #BF6205",
"&@	c #B35300",
"*@	c #AE6B50",
"=@	c #CEBFB2",
"-@	c #DAD6CB",
";@	c #D9D4C9",
">@	c #D8D2C6",
",@	c #C2A08F",
"'@	c #B05711",
")@	c #BD6003",
"!@	c #C26507",
"~@	c #C26607",
"{@	c #BF5D00",
"]@	c #CB8669",
"^@	c #E0BAAD",
"/@	c #E8D2CE",
"(@	c #EBDBDA",
"_@	c #EADAD9",
":@	c #EBDAD9",
"<@	c #EAD9D7",
"[@	c #E5C9C2",
"}@	c #D7A694",
"|@	c #C36B3A",
"1@	c #C06000",
"2@	c #B75700",
"3@	c #B37151",
"4@	c #CFBFB2",
"5@	c #D9D5CA",
"6@	c #D8D3C8",
"7@	c #D6D0C5",
"8@	c #C5A48F",
"9@	c #B76522",
"0@	c #BF640B",
"a@	c #C5680B",
"b@	c #C86B0D",
"c@	c #C86A0C",
"d@	c #C66603",
"e@	c #C46325",
"f@	c #C26342",
"g@	c #BE6350",
"h@	c #BC6355",
"i@	c #BC6255",
"j@	c #BD6354",
"k@	c #C0634B",
"l@	c #C36338",
"m@	c #C56312",
"n@	c #C76806",
"o@	c #C76A0D",
"p@	c #C3660A",
"q@	c #BB6000",
"r@	c #BA7C56",
"s@	c #D0C0B1",
"t@	c #D8D4C9",
"u@	c #D7D2C7",
"v@	c #D5CFC3",
"w@	c #CBAD94",
"x@	c #C07B41",
"y@	c #C0681A",
"z@	c #C86B0C",
"A@	c #CE7113",
"B@	c #CD6E0F",
"C@	c #CB6700",
"D@	c #C75D00",
"E@	c #C45500",
"F@	c #C25000",
"G@	c #C24F00",
"H@	c #C25200",
"I@	c #C55800",
"J@	c #C96200",
"K@	c #CC6B09",
"L@	c #CE7012",
"M@	c #CC6F12",
"N@	c #C4670A",
"O@	c #BF6D25",
"P@	c #C38F65",
"Q@	c #D1C2B2",
"R@	c #D6D2C7",
"S@	c #D6D1C5",
"T@	c #D1B9A1",
"U@	c #C99669",
"V@	c #C2722F",
"W@	c #C76A05",
"X@	c #CE7011",
"Y@	c #D17415",
"Z@	c #D37517",
"`@	c #D47516",
" #	c #D37313",
".#	c #D27111",
"+#	c #D26F10",
"@#	c #D27010",
"##	c #D37211",
"$#	c #D37414",
"%#	c #D27516",
"&#	c #D07214",
"*#	c #CB6E0F",
"=#	c #C36A0D",
"-#	c #C4814A",
";#	c #CDA682",
">#	c #D3C7B6",
",#	c #D5D0C4",
"'#	c #D6D0C3",
")#	c #D6C7B3",
"!#	c #D1B091",
"~#	c #C68A58",
"{#	c #C5742E",
"]#	c #C9701D",
"^#	c #CF7318",
"/#	c #D47719",
"(#	c #D6791B",
"_#	c #D7791B",
":#	c #D5791B",
"<#	c #D27518",
"[#	c #CD7219",
"}#	c #C77125",
"|#	c #C47B3C",
"1#	c #CB9B74",
"2#	c #D5BCA3",
"3#	c #D6CCBD",
"4#	c #D6D1C4",
"5#	c #D5D0C3",
"6#	c #D6CFC2",
"7#	c #D6C7B5",
"8#	c #D2B193",
"9#	c #CE996B",
"0#	c #CA8341",
"a#	c #C77321",
"b#	c #C76C0B",
"c#	c #C76906",
"d#	c #C76A07",
"e#	c #C76A08",
"f#	c #C76E11",
"g#	c #C87A2F",
"h#	c #CC8C53",
"i#	c #D0A57E",
"j#	c #D4BCA4",
"k#	c #D7CCBD",
"l#	c #D4CFC3",
"m#	c #D5D1C5",
"n#	c #D7D0C3",
"o#	c #D8C9B6",
"p#	c #D6BEA5",
"q#	c #D4B398",
"r#	c #D1AC94",
"s#	c #D0A893",
"t#	c #CFA794",
"u#	c #CFA894",
"v#	c #D0A993",
"w#	c #D2AF95",
"x#	c #D5B89D",
"y#	c #D7C3AD",
"z#	c #D7CDBC",
"A#	c #D6D1C6",
"B#	c #D4D0C4",
"C#	c #D2CEC2",
"D#	c #D2CFC2",
"E#	c #D3CFC3",
"F#	c #DBD7CC",
"G#	c #DED9D0",
"H#	c #DFDBD2",
"I#	c #E0DBD3",
"J#	c #E0DBD2",
"K#	c #DFDAD1",
"L#	c #DDD8CE",
"M#	c #DAD5CB",
"N#	c #D3CFC2",
"O#	c #CFCCC0",
"P#	c #CFCCC1",
"Q#	c #D0CDC2",
"R#	c #D1CEC3",
"S#	c #D2CFC5",
"T#	c #D3D0C6",
"U#	c #D3D1C7",
"V#	c #D4D1C7",
"W#	c #D2D0C6",
"X#	c #D2CFC4",
"Y#	c #D0CDC3",
"Z#	c #D0CCC1",
"`#	c #C5C2B3",
" $	c #BCB9A5",
". . . . . . . . . . . . . . . . . . . . . . . . . . . . . . . . ",
"+ + + + + + + + + + + + + + + + + + + + + + + + + + + + + + + + ",
"@ @ @ @ @ @ @ @ @ @ @ @ @ @ @ @ @ @ @ @ @ @ @ @ @ @ @ @ @ @ @ @ ",
"# # # # # # # # # # # # # # # # # # # # # # # # # # # # # # # # ",
"$ $ $ % & * * * * * * * * * * * * * * * * * * * * * % = $ $ $ $ ",
"- ; > , ' ) ! ~ { { { { { { { { { { { { { { ~ ] ^ / ( _ - : - - ",
"< [ } | 1 2 3 4 5 6 6 6 6 6 6 6 6 6 6 6 6 6 6 7 8 9 0 a b < < < ",
"c d e f g h i j k l m m m m m m m m m m m n o p q r s t a u v - ",
"w x y z A B C D E F G G G G G G G G G G G H I J K L M N O P Q < ",
"R S T U V W X Y Z ` ` ` ` ` ` ` ` ` ` ` ` ` Y  ...+.@.#.$.%.v [ ",
"&.*.=.-.;.>.,.>.>.>.>.>.>.>.>.>.>.>.>.>.>.>.>.>.'.).!.~.{.].- ^.",
"/.(._.:.<.[.[.[.[.[.[.[.[.[.[.[.[.[.[.[.[.[.[.[.[.}.|.1.2.3.4.> ",
"5.6.7.8.9.0.0.0.0.0.0.0.0.0.0.0.0.0.0.0.0.0.0.0.0.a.b.c.d.e.f.g.",
"h.i.j.k.l.m.m.m.m.m.m.m.m.m.m.m.m.m.m.m.m.m.m.m.m.n.n.o.p.q.r.s.",
"t.u.v.w.x.y.y.y.y.y.y.y.y.y.y.y.y.y.y.y.y.y.y.y.y.y.y.z.A.B.h.C.",
"D.E.F.G.H.I.I.I.I.I.I.I.I.I.I.I.I.I.I.I.I.I.I.I.I.I.I.J.K.L.M.N.",
"O.P.Q.R.S.T.T.T.T.T.T.T.T.T.T.T.T.T.T.T.T.T.T.T.T.T.U.V.W.X.Y.D.",
"Z.`. +.+++++++++++++++++++++++++++++++++++++++++++++++@+#+$+%+&+",
"*+=+-+;+>+,+,+,+,+,+,+,+,+,+,+,+,+,+,+,+,+,+,+,+,+,+,+'+)+!+O.Z.",
"~+{+]+^+/+(+(+(+(+(+(+(+(+(+(+(+(+(+(+(+(+(+(+(+(+(+(+_+:+<+[+}+",
"|+1+2+3+4+5+5+6+7+8+9+9+9+9+9+9+9+9+9+9+0+a+b+6+5+5+5+c+d+e+f+g+",
"h+i+j+k+l+m+m+n+o+p+q+r+s+s+s+s+s+s+s+t+u+v+w+n+m+m+m+x+y+z+A+B+",
"C+D+E+F+l+m+m+9+G+H+I+J+K+K+K+K+K+K+J+L+M+N+O+0+m+m+m+P+Q+R+S+T+",
"U+V+W+F+X+X+m+Y+Z+`+ @.@.@.@.@.@.@.@.@.@+@@@#@$@X+m+%@&@*@=@-@;@",
">@,@'@)@!@~@!@{@]@^@/@(@_@_@_@_@_@_@:@<@[@}@|@1@~@!@4+2@3@4@5@6@",
"7@8@9@0@a@b@c@d@e@f@g@h@i@i@i@i@i@i@i@j@k@l@m@n@b@o@p@q@r@s@t@u@",
"v@w@x@y@z@A@A@B@C@D@E@F@G@G@G@G@G@G@G@H@I@J@K@L@A@M@N@O@P@Q@R@S@",
"v@T@U@V@W@X@Y@Z@`@ #.#+#+#+#+#+#+#+#+#@###$#`@%#&#*#=#-#;#>#S@,#",
"'#)#!#~#{#]#^#/#(#_#(#(#(#(#(#(#(#(#(#(#_#(#:#<#[#}#|#1#2#3#S@4#",
"5#6#7#8#9#0#a#b#c#d#d#d#d#d#d#d#d#d#d#d#d#d#e#f#g#h#i#j#k#v@5#5#",
"l#m#n#o#p#q#r#s#t#t#t#t#t#t#t#t#t#t#t#t#t#t#u#v#w#x#y#z#A#B#l#l#",
"C#D#E#S@;@F#G#H#I#I#I#I#I#I#I#I#I#I#I#I#I#I#J#K#L#M#u@B#N#C#C#C#",
"O#O#P#Q#R#S#T#U#V#U#U#U#U#U#U#U#U#U#U#U#U#V#U#U#W#X#Y#Z#O#O#O#O#",
"`#`#`#`#`#`#`#`#`#`#`#`#`#`#`#`#`#`#`#`#`#`#`#`#`#`#`#`#`#`#`#`#",
" $ $ $ $ $ $ $ $ $ $ $ $ $ $ $ $ $ $ $ $ $ $ $ $ $ $ $ $ $ $ $ $",
"                                                                ",
"                                                                ",
"                                                                ",
"                                                                ",
"                                                                ",
"                                                                ",
"                                                                ",
"                                                                ",
"                                                                ",
"                                                                ",
"                                                                ",
"                                                                ",
"                                                                ",
"                                                                ",
"                                                                ",
"                                                                ",
"                                                                ",
"                                                                ",
"                                                                ",
"                                                                ",
"                                                                ",
"                                                                ",
"                                                                ",
"                                                                ",
"                                                                ",
"                                                                ",
"                                                                ",
"                                                                ",
"                                                                ",
"                                                                ",
"                                                                ",
"                                                                ",
"                                                                ",
"                                                                ",
"                                                                "};
