/* XPM */
static char * minimizeI_xpm[] = {
"32 70 341 2",
"  	c None",
". 	c #9E9B85",
"+ 	c #D1CEBF",
"@ 	c #F6F3E9",
"# 	c #FAF8F3",
"$ 	c #F8F6EF",
"% 	c #F8F7EF",
"& 	c #F8F7F0",
"* 	c #F9F7F0",
"= 	c #F9F8F0",
"- 	c #F5F3EA",
"; 	c #F5F4EA",
"> 	c #F4F2E9",
", 	c #EFEEE5",
"' 	c #E9E8E0",
") 	c #E3E3DC",
"! 	c #DFDFD8",
"~ 	c #DDDDD7",
"{ 	c #DCDCD6",
"] 	c #DDDDD6",
"^ 	c #DEDED7",
"/ 	c #E1E1DA",
"( 	c #E6E5DE",
"_ 	c #ECEBE3",
": 	c #F1F0E7",
"< 	c #F5F2EA",
"[ 	c #EEECE4",
"} 	c #DCDBD7",
"| 	c #C8C8C8",
"1 	c #B6B8BA",
"2 	c #ACAEB1",
"3 	c #A4A7AB",
"4 	c #A1A4A9",
"5 	c #A2A5A9",
"6 	c #A2A4A9",
"7 	c #A7AAAE",
"8 	c #B0B2B5",
"9 	c #BDBFC0",
"0 	c #D1D1CF",
"a 	c #E5E3DE",
"b 	c #F3F0E8",
"c 	c #EDEBE4",
"d 	c #DADAD6",
"e 	c #BCBDBE",
"f 	c #AEB0B6",
"g 	c #BABCBF",
"h 	c #D3D3D0",
"i 	c #D6D6D1",
"j 	c #D5D4D0",
"k 	c #D7D6D2",
"l 	c #CACAC9",
"m 	c #B1B3B9",
"n 	c #B1B4B7",
"o 	c #C9CAC8",
"p 	c #F2EFE7",
"q 	c #E2E0DB",
"r 	c #C4C5C4",
"s 	c #A8ACB1",
"t 	c #B7B9BD",
"u 	c #D7D6D4",
"v 	c #F6F4EB",
"w 	c #F6F3EA",
"x 	c #E8E6E0",
"y 	c #C8C9CA",
"z 	c #ABAEB3",
"A 	c #B2B4B7",
"B 	c #D2D2CF",
"C 	c #B5B7BB",
"D 	c #D9D8D5",
"E 	c #F1EEE7",
"F 	c #F4F1E9",
"G 	c #EBE8E2",
"H 	c #C6C7C7",
"I 	c #AFB2B6",
"J 	c #BEBEBF",
"K 	c #E7E5DE",
"L 	c #F2F0E6",
"M 	c #CAC9C7",
"N 	c #AFB1B3",
"O 	c #D9D9D4",
"P 	c #EDEBE3",
"Q 	c #F4F2E8",
"R 	c #F3F1E8",
"S 	c #F2F0E7",
"T 	c #C6C6C5",
"U 	c #AFB0B3",
"V 	c #E2E1DA",
"W 	c #F5F2E9",
"X 	c #F1EFE6",
"Y 	c #C3C3C1",
"Z 	c #ACAEAF",
"` 	c #E9E7DF",
" .	c #F3F1E7",
"..	c #D0CFCB",
"+.	c #A4A6AA",
"@.	c #DFDED7",
"#.	c #F5F2E8",
"$.	c #F1EEE5",
"%.	c #BFBFBD",
"&.	c #A6A8AA",
"*.	c #E7E5DD",
"=.	c #F4F1E8",
"-.	c #F3F0E6",
";.	c #F3F0E7",
">.	c #CCCCC8",
",.	c #9EA1A5",
"'.	c #DEDCD6",
").	c #EEEBE1",
"!.	c #BDBDBA",
"~.	c #A4A6A8",
"{.	c #E4E2D9",
"].	c #F2EEE4",
"^.	c #F0EDE3",
"/.	c #CAC9C4",
"(.	c #9C9EA2",
"_.	c #DCDAD2",
":.	c #F2EFE4",
"<.	c #EBE8DC",
"[.	c #BABAB7",
"}.	c #A2A3A5",
"|.	c #E1DFD5",
"1.	c #EEEBDF",
"2.	c #EDE9DE",
"3.	c #EDEADE",
"4.	c #C7C6C1",
"5.	c #9A9CA0",
"6.	c #D9D6CE",
"7.	c #E8E4D9",
"8.	c #B8B7B4",
"9.	c #9FA1A2",
"0.	c #DEDBD1",
"a.	c #EBE7DB",
"b.	c #EAE6DA",
"c.	c #C5C3BD",
"d.	c #989A9D",
"e.	c #D6D3CA",
"f.	c #E6E3D7",
"g.	c #B6B5B2",
"h.	c #9D9FA0",
"i.	c #DCDACF",
"j.	c #E9E6D9",
"k.	c #E8E4D8",
"l.	c #E8E5D9",
"m.	c #C2C1BC",
"n.	c #95979B",
"o.	c #D4D1C9",
"p.	c #E9E6DA",
"q.	c #E4E1D5",
"r.	c #B4B3B0",
"s.	c #9B9D9E",
"t.	c #DBD8CE",
"u.	c #E7E4D8",
"v.	c #C1C0BA",
"w.	c #939598",
"x.	c #D2D0C7",
"y.	c #E3DFD3",
"z.	c #B2B1AE",
"A.	c #999B9C",
"B.	c #D9D6CB",
"C.	c #E6E2D5",
"D.	c #E4E0D4",
"E.	c #E5E1D4",
"F.	c #BFBDB7",
"G.	c #919396",
"H.	c #D0CDC4",
"I.	c #E0DCCF",
"J.	c #B0AFAB",
"K.	c #979899",
"L.	c #D6D3C8",
"M.	c #E3DFD2",
"N.	c #E1DDD1",
"O.	c #E2DED1",
"P.	c #BDBBB4",
"Q.	c #8F9194",
"R.	c #CECBC1",
"S.	c #DCD8CC",
"T.	c #ADACA8",
"U.	c #949597",
"V.	c #D3CFC5",
"W.	c #DFDBCE",
"X.	c #DEDACD",
"Y.	c #DEDACE",
"Z.	c #B9B8B1",
"`.	c #8C8E91",
" +	c #CAC7BE",
".+	c #D9D5C9",
"++	c #AAA9A5",
"@+	c #929394",
"#+	c #D0CCC2",
"$+	c #DBD7CB",
"%+	c #D4D0C5",
"&+	c #C8C5BC",
"*+	c #C5C3B9",
"=+	c #C5C2B9",
"-+	c #C6C3BA",
";+	c #CDCAC0",
">+	c #B6B5AF",
",+	c #8A8C8F",
"'+	c #C7C4BB",
")+	c #D8D4C8",
"!+	c #A8A7A4",
"~+	c #909192",
"{+	c #DBD7CA",
"]+	c #DAD6CA",
"^+	c #C2BFB7",
"/+	c #8D8D8E",
"(+	c #7C7E80",
"_+	c #7A7B7D",
":+	c #7A7C7D",
"<+	c #7B7C7E",
"[+	c #7F8183",
"}+	c #A4A3A0",
"|+	c #D3CFC4",
"1+	c #B5B3AD",
"2+	c #888A8D",
"3+	c #D7D3C8",
"4+	c #A7A6A3",
"5+	c #8F9091",
"6+	c #CECAC0",
"7+	c #D9D4C9",
"8+	c #DAD5CA",
"9+	c #BDBAB3",
"0+	c #77797F",
"a+	c #5D626B",
"b+	c #5A5F66",
"c+	c #5A5F67",
"d+	c #5B6068",
"e+	c #626670",
"f+	c #979696",
"g+	c #D1CDC3",
"h+	c #B4B2AD",
"i+	c #87888B",
"j+	c #C5C2BA",
"k+	c #DBD6CA",
"l+	c #D7D2C7",
"m+	c #A8A6A3",
"n+	c #909091",
"o+	c #D8D3C8",
"p+	c #C6C2BA",
"q+	c #9F9E9C",
"r+	c #949492",
"s+	c #939290",
"t+	c #939390",
"u+	c #969594",
"v+	c #AFADA8",
"w+	c #B5B2AD",
"x+	c #88898C",
"y+	c #C5C1B9",
"z+	c #D5D1C6",
"A+	c #AAA8A4",
"B+	c #929293",
"C+	c #C9C5BC",
"D+	c #D6D1C7",
"E+	c #D5D0C5",
"F+	c #D1CCC2",
"G+	c #D0CBC1",
"H+	c #D2CDC3",
"I+	c #D6D1C6",
"J+	c #D4CFC5",
"K+	c #B2B0AB",
"L+	c #8C8D8F",
"M+	c #D4CFC4",
"N+	c #B1AFA9",
"O+	c #8F9092",
"P+	c #A4A4A4",
"Q+	c #D6D1C5",
"R+	c #D7D2C6",
"S+	c #D7D1C6",
"T+	c #B6B4B0",
"U+	c #97989A",
"V+	c #969696",
"W+	c #C7C3B9",
"X+	c #D4CFC3",
"Y+	c #BCB9B1",
"Z+	c #989998",
"`+	c #86898F",
" @	c #A6A5A4",
".@	c #D7D2C5",
"+@	c #CFCAC0",
"@@	c #BAB7B2",
"#@	c #929497",
"$@	c #898C90",
"%@	c #A7A6A2",
"&@	c #CBC6BC",
"*@	c #D5D0C4",
"=@	c #D5D0C3",
"-@	c #C8C4BA",
";@	c #AEADA7",
">@	c #8B8C8E",
",@	c #85888E",
"'@	c #A3A2A3",
")@	c #CECABE",
"!@	c #CDC9BD",
"~@	c #BBB8B1",
"{@	c #919397",
"]@	c #83858A",
"^@	c #9A9A98",
"/@	c #BCB9B0",
"(@	c #D0CBBF",
"_@	c #D6D1C4",
":@	c #D1CDC1",
"<@	c #C5C2B8",
"[@	c #ACABA5",
"}@	c #959697",
"|@	c #8C8D90",
"1@	c #939392",
"2@	c #90908F",
"3@	c #8D8D8D",
"4@	c #8E8E8D",
"5@	c #929290",
"6@	c #8D8F92",
"7@	c #9F9F9D",
"8@	c #B8B6AE",
"9@	c #CDC8BD",
"0@	c #D3CEC2",
"a@	c #D4D0C3",
"b@	c #D1CCC0",
"c@	c #B8B5AE",
"d@	c #ABA9A4",
"e@	c #A1A09C",
"f@	c #9C9C98",
"g@	c #9B9A97",
"h@	c #9B9B97",
"i@	c #9E9D99",
"j@	c #A5A49F",
"k@	c #B0AEA8",
"l@	c #BEBBB3",
"m@	c #CBC7BC",
"n@	c #D3CFC2",
"o@	c #D2CEC2",
"p@	c #D1CEC1",
"q@	c #D1CDC0",
"r@	c #D0CCC0",
"s@	c #CFCCC0",
"t@	c #CFCCBF",
"u@	c #CFCBBF",
"v@	c #D2CEC1",
"w@	c #CFCCC1",
"x@	c #D0CCC1",
"y@	c #C5C2B3",
"z@	c #BCB9A5",
". . . . . . . . . . . . . . . . . . . . . . . . . . . . . . . . ",
"+ + + + + + + + + + + + + + + + + + + + + + + + + + + + + + + + ",
"@ @ @ @ @ @ @ @ @ @ @ @ @ @ @ @ @ @ @ @ @ @ @ @ @ @ @ @ @ @ @ @ ",
"# # # # # # # # # # # # # # # # # # # # # # # # # # # # # # # # ",
"$ $ $ % & * * = = = = = = = = = = = = = = = = = * * % % $ $ $ $ ",
"- ; > , ' ) ! ~ { { { { { { { { { { { { { { ] ^ / ( _ : - ; - - ",
"< < [ } | 1 2 3 4 5 5 5 5 5 5 5 5 5 5 5 5 6 5 7 8 9 0 a b < < < ",
"< c d e f g h i j j j j j j j j j j j j j j j k l m n o a p - - ",
"> q r s t u p v w w w w w w w w w w w w w w w v x y z A B _ - < ",
"b j A C D E F F F F F F F F F F F F F F F F F F b G H I J K < F ",
"L M N O P Q R R R R R R R R R R R R R R R R R R Q S ( T U V W R ",
"X Y Z ` W  . . . . . . . . . . . . . . . . . . . . .Q ..+.@.#. .",
"$.%.&.*.=.-.-.-.-.-.-.-.-.-.-.-.-.-.-.-.-.-.-.-.-.-.;.>.,.'.=.-.",
").!.~.{.].^.^.^.^.^.^.^.^.^.^.^.^.^.^.^.^.^.^.^.^.^.^./.(._.:.^.",
"<.[.}.|.1.2.2.2.2.2.2.2.2.2.2.2.2.2.2.2.2.2.2.2.2.2.3.4.5.6.1.2.",
"7.8.9.0.a.b.b.b.b.b.b.b.b.b.b.b.b.b.b.b.b.b.b.b.b.b.b.c.d.e.a.b.",
"f.g.h.i.j.k.k.k.k.k.k.k.k.k.k.k.k.k.k.k.k.k.k.k.k.k.l.m.n.o.p.k.",
"q.r.s.t.u.f.f.f.f.f.f.f.f.f.f.f.f.f.f.f.f.f.f.f.f.f.f.v.w.x.k.f.",
"y.z.A.B.C.D.D.D.D.D.D.D.D.D.D.D.D.D.D.D.D.D.D.D.D.D.E.F.G.H.C.D.",
"I.J.K.L.M.N.N.N.N.N.N.N.N.N.N.N.N.N.N.N.N.N.N.N.N.N.O.P.Q.R.M.N.",
"S.T.U.V.W.X.X.X.Y.W.W.W.W.W.W.W.W.W.W.W.W.W.X.X.X.X.X.Z.`. +W.X.",
".+++@+#+S.$+$+$+%+&+*+=+=+=+=+=+=+=+=+=+-+;+.+$+$+$+$+>+,+'+S.$+",
")+!+~+R.{+.+.+]+^+/+(+_+:+:+:+:+:+:+:+<+[+}+|+]+.+.+]+1+2+-+{+.+",
"3+4+5+6+]+7+7+8+9+0+a+b+c+c+c+c+c+c+b+d+e+f+g+]+7+7+.+h+i+j+k+7+",
"l+m+n+6+8+o+o+7+p+q+r+s+s+s+s+s+s+s+s+t+u+v+|+7+o+7+7+w+x+y+8+o+",
"z+A+B+C+D+l+l+l+E+F+G+G+G+G+G+G+G+G+G+G+G+H+I+l+l+l+J+K+L+y+o+l+",
"M+N+O+P+j+Q+Q+Q+Q+R+R+R+R+R+R+R+R+R+R+R+R+I+Q+Q+S+H+T+U+V+W+R+Q+",
"X+Y+Z+`+ @=+X+.@.@.@.@.@.@.@.@.@.@.@.@.@.@.@.@.@+@@@#@$@%@&@Q+*@",
"=@-@;@>@,@'@-@)@!@!@!@!@!@!@!@!@!@!@!@!@!@!@!@)@~@{@]@^@/@(@_@_@",
"X+:@<@[@}@|@1@2@3@3@3@3@3@3@3@3@3@3@3@3@3@3@4@5@n+6@7@8@9@0@=@=@",
"X+a@b@<@c@d@e@f@g@g@g@g@g@g@g@g@g@g@g@g@g@g@h@i@j@k@l@m@n@X+X+X+",
"o@o@o@p@q@r@s@t@u@u@u@u@u@u@u@u@u@u@u@u@u@u@u@t@r@r@:@v@o@o@o@o@",
"s@s@s@s@w@x@x@x@x@x@x@x@x@x@x@x@x@x@x@x@x@x@x@x@x@w@s@s@s@s@s@s@",
"y@y@y@y@y@y@y@y@y@y@y@y@y@y@y@y@y@y@y@y@y@y@y@y@y@y@y@y@y@y@y@y@",
"z@z@z@z@z@z@z@z@z@z@z@z@z@z@z@z@z@z@z@z@z@z@z@z@z@z@z@z@z@z@z@z@",
"                                                                ",
"                                                                ",
"                                                                ",
"                                                                ",
"                                                                ",
"                                                                ",
"                                                                ",
"                                                                ",
"                                                                ",
"                                                                ",
"                                                                ",
"                                                                ",
"                                                                ",
"                                                                ",
"                                                                ",
"                                                                ",
"                                                                ",
"                                                                ",
"                                                                ",
"                                                                ",
"                                                                ",
"                                                                ",
"                                                                ",
"                                                                ",
"                                                                ",
"                                                                ",
"                                                                ",
"                                                                ",
"                                                                ",
"                                                                ",
"                                                                ",
"                                                                ",
"                                                                ",
"                                                                ",
"                                                                "};
