/* XPM */
static char * restoreA_xpm[] = {
"22 48 124 2",
"  	c None",
". 	c #9B9882",
"+ 	c #F5F2E6",
"@ 	c #FBF9F5",
"# 	c #F5F4EA",
"$ 	c #F5F2EA",
"% 	c #B7B9AF",
"& 	c #62695D",
"* 	c #1D2A1C",
"= 	c #000F00",
"- 	c #F5F3EA",
"; 	c #313D2F",
"> 	c #48562A",
", 	c #7F8B50",
"' 	c #9FAB69",
") 	c #A4B06E",
"! 	c #F4F1E9",
"~ 	c #626D5E",
"{ 	c #445627",
"] 	c #9AA762",
"^ 	c #9EAB64",
"/ 	c #F3F1E7",
"( 	c #22331C",
"_ 	c #73823E",
": 	c #95A256",
"< 	c #F3F0E7",
"[ 	c #0B1F00",
"} 	c #869642",
"| 	c #8A9944",
"1 	c #87973F",
"2 	c #F2F4EB",
"3 	c #FFFFFF",
"4 	c #EFECE1",
"5 	c #122600",
"6 	c #809034",
"7 	c #768825",
"8 	c #EAE6DA",
"9 	c #1A2E00",
"0 	c #798A28",
"a 	c #6B7E12",
"b 	c #DBDFCC",
"c 	c #3B5400",
"d 	c #405800",
"e 	c #E7E4D8",
"f 	c #223600",
"g 	c #72841D",
"h 	c #657808",
"i 	c #DCE0CC",
"j 	c #576C00",
"k 	c #627603",
"l 	c #617501",
"m 	c #F0F2E6",
"n 	c #6F8118",
"o 	c #E5E1D5",
"p 	c #2A3E00",
"q 	c #5E7300",
"r 	c #4F6600",
"s 	c #607400",
"t 	c #E1DDD0",
"u 	c #324600",
"v 	c #66790A",
"w 	c #596E00",
"x 	c #CAD1B7",
"y 	c #DEE2CC",
"z 	c #4A6100",
"A 	c #354E00",
"B 	c #D6DBCC",
"C 	c #566B00",
"D 	c #DBD7CB",
"E 	c #3A4E00",
"F 	c #627604",
"G 	c #465D00",
"H 	c #405900",
"I 	c #445C00",
"J 	c #546A00",
"K 	c #D8DDCC",
"L 	c #536900",
"M 	c #D9D5C9",
"N 	c #425600",
"O 	c #5F7400",
"P 	c #556A00",
"Q 	c #506600",
"R 	c #DBE0CC",
"S 	c #DADECC",
"T 	c #D9D4C9",
"U 	c #4A5E00",
"V 	c #627605",
"W 	c #637705",
"X 	c #CCD2B7",
"Y 	c #DDE1CC",
"Z 	c #CAD0B7",
"` 	c #D7D2C7",
" .	c #63741A",
"..	c #647809",
"+.	c #6B7F0D",
"@.	c #627800",
"#.	c #506800",
"$.	c #4B6400",
"%.	c #D5D0C4",
"&.	c #8F9957",
"*.	c #627608",
"=.	c #738715",
"-.	c #748816",
";.	c #728612",
">.	c #6C8108",
",.	c #687E02",
"'.	c #D6D1C4",
").	c #BEC19D",
"!.	c #78872C",
"~.	c #687C0C",
"{.	c #7C901E",
"].	c #7D911F",
"^.	c #D4CFC3",
"/.	c #D8D3C9",
"(.	c #C1C4A1",
"_.	c #96A15A",
":.	c #71831E",
"<.	c #D3CFC2",
"[.	c #D7D3C8",
"}.	c #DDDAD0",
"|.	c #E2DFD7",
"1.	c #E4E2DA",
"2.	c #CECBC0",
"3.	c #BBB8A4",
". . . . . . . . . . . . . . . . . . . . . . ",
"+ + + + + + + + + + + + + + + + + + + + + + ",
"@ @ @ @ @ @ @ @ @ @ @ @ @ @ @ @ @ @ @ @ @ @ ",
"# # # # # # # # # # # # # # # # # # # # # # ",
"$ $ % & * = = = = = = = = = = = * & % $ $ $ ",
"- % ; > , ' ) ) ) ) ) ) ) ) ) ' , > ; % - - ",
"! ~ { ] ^ ^ ^ ^ ^ ^ ^ ^ ^ ^ ^ ^ ^ ] { ~ ! ! ",
"/ ( _ : : : : : : : : : : : : : : : _ ( / / ",
"< [ } | 1 2 3 3 3 3 3 3 2 1 | | | | } [ < < ",
"4 5 6 6 7 3 3 3 3 3 3 3 3 7 6 6 6 6 6 5 4 4 ",
"8 9 0 0 a b c d d d d c b a 0 0 0 0 0 9 8 8 ",
"e f g g h i j k k k k j i l 3 m n g g f e e ",
"o p a a q i q a a a a q i r 3 3 s a a p o o ",
"t u v v w x i y y y y i x z A B C v v u t t ",
"D E F F w G H I I I I H G J z K L F F E D D ",
"M N F F O w P Q R Q P P w O P S P F F N M M ",
"T U V W W W W w X i Y Y Y Y b Z C W V U T T ",
"`  ...+.+.+.+.@.#.$.r r r r $.#.@.+... .` ` ",
"%.&.*.=.-.-.-.;.>.,.,.,.,.,.,.>.;.=.*.&.%.%.",
"'.).!.~.-.{.].].].].].].].].].{.-.~.!.).'.'.",
"^./.(._.:.F F F F F F F F F F F :._.(./.^.^.",
"<.<.[.}.|.1.1.1.1.1.1.1.1.1.1.1.|.}.[.<.<.<.",
"2.2.2.2.2.2.2.2.2.2.2.2.2.2.2.2.2.2.2.2.2.2.",
"3.3.3.3.3.3.3.3.3.3.3.3.3.3.3.3.3.3.3.3.3.3.",
"                                            ",
"                                            ",
"                                            ",
"                                            ",
"                                            ",
"                                            ",
"                                            ",
"                                            ",
"                                            ",
"                                            ",
"                                            ",
"                                            ",
"                                            ",
"                                            ",
"                                            ",
"                                            ",
"                                            ",
"                                            ",
"                                            ",
"                                            ",
"                                            ",
"                                            ",
"                                            ",
"                                            "};
