/* XPM */
static char * restoreO_xpm[] = {
"22 48 228 2",
"  	c None",
". 	c #9B9882",
"+ 	c #F5F2E6",
"@ 	c #FBF9F5",
"# 	c #F5F4EA",
"$ 	c #F5F2EA",
"% 	c #B7BAAF",
"& 	c #626C5D",
"* 	c #1D2E1C",
"= 	c #001300",
"- 	c #F5F3EA",
"; 	c #31402F",
"> 	c #54612F",
", 	c #939C59",
"' 	c #B7BD74",
") 	c #BBC178",
"! 	c #F4F1E9",
"~ 	c #626D5E",
"{ 	c #51602B",
"] 	c #B3BA6D",
"^ 	c #B7BE6F",
"/ 	c #F3F1E7",
"( 	c #1E331C",
"_ 	c #899348",
": 	c #B0B762",
"< 	c #F3F0E7",
"[ 	c #041D00",
"} 	c #A3AB4F",
"| 	c #A8B052",
"1 	c #A6AE4E",
"2 	c #F5F6EC",
"3 	c #FFFFFF",
"4 	c #EFECE1",
"5 	c #092200",
"6 	c #A0A942",
"7 	c #99A234",
"8 	c #EAE6DA",
"9 	c #0C2500",
"0 	c #9BA438",
"a 	c #919B23",
"b 	c #E4E6CC",
"c 	c #6C7A00",
"d 	c #717D00",
"e 	c #E7E4D8",
"f 	c #112A00",
"g 	c #959F2D",
"h 	c #8B9619",
"i 	c #E5E7CC",
"j 	c #818D05",
"k 	c #899415",
"l 	c #889313",
"m 	c #F3F4E8",
"n 	c #929D28",
"o 	c #E5E1D5",
"p 	c #162F00",
"q 	c #889210",
"r 	c #7D8800",
"s 	c #899312",
"t 	c #E1DDD0",
"u 	c #1D3600",
"v 	c #8D971B",
"w 	c #838E08",
"x 	c #D8DBB7",
"y 	c #E6E8CE",
"z 	c #788400",
"A 	c #687600",
"B 	c #E0E3CC",
"C 	c #818C03",
"D 	c #DBD7CB",
"E 	c #223B00",
"F 	c #8A9516",
"G 	c #838F08",
"H 	c #758200",
"I 	c #717E00",
"J 	c #748100",
"K 	c #7F8B01",
"L 	c #788500",
"M 	c #E2E5CC",
"N 	c #7F8B00",
"O 	c #D9D5C9",
"P 	c #274000",
"Q 	c #889312",
"R 	c #808C02",
"S 	c #7D8900",
"T 	c #E4E7CC",
"U 	c #E3E6CC",
"V 	c #D9D4C9",
"W 	c #2A4300",
"X 	c #879316",
"Y 	c #8B9617",
"Z 	c #848F08",
"` 	c #D9DDB7",
" .	c #E6E8CD",
"..	c #D7DBB7",
"+.	c #818D03",
"@.	c #D7D2C7",
"#.	c #455A1A",
"$.	c #778616",
"%.	c #939E1F",
"&.	c #8D9812",
"*.	c #7F8C00",
"=.	c #7C8900",
"-.	c #7E8B00",
";.	c #D5D0C4",
">.	c #798757",
",.	c #5B6E0F",
"'.	c #99A527",
").	c #9CA728",
"!.	c #9AA625",
"~.	c #96A21C",
"{.	c #94A016",
"].	c #D6D1C4",
"^.	c #B5B89D",
"/.	c #5A6D2C",
"(.	c #607412",
"_.	c #869523",
":.	c #A1AC2F",
"<.	c #A5B031",
"[.	c #D4CFC3",
"}.	c #D8D3C9",
"|.	c #B7BBA0",
"1.	c #7F8C57",
"2.	c #4F651A",
"3.	c #3B5400",
"4.	c #D3CFC2",
"5.	c #D7D3C8",
"6.	c #DDDAD0",
"7.	c #E2DFD7",
"8.	c #E4E2DA",
"9.	c #CECBC0",
"0.	c #BBB8A4",
"a.	c #B7B5AF",
"b.	c #62605D",
"c.	c #1D1D1C",
"d.	c #000000",
"e.	c #B7B6AF",
"f.	c #31302F",
"g.	c #333A1B",
"h.	c #5C6A34",
"i.	c #768645",
"j.	c #7B8B48",
"k.	c #62615E",
"l.	c #313818",
"m.	c #738440",
"n.	c #768741",
"o.	c #1E1D1C",
"p.	c #536128",
"q.	c #6F8137",
"r.	c #63752A",
"s.	c #677A2C",
"t.	c #637727",
"u.	c #EEF0E8",
"v.	c #000100",
"w.	c #5E7220",
"x.	c #52670F",
"y.	c #000600",
"z.	c #596E18",
"A.	c #485F00",
"B.	c #D2D8CC",
"C.	c #0C2A00",
"D.	c #133000",
"E.	c #000B00",
"F.	c #536911",
"G.	c #435B00",
"H.	c #D4DACC",
"I.	c #324C00",
"J.	c #3F5800",
"K.	c #3E5600",
"L.	c #ECEFE5",
"M.	c #4F650B",
"N.	c #001100",
"O.	c #4E640A",
"P.	c #3F5700",
"Q.	c #D5DACC",
"R.	c #2D4700",
"S.	c #415800",
"T.	c #001800",
"U.	c #4A6004",
"V.	c #3B5200",
"W.	c #C1C9B7",
"X.	c #D8DCCC",
"Y.	c #294300",
"Z.	c #102D00",
"`.	c #CED4CC",
" +	c #374F00",
".+	c #011E00",
"++	c #475E00",
"@+	c #3C5500",
"#+	c #264100",
"$+	c #203B00",
"%+	c #243F00",
"&+	c #365000",
"*+	c #2B4500",
"=+	c #D1D7CC",
"-+	c #364F00",
";+	c #072400",
">+	c #445B00",
",+	c #375000",
"'+	c #D3D9CC",
")+	c #0B2800",
"!+	c #455C00",
"~+	c #C3CAB7",
"{+	c #D5DBCC",
"]+	c #D7DCCC",
"^+	c #C0C8B7",
"/+	c #2A441A",
"(+	c #4B6300",
"_+	c #415A00",
":+	c #2A4700",
"<+	c #244200",
"[+	c #294500",
"}+	c #687757",
"|+	c #2C4700",
"1+	c #4F6700",
"2+	c #516900",
"3+	c #4E6700",
"4+	c #476000",
"5+	c #425C00",
"6+	c #AEB29D",
"7+	c #43582C",
"8+	c #314B00",
"9+	c #455E00",
"0+	c #546B00",
"a+	c #566D00",
"b+	c #B0B5A0",
"c+	c #6E7E57",
"d+	c #354F1A",
"e+	c #1E3B00",
". . . . . . . . . . . . . . . . . . . . . . ",
"+ + + + + + + + + + + + + + + + + + + + + + ",
"@ @ @ @ @ @ @ @ @ @ @ @ @ @ @ @ @ @ @ @ @ @ ",
"# # # # # # # # # # # # # # # # # # # # # # ",
"$ $ % & * = = = = = = = = = = = * & % $ $ $ ",
"- % ; > , ' ) ) ) ) ) ) ) ) ) ' , > ; % - - ",
"! ~ { ] ^ ^ ^ ^ ^ ^ ^ ^ ^ ^ ^ ^ ^ ] { ~ ! ! ",
"/ ( _ : : : : : : : : : : : : : : : _ ( / / ",
"< [ } | 1 2 3 3 3 3 3 3 2 1 | | | | } [ < < ",
"4 5 6 6 7 3 3 3 3 3 3 3 3 7 6 6 6 6 6 5 4 4 ",
"8 9 0 0 a b c d d d d c b a 0 0 0 0 0 9 8 8 ",
"e f g g h i j k k k k j i l 3 m n g g f e e ",
"o p a a q i q a a a a q i r 3 3 s a a p o o ",
"t u v v w x i y y y y i x z A B C v v u t t ",
"D E F F G H I J J J J I H K L M N F F E D D ",
"O P F F Q G R S T S R R G Q R U R F F P O O ",
"V W X Y Y Y Y Z ` i  . . . .T ..+.Y X W V V ",
"@.#.$.%.%.%.%.&.*.=.-.-.-.-.=.*.&.%.$.#.@.@.",
";.>.,.'.).).).!.~.{.{.{.{.{.{.~.!.'.,.>.;.;.",
"].^./.(._.:.<.<.<.<.<.<.<.<.<.:._.(./.^.].].",
"[.}.|.1.2.3.3.3.3.3.3.3.3.3.3.3.2.1.|.}.[.[.",
"4.4.5.6.7.8.8.8.8.8.8.8.8.8.8.8.7.6.5.4.4.4.",
"9.9.9.9.9.9.9.9.9.9.9.9.9.9.9.9.9.9.9.9.9.9.",
"0.0.0.0.0.0.0.0.0.0.0.0.0.0.0.0.0.0.0.0.0.0.",
". . . . . . . . . . . . . . . . . . . . . . ",
"+ + + + + + + + + + + + + + + + + + + + + + ",
"@ @ @ @ @ @ @ @ @ @ @ @ @ @ @ @ @ @ @ @ @ @ ",
"# # # # # # # # # # # # # # # # # # # # # # ",
"$ $ a.b.c.d.d.d.d.d.d.d.d.d.d.d.c.b.a.$ $ $ ",
"- e.f.g.h.i.j.j.j.j.j.j.j.j.j.i.h.g.f.e.- - ",
"! k.l.m.n.n.n.n.n.n.n.n.n.n.n.n.n.m.l.k.! ! ",
"/ o.p.q.q.q.q.q.q.q.q.q.q.q.q.q.q.q.p.o./ / ",
"< d.r.s.t.u.3 3 3 3 3 3 u.t.s.s.s.s.r.d.< < ",
"4 v.w.w.x.3 3 3 3 3 3 3 3 x.w.w.w.w.w.v.4 4 ",
"8 y.z.z.A.B.C.D.D.D.D.C.B.A.z.z.z.z.z.y.8 8 ",
"e E.F.F.G.H.I.J.J.J.J.I.H.K.3 L.M.F.F.E.e e ",
"o N.O.O.P.Q.P.O.O.O.O.P.Q.R.3 3 S.O.O.N.o o ",
"t T.U.U.V.W.Q.X.X.X.X.Q.W.Y.Z.`. +U.U.T.t t ",
"D .+++++@+#+$+%+%+%+%+$+#+&+*+=+-+++++.+D D ",
"O ;+++++>+@+,+I.Q.I.,+,+@+>+,+'+,+++++;+O O ",
"V )+!+++++++++3.~+{+]+]+]+]+H.^+,+++!+)+V V ",
"@./+3.(+(+(+(+_+:+<+[+[+[+[+<+:+_+(+3./+@.@.",
";.}+|+1+2+2+2+3+4+5+5+5+5+5+5+4+3+1+|+}+;.;.",
"].6+7+8+9+0+a+a+a+a+a+a+a+a+a+0+9+8+7+6+].].",
"[.}.b+c+d+e+e+e+e+e+e+e+e+e+e+e+d+c+b+}.[.[.",
"4.4.5.6.7.8.8.8.8.8.8.8.8.8.8.8.7.6.5.4.4.4.",
"9.9.9.9.9.9.9.9.9.9.9.9.9.9.9.9.9.9.9.9.9.9.",
"0.0.0.0.0.0.0.0.0.0.0.0.0.0.0.0.0.0.0.0.0.0."};
