/* XPM */
static char * taskbuttonbg_xpm[] = {
"162 28 336 2",
"  	c #F5F2E6",
". 	c #FBF9F5",
"+ 	c #F5F4EA",
"@ 	c #F5F2EA",
"# 	c #C7C6C5",
"$ 	c #C6C6C4",
"% 	c #F5F3EA",
"& 	c #CBCAC8",
"* 	c #ECE9E1",
"= 	c #EFEEE5",
"- 	c #F0F0E7",
"; 	c #F0EFE6",
"> 	c #EDEBE3",
", 	c #ECE8E0",
"' 	c #EDEBE2",
") 	c #EAE7E0",
"! 	c #E8E6DE",
"~ 	c #E8E5D9",
"{ 	c #E8E5D7",
"] 	c #E8E6DF",
"^ 	c #BBBBBB",
"/ 	c #C9C9C6",
"( 	c #F4F1E9",
"_ 	c #CDCCC9",
": 	c #EAE8E0",
"< 	c #E9E7DF",
"[ 	c #ECE8E1",
"} 	c #ECEAE2",
"| 	c #EEECE4",
"1 	c #B9B9B9",
"2 	c #F3F1E7",
"3 	c #BABABA",
"4 	c #E8E6E0",
"5 	c #E8E5D8",
"6 	c #E8E6DD",
"7 	c #E8E6DC",
"8 	c #E8E6DB",
"9 	c #E8E5DB",
"0 	c #E8E5DA",
"a 	c #E8E5D6",
"b 	c #F3F0E7",
"c 	c #EFECE1",
"d 	c #E5E1D7",
"e 	c #E6E2D7",
"f 	c #E6E3D7",
"g 	c #E7E3D7",
"h 	c #E7E4D7",
"i 	c #EAE6DA",
"j 	c #DFDCCE",
"k 	c #DFDCCD",
"l 	c #DEDCCD",
"m 	c #DEDBCD",
"n 	c #E0DCCF",
"o 	c #E0DDD0",
"p 	c #E1DDD0",
"q 	c #E1DED1",
"r 	c #E2DED2",
"s 	c #E2DFD3",
"t 	c #E3DFD4",
"u 	c #E3E0D5",
"v 	c #E4E0D5",
"w 	c #E4E0D6",
"x 	c #E5E1D8",
"y 	c #E6E1D8",
"z 	c #E6E2D8",
"A 	c #E7E4D8",
"B 	c #DEDACC",
"C 	c #DDDACC",
"D 	c #E5E1D5",
"E 	c #DDD7C5",
"F 	c #DED7C5",
"G 	c #DAD6C5",
"H 	c #D7D4C6",
"I 	c #D6D3C5",
"J 	c #D8D5C7",
"K 	c #D9D6C8",
"L 	c #DAD7C9",
"M 	c #DBD8CA",
"N 	c #DCD9CB",
"O 	c #DBD7C9",
"P 	c #DBD7C8",
"Q 	c #DCD8CA",
"R 	c #D6D4C6",
"S 	c #D8D4C6",
"T 	c #D8D4C5",
"U 	c #D7D3C4",
"V 	c #D8D3C4",
"W 	c #D9D4C4",
"X 	c #D9D3C4",
"Y 	c #D8D3C3",
"Z 	c #DAD5C6",
"` 	c #D9D4C5",
" .	c #DAD4C5",
"..	c #DCD6C5",
"+.	c #DED8C6",
"@.	c #DED9C6",
"#.	c #DFD9C6",
"$.	c #DFD9C7",
"%.	c #DFDAC7",
"&.	c #DFDBC8",
"*.	c #B8B8B8",
"=.	c #DBD7CB",
"-.	c #D7D3C5",
";.	c #D6D2C5",
">.	c #D6D2C4",
",.	c #D6D1C4",
"'.	c #D5D1C4",
").	c #D5D0C3",
"!.	c #D5CFC3",
"~.	c #D5CFC2",
"{.	c #D6D0C3",
"].	c #D6D1C3",
"^.	c #D9D5C9",
"/.	c #D5D1C3",
"(.	c #B6B6B6",
"_.	c #D9D4C9",
":.	c #D6D3C4",
"<.	c #D7D4C5",
"[.	c #B5B5B5",
"}.	c #D9D5C6",
"|.	c #D8D5C6",
"1.	c #D7D2C5",
"2.	c #D7D2C7",
"3.	c #DBD6C5",
"4.	c #DCD7C5",
"5.	c #D5D0C2",
"6.	c #D4CFC1",
"7.	c #D5CFC1",
"8.	c #B4B4B4",
"9.	c #D6D1C6",
"0.	c #B3B3B3",
"a.	c #D7D5C7",
"b.	c #DAD5C7",
"c.	c #D9D5C7",
"d.	c #D9D4C6",
"e.	c #D9D5C5",
"f.	c #DAD6C7",
"g.	c #D7D3C3",
"h.	c #D6D2C2",
"i.	c #D5D1C2",
"j.	c #D6D2C3",
"k.	c #D4D0C1",
"l.	c #D4D0C2",
"m.	c #D4D0C3",
"n.	c #D2CEC1",
"o.	c #D2CEC0",
"p.	c #D2CEBF",
"q.	c #D3CEBF",
"r.	c #D3CEBE",
"s.	c #D5CFBE",
"t.	c #D5CFBD",
"u.	c #D4CEBD",
"v.	c #D4CFBD",
"w.	c #D4CEBC",
"x.	c #D4CFBE",
"y.	c #D5D0BF",
"z.	c #D6CFBE",
"A.	c #D2CDBF",
"B.	c #D1CDBF",
"C.	c #D1CEC0",
"D.	c #D0CDBF",
"E.	c #D0CCBE",
"F.	c #D5D0C4",
"G.	c #B2B2B2",
"H.	c #D5D2C3",
"I.	c #D7D2C2",
"J.	c #D6D1C2",
"K.	c #D5D0C1",
"L.	c #D5D0C0",
"M.	c #D3CFBF",
"N.	c #D1CEBF",
"O.	c #D1CDBE",
"P.	c #D1CCBE",
"Q.	c #D1CEC1",
"R.	c #D3CFC2",
"S.	c #D3CFC1",
"T.	c #D2CDC0",
"U.	c #D2CFBF",
"V.	c #D2CEBE",
"W.	c #D2CEBD",
"X.	c #D2CDBD",
"Y.	c #D1CCBD",
"Z.	c #D1CDBD",
"`.	c #D0CCBC",
" +	c #D0CBBC",
".+	c #D0CBBD",
"++	c #D0CCBF",
"@+	c #D1CDC0",
"#+	c #D0CCBD",
"$+	c #CFCBBB",
"%+	c #D1CDBC",
"&+	c #D0CCBB",
"*+	c #D1CCBB",
"=+	c #D1CCBC",
"-+	c #D0CDBD",
";+	c #CFCDBD",
">+	c #CFCCBD",
",+	c #CECCBD",
"'+	c #CFCCBE",
")+	c #B3B2B2",
"!+	c #D5D0BE",
"~+	c #D6D0C0",
"{+	c #D5D1C1",
"]+	c #D4CFC0",
"^+	c #D4CEBE",
"/+	c #D3CDBD",
"(+	c #D0CBBA",
"_+	c #CFCABA",
":+	c #CFCBBA",
"<+	c #CECABA",
"[+	c #CECABB",
"}+	c #CFCABB",
"|+	c #D0CBBB",
"1+	c #CEC9BB",
"2+	c #CFCBBD",
"3+	c #CFCBBC",
"4+	c #CFCABC",
"5+	c #CECABC",
"6+	c #CECBBC",
"7+	c #CEC9BA",
"8+	c #CEC9B9",
"9+	c #CFCCBC",
"0+	c #CECBBB",
"a+	c #CDCBBC",
"b+	c #CCCABB",
"c+	c #B2B2B1",
"d+	c #CFC9B8",
"e+	c #D2CDBC",
"f+	c #D0CABB",
"g+	c #D1CBBB",
"h+	c #D1CBBA",
"i+	c #D0CAB9",
"j+	c #D0C9B9",
"k+	c #D0CABA",
"l+	c #CFCAB9",
"m+	c #CFCCBB",
"n+	c #CEC8BA",
"o+	c #CEC8B9",
"p+	c #CEC8B8",
"q+	c #CEC7B7",
"r+	c #CEC8B7",
"s+	c #CEC7B6",
"t+	c #CEC7B8",
"u+	c #CCC7B7",
"v+	c #CCC8B9",
"w+	c #CBC7B8",
"x+	c #CBC8B9",
"y+	c #CAC7B8",
"z+	c #CAC6B7",
"A+	c #C9C5B6",
"B+	c #CAC8B9",
"C+	c #CBC9BA",
"D+	c #CBC8BA",
"E+	c #CCC9BB",
"F+	c #CCC9BA",
"G+	c #CBC7B7",
"H+	c #CCC6B5",
"I+	c #CDC6B6",
"J+	c #CDC7B6",
"K+	c #D4CFC3",
"L+	c #AFAFAF",
"M+	c #D2CDBE",
"N+	c #D2CEBC",
"O+	c #D2CCBC",
"P+	c #D3CEBD",
"Q+	c #D2CFC0",
"R+	c #D1CBBD",
"S+	c #D0CDBE",
"T+	c #D0C9BC",
"U+	c #CFC9BC",
"V+	c #D0CABC",
"W+	c #D2CCBD",
"X+	c #D1CBBC",
"Y+	c #CDC8BA",
"Z+	c #CCC7B9",
"`+	c #CCC8BA",
" @	c #CBC7B9",
".@	c #CAC7B9",
"+@	c #CAC6B8",
"@@	c #CAC6B9",
"#@	c #C9C5B8",
"$@	c #CBC9B9",
"%@	c #CCC7BA",
"&@	c #CBC6B8",
"*@	c #CAC5B6",
"=@	c #CAC5B7",
"-@	c #CAC5B8",
";@	c #C7C3B7",
">@	c #AEAEAE",
",@	c #CECABE",
"'@	c #D3CFBE",
")@	c #CFCBBE",
"!@	c #D1CEBE",
"~@	c #D1CEBD",
"{@	c #CDC9BC",
"]@	c #CECABD",
"^@	c #CFCABD",
"/@	c #D0CBBE",
"(@	c #CDC9BA",
"_@	c #CDC9BB",
":@	c #CDC8BB",
"<@	c #CDC8B9",
"[@	c #CDC7B9",
"}@	c #CCC7B8",
"|@	c #CDC8B8",
"1@	c #CDC7B8",
"2@	c #B3B3B1",
"3@	c #C7C3B4",
"4@	c #C8C4B5",
"5@	c #C7C3B5",
"6@	c #C5C0B3",
"7@	c #C4BFB3",
"8@	c #C6C1B4",
"9@	c #C5C0B4",
"0@	c #C6C1B3",
"a@	c #C4BFB2",
"b@	c #C5C0B2",
"c@	c #C5C0B1",
"d@	c #C6C1B2",
"e@	c #C7C0B1",
"f@	c #C7C0B0",
"g@	c #C6BFAF",
"h@	c #C6BFAE",
"i@	c #C6BFAD",
"j@	c #C6BFB0",
"k@	c #C5C0B0",
"l@	c #C5C1B3",
"m@	c #B1B1AE",
"n@	c #A2A1A0",
"o@	c #A3A2A0",
"p@	c #A3A1A0",
"q@	c #A5A3A1",
"r@	c #A3A2A1",
"s@	c #A1A19F",
"t@	c #C2BEB4",
"u@	c #4A4A4A",
"                                                                                                                                                                                                                                                                                                                                    ",
". . . . . . . . . . . . . . . . . . . . . . . . . . . . . . . . . . . . . . . . . . . . . . . . . . . . . . . . . . . . . . . . . . . . . . . . . . . . . . . . . . . . . . . . . . . . . . . . . . . . . . . . . . . . . . . . . . . . . . . . . . . . . . . . . . . . . . . . . . . . . . . . . . . . . . . . . . . . . . . . . . ",
"+ + + + + + + + + + + + + + + + + + + + + + + + + + + + + + + + + + + + + + + + + + + + + + + + + + + + + + + + + + + + + + + + + + + + + + + + + + + + + + + + + + + + + + + + + + + + + + + + + + + + + + + + + + + + + + + + + + + + + + + + + + + + + + + + + + + + + + + + + + + + + + + + + + + + + + + + + + + + + + + + + + ",
"@ @ @ @ # # # # # # # # # # # # # # # # # # # # # # # # # # # # # # # # # # # # # # # # # # # # # # # # # # # # # # # # # # # # # # # # # # # # # # # # # # # # # # # # # # # # # # # # # # # # # # # # # # # # # # # # # # # # # # # # # # # # # # # # # # # # # # # # # # # # # # # # # # # # # # # # # # # # # # # # # $ # @ @ @ ",
"% % % & * * * * * * * * = - ; ; ; ; ; ; ; > , * , ' ; ; ; ; ; ; ; ; ; ; ; ; ; ; ; ; ; ; ; ; ; ; ; ; ; ; ; ' ) ! ~ { ] ] ] ] ] ] ] ] ] ] ] ] ] ] ] ] ] ] ] ] ] ] ] ] ] ] ] ] ] ] ] ] ] ] ] ] ] ] ] ] ] ] ] ] ] ] ] ] ] ] ] ] ] ] ] ] ] ] ] ] ] ] ] ] ] ] ] ] ] ] ] ] ] ] ] ] ] ] ] ] ] ] ] ] ] ] ] ] ] ] ] ] ] ] ] ] ] ] ] ] ^ / % % ",
"( ( _ ] ] ] ] : * < ] ] ] ) * * * * = = * * * * * * * * * * * * * * * * * * * * * * * * * [ } = - ; - | * * * * * * * * * * * * * * * * * * * * * * * * * * * * * * * * * * * * * * * * * * * * * * * * * * * * * * * * * * * * * * * * * * * * * * * * * * * * * * * * * * * * * * * * * * * * * * * * * * * * * * * * * * * 1 ( ( ",
"2 2 3 ] ] ] ] ] ] ] ] ] ] 4 ] 5 ~ ] ] ] ] ] ] ] ] ] ] ] ] ] ] ] ] ] ] ] ] ] ] ] ] ] ] ] ] ] ] ] ] ] ] ] ] ] ] ] ] ] ] ] ] ] ] ] ] ] ] ] ] ] ] ] ] ] ] ] ] ] ] ] ] ] ] ] ] ] ] ] ] ] ] ] ] 4 4 4 4 4 4 ] ] ! ! 6 7 8 9 0 ~ ~ 5 { { a a a a a a a { { { { { { { { { { { { { { { { { { { { { { { { { { { { { { { { { { { { { { { 1 2 2 ",
"b b 3 { { { { { { { { { { { { { { { { { { { { { { { { { { { { { { { { { { { { { { { { { { { { { { { { { { { { { { { { { { { { { { { { { { { { { { { { { { { { { { { { { { { { { { { { { { { { { { { { { { { { { { { { { { { { { { { { { { { { { { { { { { { { { { { { { { { { { { { { { { { { { { { { { { { { { { { { { { { { 1 b b ",
"c c 1 d d d d d d d d d d d d d d d d d d d d d d d d d d d d d d d d d d d d d d d d d d d d d d d d d d d d d d d d d d d d d d d d d d d d d d d d d d d d d d d d d d d d d d d d d d d d d d d d d d d d d d d d d d d d d d d d d d d d d d d d d d d d d d d d d d d d d d d e e e f g h h h { { { { { { { { { { { { { 1 c c ",
"i i 1 j j j j j j j j j j j j j j j j j j j j j j j j j j j j j j j j j j j j j j j j j j j j j j j j j j j j j j j j j j j j j j j j j j j j j j j j j j j j j j j j j j j j j j j j j j j j j j j j j j j j j j j j j j j j j j j j j k k l m m m k j j n o p q r s t u v w d d x y z z z y x d d d d w v w d d d d d d d d 1 i i ",
"A A 1 j j j j j j j j j j j j j j j j j j j j j j j j j j j j j j j j j j j j j j j j j j j j j j j j j j j j j j j j j j j j j j j j j j j j j j j j j j j j j j j j j j j j j j j j j j j j j j j j j j j j j j j j j j j j j j j j j j j j j j j j j j j j j j j j j j j j j j j j j j j j j j j j j B C C m j j j j j j j 1 A A ",
"D D 1 E E E F G H H H H H H H H H H H H H H H H H H H H H H H H H H H H H H H H H H H H H H H H H H I I H J J K K L L M M M N N N M M C m m C C m j j j j j j j j j j j j j j j j j j j j j j j j j j j j j j j j j j j j j j j j j j j j j j j j j j j j j j j j j j j j j j j j j j j j j j j m m B N O P Q m j j j j j j j 1 D D ",
"p p 1 H H H H H H H H H H H H H H H H H H H H H H H H H H H H H H H H H H H H H H H H H H H H H H H H H H H H H H H H H H H H H H H H H H H H H H H H H H H H H H H H H H H H H H H H H H H H H H H H H H H H H H H H H H H H H H H H H H H H H H H H H H H H H H R R R R R H H H S S T U V W X Y X T Z `  ...+.@.#.$.%.%.%.&.*.p p ",
"=.=.1 H H H H H H H H H H H H H H H H H H H H H H H H H H H H H H H H H H H H H H H H H H H H H H H H H H H H H H H H H H H H H H H H H H H H H H H H H H H H H H H H H H H H H H H H H H H H H H H H H H H H H H H H H H H H H H H H H H H H H H H H H H H -.I I ;.>.,.,.'.).).).).).!.~.~.~.~.~.!.{.].].).).).).>.;.I I -.H *.=.=.",
"^.^.*.H H H H H H H H H H H H H H H H H H H H H H H H H H H H H H H H H H H H H H H H H H H H H H H H H H H H H H H H H H H H H H H H H H H H H H H H H H H H H H H H H H H H H H H H H H H H H H H H H H H H H H H H H H H H H H H H H H H H H H H H H H H -.I ;.>.,.,./.).).).).).).).).).>.;.;.I ,.'.>.I I H H H H H H H H (.^.^.",
"_._.*.H H H R R R R R R R R R R R R R R R R R R R R R R R R R R R R R R R R R R R R R R R R R R R R R H H H I ,.,.,.,.,.,.,.,.'.,.,.,.,.,.,.,.,.,.,.,.,.,.,.,.,.,.,.,.,.,.,.,.,.,.,.,.,.,.,.>.>.>.>.>.>.>.>.>.>.>.>.>.>.>.>.>.>.>.>.>.>.>.>.>.>.>.>.>.>.>.>.>.,.,./././.).).).).).).).).)./././.].,.>.>.>.>.:.I I -.-.-.<.H H [._._.",
"_._.(.H H H }.}.}.}.}.}.}.}.}.}.}.}.}.}.}.}.}.}.}.}.}.}.}.}.}.}.}.}.}.}.}.}.}.}.}.}.}.}.}.}.}.}.}.}.}.|.H H ;.'.'.'.'.'.'.'.'.'.'.'.'.'.'.'.'.'.'.'.'.'.'.'.'.'.'.'.'.'.'.'.'.'.'.'.'.'.'.'.).).).).).).).).).).).).).).).).).).).).).).).).).).).).).).).).).).).).).).).).).).).).).).).).).).).).).).).)./.,.,.,.>.>.>.1.-.[._._.",
"2.2.[.H R S 3.F E E E E E E E E E E E E E E E E E E 4.E ..E E E E E E E E E E E E E E E 4.........3.3.G ` <.<.<.:.:.>.>.I >.I I I I >.>.I I I >.I H H H I I H H H I I H H H I I I :.-.I I >.>.>.,.'.).).).).).).).).).).5.6.7.7.5.).).).).).).).).).).).).).).).).).).).).).).).).).).).).).).).).).).).).).).).).).).).).).).8.2.2.",
"9.9.0.a.a.J Z b.c.c.c.}.S d.S e.S T T }.f.f.f.f.T T -.T -.}.f.f.f.f.f.}.}.T T }.}.}.}.}.T U U U g.h.h.i.j.k.l.5.k.5.5.i.>.i./.j.5.k.l././.l.l./././.l.l./././.l.l./././.l.l.m.m.n.o.p.p.p.p.p.p.q.q.q.r.r.s.t.t.u.u.t.t.v.w.v.x.y.z.s.s.x.x.q.q.p.p.A.B.B.B.B.C.B.D.B.B.o.B.B.o.o.B.B.B.B.B.B.B.B.B.B.B.B.B.D.E.D.B.B.B.B.B.B.8.9.9.",
"F.F.G.h.j.:.U H.I.J.K.L.y.y.y.y.M.M.N.N.p.o.N.n.o.O.P.P.B.B.C.C.Q.R.S.n.T.D.B.B.o.o.C.N.N.N.U.U.p.V.W.X.Y.Z.Y.Y.Y.Y.Y.Y.O.O.O.P.P.`. + +.+.+O.B.B.++@+@+B.B.@+@+B.B.B.++.+.+.+.+.+.+.+.+.+.+.+.+.+.+#+#+.+#+#+`.$+$+$+$+%+%+&+*+*+X.X.=+Z.-+-+;+;+>+,+,+,+,+>+>+'+,+,+>+>+E.,+>+,+'+,+,+,+,+,+>+,+>+,+,+,+>+,+,+,+,+,+,+,+,+,+8.F.F.",
"F.F.)+!+~+{+K.]+x.x.^+/+*+*+(+(+(+(+(+_+:+:+_+_+_+_+_+<+<+<+<+<+<+<+<+<+<+<+<+<+<+<+[+[+<+}+ +|+|+=+=+$+$+}+1+1+2+2+3+4+4+4+4+}+2+[+}+}+4+2+2+2+2+2+3+[+[+5+5+'+2+>+6+5+7+7+8+8+8+8+[+}+4+1+3+$+7+[+7+5+5+2+2+[+<+$+3+9+0+3+3+|+ +$+Y.#+'+'+>+'+'+>+>+'+'+'+,+,+,+,+,+,+,+,+,+a+b+b+b+a+,+,+,+,+,+,+,+,+,+,+a+6+a+'+,+'+'+'+'+0.F.F.",
").).c+d+|+e+X.=+f+g+h+i+j+j+k+h+l+_+m+:+3+3+4+n+n+n+o+p+p+p+p+q+q+q+q+q+q+q+q+q+q+q+q+q+q+q+q+q+q+q+q+r+p+p+q+q+p+p+p+q+q+p+p+p+q+q+q+q+s+s+s+s+s+s+s+s+s+r+r+r+r+s+r+r+r+q+s+s+s+s+s+s+q+q+q+s+s+s+s+s+s+s+s+q+q+q+s+s+s+s+s+s+s+q+p+p+t+u+v+w+x+y+z+z+A+z+w+B+B+C+C+x+C+x+y+C+y+x+B+x+D+D+B+D+E+b+b+B+C+F+B+x+x+v+v+G+H+I+J+0.).).",
"K+K+L+'+M+X.N+O+O+O+O+/+P+u.e+e+X.P+M.Q+C.E.B.A.R+Y.Y. +S+#+T+U+2+.+.+3+3+ +#+E.E..+P.E..+Z.#+Y.=+=+=+=+.+2+2+2+2+.+E.O.E..+.+ +7+1+1+[+3+1+1+1+1+1+1+[+3+5+5+4+4+V+V+f+=+k+|+|+*+(+f+`.|+ +Y.W+X+g+k+k+k+l+(+_+_+_+l+}+_+}+}+_+:+_+<+7+7+7+Y+Z+Z+`+v+Z+ @v+ @.@y++@x+x+x+x+.@x+@@y+ @+@.@ @ @#@#@+@ @x+x+$@E+%@&@&@*@=@-@-@;@0.K+K+",
"R.R.>@,@P.P.p.M+q.V.V.M.M.M.'@Z.V.V.B.B.@+E.)@D.C.C.C.O.!@Z.|+}+ +Y.Z.~@!@!@!@O.S+N.N.N.p.p.V.M.M.r.M+Z.2+{@]@]@)@)@]@)@)@)@)@2+2+.+.+.+.+.+ + +#+E..+3+5+5+]@]@)@^@)@)@)@2+2+2+E./@/@.+.+#+#+#+`.`.`.`.`.`.$+$+`.`. +|+}+}+7+7+}+}+(@v+ @ @`+`+`+%@Z+%@Y+`+_@:@E+F+F+F+F+F+F+F+F+F+`+x+x+x+ @`+w+x+x+`+_@(@(@<@[@}@}@|@|@1@=@G.R.R.",
"R.R.2@8.3@3@3@3@3@3@3@3@3@3@4@4@5@6@6@6@6@6@7@6@6@6@6@6@6@8@9@9@6@6@6@6@6@6@6@6@6@6@6@6@6@8@0@6@6@8@7@9@8@6@6@6@6@6@6@6@6@6@6@6@6@6@6@6@6@6@9@9@9@9@8@8@8@a@b@c@d@e@f@g@h@h@i@i@i@i@i@h@h@g@j@k@c@b@b@6@6@6@9@9@9@9@9@6@6@6@6@6@6@6@6@6@6@6@6@6@6@6@6@6@6@6@6@6@6@6@6@6@6@6@6@6@6@6@6@6@6@8@6@0@8@l@6@6@6@6@6@6@6@6@6@6@6@6@G.G.R.R.",
"R.R.R.m@n@n@n@n@n@n@n@n@n@n@n@o@p@n@n@n@n@n@n@n@n@n@n@n@n@n@n@n@n@n@n@n@n@n@n@n@n@n@n@n@n@n@n@n@n@n@n@n@n@n@n@n@n@n@n@n@n@n@n@n@n@n@n@n@n@n@n@n@n@n@o@q@o@n@n@n@n@o@n@n@n@n@n@n@n@n@n@n@n@n@n@n@n@n@n@n@n@n@n@n@n@n@n@n@n@n@n@n@n@n@n@n@n@n@n@n@n@n@n@n@n@n@n@n@n@n@n@n@n@n@n@n@n@n@n@n@n@o@n@p@r@p@n@n@n@n@n@n@n@n@n@n@n@s@0.R.R.R.",
"t@t@t@t@t@t@t@t@t@t@t@t@t@t@t@t@t@t@t@t@t@t@t@t@t@t@t@t@t@t@t@t@t@t@t@t@t@t@t@t@t@t@t@t@t@t@t@t@t@t@t@t@t@t@t@t@t@t@t@t@t@t@t@t@t@t@t@t@t@t@t@t@t@t@t@t@t@t@t@t@t@t@t@t@t@t@t@t@t@t@t@t@t@t@t@t@t@t@t@t@t@t@t@t@t@t@t@t@t@t@t@t@t@t@t@t@t@t@t@t@t@t@t@t@t@t@t@t@t@t@t@t@t@t@t@t@t@t@t@t@t@t@t@t@t@t@t@t@t@t@t@t@t@t@t@t@t@t@t@t@t@t@",
"u@u@u@u@u@u@u@u@u@u@u@u@u@u@u@u@u@u@u@u@u@u@u@u@u@u@u@u@u@u@u@u@u@u@u@u@u@u@u@u@u@u@u@u@u@u@u@u@u@u@u@u@u@u@u@u@u@u@u@u@u@u@u@u@u@u@u@u@u@u@u@u@u@u@u@u@u@u@u@u@u@u@u@u@u@u@u@u@u@u@u@u@u@u@u@u@u@u@u@u@u@u@u@u@u@u@u@u@u@u@u@u@u@u@u@u@u@u@u@u@u@u@u@u@u@u@u@u@u@u@u@u@u@u@u@u@u@u@u@u@u@u@u@u@u@u@u@u@u@u@u@u@u@u@u@u@u@u@u@u@u@u@"};
