/* XPM */
static char * titleIT_xpm[] = {
"2 24 25 1",
" 	c None",
".	c #9B9882",
"+	c #F5F2E6",
"@	c #FBF9F5",
"#	c #F5F4EA",
"$	c #F5F2EA",
"%	c #F5F3EA",
"&	c #F4F1E9",
"*	c #F3F1E7",
"=	c #F3F0E7",
"-	c #EFECE1",
";	c #EAE6DA",
">	c #E7E4D8",
",	c #E5E1D5",
"'	c #E1DDD0",
")	c #DBD7CB",
"!	c #D9D5C9",
"~	c #D9D4C9",
"{	c #D7D2C7",
"]	c #D5D0C4",
"^	c #D6D1C4",
"/	c #D4CFC3",
"(	c #D3CFC2",
"_	c #CECBC0",
":	c #BBB8A4",
"..",
"++",
"@@",
"##",
"$$",
"%%",
"&&",
"**",
"==",
"--",
";;",
">>",
",,",
"''",
"))",
"!!",
"~~",
"{{",
"]]",
"^^",
"//",
"((",
"__",
"::"};
