/* XPM */
static char *desktop[] = {
/* columns rows colors chars-per-pixel */
"25 25 183 2 ",
"   c black",
".  c #090702",
"X  c #271A12",
"o  c #231A09",
"O  c #38280D",
"+  c #3C281A",
"@  c #292316",
"#  c #3F2828",
"$  c #3E372A",
"%  c #33373C",
"&  c #5C1A1A",
"*  c #7D1111",
"=  c #432D0F",
"-  c #432C1E",
";  c #482911",
":  c #4E3423",
">  c #5A3B28",
",  c #543725",
"<  c #603D29",
"1  c #4C431D",
"2  c #5C4115",
"3  c #614619",
"4  c #5F4629",
"5  c #644228",
"6  c #724C2C",
"7  c #7B522A",
"8  c #75512F",
"9  c #7D5531",
"0  c #735030",
"q  c #73663C",
"w  c #353A42",
"e  c #3A414D",
"r  c #3C4552",
"t  c #464A47",
"y  c #5C5B4D",
"u  c #4A505C",
"i  c #5A5B51",
"p  c #6A4D4D",
"a  c #5F645D",
"s  c #6C6445",
"d  c #7E754C",
"f  c #64645E",
"g  c #7F7A5B",
"h  c #48576C",
"j  c #5B646C",
"k  c #59677B",
"l  c #6E6E60",
"z  c #646C73",
"x  c #66717E",
"c  c #6A767C",
"v  c #74787C",
"b  c #835B1A",
"n  c #A4751C",
"m  c #875A2C",
"M  c #8A5A2B",
"N  c #875628",
"B  c #825732",
"V  c #835D34",
"C  c #8C5B32",
"Z  c #935A34",
"A  c #965B29",
"S  c #8C6825",
"D  c #996427",
"F  c #8F752A",
"G  c #9D6331",
"H  c #827A3B",
"J  c #97773B",
"K  c #8A6638",
"L  c #AD632A",
"P  c #B87C2B",
"I  c #A86832",
"U  c #A77930",
"Y  c #AB7424",
"T  c #D27C39",
"R  c #D37C37",
"E  c #C57637",
"W  c #947B44",
"Q  c #817C64",
"!  c #BF7171",
"~  c #AD8113",
"^  c #B58816",
"/  c #BB8C2B",
"(  c #A7883A",
")  c #BF8435",
"_  c #CC9305",
"`  c #C08E16",
"'  c #CD9817",
"]  c #CB9717",
"[  c #E7A503",
"{  c #F1AD00",
"}  c #F6BA1A",
"|  c #EE8A3B",
" . c #E3843A",
".. c #F58D3B",
"X. c #FE933D",
"o. c #D1A62D",
"O. c #D7AC3E",
"+. c #CCA73B",
"@. c #F9BD2C",
"#. c #E7B52D",
"$. c #FBC638",
"%. c #9A905C",
"&. c #978843",
"*. c #B69545",
"=. c #A59457",
"-. c #A78948",
";. c #B9A14B",
":. c #848365",
">. c #9A8962",
",. c #98986B",
"<. c #A29560",
"1. c #AB9977",
"2. c #B2AD6B",
"3. c #C2A155",
"4. c #DAA856",
"5. c #C6B054",
"6. c #DABC56",
"7. c #D2B049",
"8. c #EBBA58",
"9. c #F1BF5C",
"0. c #DCC057",
"q. c #FACC43",
"w. c #F9C549",
"e. c #F9D04E",
"r. c #E0C155",
"t. c #F8D357",
"y. c #F6D55E",
"u. c #DBCD6D",
"i. c #E1C761",
"p. c #EAD369",
"a. c #E7D868",
"s. c #ECDA6A",
"d. c #E7D369",
"f. c #F6D964",
"g. c #F6D868",
"h. c #E8C472",
"j. c #F2E16E",
"k. c #687587",
"l. c #7C828B",
"z. c #7D8999",
"x. c #84909F",
"c. c #97999F",
"v. c #85888D",
"b. c #B28C82",
"n. c #A79780",
"m. c #8E98A6",
"M. c #979DA5",
"N. c #9DA4AF",
"B. c #91A1B8",
"V. c #A7AEB5",
"C. c #AEB0B2",
"Z. c #CDA1A1",
"A. c #FEDC8D",
"S. c #F1D28B",
"D. c #E4C888",
"F. c #CDC0A3",
"G. c #FFE3A4",
"H. c #B6BDC6",
"J. c #B0BACB",
"K. c #A8BED9",
"L. c #BEC4C8",
"P. c #B5C8DC",
"I. c #BCCEE5",
"U. c #B8CCE8",
"Y. c #C8CFD5",
"T. c #C3D1DE",
"R. c #CFD3D9",
"E. c #D3DBDF",
"W. c #CBD6E0",
"Q. c #C1D1E1",
"!. c #D5DDE3",
"~. c #DADEE2",
"^. c #D0DDEF",
"/. c #CDDCF2",
"(. c #DBE0E5",
"). c #DEE5E9",
"_. c #DBE6F6",
"`. c #E2E6E9",
"'. c #E0E1E1",
"]. c #EBEEF1",
"[. c #FDFDFD",
"{. c #F5F7F8",
"}. c None",
/* pixels */
"}.}.}.}.}.}.}.}.}.}.}.}.}.}.}.}.}.}.}.}.  }.}.}.}.",
"}.}.}.}.}.}.}.}.}.}.}.}.}.}.}.}.}.}.}.p Z.# }.}.}.",
"}.}.}.}.}.}.}.}.}.}.}.}.}.}.}.}.}.}.X b.! *   }.}.",
"}.}.}.}.}.}.}.}.}.}.}.}.}.}.}.}.}.. D.w.Z & }.}.}.",
"}.}.}.}.}.}.}.}.}.}.}.}.}.}.}.}.}.J A.9.Y   }.}.}.",
"}.> > > < < > > > > > , > > > , = A.w.P @ X }.}.}.",
"> 4 B E T Z -.a.a.a.a.a.a.a.a.1 h.@.4.b - - }.}.}.",
"> 9 ..X.T J j.j.,.k k.:.2.d.H 3.y.9.P ; 5 : }.}.}.",
"> B X. .K s.j.d.k._./.^.J.u W G.w.) = L N > X }.}.",
"> B | V s.g.,.f V.U.K.U.B.@ S.@.4.2 4 D I > X }.}.",
"> B B i.g.s.Q z c.P./.I.e Z.1.8.2 w &.q C , X }.}.",
"> 8 6.f.f.<.%.v Y._.Q.x.r n.>.: z.4 5.f.0 > X }.}.",
"> *.f.y.y.:.f c.(.I.T.e h % z M.l.d s.f.0.> X }.}.",
"> *.t.t.0.=.x C.T.E.c.t z m.N.'.k.;.y.y.0.> X }.}.",
"< *.e.e.e.=.N.E.[.[.`.L.Y.E.{.].a 7.t.t.r.> X }.}.",
"> ( q.q.q.g `.].E.(.!.{.[.{.].L.d w.e.w.7.> X }.}.",
"> 6 U $.$.k.[.!.!.(.[.).!.!.[.z.( q.q.7.< > X }.}.",
"> M I / +.M.[.[.[.[.!.!.E.].[.j o.$.#.N G > X }.}.",
"> m X.Z / j m.H.(.[.[.[.[.[.R.s #.@.N | I > X }.}.",
"4 M X.X.M ^ F q i h k.m.H.~.z.F } S  .X.G > X }.}.",
"> 7 R X...N { { [ _ ~ S q y s _ D R X...7 > }.}.}.",
"}.> 7 M m 7 S ] ' ' ' ' ^ ^ ~ n 5 M N 7 > - }.}.}.",
"}.}.: : : : : : : : : : : : : : : : : : + }.}.}.}.",
"}.}.}.}.}.}.}.}.}.}.}.}.}.}.}.}.}.}.}.}.}.}.}.}.}.",
"}.}.}.}.}.}.}.}.}.}.}.}.}.}.}.}.}.}.}.}.}.}.}.}.}."
};
