/* XPM */
static char * expand_xpm[] = {
"11 11 2 1",
" 	c None",
".	c #F0F0F0",
"           ",
"           ",
"    .   .  ",
"   ..  ..  ",
"  ..  ..   ",
" ..  ..    ",
" ..  ..    ",
"  ..  ..   ",
"   ..  ..  ",
"    .   .  ",
"           "};
