/* XPM */
static char * workspacebuttonactive_xpm[] = {
"27 24 126 2",
"  	c #778C66",
". 	c #91A182",
"+ 	c #91A082",
"@ 	c #748A61",
"# 	c #C7E0A1",
"$ 	c #C9E2A3",
"% 	c #CAE4A5",
"& 	c #C9E3A4",
"* 	c #C8E2A3",
"= 	c #728961",
"- 	c #C8E2A4",
"; 	c #C9E2A4",
"> 	c #C6E0A1",
", 	c #C6DFA2",
"' 	c #C7E0A2",
") 	c #C6E0A2",
"! 	c #728960",
"~ 	c #C4DEA0",
"{ 	c #C5DDA0",
"] 	c #C4DDA1",
"^ 	c #C4DDA0",
"/ 	c #C5DEA0",
"( 	c #C4DEA1",
"_ 	c #C2DC9F",
": 	c #C2DC9E",
"< 	c #C3DC9F",
"[ 	c #C3DC9E",
"} 	c #C2DB9F",
"| 	c #C1DA9D",
"1 	c #C0DA9D",
"2 	c #C0DA9E",
"3 	c #BED89B",
"4 	c #BFD89B",
"5 	c #BFD79B",
"6 	c #BFD89C",
"7 	c #BED89C",
"8 	c #BCD699",
"9 	c #BDD599",
"0 	c #BDD59A",
"a 	c #BCD59A",
"b 	c #BCD599",
"c 	c #BCD69A",
"d 	c #BDD699",
"e 	c #BBD498",
"f 	c #BAD398",
"g 	c #BBD398",
"h 	c #BAD498",
"i 	c #BAD397",
"j 	c #BAD497",
"k 	c #B9D197",
"l 	c #B8D197",
"m 	c #B9D196",
"n 	c #B9D296",
"o 	c #B8D196",
"p 	c #B8D297",
"q 	c #B8D296",
"r 	c #748A63",
"s 	c #B7CF95",
"t 	c #B7CF94",
"u 	c #B6CF95",
"v 	c #B6CF94",
"w 	c #B6D095",
"x 	c #B6D094",
"y 	c #B5CE94",
"z 	c #B5CD93",
"A 	c #B4CD93",
"B 	c #B4CE93",
"C 	c #B5CE93",
"D 	c #B2CB92",
"E 	c #B3CB91",
"F 	c #B2CC92",
"G 	c #B3CC92",
"H 	c #B2CC91",
"I 	c #B3CB92",
"J 	c #B3CC91",
"K 	c #B2CB91",
"L 	c #B1C990",
"M 	c #B1CA90",
"N 	c #B0CA90",
"O 	c #B0C990",
"P 	c #B1C98F",
"Q 	c #AEC88F",
"R 	c #AFC78E",
"S 	c #AEC88E",
"T 	c #AFC88E",
"U 	c #AFC78F",
"V 	c #AFC88F",
"W 	c #AEC78F",
"X 	c #ADC68C",
"Y 	c #ADC58D",
"Z 	c #ADC68D",
"` 	c #ACC68D",
" .	c #ACC58D",
"..	c #ADC58C",
"+.	c #ABC38B",
"@.	c #ABC48B",
"#.	c #758B64",
"$.	c #A9C189",
"%.	c #A9C18A",
"&.	c #A9C289",
"*.	c #AAC18A",
"=.	c #AAC189",
"-.	c #A9C28A",
";.	c #A7BF88",
">.	c #A8BF88",
",.	c #A7C088",
"'.	c #A8C088",
").	c #A7C087",
"!.	c #A4BD86",
"~.	c #A5BD86",
"{.	c #A5BC86",
"].	c #A5BD85",
"^.	c #A3BB84",
"/.	c #A3BA85",
"(.	c #A3BA84",
"_.	c #A3BB85",
":.	c #A1B982",
"<.	c #A2B982",
"[.	c #A1B883",
"}.	c #A1B983",
"|.	c #A1B882",
"1.	c #A2B983",
"2.	c #A2B984",
"3.	c #738960",
"4.	c #91A879",
"5.	c #848670",
"  . . . + + . . . + + + + + + + + + + + + + . . . +   ",
"@ # $ % % % % % % % % % % % % % % % % % % % % % & * = ",
"@ * - * * - * $ - * * * - * * * ; ; - * * - - - * * = ",
"@ > , > ' # ) > ) ) ) ) ) ) > ) ) ) # ) > ) ) ) > ) ! ",
"@ ~ { ] ~ ^ ~ ~ ~ / ~ ^ ~ ~ ^ ~ ( ^ / / ~ / ~ ~ ~ ~ ! ",
"@ _ _ _ : _ < _ < [ : _ : : _ : [ < < [ _ [ _ [ } _ ! ",
"@ | 1 2 | 1 1 1 | 1 1 | | | | 1 | | | 1 1 1 | | 1 1 ! ",
"@ 3 3 3 4 5 4 6 7 7 6 3 4 4 7 7 7 6 4 6 5 4 4 4 3 4 ! ",
"@ 8 9 9 0 8 a 8 b 0 a c c b c a b b d c 0 8 0 d c a ! ",
"@ e f g h g h g i f f h f g f h h h f h g g j f h g ! ",
"@ k l m n m l o o o o p m o l n l l q l l n m m q q ! ",
"r s t s u u v s u w x w s u v t u t u w s v u x t u ! ",
"r y z A A z B A y B A A A A C y A z B A A z A C C z ! ",
"r D E F G H I I J K I I J E G F D G I E H E I E D F ! ",
"r L M L L M L L L N L O L L P M L L L L M M L L O M ! ",
"r Q R S R S R T U R T R R T T U U V W R U R R Q T W ! ",
"r X Y X Y Y Y X Z ` Y  .Y Z Z Y ....Y X Z Y ..Y ..Z ! ",
"r +.+.+.+.+.@.+.+.+.@.+.+.+.+.+.+.@.+.+.+.+.+.@.+.+.! ",
"#.$.%.$.&.%.*.%.%.&.&.=.%.%.$.$.=.%.*.$.%.$.&.%.$.-.! ",
"#.;.>.>.;.;.;.;.,.;.>.>.'.;.;.;.;.;.>.>.;.>.;.).;.;.! ",
"#.!.~.{.~.{.{.].~.{.~.{.{.~.~.~.~.{.~.~.{.{.~.{.~.!.! ",
"#.^.^./.(././.^.(.^.^.^./._._.^.^.^./.(./.(._._./.^.! ",
"#.:.:.<.[.<.[.}.}.[.[.|.}.1.}.|.:.}.}.:.[.1.[.}.2./.3.",
"4.5.5.5.5.5.5.5.5.5.5.5.5.5.5.5.5.5.5.5.5.5.5.5.5.5.3."};
