/* XPM */
static char * closeI_xpm[] = {
"35 70 5 1",
" 	c None",
".	c #808080",
"+	c #5C5C5C",
"@	c #8D8D8D",
"#	c #CDCDCD",
"...................................",
"...................................",
".............++++++++..............",
"...........++++++++++++............",
".........++++++++++++++++..........",
"........++++++++++++++++++.........",
".......++++++++++++++++++++@.......",
"......++++++++++++++++++++++@......",
".....++++++++++++++++++++++++@.....",
"....+++++++#++++++++++#+++++++@....",
"....++++++###++++++++###++++++@....",
"...++++++#####++++++#####++++++@...",
"...+++++++#####++++#####+++++++@...",
"..+++++++++#####++#####+++++++++@..",
"..++++++++++##########++++++++++@..",
"..+++++++++++########+++++++++++@@.",
"..++++++++++++######++++++++++++@@.",
"..++++++++++++######++++++++++++@@.",
"..+++++++++++########+++++++++++@@.",
"..++++++++++##########++++++++++@@.",
"..+++++++++#####++#####+++++++++@@.",
"...+++++++#####++++#####+++++++@@..",
"...++++++#####++++++#####++++++@@..",
"....++++++###++++++++###++++++@@@..",
"....+++++++#++++++++++#+++++++@@...",
".....++++++++++++++++++++++++@@@...",
"......++++++++++++++++++++++@@@....",
"......@++++++++++++++++++++@@@.....",
".......@++++++++++++++++++@@@......",
"........@++++++++++++++++@@@.......",
".........@@++++++++++++@@@@........",
"...........@@++++++++@@@@@.........",
".............@@@@@@@@@@@...........",
"...............@@@@@@@.............",
"...................................",
"                                   ",
"                                   ",
"                                   ",
"                                   ",
"                                   ",
"                                   ",
"                                   ",
"                                   ",
"                                   ",
"                                   ",
"                                   ",
"                                   ",
"                                   ",
"                                   ",
"                                   ",
"                                   ",
"                                   ",
"                                   ",
"                                   ",
"                                   ",
"                                   ",
"                                   ",
"                                   ",
"                                   ",
"                                   ",
"                                   ",
"                                   ",
"                                   ",
"                                   ",
"                                   ",
"                                   ",
"                                   ",
"                                   ",
"                                   ",
"                                   "};
