/* XPM */
static char * desktop_xpm[] = {
"20 20 3 1",
" 	c #000000",
".	c #666666",
"+	c #CCCCCC",
"                    ",
"                    ",
"         ..         ",
"        .++.        ",
"       .++++.       ",
"      .++++++.      ",
"     .        .     ",
"    .+        +.    ",
"   .++        ++.   ",
"  .+++        +++.  ",
"  .+++        +++.  ",
"   .++        ++.   ",
"    .+        +.    ",
"     .        .     ",
"      .++++++.      ",
"       .++++.       ",
"        .++.        ",
"         ..         ",
"                    ",
"                    "};
