/* XPM */
static char * linux_xpm[] = {
"48 20 368 2",
"  	c #1E1F1C",
". 	c #20201E",
"+ 	c #21221F",
"@ 	c #232420",
"# 	c #262621",
"$ 	c #292824",
"% 	c #2C2926",
"& 	c #2E2C28",
"* 	c #302F2B",
"= 	c #33302C",
"- 	c #34302B",
"; 	c #33302B",
"> 	c #302E29",
", 	c #2C2B27",
"' 	c #292825",
") 	c #262524",
"! 	c #232321",
"~ 	c #21221E",
"{ 	c #1F1F1E",
"] 	c #1C1D1A",
"^ 	c #1C1C19",
"/ 	c #1A1C19",
"( 	c #1B1C19",
"_ 	c #1C1E19",
": 	c #20221D",
"< 	c #1E201C",
"[ 	c #1C1F1A",
"} 	c #1F211C",
"| 	c #1E201B",
"1 	c #1D1F1A",
"2 	c #2E2F2B",
"3 	c #30312E",
"4 	c #353430",
"5 	c #3A3933",
"6 	c #423F37",
"7 	c #4A453E",
"8 	c #514C43",
"9 	c #585348",
"0 	c #5F584C",
"a 	c #635B50",
"b 	c #635C4F",
"c 	c #61594D",
"d 	c #5B544A",
"e 	c #534C45",
"f 	c #4A4640",
"g 	c #413F38",
"h 	c #3B3933",
"i 	c #31322C",
"j 	c #2E2F2A",
"k 	c #2C2D28",
"l 	c #2A2B27",
"m 	c #292A28",
"n 	c #282A26",
"o 	c #282926",
"p 	c #272926",
"q 	c #363833",
"r 	c #3B3C34",
"s 	c #414336",
"t 	c #4A4C3D",
"u 	c #575746",
"v 	c #656451",
"w 	c #757460",
"x 	c #92917E",
"y 	c #ACAB9A",
"z 	c #B2B1A2",
"A 	c #B1B0A1",
"B 	c #A5A492",
"C 	c #8C8977",
"D 	c #787563",
"E 	c #696557",
"F 	c #5B594B",
"G 	c #4F4B43",
"H 	c #44413D",
"I 	c #3B3B38",
"J 	c #363733",
"K 	c #313430",
"L 	c #2F302C",
"M 	c #2D2E2C",
"N 	c #2E302C",
"O 	c #2E2F2C",
"P 	c #2E302B",
"Q 	c #3B3D36",
"R 	c #424539",
"S 	c #4E5242",
"T 	c #5E614D",
"U 	c #757961",
"V 	c #AEB39F",
"W 	c #DCDFD4",
"X 	c #EAEBE7",
"Y 	c #E9E9E9",
"Z 	c #EAEAE9",
"` 	c #E8E7E3",
" .	c #CDCBC0",
"..	c #9A9887",
"+.	c #787967",
"@.	c #626250",
"#.	c #4F4F44",
"$.	c #41433A",
"%.	c #393B34",
"&.	c #343532",
"*.	c #32332F",
"=.	c #31322D",
"-.	c #2F302B",
";.	c #2E2F2D",
">.	c #30302E",
",.	c #2F2F2E",
"'.	c #2F2F2F",
").	c #30302F",
"!.	c #3E4234",
"~.	c #4B4F3F",
"{.	c #5C604F",
"].	c #868B72",
"^.	c #D9DCCD",
"/.	c #E9EAE8",
"(.	c #E9E9E8",
"_.	c #E9E9EA",
":.	c #E6E5E1",
"<.	c #B4B0A4",
"[.	c #7E806F",
"}.	c #606152",
"|.	c #4A4B41",
"1.	c #3D3E35",
"2.	c #363730",
"3.	c #31322E",
"4.	c #2D2F2A",
"5.	c #2C2D2A",
"6.	c #2D2E2B",
"7.	c #2D2D2A",
"8.	c #2D2D2B",
"9.	c #454838",
"0.	c #575B47",
"a.	c #84886E",
"b.	c #E1E3D7",
"c.	c #EAE9E8",
"d.	c #B2AC9E",
"e.	c #767766",
"f.	c #575847",
"g.	c #43433A",
"h.	c #363732",
"i.	c #989996",
"j.	c #2C2E2A",
"k.	c #2A2D27",
"l.	c #292B26",
"m.	c #2A2C28",
"n.	c #292B27",
"o.	c #A1A2A0",
"p.	c #949593",
"q.	c #2A2C27",
"r.	c #292C28",
"s.	c #949694",
"t.	c #4D4F3D",
"u.	c #6A6E55",
"v.	c #D8DACB",
"w.	c #EAE9E9",
"x.	c #E8E6E2",
"y.	c #979285",
"z.	c #66685B",
"A.	c #494A3F",
"B.	c #393935",
"C.	c #FFFFFF",
"D.	c #2B2D28",
"E.	c #282A25",
"F.	c #262724",
"G.	c #262825",
"H.	c #252825",
"I.	c #404040",
"J.	c #565945",
"K.	c #A4A98F",
"L.	c #EAEAE7",
"M.	c #CAC5BD",
"N.	c #787569",
"O.	c #525448",
"P.	c #3C3E36",
"Q.	c #292B25",
"R.	c #262723",
"S.	c #242624",
"T.	c #252725",
"U.	c #9FA09F",
"V.	c #242725",
"W.	c #929392",
"X.	c #262826",
"Y.	c #252724",
"Z.	c #A0A0A0",
"`.	c #A5A5A5",
" +	c #272827",
".+	c #63664D",
"++	c #DADDCD",
"@+	c #E9EAE9",
"#+	c #E7E6E2",
"$+	c #868073",
"%+	c #5C5C50",
"&+	c #414138",
"*+	c #252721",
"=+	c #242421",
"-+	c #242422",
";+	c #7B8064",
">+	c #E9EBE2",
",+	c #EAEAE8",
"'+	c #A0988C",
")+	c #626254",
"!+	c #434437",
"~+	c #282A23",
"{+	c #252620",
"]+	c #222220",
"^+	c #222321",
"/+	c #222320",
"(+	c #212220",
"_+	c #252524",
":+	c #ABABAB",
"<+	c #9A9A9A",
"[+	c #252624",
"}+	c #90947D",
"|+	c #E9EBE5",
"1+	c #A9A298",
"2+	c #656459",
"3+	c #444439",
"4+	c #272823",
"5+	c #23241F",
"6+	c #20201D",
"7+	c #20211E",
"8+	c #1F201E",
"9+	c #1F211E",
"0+	c #939681",
"a+	c #E9EAE6",
"b+	c #A69F92",
"c+	c #646155",
"d+	c #414236",
"e+	c #262722",
"f+	c #21231E",
"g+	c #1E1F1B",
"h+	c #1E1E1C",
"i+	c #1D1E1B",
"j+	c #232422",
"k+	c #8F8F8E",
"l+	c #282828",
"m+	c #848972",
"n+	c #E9EBE3",
"o+	c #EAE9E7",
"p+	c #979082",
"q+	c #5D5D50",
"r+	c #3E3F33",
"s+	c #242423",
"t+	c #1D1E1A",
"u+	c #7B7F6E",
"v+	c #E1E4D9",
"w+	c #E9E9E7",
"x+	c #E0DDD8",
"y+	c #7B7464",
"z+	c #515346",
"A+	c #37392E",
"B+	c #22231E",
"C+	c #1F201C",
"D+	c #1C1D1B",
"E+	c #1C1E1C",
"F+	c #1C1E1B",
"G+	c #222322",
"H+	c #7F8177",
"I+	c #CDCFC2",
"J+	c #EAEBE4",
"K+	c #B7B0A6",
"L+	c #696658",
"M+	c #47483B",
"N+	c #313328",
"O+	c #1F201D",
"P+	c #1B1C18",
"Q+	c #1B1D18",
"R+	c #1A1C18",
"S+	c #454739",
"T+	c #616457",
"U+	c #B4B8AB",
"V+	c #E8EAE3",
"W+	c #EAEAE6",
"X+	c #DBD8D4",
"Y+	c #7E7667",
"Z+	c #535346",
"`+	c #3B3B30",
" @	c #2C2C26",
".@	c #9C9D9B",
"+@	c #9B9B9A",
"@@	c #1C1D19",
"#@	c #9B9C9A",
"$@	c #1C1D18",
"%@	c #383B2C",
"&@	c #56584C",
"*@	c #8E9183",
"=@	c #E4E3E0",
"-@	c #918A7E",
";@	c #5D5C4F",
">@	c #414235",
",@	c #32322A",
"'@	c #252622",
")@	c #1A1E18",
"!@	c #1A1E17",
"~@	c #1B1E18",
"{@	c #1A1D18",
"]@	c #1A1D17",
"^@	c #2F3126",
"/@	c #383A2B",
"(@	c #424436",
"_@	c #4F5044",
":@	c #66675C",
"<@	c #9FA194",
"[@	c #DDDED9",
"}@	c #EAEAE5",
"|@	c #EAEAE4",
"1@	c #D5D2CC",
"2@	c #8B8378",
"3@	c #605E51",
"4@	c #4A4A3D",
"5@	c #35362B",
"6@	c #1D1E1C",
"7@	c #9FA09E",
"8@	c #9D9E9D",
"9@	c #90908F",
"0@	c #9E9E9D",
"a@	c #212320",
"b@	c #919190",
"c@	c #919291",
"d@	c #20221F",
"e@	c #252625",
"f@	c #9D9D9D",
"g@	c #8F908F",
"h@	c #282822",
"i@	c #2D2E25",
"j@	c #35362A",
"k@	c #3D3F30",
"l@	c #484939",
"m@	c #525344",
"n@	c #6E6F62",
"o@	c #B4B5AB",
"p@	c #E5E6E1",
"q@	c #EBEAE6",
"r@	c #D8D6CA",
"s@	c #ABA598",
"t@	c #726E60",
"u@	c #5C5C4D",
"v@	c #515245",
"w@	c #444337",
"x@	c #31312A",
"y@	c #1D1D1B",
"z@	c #1E1E1B",
"A@	c #262624",
"B@	c #272725",
"C@	c #252623",
"D@	c #252523",
"E@	c #272826",
"F@	c #292927",
"G@	c #262725",
"H@	c #252621",
"I@	c #292B24",
"J@	c #2E2F25",
"K@	c #333427",
"L@	c #3A3C2D",
"M@	c #414333",
"N@	c #494B3B",
"O@	c #565649",
"P@	c #858478",
"Q@	c #B3B4AA",
"R@	c #999989",
"S@	c #7F7B6B",
"T@	c #676455",
"U@	c #585648",
"V@	c #555648",
"W@	c #57584B",
"X@	c #37372E",
"Y@	c #2A2A27",
"Z@	c #1E1F1D",
"`@	c #232322",
"  . + @ # $ % & * = - ; > , ' ) ! ~ . { ] ^ / ( ( _ : : : : < [ : : : : } _ : : : | 1 } [ : : : ",
"2 3 4 5 6 7 8 9 0 a b c d e f g h 4 i j k l m n o n n n n n p n n n n n n n n n n n n n n n n n ",
"q r s t u v w x y z A B C D E F G H I J K 3 L 2 M N O N P O 2 O O N L O 2 N O N P O O 2 O O N L ",
"Q R S T U V W X Y Y Y Z `  ...+.@.#.$.%.&.*.=.-.;.>.,.>.,.,.'.,.,.>.).,.,.>.,.>.,.,.,.'.,.,.>.).",
"!.~.{.].^./.Y Y Y Y Y Y (._.:.<.[.}.|.1.2.3.L 4.5.6.7.8.7.7.5.6.7.6.8.7.5.6.7.8.7.7.8.7.6.7.6.8.",
"9.0.a.b._.Y Y Y Y Y Y Y Y Y Y c.d.e.f.g.h.i.j.k.l.m.n.o.p.o.n.q.p.q.r.p.n.m.p.n.n.p.l p.m n.m s.",
"t.u.v.w.Y Y Y Y Y Y Y Y Y Y Y Y x.y.z.A.B.C.D.E.F.G.G.C.C.C.H.G.C.G.H.C.H.G.C.G.H.C.G.C.I.G.I.C.",
"J.K.L._.Y Y Y Y Y Y Y Y Y Y Y Y Y M.N.O.P.C.Q.R.S.T.T.U.C.U.V.T.C.W.X.C.V.T.C.Y.Y.C.T.Z.`. +`.Z.",
".+++Y Y Y Y Y Y Y Y Y Y Y Y Y Y @+#+$+%+&+C.Q.*+=+-+-+-+C.=+-+-+C.C.I.C.! -+C.-+-+C.=+I.C.I.C.I.",
";+>+Y Y Y Y Y Y Y Y Y Y Y Y Y Y Y ,+'+)+!+C.~+{+]+^+]+/+C.]+(+/+C.Z.Z.C.(+^+C./+]+C.]+_+:+<+:+[+",
"}+|+Y Y Y Y Y Y Y Y Y Y Y Y Y Y Y w.1+2+3+C.4+5+6+7+8+7+C.8+8+7+C.I.C.C.9+7+C.7+7+C.7+9+I.C.I.7+",
"0+a+Y Y Y Y Y Y Y Y Y Y Y Y Y Y Y Z b+c+d+C.e+f+g+  h+  C.h+i+  C.j+k+C.h+  C.  h+C.  h+l+C.l+h+",
"m+n+Y Y Y Y Y Y Y Y Y Y Y Y Y Y _.o+p+q+r+C.s+} t+i+i+i+C.t+i+i+C.i+i+C.i+i+C.i+i+C.i+i+I.C.I.i+",
"u+v+Y Y Y Y Y Y Y /.Y w+Y Y Y Y Y x+y+z+A+C.B+C+D+E+F+F+C.F+F+E+C.F+F+C.F+E+C.F+F+C.E+G+:+<+:+G+",
"H+I+/.Y Y Y Y Y Y Y Y J+Y Y Y Y @+K+L+M+N+C.O+t+P+Q+R+R+C.R+R+Q+C.P+R+C.R+Q+C.R+R+C.Q+I.C.I.C.I.",
"S+T+U+V+Y Y Y Y Y Y Y W+J+(.Y Y X+Y+Z+`+ @C..@+@+@@@@@#@C.+@$@@@C.@@$@C.Q+@@<+#@#@<+@@Z.`.^+`.Z.",
"%@9.&@*@W ,+Y Y Y (.o+Y (._.Y =@-@;@>@,@'@C.C.C.C.)@!@C.C.C.!@~@C.{@]@C.]@)@I.C.C.I.~@C.I.!@I.C.",
"^@/@(@_@:@<@[@Y Y }@|@|@c.@+1@2@3@4@5@, 6@k++@#@7@(+^+8@9@0@a@(+b@(+9+c@d@(+e@8@f@e@(+b@_+^+_+g@",
"h@i@j@k@l@m@n@o@p@L.|@q@r@s@t@u@v@w@x@F.y@z@O+d@Y.A@B@C@D@E@F.F.B@A@-+F@C@A@B@C@D@B@G@G@F.B@A@-+",
"H@I@J@K@L@M@N@O@P@Q@R@S@T@U@V@W@M+X@Y@/+h+Z@(+C@-+`@s+! `@s+D@`@s+`@^+D@-+`@s+! `@s+`@s+`@s+`@^+"};
