/* XPM */
static char * linux_xpm[] = {
"48 20 471 2",
"  	c #5E534C",
". 	c #5F554C",
"+ 	c #5E564C",
"@ 	c #5F574C",
"# 	c #5E554B",
"$ 	c #5D5449",
"% 	c #5C5349",
"& 	c #5A5048",
"* 	c #554D46",
"= 	c #534D47",
"- 	c #504843",
"; 	c #4D4540",
"> 	c #494440",
", 	c #45413E",
"' 	c #403F39",
") 	c #3C3B35",
"! 	c #3A3833",
"~ 	c #393732",
"{ 	c #373631",
"] 	c #34322F",
"^ 	c #31312D",
"/ 	c #30302D",
"( 	c #2F302A",
"_ 	c #2E2F29",
": 	c #2C2D29",
"< 	c #2B2C27",
"[ 	c #2A2B26",
"} 	c #2A2B25",
"| 	c #292A26",
"1 	c #292927",
"2 	c #282A27",
"3 	c #272926",
"4 	c #272925",
"5 	c #272725",
"6 	c #272825",
"7 	c #262925",
"8 	c #272924",
"9 	c #6C6754",
"0 	c #6C6756",
"a 	c #6E695A",
"b 	c #6F6A5A",
"c 	c #706A5A",
"d 	c #6E6958",
"e 	c #6D6757",
"f 	c #6B6454",
"g 	c #696251",
"h 	c #665F50",
"i 	c #635C4D",
"j 	c #5E574C",
"k 	c #5A544A",
"l 	c #545046",
"m 	c #514E44",
"n 	c #4D4B3F",
"o 	c #49473C",
"p 	c #464237",
"q 	c #433F37",
"r 	c #413C37",
"s 	c #3E3B36",
"t 	c #3B3833",
"u 	c #383732",
"v 	c #35352F",
"w 	c #33342D",
"x 	c #32342E",
"y 	c #31332D",
"z 	c #30312B",
"A 	c #2E2F2A",
"B 	c #2D2D2A",
"C 	c #2C2C2A",
"D 	c #2C2C2C",
"E 	c #2A2C27",
"F 	c #2A2D28",
"G 	c #2A2C28",
"H 	c #2A2C29",
"I 	c #292C28",
"J 	c #2C2D28",
"K 	c #807E6F",
"L 	c #838170",
"M 	c #868470",
"N 	c #858470",
"O 	c #84836F",
"P 	c #807F6A",
"Q 	c #7D7D65",
"R 	c #7B7A64",
"S 	c #797662",
"T 	c #767160",
"U 	c #716B5B",
"V 	c #6D6856",
"W 	c #696453",
"X 	c #625E50",
"Y 	c #5E594E",
"Z 	c #59564A",
"` 	c #555246",
" .	c #514D43",
"..	c #4D4941",
"+.	c #484440",
"@.	c #44413C",
"#.	c #403E38",
"$.	c #3C3B36",
"%.	c #393936",
"&.	c #373735",
"*.	c #363734",
"=.	c #333531",
"-.	c #333530",
";.	c #31332E",
">.	c #2F302C",
",.	c #2F2F2C",
"'.	c #2E2E2B",
").	c #2D2F2B",
"!.	c #2D2E2B",
"~.	c #2C2D2C",
"{.	c #2C2D2A",
"].	c #2C2E29",
"^.	c #2D312B",
"/.	c #CFCEBB",
"(.	c #CFCFBE",
"_.	c #D0CFC2",
":.	c #CFCEC3",
"<.	c #CFCEC1",
"[.	c #CDCCBE",
"}.	c #C4C4B3",
"|.	c #B2B19F",
"1.	c #9C9A87",
"2.	c #93917E",
"3.	c #878571",
"4.	c #807E6C",
"5.	c #797564",
"6.	c #726D5E",
"7.	c #6C6759",
"8.	c #656252",
"9.	c #5E5B4E",
"0.	c #57554A",
"a.	c #524F46",
"b.	c #4E4943",
"c.	c #494641",
"d.	c #43413D",
"e.	c #3F3E3B",
"f.	c #3D3C39",
"g.	c #3A3A37",
"h.	c #373935",
"i.	c #353733",
"j.	c #333631",
"k.	c #313530",
"l.	c #30332E",
"m.	c #313230",
"n.	c #31322D",
"o.	c #2F302B",
"p.	c #2D2D2B",
"q.	c #2E2E2D",
"r.	c #30312C",
"s.	c #2F312C",
"t.	c #EAEAE8",
"u.	c #EAEAEA",
"v.	c #EBEBEB",
"w.	c #EBEAEA",
"x.	c #EBEBE8",
"y.	c #EBEAE7",
"z.	c #EAE8E4",
"A.	c #E8E6DE",
"B.	c #D2D1C5",
"C.	c #B4B3A4",
"D.	c #9B9A89",
"E.	c #8F8F7C",
"F.	c #848671",
"G.	c #797B68",
"H.	c #72705C",
"I.	c #696955",
"J.	c #61604E",
"K.	c #5D584B",
"L.	c #555146",
"M.	c #4F4C44",
"N.	c #484641",
"O.	c #42423C",
"P.	c #3F403A",
"Q.	c #3B3C37",
"R.	c #383A35",
"S.	c #363935",
"T.	c #353734",
"U.	c #323533",
"V.	c #313431",
"W.	c #32332F",
"X.	c #32332E",
"Y.	c #2F2F2D",
"Z.	c #31312E",
"`.	c #31302E",
" +	c #E9E9E9",
".+	c #EAE9E9",
"++	c #ECEBE8",
"@+	c #EDEBE5",
"#+	c #E0DCD1",
"$+	c #BDBAA9",
"%+	c #9F9C89",
"&+	c #8F8C79",
"*+	c #818371",
"=+	c #757965",
"-+	c #6C6E5A",
";+	c #656551",
">+	c #5D5E4D",
",+	c #535448",
"'+	c #4B4D42",
")+	c #45483C",
"!+	c #414339",
"~+	c #3E4038",
"{+	c #3A3C36",
"]+	c #393A35",
"^+	c #363632",
"/+	c #343531",
"(+	c #333432",
"_+	c #32332D",
":+	c #2E2E2F",
"<+	c #2F2F2E",
"[+	c #30302C",
"}+	c #E9E9E8",
"|+	c #EAE9E8",
"1+	c #E9EBE8",
"2+	c #ECEBE5",
"3+	c #D9D5CB",
"4+	c #B0A99C",
"5+	c #949384",
"6+	c #8B8A7D",
"7+	c #7B7D6B",
"8+	c #6E725B",
"9+	c #646652",
"0+	c #5B5D4D",
"a+	c #535449",
"b+	c #4B4C44",
"c+	c #44453E",
"d+	c #414239",
"e+	c #3C3E33",
"f+	c #393A31",
"g+	c #373830",
"h+	c #353630",
"i+	c #33342E",
"j+	c #2D2E29",
"k+	c #2F2F2F",
"l+	c #2F2F30",
"m+	c #302F30",
"n+	c #E9E9E7",
"o+	c #E8EAE9",
"p+	c #E8EAEB",
"q+	c #E9E9EB",
"r+	c #EBEBE9",
"s+	c #E7E7E0",
"t+	c #C2BCB1",
"u+	c #9D978A",
"v+	c #8F8D7E",
"w+	c #7D8070",
"x+	c #6F7360",
"y+	c #646754",
"z+	c #595A4D",
"A+	c #525148",
"B+	c #494A42",
"C+	c #43433A",
"D+	c #3F3F35",
"E+	c #3A3B32",
"F+	c #373831",
"G+	c #34352F",
"H+	c #333330",
"I+	c #30312D",
"J+	c #2F302D",
"K+	c #2E2E2C",
"L+	c #2D2E2A",
"M+	c #2E2E2E",
"N+	c #E9E9EA",
"O+	c #E9EAE8",
"P+	c #D7D4C7",
"Q+	c #9D9687",
"R+	c #8F8E7D",
"S+	c #6F705F",
"T+	c #626352",
"U+	c #565848",
"V+	c #4E4E42",
"W+	c #46463C",
"X+	c #42423A",
"Y+	c #3C3C35",
"Z+	c #363731",
"`+	c #33342F",
" @	c #30322D",
".@	c #2E2F2B",
"+@	c #2C2E2A",
"@@	c #2B2C28",
"#@	c #2B2C29",
"$@	c #2C2C29",
"%@	c #2C2E28",
"&@	c #E8EAE8",
"*@	c #ECEBE6",
"=@	c #DAD2C8",
"-@	c #9C9684",
";@	c #8D8C77",
">@	c #787B68",
",@	c #696E59",
"'@	c #5C5F4B",
")@	c #525342",
"!@	c #4B4B3E",
"~@	c #44443B",
"{@	c #3E3E38",
"]@	c #353631",
"^@	c #2D2F2C",
"/@	c #2C2F29",
"(@	c #2B2E28",
"_@	c #2A2A28",
":@	c #2B2D28",
"<@	c #EAE9ED",
"[@	c #EDEAE7",
"}@	c #D2CABE",
"|@	c #978E7E",
"1@	c #898677",
"2@	c #747565",
"3@	c #666855",
"4@	c #5A5B48",
"5@	c #505141",
"6@	c #47473D",
"7@	c #3F3F38",
"8@	c #3A3B35",
"9@	c #31342C",
"0@	c #2E312A",
"a@	c #2A2D27",
"b@	c #292C26",
"c@	c #282B25",
"d@	c #292B27",
"e@	c #292B28",
"f@	c #292D29",
"g@	c #EAE9EB",
"h@	c #E7EAE8",
"i@	c #EDEAE5",
"j@	c #C1B9B0",
"k@	c #8E8979",
"l@	c #807F6F",
"m@	c #6E6F61",
"n@	c #616252",
"o@	c #545447",
"p@	c #4A4A3F",
"q@	c #41413B",
"r@	c #3C3C38",
"s@	c #373833",
"t@	c #35362F",
"u@	c #30322C",
"v@	c #2E302A",
"w@	c #292B26",
"x@	c #282A25",
"y@	c #262926",
"z@	c #262A28",
"A@	c #EAEAE9",
"B@	c #ECE9E1",
"C@	c #A8A391",
"D@	c #8A8576",
"E@	c #777870",
"F@	c #66685D",
"G@	c #585A4D",
"H@	c #4C4E41",
"I@	c #3F3E39",
"J@	c #393836",
"K@	c #343431",
"L@	c #31332F",
"M@	c #2F312D",
"N@	c #2D2F2A",
"O@	c #2B2E27",
"P@	c #262825",
"Q@	c #252825",
"R@	c #242825",
"S@	c #252927",
"T@	c #D9D6CD",
"U@	c #90887D",
"V@	c #858175",
"W@	c #6D6E62",
"X@	c #5D6051",
"Y@	c #525446",
"Z@	c #46473B",
"`@	c #404037",
" #	c #383833",
".#	c #2B2D27",
"+#	c #292A24",
"@#	c #272823",
"##	c #262624",
"$#	c #282824",
"%#	c #E9EAEA",
"&#	c #ECECE9",
"*#	c #B1A89F",
"=#	c #8A8074",
"-#	c #78746A",
";#	c #63655A",
">#	c #56584D",
",#	c #4B4C41",
"'#	c #42433A",
")#	c #353731",
"!#	c #30322B",
"~#	c #2B2C26",
"{#	c #282924",
"]#	c #252523",
"^#	c #252624",
"/#	c #242727",
"(#	c #252826",
"_#	c #242723",
":#	c #EAEBE6",
"<#	c #DDD5CC",
"[#	c #8E8376",
"}#	c #817B6E",
"|#	c #696B60",
"1#	c #5A5E51",
"2#	c #4E5042",
"3#	c #434539",
"4#	c #3D3F36",
"5#	c #35372F",
"6#	c #30332A",
"7#	c #2C2F27",
"8#	c #2A2D26",
"9#	c #282A24",
"0#	c #252722",
"a#	c #262823",
"b#	c #242623",
"c#	c #232522",
"d#	c #242624",
"e#	c #232721",
"f#	c #EBEAE8",
"g#	c #E9E5DF",
"h#	c #9F978B",
"i#	c #867F6F",
"j#	c #6F6F64",
"k#	c #5E5F54",
"l#	c #535347",
"m#	c #3F3E37",
"n#	c #393833",
"o#	c #272A23",
"p#	c #252923",
"q#	c #242622",
"r#	c #242522",
"s#	c #242422",
"t#	c #E9EBE9",
"u#	c #EEEEE9",
"v#	c #B2ACA2",
"w#	c #8A8274",
"x#	c #767469",
"y#	c #646458",
"z#	c #555549",
"A#	c #494A3E",
"B#	c #404138",
"C#	c #393932",
"D#	c #262921",
"E#	c #242720",
"F#	c #252620",
"G#	c #23241F",
"H#	c #222220",
"I#	c #232321",
"J#	c #EBECE8",
"K#	c #D0CBC4",
"L#	c #898075",
"M#	c #7E796D",
"N#	c #67665A",
"O#	c #57584B",
"P#	c #494B3D",
"Q#	c #3F4135",
"R#	c #393B31",
"S#	c #262922",
"T#	c #252621",
"U#	c #242421",
"V#	c #E9E3DD",
"W#	c #8D8478",
"X#	c #837C6F",
"Y#	c #6A6A5C",
"Z#	c #585A4C",
"`#	c #4B4C3E",
" $	c #424336",
".$	c #3A3C2F",
"+$	c #34352D",
"@$	c #2D2E28",
"#$	c #2A2C26",
"$$	c #272923",
"%$	c #242520",
"&$	c #252522",
"*$	c #232221",
"=$	c #21221F",
"-$	c #222321",
"  . + @ # # $ % & * = - ; > , ' ) ! ~ { ] ^ / ( _ : : < [ } | 1 2 2 3 4 5 6 7 8 [ [ [ [ [ [ [ [ ",
"9 0 a b c d e f g h i j k l m n o p q r s t u v w x y z ( ( A B C D E F G H I E J J J J J J J J ",
"K L M N O P Q R S T U V W X Y Z `  ...+.@.#.$.%.&.*.=.-.;.;.>.,.,.'.).!.~.~.{.].^.^.^.^.^.^.^.^.",
"/.(._.:.<.[.}.|.1.2.3.4.5.6.7.8.9.0.a.b.c.d.e.f.g.h.i.j.k.l.m.n.n.z o.>.p.q.,.r.s.s.s.s.s.s.s.s.",
"t.u.v.w.w.x.y.z.A.B.C.D.E.F.G.H.I.J.K.L.M.N.O.P.Q.R.S.T.U.V.W.X.n.z ( o.A '.Y.Z.`.`.`.`.`.`.`.`.",
" + + + + + + + +.+++@+#+$+%+&+*+=+-+;+>+,+'+)+!+~+{+]+^+/+(+W.n.X._+z n.A Y.:+<+[+[+[+[+[+[+[+[+",
" + + + + + + +}+|+.+.+1+2+3+4+5+6+7+8+9+0+a+b+c+d+e+f+g+h+i+X.n.r.n.z r.j+<+k+l+m+m+m+m+m+m+m+m+",
" + + + + + + +|+n+}+o+p+q+r+s+t+u+v+w+x+y+z+A+B+C+D+E+F+h+G+H+Z.I+J+( j+A K+L+p.M+M+M+M+M+M+M+M+",
" + + + + + + + + + + + +N+ +O+2+P+Q+R+w+S+T+U+V+W+X+Y+F+Z+`+ @s..@)..@+@@@#@$@J %@%@%@%@%@%@%@%@",
" + + + + + + + + + + + + + + +&@*@=@-@;@>@,@'@)@!@~@{@]+]@H+r.s.^@^@/@(@E E _@< :@:@:@:@:@:@:@:@",
" + + + + + + + + + + + + + + +p+<@[@}@|@1@2@3@4@5@6@7@8@Z+i+9@0@/@].a@b@b@c@d@e@f@f@f@f@f@f@f@f@",
" + + + + + + + + + + + + + + +.+g@h@i@j@k@l@m@n@o@p@q@r@s@t@u@v@].G G w@4 4 x@y@z@z@z@z@z@z@z@z@",
" + + + + + + + + + + + + + + + + +u.A@B@C@D@E@F@G@H@~@I@J@K@L@M@N@O@w@x@P@Q@R@R@S@S@S@S@S@S@S@S@",
" + + + + + + + + + + + + + + + + + + +t.T@U@V@W@X@Y@Z@`@ #G+u@A .#} +#@#5 ####5 $#$#$#$#$#$#$#$#",
" + + + + + + + + + + + + + + + + + +N+%#&#*#=#-#;#>#,#'#{+)#!#( ~#[ {#@#]#^#/#(#_#_#_#_#_#_#_#_#",
" + + + + + + + + + + + + + + + + + + +.+:#<#[#}#|#1#2#3#4#5#6#7#8#9#0#a#b#c#d#_#e#e#e#e#e#e#e#e#",
" + + + + + + + + + + + + + + + + + + + +f#g#h#i#j#k#l#W+m#n#_+( 8#o#p#a#q#r#s#]#]#]#]#]#]#]#]#]#",
" + + + + + + + + + + + + + + + + + + +o+t#u#v#w#x#y#z#A#B#C#X.j+:@x@D#E#F#G#H#s#I#I#I#I#I#I#I#I#",
" + + + + + + + + + + + + + + + + + + +%#t#J#K#L#M#N#O#P#Q#R#i+A :@8 S#T#T#U#I#s#I#I#I#I#I#I#I#I#",
" + + + + + + + + + + + + + + + + + + +}+ +|+V#W#X#Y#Z#`# $.$+$@$#$$$F#%$&$*$=$I#-$-$-$-$-$-$-$-$"};
