/* XPM */
static char * windows_xpm[] = {
"20 20 4 1",
" 	c #000000",
".	c #CCCCCC",
"+	c #666666",
"@	c #222222",
"                    ",
"                    ",
"                    ",
"  ..........        ",
"  ..........+       ",
"  .@@@@@@@@.+       ",
"  .@@..........     ",
"  .@@..........+    ",
"  .@@.@@@@@@@@.+    ",
"  .@@.@@..........  ",
"  .@@.@@..........+ ",
"  ....@@.@@@@@@@@.+ ",
"   ++.@@.@@@@@@@@.+ ",
"     .@@.@@@@@@@@.+ ",
"     ....@@@@@@@@.+ ",
"      ++.@@@@@@@@.+ ",
"        .@@@@@@@@.+ ",
"        ..........+ ",
"         ++++++++++ ",
"                    "};
