/* XPM */
static char * closeI_xpm[] = {
"22 44 64 1",
" 	c None",
".	c #787878",
"+	c #979797",
"@	c #737373",
"#	c #3C3C3C",
"$	c #111111",
"%	c #010101",
"&	c #020202",
"*	c #080808",
"=	c #0A0A0A",
"-	c #0C0C0C",
";	c #101010",
">	c #131313",
",	c #121212",
"'	c #0D0D0D",
")	c #070707",
"!	c #000000",
"~	c #050505",
"{	c #090909",
"]	c #77868F",
"^	c #545E64",
"/	c #0E0F0F",
"(	c #0F0F0F",
"_	c #41494E",
":	c #798892",
"<	c #535D63",
"[	c #0C0C0D",
"}	c #161616",
"|	c #3C4247",
"1	c #535D64",
"2	c #1A1A1A",
"3	c #0E0E0E",
"4	c #3F464B",
"5	c #0B0B0B",
"6	c #1D1D1D",
"7	c #101111",
"8	c #111213",
"9	c #586269",
"0	c #3B4146",
"a	c #212121",
"b	c #5D6870",
"c	c #3A4045",
"d	c #272727",
"e	c #647078",
"f	c #323232",
"g	c #242424",
"h	c #171717",
"i	c #393939",
"j	c #3D3D3D",
"k	c #1E1E1E",
"l	c #514E51",
"m	c #2A2A2A",
"n	c #1C1C1C",
"o	c #4A4A4A",
"p	c #2C2C2C",
"q	c #707070",
"r	c #928F8F",
"s	c #A0A0A0",
"t	c #AAAAAA",
"u	c #B1B1B1",
"v	c #AEAEAE",
"w	c #A4A7A7",
"x	c #858885",
"y	c #4A4D4A",
"......................",
"++++++++++++++++++++++",
"@@@@@@@@@@@@@@@@@@@@@@",
"######################",
"$$$$$$$$$$$$$$$$$$$$$$",
"%%&*=-;>>,,,,>>$'=)&%%",
"!!~{==============*~!!",
"!!*====]^/==/^]===*(!!",
"!!(-===_:<[[<:_====}!!",
"!!>'====|:11:|=====2!!",
"!!>3=====4::4=====56!!",
"!!>3====7^::^7====56!!",
"!!}3===89:00:98===5a!!",
"!!2(===b:c==c:b===-d!!",
"!!a,===e4====4e==='f!!",
"!!gh==============hi!!",
"!!,f,============5j2!!",
"!!!klm$-5555555-nop!!!",
"!!!!iqrstuuuuuvwxy!!!!",
"!!!!!!!!!!!!!!!!!!!!!!",
"!!!!!!!!!!!!!!!!!!!!!!",
"!!!!!!!!!!!!!!!!!!!!!!",
"......................",
"++++++++++++++++++++++",
"@@@@@@@@@@@@@@@@@@@@@@",
"######################",
"$$$$$$$$$$$$$$$$$$$$$$",
"%%%%%%%%%%%%%%%%%%%%%%",
"!!!!!!!!!!!!!!!!!!!!!!",
"!!!!!!!!!!!!!!!!!!!!!!",
"!!!!!!!!!!!!!!!!!!!!!!",
"!!!!!!!!!!!!!!!!!!!!!!",
"!!!!!!!!!!!!!!!!!!!!!!",
"!!!!!!!!!!!!!!!!!!!!!!",
"!!!!!!!!!!!!!!!!!!!!!!",
"!!!!!!!!!!!!!!!!!!!!!!",
"!!!!!!!!!!!!!!!!!!!!!!",
"!!!!!!!!!!!!!!!!!!!!!!",
"!!!!!!!!!!!!!!!!!!!!!!",
"!!!!!!!!!!!!!!!!!!!!!!",
"!!!!!!!!!!!!!!!!!!!!!!",
"!!!!!!!!!!!!!!!!!!!!!!",
"!!!!!!!!!!!!!!!!!!!!!!",
"!!!!!!!!!!!!!!!!!!!!!!"};
