/* XPM */
static char * closeO_xpm[] = {
"22 44 78 1",
" 	c None",
".	c #B0B0B0",
"+	c #D5D5D5",
"@	c #A2A2A2",
"#	c #A1A1A1",
"$	c #545454",
"%	c #171717",
"&	c #000000",
"*	c #020202",
"=	c #010101",
"-	c #050505",
";	c #151515",
">	c #282828",
",	c #2A2A2A",
"'	c #1A1A1A",
")	c #070707",
"!	c #080808",
"~	c #CC5555",
"{	c #D26868",
"]	c #0E0404",
"^	c #0F0F0F",
"/	c #040404",
"(	c #B53737",
"_	c #D16565",
":	c #080202",
"<	c #161616",
"[	c #131313",
"}	c #A33131",
"|	c #D16767",
"1	c #AC3434",
"2	c #030303",
"3	c #1D1D1D",
"4	c #140606",
"5	c #060606",
"6	c #190707",
"7	c #D67676",
"8	c #A03030",
"9	c #212121",
"0	c #DB8787",
"a	c #9D2F2F",
"b	c #272727",
"c	c #090909",
"d	c #323232",
"e	c #242424",
"f	c #101010",
"g	c #393939",
"h	c #121212",
"i	c #2F2F2F",
"j	c #0B0B0B",
"k	c #3B3B3B",
"l	c #1E1E1E",
"m	c #504D50",
"n	c #252525",
"o	c #494949",
"p	c #2C2C2C",
"q	c #707070",
"r	c #928F8F",
"s	c #A0A0A0",
"t	c #AAAAAA",
"u	c #B1B1B1",
"v	c #AEAEAE",
"w	c #A4A7A7",
"x	c #858885",
"y	c #4A4D4A",
"z	c #E5E7E9",
"A	c #9B9C9E",
"B	c #757677",
"C	c #EAECEE",
"D	c #999B9C",
"E	c #696A6A",
"F	c #9A9B9D",
"G	c #6F7071",
"H	c #0D0D0D",
"I	c #A4A6A7",
"J	c #676869",
"K	c #AFB1B2",
"L	c #656667",
"M	c #BDBFC0",
"......................",
"++++++++++++++++++++++",
"@#####################",
"$$$$$$$$$$$$$$$$$$$$$$",
"%%%%%%%%%%%%%%%%%%%%%%",
"&&&&&&&&&&&&&&&&&&&&&&",
"&&&*&=-;>,>>>>,,')*&*&",
"&&&-=&&&&&&&&&&&=&&&-&",
"&&&!*&&&~{]&&]{~&&&&^&",
"&&&^/&&&(~_::_~(&&&*<&",
"&&&[-&&&&}~||~}&&&&*'&",
"&&&[-&&&&&1~~1&&&&&23&",
"&&&[-&&&&4{~~{4&&&&23&",
"&&&<5&&&67~88~76&&&29&",
"&&&')&&&0~a&&a~0&&&/b&",
"&&&9c&&&~1&&&&1~&&&-d&",
"&&&ef&&&&&&&&&&&&&&fg&",
"&&&hij&&&&&&&&&&&&/k'&",
"&&&&lmn!2*======2;op&&",
"&&&&&gqrstuuuuuvwxy&&&",
"&&&&&&&&&&&&&&&&&&&&&&",
"&&&&&&&&&&&&&&&&&&&&&&",
"......................",
"++++++++++++++++++++++",
"@#####################",
"$$$$$$$$$$$$$$$$$$$$$$",
"%%%%%%%%%%%%%%%%%%%%%%",
"&&&&&&&&&&&&&&&&&&&&&&",
"&&&*&=-;>,>>>>,,')*&*&",
"&&&-=&&&&&&&&&&&=&&&-&",
"&&&!*&&&zAc&&cAz&&&&^&",
"&&&^/&&&BCD--DCB&&&*<&",
"&&&[-&&&&ECFFCE&&&&*'&",
"&&&[-&&&&&GCCG&&&&&23&",
"&&&[-&&&&HACCAH&&&&23&",
"&&&<5&&&fICJJCIf&&&29&",
"&&&')&&&KCL&&LCK&&&/b&",
"&&&9c&&&MG&&&&GM&&&-d&",
"&&&ef&&&&&&&&&&&&&&fg&",
"&&&hij&&&&&&&&&&&&/k'&",
"&&&&lmn!2*======2;op&&",
"&&&&&gqrstuuuuuvwxy&&&",
"&&&&&&&&&&&&&&&&&&&&&&",
"&&&&&&&&&&&&&&&&&&&&&&"};
