/* XPM */
static char * closeA_xpm[] = {
"22 44 65 1",
" 	c None",
".	c #B0B0B0",
"+	c #D5D5D5",
"@	c #A2A2A2",
"#	c #A1A1A1",
"$	c #545454",
"%	c #171717",
"&	c #000000",
"*	c #020202",
"=	c #010101",
"-	c #050505",
";	c #151515",
">	c #282828",
",	c #2A2A2A",
"'	c #1A1A1A",
")	c #070707",
"!	c #080808",
"~	c #E5E7E9",
"{	c #9B9C9E",
"]	c #090909",
"^	c #0F0F0F",
"/	c #040404",
"(	c #757677",
"_	c #EAECEE",
":	c #999B9C",
"<	c #161616",
"[	c #131313",
"}	c #696A6A",
"|	c #9A9B9D",
"1	c #6F7071",
"2	c #030303",
"3	c #1D1D1D",
"4	c #0D0D0D",
"5	c #060606",
"6	c #101010",
"7	c #A4A6A7",
"8	c #676869",
"9	c #212121",
"0	c #AFB1B2",
"a	c #656667",
"b	c #272727",
"c	c #BDBFC0",
"d	c #323232",
"e	c #242424",
"f	c #393939",
"g	c #2F2F2F",
"h	c #0B0B0B",
"i	c #3B3B3B",
"j	c #1F1F1F",
"k	c #252525",
"l	c #504D50",
"m	c #494949",
"n	c #363636",
"o	c #707070",
"p	c #928F8F",
"q	c #A0A0A0",
"r	c #AAAAAA",
"s	c #B1B1B1",
"t	c #AEAEAE",
"u	c #A4A7A7",
"v	c #858885",
"w	c #4A4D4A",
"x	c #121212",
"y	c #1E1E1E",
"z	c #2C2C2C",
"......................",
"++++++++++++++++++++++",
"@#####################",
"$$$$$$$$$$$$$$$$$$$$$$",
"%%%%%%%%%%%%%%%%%%%%%%",
"&&*&=-;>,>>>>,,')*&*&&",
"&&-=&&&&&&&&&&&=&&&-&&",
"&&!*&&&~{]&&]{~&&&&^&&",
"&&^/&&&(_:--:_(&&&*<&&",
"&&[-&&&&}_||_}&&&&*'&&",
"&&[-&&&&&1__1&&&&&23&&",
"&&[-&&&&4{__{4&&&&23&&",
"&&<5&&&67_88_76&&&29&&",
"&&')&&&0_a&&a_0&&&/b&&",
"&&9]&&&c1&&&&1c&&&-d&&",
"&&e6&&&&&&&&&&&&&&6f&&",
"&&;gh&&&&&&&&&&&&/ij&&",
"&&&klk!2*======2;mn&&&",
"&&&&fopqrssssstuvw&&&&",
"&&&&&&&&&&&&&&&&&&&&&&",
"&&&&&&&&&&&&&&&&&&&&&&",
"&&&&&&&&&&&&&&&&&&&&&&",
"......................",
"++++++++++++++++++++++",
"@#####################",
"$$$$$$$$$$$$$$$$$$$$$$",
"%%%%%%%%%%%%%%%%%%%%%%",
"&&&&&&&&&&&&&&&&&&&&&&",
"&&*&=-;>,>>>>,,')*&*&&",
"&&-=&&&&&&&&&&&=&&&-&&",
"&&!*&&&~{]&&]{~&&&&^&&",
"&&^/&&&(_:--:_(&&&*<&&",
"&&[-&&&&}_||_}&&&&*'&&",
"&&[-&&&&&1__1&&&&&23&&",
"&&[-&&&&4{__{4&&&&23&&",
"&&<5&&&67_88_76&&&29&&",
"&&')&&&0_a&&a_0&&&/b&&",
"&&9]&&&c1&&&&1c&&&-d&&",
"&&e6&&&&&&&&&&&&&&6f&&",
"&&xgh&&&&&&&&&&&&/i'&&",
"&&&ylk!2*======2;mz&&&",
"&&&&fopqrssssstuvw&&&&",
"&&&&&&&&&&&&&&&&&&&&&&",
"&&&&&&&&&&&&&&&&&&&&&&"};
