/* XPM */
static char * frameIBL_xpm[] = {
"22 22 43 1",
" 	c None",
".	c #040404",
"+	c #000000",
"@	c #030303",
"#	c #080808",
"$	c #0D0D0D",
"%	c #131313",
"&	c #121212",
"*	c #111111",
"=	c #060606",
"-	c #050505",
";	c #010101",
">	c #020202",
",	c #070707",
"'	c #090909",
")	c #0B0B0B",
"!	c #0C0C0C",
"~	c #0E0E0E",
"{	c #0F0F0F",
"]	c #101010",
"^	c #151515",
"/	c #161616",
"(	c #171717",
"_	c #181818",
":	c #141414",
"<	c #191919",
"[	c #1A1919",
"}	c #1D1D1D",
"|	c #0B0A0A",
"1	c #262625",
"2	c #2C2C2C",
"3	c #303030",
"4	c #343434",
"5	c #353536",
"6	c #363636",
"7	c #111211",
"8	c #1F2020",
"9	c #272626",
"0	c #2A2A2A",
"a	c #2B2B2C",
"b	c #2E2E2E",
"c	c #313131",
"d	c #323232",
"..+@@#$%%&************",
"=-+;+;;@>+;;;;;;;;;;;;",
",,++++++++++++++++++++",
"''++++++++++++++++++++",
"))++++++++++++++++++++",
")!++++++++++++++++++++",
"$$++++++++++++++++++++",
"~~++++++++++++++++++++",
"~~++++++++++++++++++++",
"~~++++++++++++++++++++",
"{{++++++++++++++++++++",
"]]++++++++++++++++++++",
"**++++++++++++++++++++",
"%%++++++++++++++++++++",
"^/++++++++++++++++++++",
"((++++++++++++++++++++",
"_(>+++++++++++++++++++",
"&($+++++++++++++++++++",
"::<'>+++++++++++++++++",
" )[}%|,###############",
" ~~}123456666666666666",
"  77<890abcddddddddddd"};
