/* XPM */
static char * frameIB_xpm[] = {
"22 2 3 1",
" 	c None",
".	c #303030",
"+	c #505050",
"......................",
"++++++++++++++++++++++"};
