/* XPM */
static char * frameIL_xpm[] = {
"2 22 3 1",
" 	c None",
"-	c #505050",
".	c #303030",
"-.",
"-.",
"-.",
"-.",
"-.",
"-.",
"-.",
"-.",
"-.",
"-.",
"-.",
"-.",
"-.",
"-.",
"-.",
"-.",
"-.",
"-.",
"-.",
"-.",
"-.",
"-."};
