/* XPM */
static char * frameATL_xpm[] = {
"22 22 48 1",
" 	c None",
".	c #787878",
"+	c #030303",
"@	c #020202",
"#	c #010101",
"$	c #000000",
"%	c #050505",
"&	c #191919",
"*	c #323232",
"=	c #4E4E4E",
"-	c #646464",
";	c #717171",
">	c #777777",
",	c #141414",
"'	c #222222",
")	c #414141",
"!	c #636363",
"~	c #808080",
"{	c #909090",
"]	c #969696",
"^	c #979797",
"/	c #0D0D0D",
"(	c #666666",
"_	c #757575",
":	c #747474",
"<	c #737373",
"[	c #040404",
"}	c #0C0C0C",
"|	c #1A1A1A",
"1	c #2A2A2A",
"2	c #393939",
"3	c #3D3D3D",
"4	c #3E3E3E",
"5	c #3C3C3C",
"6	c #080808",
"7	c #131313",
"8	c #121212",
"9	c #111111",
"0	c #060606",
"a	c #070707",
"b	c #090909",
"c	c #0B0B0B",
"d	c #0E0E0E",
"e	c #0F0F0F",
"f	c #101010",
"g	c #151515",
"h	c #161616",
"i	c #171717",
"    .+++++++++++++++++",
"  .@#$$$$$$$$$$$$$$$$$",
" .@%&*=-;>............",
" +@,')!~{]^^^^^^^^^^^^",
".@%/&*=(;_:<<<<<<<<<<<",
"+++[}|1234555555555555",
"[[$++6/778999999999999",
"0%$#$##+@$############",
"aa$$$$$$$$$$$$$$$$$$$$",
"bb$$$$$$$$$$$$$$$$$$$$",
"cc$$$$$$$$$$$$$$$$$$$$",
"c}$$$$$$$$$$$$$$$$$$$$",
"//$$$$$$$$$$$$$$$$$$$$",
"dd$$$$$$$$$$$$$$$$$$$$",
"dd$$$$$$$$$$$$$$$$$$$$",
"dd$$$$$$$$$$$$$$$$$$$$",
"ee$$$$$$$$$$$$$$$$$$$$",
"ff$$$$$$$$$$$$$$$$$$$$",
"99$$$$$$$$$$$$$$$$$$$$",
"77$$$$$$$$$$$$$$$$$$$$",
"gh$$$$$$$$$$$$$$$$$$$$",
"ii$$$$$$$$$$$$$$$$$$$$"};
