/* XPM */
static char * frameAL_xpm[] = {
"22 22 4 1",
" 	c None",
".	c #0F0F0F",
"+	c #171717",
"@	c #000000",
".+@@@@@@@@@@@@@@@@@@@@",
".+@@@@@@@@@@@@@@@@@@@@",
".+@@@@@@@@@@@@@@@@@@@@",
".+@@@@@@@@@@@@@@@@@@@@",
".+@@@@@@@@@@@@@@@@@@@@",
".+@@@@@@@@@@@@@@@@@@@@",
".+@@@@@@@@@@@@@@@@@@@@",
".+@@@@@@@@@@@@@@@@@@@@",
".+@@@@@@@@@@@@@@@@@@@@",
".+@@@@@@@@@@@@@@@@@@@@",
".+@@@@@@@@@@@@@@@@@@@@",
".+@@@@@@@@@@@@@@@@@@@@",
".+@@@@@@@@@@@@@@@@@@@@",
".+@@@@@@@@@@@@@@@@@@@@",
".+@@@@@@@@@@@@@@@@@@@@",
".+@@@@@@@@@@@@@@@@@@@@",
".+@@@@@@@@@@@@@@@@@@@@",
".+@@@@@@@@@@@@@@@@@@@@",
".+@@@@@@@@@@@@@@@@@@@@",
".+@@@@@@@@@@@@@@@@@@@@",
".+@@@@@@@@@@@@@@@@@@@@",
".+@@@@@@@@@@@@@@@@@@@@"};
