/* XPM */
static char * frameABR_xpm[] = {
"22 22 43 1",
" 	c None",
".	c #111111",
"+	c #131313",
"@	c #0E0E0E",
"#	c #080808",
"$	c #030303",
"%	c #010101",
"&	c #040404",
"*	c #020202",
"=	c #000000",
"-	c #050505",
";	c #060606",
">	c #070707",
",	c #090909",
"'	c #0B0B0B",
")	c #0C0C0C",
"!	c #0D0D0D",
"~	c #0F0F0F",
"{	c #101010",
"]	c #121212",
"^	c #161616",
"/	c #141414",
"(	c #181818",
"_	c #191919",
":	c #1C1B1C",
"<	c #151515",
"[	c #080807",
"}	c #0A0A0A",
"|	c #1C1C1C",
"1	c #191819",
"2	c #0C0C0B",
"3	c #363636",
"4	c #353635",
"5	c #333332",
"6	c #2D2E2D",
"7	c #262826",
"8	c #0F1010",
"9	c #323232",
"0	c #313131",
"a	c #303130",
"b	c #2D2D2E",
"c	c #262726",
"d	c #1D1D1D",
"............+++@#$$%&$",
"%%%%%%%%%%%%%*$*%=%=--",
"====================;>",
"====================#,",
"====================''",
"====================')",
"====================')",
"====================!)",
"====================@@",
"====================@@",
"====================@@",
"====================@~",
"====================.{",
"====================+]",
"====================^/",
"====================(^",
"===================-_^",
"==================%]_~",
"=================$':<;",
"###############[}/|12 ",
"333333333333334567|88 ",
"99999999999990abcd]]  "};
