/* XPM */
static char * frameAR_xpm[] = {
"22 22 4 1",
" 	c None",
".	c #000000",
"+	c #171717",
"@	c #0F0F0F",
"....................+@",
"....................+@",
"....................+@",
"....................+@",
"....................+@",
"....................+@",
"....................+@",
"....................+@",
"....................+@",
"....................+@",
"....................+@",
"....................+@",
"....................+@",
"....................+@",
"....................+@",
"....................+@",
"....................+@",
"....................+@",
"....................+@",
"....................+@",
"....................+@",
"....................+@"};
