/* XPM */
static char * frameITR_xpm[] = {
"22 22 48 1",
" 	c None",
".	c #030303",
"+	c #787878",
"@	c #000000",
"#	c #020202",
"$	c #767676",
"%	c #707070",
"&	c #5F5F5F",
"*	c #494949",
"=	c #2E2E2E",
"-	c #141414",
";	c #010101",
">	c #979797",
",	c #959595",
"'	c #8E8E8E",
")	c #7C7C7C",
"!	c #5C5C5C",
"~	c #3A3A3A",
"{	c #202020",
"]	c #080808",
"^	c #737373",
"/	c #747474",
"(	c #636363",
"_	c #4A4A4A",
":	c #2D2D2D",
"<	c #171717",
"[	c #0A0A0A",
"}	c #3C3C3C",
"|	c #3E3E3E",
"1	c #3D3D3D",
"2	c #373737",
"3	c #2A2A2A",
"4	c #181818",
"5	c #0C0C0C",
"6	c #060606",
"7	c #111111",
"8	c #131313",
"9	c #0E0E0E",
"0	c #040404",
"a	c #050505",
"b	c #070707",
"c	c #090909",
"d	c #0B0B0B",
"e	c #0D0D0D",
"f	c #0F0F0F",
"g	c #101010",
"h	c #121212",
"i	c #161616",
".................+    ",
"@@@@@@@@@@@@@@@@@#.+  ",
"++++++++++++$%&*=-;.+ ",
">>>>>>>>>>>>,')!~{]#. ",
"^^^^^^^^^^^/^%(_:<[.#+",
"}}}}}}}}}}}}|123456.#.",
"7777777777778889]..;0.",
";;;;;;;;;;;;;#.#;@;@aa",
"@@@@@@@@@@@@@@@@@@@@6b",
"@@@@@@@@@@@@@@@@@@@@]c",
"@@@@@@@@@@@@@@@@@@@@dd",
"@@@@@@@@@@@@@@@@@@@@d5",
"@@@@@@@@@@@@@@@@@@@@d5",
"@@@@@@@@@@@@@@@@@@@@e5",
"@@@@@@@@@@@@@@@@@@@@99",
"@@@@@@@@@@@@@@@@@@@@99",
"@@@@@@@@@@@@@@@@@@@@99",
"@@@@@@@@@@@@@@@@@@@@9f",
"@@@@@@@@@@@@@@@@@@@@7g",
"@@@@@@@@@@@@@@@@@@@@8h",
"@@@@@@@@@@@@@@@@@@@@i-",
"@@@@@@@@@@@@@@@@@@@@4i"};
