/* XPM */
static char * minimizeI_xpm[] = {
"22 44 48 1",
" 	c None",
".	c #787878",
"+	c #979797",
"@	c #737373",
"#	c #3C3C3C",
"$	c #111111",
"%	c #010101",
"&	c #020202",
"*	c #080808",
"=	c #0A0A0A",
"-	c #0C0C0C",
";	c #101010",
">	c #131313",
",	c #121212",
"'	c #0D0D0D",
")	c #070707",
"!	c #000000",
"~	c #050505",
"{	c #090909",
"]	c #798892",
"^	c #0F0F0F",
"/	c #161616",
"(	c #1A1A1A",
"_	c #0E0E0E",
":	c #0B0B0B",
"<	c #1D1D1D",
"[	c #212121",
"}	c #272727",
"|	c #323232",
"1	c #242424",
"2	c #171717",
"3	c #393939",
"4	c #3D3D3D",
"5	c #1E1E1E",
"6	c #514E51",
"7	c #2A2A2A",
"8	c #1C1C1C",
"9	c #4A4A4A",
"0	c #2C2C2C",
"a	c #707070",
"b	c #928F8F",
"c	c #A0A0A0",
"d	c #AAAAAA",
"e	c #B1B1B1",
"f	c #AEAEAE",
"g	c #A4A7A7",
"h	c #858885",
"i	c #4A4D4A",
"......................",
"++++++++++++++++++++++",
"@@@@@@@@@@@@@@@@@@@@@@",
"######################",
"$$$$$$$$$$$$$$$$$$$$$$",
"%%&*=-;>>,,,,>>$'=)&%%",
"!!~{==============*~!!",
"!!*=======]]======*^!!",
"!!^-======]]=======/!!",
"!!>'======]]=======(!!",
"!!>_===]]]]]]]]===:<!!",
"!!>_===]]]]]]]]===:<!!",
"!!/_======]]======:[!!",
"!!(^======]]======-}!!",
"!![,======]]======'|!!",
"!!12==============23!!",
"!!,|,============:4(!!",
"!!!567$-:::::::-890!!!",
"!!!!3abcdeeeeefghi!!!!",
"!!!!!!!!!!!!!!!!!!!!!!",
"!!!!!!!!!!!!!!!!!!!!!!",
"!!!!!!!!!!!!!!!!!!!!!!",
"......................",
"++++++++++++++++++++++",
"@@@@@@@@@@@@@@@@@@@@@@",
"######################",
"$$$$$$$$$$$$$$$$$$$$$$",
"%%%%%%%%%%%%%%%%%%%%%%",
"!!!!!!!!!!!!!!!!!!!!!!",
"!!!!!!!!!!!!!!!!!!!!!!",
"!!!!!!!!!!!!!!!!!!!!!!",
"!!!!!!!!!!!!!!!!!!!!!!",
"!!!!!!!!!!!!!!!!!!!!!!",
"!!!!!!!!!!!!!!!!!!!!!!",
"!!!!!!!!!!!!!!!!!!!!!!",
"!!!!!!!!!!!!!!!!!!!!!!",
"!!!!!!!!!!!!!!!!!!!!!!",
"!!!!!!!!!!!!!!!!!!!!!!",
"!!!!!!!!!!!!!!!!!!!!!!",
"!!!!!!!!!!!!!!!!!!!!!!",
"!!!!!!!!!!!!!!!!!!!!!!",
"!!!!!!!!!!!!!!!!!!!!!!",
"!!!!!!!!!!!!!!!!!!!!!!",
"!!!!!!!!!!!!!!!!!!!!!!"};
