/* XPM */
static char * maximizeO_xpm[] = {
"22 44 51 1",
" 	c None",
".	c #B0B0B0",
"+	c #D5D5D5",
"@	c #A2A2A2",
"#	c #A1A1A1",
"$	c #545454",
"%	c #171717",
"&	c #000000",
"*	c #020202",
"=	c #010101",
"-	c #050505",
";	c #151515",
">	c #282828",
",	c #2A2A2A",
"'	c #1A1A1A",
")	c #070707",
"!	c #080808",
"~	c #55CC55",
"{	c #0F0F0F",
"]	c #040404",
"^	c #161616",
"/	c #131313",
"(	c #030303",
"_	c #1D1D1D",
":	c #060606",
"<	c #212121",
"[	c #272727",
"}	c #090909",
"|	c #323232",
"1	c #242424",
"2	c #101010",
"3	c #393939",
"4	c #121212",
"5	c #2F2F2F",
"6	c #0B0B0B",
"7	c #3B3B3B",
"8	c #1E1E1E",
"9	c #504D50",
"0	c #252525",
"a	c #494949",
"b	c #2C2C2C",
"c	c #707070",
"d	c #928F8F",
"e	c #A0A0A0",
"f	c #AAAAAA",
"g	c #B1B1B1",
"h	c #AEAEAE",
"i	c #A4A7A7",
"j	c #858885",
"k	c #4A4D4A",
"l	c #D5D7D9",
"......................",
"++++++++++++++++++++++",
"@#####################",
"$$$$$$$$$$$$$$$$$$$$$$",
"%%%%%%%%%%%%%%%%%%%%%%",
"&&&&&&&&&&&&&&&&&&&&&&",
"&&&*&=-;>,>>>>,,')*&*&",
"&&&-=&&&&&&&&&&&=&&&-&",
"&&&!*&&&&&&~~&&&&&&&{&",
"&&&{]&&&&&&~~&&&&&&*^&",
"&&&/-&&&&&&~~&&&&&&*'&",
"&&&/-&&&~~~~~~~~&&&(_&",
"&&&/-&&&~~~~~~~~&&&(_&",
"&&&^:&&&&&&~~&&&&&&(<&",
"&&&')&&&&&&~~&&&&&&][&",
"&&&<}&&&&&&~~&&&&&&-|&",
"&&&12&&&&&&&&&&&&&&23&",
"&&&456&&&&&&&&&&&&]7'&",
"&&&&890!(*======(;ab&&",
"&&&&&3cdefggggghijk&&&",
"&&&&&&&&&&&&&&&&&&&&&&",
"&&&&&&&&&&&&&&&&&&&&&&",
"......................",
"++++++++++++++++++++++",
"@#####################",
"$$$$$$$$$$$$$$$$$$$$$$",
"%%%%%%%%%%%%%%%%%%%%%%",
"&&&&&&&&&&&&&&&&&&&&&&",
"&&&*&=-;>,>>>>,,')*&*&",
"&&&-=&&&&&&&&&&&=&&&-&",
"&&&!*&&&&&&ll&&&&&&&{&",
"&&&{]&&&&&&ll&&&&&&*^&",
"&&&/-&&&&&&ll&&&&&&*'&",
"&&&/-&&&llllllll&&&(_&",
"&&&/-&&&llllllll&&&(_&",
"&&&^:&&&&&&ll&&&&&&(<&",
"&&&')&&&&&&ll&&&&&&][&",
"&&&<}&&&&&&ll&&&&&&-|&",
"&&&12&&&&&&&&&&&&&&23&",
"&&&456&&&&&&&&&&&&]7'&",
"&&&&890!(*======(;ab&&",
"&&&&&3cdefggggghijk&&&",
"&&&&&&&&&&&&&&&&&&&&&&",
"&&&&&&&&&&&&&&&&&&&&&&"};
