/* XPM */
static char * minimizeA_xpm[] = {
"22 44 53 1",
" 	c None",
".	c #B0B0B0",
"+	c #D5D5D5",
"@	c #A2A2A2",
"#	c #A1A1A1",
"$	c #545454",
"%	c #171717",
"&	c #000000",
"*	c #020202",
"=	c #010101",
"-	c #040404",
";	c #0B0B0B",
">	c #111111",
",	c #0F0F0F",
"'	c #101010",
")	c #0E0E0E",
"!	c #060606",
"~	c #050505",
"{	c #080808",
"]	c #C5C9CC",
"^	c #161616",
"/	c #131313",
"(	c #1A1A1A",
"_	c #030303",
":	c #1D1D1D",
"<	c #212121",
"[	c #070707",
"}	c #272727",
"|	c #090909",
"1	c #323232",
"2	c #242424",
"3	c #393939",
"4	c #121212",
"5	c #2F2F2F",
"6	c #3B3B3B",
"7	c #1E1E1E",
"8	c #504D50",
"9	c #252525",
"0	c #151515",
"a	c #494949",
"b	c #2C2C2C",
"c	c #707070",
"d	c #928F8F",
"e	c #A0A0A0",
"f	c #AAAAAA",
"g	c #B1B1B1",
"h	c #AEAEAE",
"i	c #A4A7A7",
"j	c #858885",
"k	c #4A4D4A",
"l	c #282828",
"m	c #2A2A2A",
"n	c #D5D7D9",
"......................",
"++++++++++++++++++++++",
"@#####################",
"$$$$$$$$$$$$$$$$$$$$$$",
"%%%%%%%%%%%%%%%%%%%%%%",
"&&*&=-;>,,,,,'>)!*=*&&",
"&&~=&&&&&&&&&&&&&&&~&&",
"&&{*&&&&&&]]&&&&&&&,&&",
"&&,-&&&&&&]]&&&&&&*^&&",
"&&/~&&&&&&]]&&&&&&*(&&",
"&&/~&&&]]]]]]]]&&&_:&&",
"&&/~&&&]]]]]]]]&&&_:&&",
"&&^!&&&&&&]]&&&&&&_<&&",
"&&([&&&&&&]]&&&&&&-}&&",
"&&<|&&&&&&]]&&&&&&~1&&",
"&&2'&&&&&&&&&&&&&&'3&&",
"&&45;&&&&&&&&&&&&-6(&&",
"&&&789{_*======_0ab&&&",
"&&&&3cdefggggghijk&&&&",
"&&&&&&&&&&&&&&&&&&&&&&",
"&&&&&&&&&&&&&&&&&&&&&&",
"&&&&&&&&&&&&&&&&&&&&&&",
"......................",
"++++++++++++++++++++++",
"@#####################",
"$$$$$$$$$$$$$$$$$$$$$$",
"%%%%%%%%%%%%%%%%%%%%%%",
"&&*&=~0lmllllmm([*&*&&",
"&&~=&&&&&&&&&&&=&&&~&&",
"&&{*&&&&&&nn&&&&&&&,&&",
"&&,-&&&&&&nn&&&&&&*^&&",
"&&/~&&&&&&nn&&&&&&*(&&",
"&&/~&&&nnnnnnnn&&&_:&&",
"&&/~&&&nnnnnnnn&&&_:&&",
"&&^!&&&&&&nn&&&&&&_<&&",
"&&([&&&&&&nn&&&&&&-}&&",
"&&<|&&&&&&nn&&&&&&~1&&",
"&&2'&&&&&&&&&&&&&&'3&&",
"&&45;&&&&&&&&&&&&-6(&&",
"&&&789{_*======_0ab&&&",
"&&&&3cdefggggghijk&&&&",
"&&&&&&&&&&&&&&&&&&&&&&",
"&&&&&&&&&&&&&&&&&&&&&&",
"&&&&&&&&&&&&&&&&&&&&&&"};
