/* XPM */
static char * restoreO_xpm[] = {
"22 44 50 1",
" 	c None",
".	c #B0B0B0",
"+	c #D5D5D5",
"@	c #A2A2A2",
"#	c #A1A1A1",
"$	c #545454",
"%	c #171717",
"&	c #000000",
"*	c #020202",
"=	c #010101",
"-	c #050505",
";	c #151515",
">	c #282828",
",	c #2A2A2A",
"'	c #1A1A1A",
")	c #070707",
"!	c #080808",
"~	c #D5D7D9",
"{	c #0F0F0F",
"]	c #040404",
"^	c #161616",
"/	c #131313",
"(	c #AAAAAA",
"_	c #030303",
":	c #1D1D1D",
"<	c #060606",
"[	c #212121",
"}	c #272727",
"|	c #090909",
"1	c #323232",
"2	c #242424",
"3	c #101010",
"4	c #393939",
"5	c #121212",
"6	c #2F2F2F",
"7	c #0B0B0B",
"8	c #3B3B3B",
"9	c #1E1E1E",
"0	c #504D50",
"a	c #252525",
"b	c #494949",
"c	c #2C2C2C",
"d	c #707070",
"e	c #928F8F",
"f	c #A0A0A0",
"g	c #B1B1B1",
"h	c #AEAEAE",
"i	c #A4A7A7",
"j	c #858885",
"k	c #4A4D4A",
"......................",
"++++++++++++++++++++++",
"@#####################",
"$$$$$$$$$$$$$$$$$$$$$$",
"%%%%%%%%%%%%%%%%%%%%%%",
"&&&&&&&&&&&&&&&&&&&&&&",
"&&&*&=-;>,>>>>,,')*&*&",
"&&&-=&&&&&&&&&&&=&&&-&",
"&&&!*&&&~~~~~~&&&&&&{&",
"&&&{]&&&~~~~~~&&&&&*^&",
"&&&/-&&&~(&&(~&&&&&*'&",
"&&&/-&&&~(((~~~~&&&_:&",
"&&&/-&&&~~~~~~~~&&&_:&",
"&&&^<&&&&&~(&&(~&&&_[&",
"&&&')&&&&&~~(((~&&&]}&",
"&&&[|&&&&&~~~~~~&&&-1&",
"&&&23&&&&&&&&&&&&&&34&",
"&&&567&&&&&&&&&&&&]8'&",
"&&&&90a!_*======_;bc&&",
"&&&&&4def(ggggghijk&&&",
"&&&&&&&&&&&&&&&&&&&&&&",
"&&&&&&&&&&&&&&&&&&&&&&",
"......................",
"++++++++++++++++++++++",
"@#####################",
"$$$$$$$$$$$$$$$$$$$$$$",
"%%%%%%%%%%%%%%%%%%%%%%",
"&&&&&&&&&&&&&&&&&&&&&&",
"&&&*&=-;>,>>>>,,')*&*&",
"&&&-=&&&&&&&&&&&=&&&-&",
"&&&!*&&&~~~~~~&&&&&&{&",
"&&&{]&&&~~~~~~&&&&&*^&",
"&&&/-&&&~f&&f~&&&&&*'&",
"&&&/-&&&~fff~~~~&&&_:&",
"&&&/-&&&~~~~~~~~&&&_:&",
"&&&^<&&&&&~f&&f~&&&_[&",
"&&&')&&&&&~~fff~&&&]}&",
"&&&[|&&&&&~~~~~~&&&-1&",
"&&&23&&&&&&&&&&&&&&34&",
"&&&567&&&&&&&&&&&&]8'&",
"&&&&90a!_*======_;bc&&",
"&&&&&4def(ggggghijk&&&",
"&&&&&&&&&&&&&&&&&&&&&&",
"&&&&&&&&&&&&&&&&&&&&&&"};
