/* XPM */
static char * restoreI_xpm[] = {
"22 44 48 1",
" 	c None",
".	c #787878",
"+	c #979797",
"@	c #737373",
"#	c #3C3C3C",
"$	c #111111",
"%	c #010101",
"&	c #020202",
"*	c #080808",
"=	c #0A0A0A",
"-	c #0C0C0C",
";	c #101010",
">	c #131313",
",	c #121212",
"'	c #0D0D0D",
")	c #070707",
"!	c #000000",
"~	c #050505",
"{	c #090909",
"]	c #798892",
"^	c #0F0F0F",
"/	c #161616",
"(	c #928F8F",
"_	c #1A1A1A",
":	c #0E0E0E",
"<	c #0B0B0B",
"[	c #1D1D1D",
"}	c #212121",
"|	c #272727",
"1	c #323232",
"2	c #242424",
"3	c #171717",
"4	c #393939",
"5	c #3D3D3D",
"6	c #1E1E1E",
"7	c #514E51",
"8	c #2A2A2A",
"9	c #1C1C1C",
"0	c #4A4A4A",
"a	c #2C2C2C",
"b	c #707070",
"c	c #A0A0A0",
"d	c #AAAAAA",
"e	c #B1B1B1",
"f	c #AEAEAE",
"g	c #A4A7A7",
"h	c #858885",
"i	c #4A4D4A",
"......................",
"++++++++++++++++++++++",
"@@@@@@@@@@@@@@@@@@@@@@",
"######################",
"$$$$$$$$$$$$$$$$$$$$$$",
"%%&*=-;>>,,,,>>$'=)&%%",
"!!~{==============*~!!",
"!!*====]]]]]]=====*^!!",
"!!^-===]]]]]]======/!!",
"!!>'===](==(]======_!!",
"!!>:===]](((]]]===<[!!",
"!!>:===]]]]]]]]===<[!!",
"!!/:=====](==(]===<}!!",
"!!_^=====]](((]===-|!!",
"!!},=====]]]]]]==='1!!",
"!!23==============34!!",
"!!,1,============<5_!!",
"!!!678$-<<<<<<<-90a!!!",
"!!!!4b(cdeeeeefghi!!!!",
"!!!!!!!!!!!!!!!!!!!!!!",
"!!!!!!!!!!!!!!!!!!!!!!",
"!!!!!!!!!!!!!!!!!!!!!!",
"......................",
"++++++++++++++++++++++",
"@@@@@@@@@@@@@@@@@@@@@@",
"######################",
"$$$$$$$$$$$$$$$$$$$$$$",
"%%%%%%%%%%%%%%%%%%%%%%",
"!!!!!!!!!!!!!!!!!!!!!!",
"!!!!!!!!!!!!!!!!!!!!!!",
"!!!!!!!!!!!!!!!!!!!!!!",
"!!!!!!!!!!!!!!!!!!!!!!",
"!!!!!!!!!!!!!!!!!!!!!!",
"!!!!!!!!!!!!!!!!!!!!!!",
"!!!!!!!!!!!!!!!!!!!!!!",
"!!!!!!!!!!!!!!!!!!!!!!",
"!!!!!!!!!!!!!!!!!!!!!!",
"!!!!!!!!!!!!!!!!!!!!!!",
"!!!!!!!!!!!!!!!!!!!!!!",
"!!!!!!!!!!!!!!!!!!!!!!",
"!!!!!!!!!!!!!!!!!!!!!!",
"!!!!!!!!!!!!!!!!!!!!!!",
"!!!!!!!!!!!!!!!!!!!!!!",
"!!!!!!!!!!!!!!!!!!!!!!"};
