/* XPM */
static char * minimizeI_xpm[] = {
"22 44 91 1",
" 	c None",
".	c #848284",
"+	c #848684",
"@	c #7B827B",
"#	c #737573",
"$	c #636563",
"%	c #525552",
"&	c #4A454A",
"*	c #313831",
"=	c #393839",
"-	c #4A4D4A",
";	c #525D52",
">	c #847D84",
",	c #737173",
"'	c #313431",
")	c #393C39",
"!	c #424542",
"~	c #424942",
"{	c #393439",
"]	c #313C31",
"^	c #4A494A",
"/	c #6B756B",
"(	c #8C828C",
"_	c #7B7D7B",
":	c #636163",
"<	c #292C29",
"[	c #394539",
"}	c #7B757B",
"|	c #9C9A9C",
"1	c #A5AEA5",
"2	c #B5B6B5",
"3	c #ADAEAD",
"4	c #949E94",
"5	c #737973",
"6	c #394139",
"7	c #635D63",
"8	c #6B6D6B",
"9	c #A5A6A5",
"0	c #C6C7C6",
"a	c #D6D7D6",
"b	c #C6C3C6",
"c	c #6B716B",
"d	c #313031",
"e	c #7B797B",
"f	c #BDBEBD",
"g	c #CED3CE",
"h	c #293429",
"i	c #5A615A",
"j	c #212021",
"k	c #6B656B",
"l	c #BDC3BD",
"m	c #CECFCE",
"n	c #212821",
"o	c #9C9E9C",
"p	c #C6CBC6",
"q	c #212421",
"r	c #524D52",
"s	c #181C18",
"t	c #6B696B",
"u	c #BDBABD",
"v	c #B5BAB5",
"w	c #292429",
"x	c #181818",
"y	c #848A84",
"z	c #949694",
"A	c #101010",
"B	c #292829",
"C	c #101410",
"D	c #081008",
"E	c #949A94",
"F	c #080C08",
"G	c #181418",
"H	c #8C8E8C",
"I	c #100C10",
"J	c #080408",
"K	c #B5B2B5",
"L	c #ADB2AD",
"M	c #080808",
"N	c #000400",
"O	c #525152",
"P	c #A5A2A5",
"Q	c #000000",
"R	c #101810",
"S	c #000800",
"T	c #424142",
"U	c #9CA29C",
"V	c #A59EA5",
"W	c #080008",
"X	c #848E84",
"Y	c #8C8A8C",
"Z	c #312C31",
"..+@+.#$%&*=-;$#+.@.+.",
">+++,-='')!~='{]^/++(+",
".@_:)<[}|1223456<):_@>",
"_}7''890aaaaaab98''75}",
"c:'defggggggggggfeh{i,",
":=jklmmmmmmmmmmmmf$j=k",
"-n'oppppppppppppppo'qr",
"{stu00000000000000vts{",
"wxy0bb0000000000bb0yxn",
"xqzfflllllllllllflfzjs",
"AB4ffffffffffffffff|<C",
"DBEvvvvvvvvvvvvvvvvEBD",
"FGH2222222222222222HGI",
"FJ5KLKKKKKKKKKKKLKL5MM",
"JNOPLLLLLLLLLLLLLLPOQM",
"QNx.LLLLLLLLLLLLLL.RSQ",
"QSQTULLLLLLLLLLLLV!QMQ",
"QWMCO4LLLLLLLLLL4%AMNQ",
"QQMAx~.oLLLLLLU>!xAMQQ",
"QQQIxAj-c.XY.c-jARIQQQ",
"QQQQMnqCCsBnsCCqqMQQQQ",
"QQQQQQAq<B<ZddqIQQQQQQ",
"..+@+.#$%&*=-;$#+.@.+.",
">+++,-='')!~='{]^/++(+",
".@_:)<[}|1223456<):_@>",
"_}7''890aaaaaab98''75}",
"c:'defggggggggggfeh{i,",
":=jklmmmmmmmmmmmmf$j=k",
"-n'oppppppppppppppo'qr",
"{stu00000000000000vts{",
"wxy0bb0000000000bb0yxn",
"xqzfflllllllllllflfzjs",
"AB4ffffffffffffffff|<C",
"DBEvvvvvvvvvvvvvvvvEBD",
"FGH2222222222222222HGI",
"FJ5KLKKKKKKKKKKKLKL5MM",
"JNOPLLLLLLLLLLLLLLPOQM",
"QNx.LLLLLLLLLLLLLL.RSQ",
"QSQTULLLLLLLLLLLLV!QMQ",
"QWMCO4LLLLLLLLLL4%AMNQ",
"QQMAx~.oLLLLLLU>!xAMQQ",
"QQQIxAj-c.XY.c-jARIQQQ",
"QQQQMnqCCsBnsCCqqMQQQQ",
"QQQQQQAq<B<ZddqIQQQQQQ"};
