/* XPM */
static char * closeA_xpm[] = {
"22 44 113 2",
"  	c None",
". 	c #F8F8F8",
"+ 	c #343537",
"@ 	c #303031",
"# 	c #2B2B2C",
"$ 	c #FCFCFC",
"% 	c #2B2C2D",
"& 	c #494A4B",
"* 	c #48494A",
"= 	c #262627",
"- 	c #FBFCFC",
"; 	c #2B2C2C",
"> 	c #565658",
", 	c #545455",
"' 	c #FBFBFB",
") 	c #2F3234",
"! 	c #5D6164",
"~ 	c #FAFBFB",
"{ 	c #2F4958",
"] 	c #547588",
"^ 	c #F9FAFA",
"/ 	c #2B6587",
"( 	c #4F97C0",
"_ 	c #29749E",
": 	c #6CC6F6",
"< 	c #F8F9F9",
"[ 	c #2875A0",
"} 	c #6CCBFE",
"| 	c #26739E",
"1 	c #65C9FE",
"2 	c #F7F8F8",
"3 	c #24719C",
"4 	c #5DC6FE",
"5 	c #F6F7F7",
"6 	c #1E6B96",
"7 	c #44BEFE",
"8 	c #F5F6F6",
"9 	c #16638E",
"0 	c #20B1FE",
"a 	c #EEF0F0",
"b 	c #EFF1F1",
"c 	c #13608B",
"d 	c #13ACFE",
"e 	c #EDEFEF",
"f 	c #EAECEC",
"g 	c #125E88",
"h 	c #13A4F2",
"i 	c #E6E9E9",
"j 	c #0E496A",
"k 	c #116898",
"l 	c #E4E7E7",
"m 	c #07212F",
"n 	c #082A3C",
"o 	c #E1E5E5",
"p 	c #020507",
"q 	c #020609",
"r 	c #DFE2E2",
"s 	c #010101",
"t 	c #D4D7D7",
"u 	c #D5D6D6",
"v 	c #ACACAD",
"w 	c #373735",
"x 	c #323230",
"y 	c #2D2D2B",
"z 	c #2D2C2B",
"A 	c #4B4A49",
"B 	c #4A4948",
"C 	c #272727",
"D 	c #585856",
"E 	c #565654",
"F 	c #35322F",
"G 	c #64615E",
"H 	c #593F2F",
"I 	c #886854",
"J 	c #FAFAFA",
"K 	c #874E2B",
"L 	c #C07A50",
"M 	c #9F5529",
"N 	c #F69D6C",
"O 	c #F9F9F9",
"P 	c #A05528",
"Q 	c #FEA06C",
"R 	c #9E5326",
"S 	c #FD9C67",
"T 	c #9C5124",
"U 	c #FD975F",
"V 	c #F7F7F7",
"W 	c #964B1E",
"X 	c #FE8644",
"Y 	c #F6F6F6",
"Z 	c #8E4316",
"` 	c #FE6E20",
" .	c #F0EEEE",
"..	c #F1EFEF",
"+.	c #8B4013",
"@.	c #FE6714",
"#.	c #EFEDED",
"$.	c #ECEAEA",
"%.	c #883E12",
"&.	c #F16315",
"*.	c #E9E7E7",
"=.	c #6A310E",
"-.	c #994411",
";.	c #E7E5E5",
">.	c #2F1507",
",.	c #3C1A08",
"'.	c #E5E1E1",
").	c #080502",
"!.	c #0A0602",
"~.	c #E2E0E0",
"{.	c #D7D5D5",
"].	c #D6D6D6",
"^.	c #AEAEAC",
". . . . . . . . + @ @ @ @ # . . . . . . . . ",
"$ $ $ $ $ $ $ $ % & * & & = $ $ $ $ $ $ $ $ ",
"- - - - - - - - ; > , > > ; - - - - - - - - ",
"' ' ' ' ' ' ' ' ) ! ! ! ! ) ' ' ' ' ' ' ' ' ",
"~ ~ ~ ~ ~ ~ ~ ~ { ] ] ] ] { ~ ~ ~ ~ ~ ~ ~ ~ ",
"^ ^ ^ ^ ^ ^ ^ ^ / ( ( ( ( / ^ ^ ^ ^ ^ ^ ^ ^ ",
"^ ^ ^ ^ ^ ^ ^ ^ _ : : : : _ ^ ^ ^ ^ ^ ^ ^ ^ ",
"< < < < < < < < [ } } } } [ < < < < < < < < ",
"< < < < < < < < | 1 1 1 1 | < < < < < < < < ",
"2 2 2 2 2 2 2 2 3 4 4 4 4 3 2 2 2 2 2 2 2 2 ",
"5 5 5 5 5 5 5 5 6 7 7 7 7 6 5 5 5 5 5 5 5 5 ",
"8 8 8 8 8 8 8 8 9 0 0 0 0 9 8 8 8 8 8 8 8 8 ",
"a b b a a a a a c d d d d c a a a a a a a a ",
"e e e e e e e e c d d d d c e e e e e e e e ",
"f f f f f f f f g h h h h g f f f f f f f f ",
"i i i i i i i i j k k k k j i i i i i i i i ",
"l l l l l l l l m n n n n m l l l l l l l l ",
"o o o o o o o o p q q q q p o o o o o o o o ",
"r r r r r r r r s s s s s s r r r r r r r r ",
"t t t t t t t t s s s s s s t t t t t t t t ",
"u u u u u u u u s s s s s s u u u u u u u u ",
"v v v v v v v v v v v v v v v v v v v v v v ",
". . . . . . . . w x x x x y . . . . . . . . ",
"$ $ $ $ $ $ $ $ z A B A A C $ $ $ $ $ $ $ $ ",
"$ $ $ $ $ $ $ $ z D E D D z $ $ $ $ $ $ $ $ ",
"' ' ' ' ' ' ' ' F G G G G F ' ' ' ' ' ' ' ' ",
"' ' ' ' ' ' ' ' H I I I I H ' ' ' ' ' ' ' ' ",
"J J J J J J J J K L L L L K J J J J J J J J ",
"J J J J J J J J M N N N N M J J J J J J J J ",
"O O O O O O O O P Q Q Q Q P O O O O O O O O ",
"O O O O O O O O R S S S S R O O O O O O O O ",
". . . . . . . . T U U U U T . . . . . . . . ",
"V V V V V V V V W X X X X W V V V V V V V V ",
"Y Y Y Y Y Y Y Y Z ` ` ` ` Z Y Y Y Y Y Y Y Y ",
" ..... . . . . .+.@.@.@.@.+. . . . . . . . .",
"#.#.#.#.#.#.#.#.+.@.@.@.@.+.#.#.#.#.#.#.#.#.",
"$.$.$.$.$.$.$.$.%.&.&.&.&.%.$.$.$.$.$.$.$.$.",
"*.*.*.*.*.*.*.*.=.-.-.-.-.=.*.*.*.*.*.*.*.*.",
";.;.;.;.;.;.;.;.>.,.,.,.,.>.;.;.;.;.;.;.;.;.",
"'.'.'.'.'.'.'.'.).!.!.!.!.).'.'.'.'.'.'.'.'.",
"~.~.~.~.~.~.~.~.s s s s s s ~.~.~.~.~.~.~.~.",
"{.{.{.{.{.{.{.{.s s s s s s {.{.{.{.{.{.{.{.",
"].].].].].].].].s s s s s s ].].].].].].].].",
"^.^.^.^.^.^.^.^.^.^.^.^.^.^.^.^.^.^.^.^.^.^."};
