/* XPM */
static char * titleAJ_xpm[] = {
"8 22 32 1",
" 	c None",
".	c #020202",
"+	c #050505",
"@	c #191919",
"#	c #323232",
"$	c #4E4E4E",
"%	c #646464",
"&	c #717171",
"*	c #777777",
"=	c #141414",
"-	c #222222",
";	c #414141",
">	c #636363",
",	c #808080",
"'	c #909090",
")	c #969696",
"!	c #0D0D0D",
"~	c #666666",
"{	c #757575",
"]	c #030303",
"^	c #040404",
"/	c #0C0C0C",
"(	c #1A1A1A",
"_	c #2A2A2A",
":	c #393939",
"<	c #3D3D3D",
"[	c #3E3E3E",
"}	c #000000",
"|	c #080808",
"1	c #131313",
"2	c #121212",
"3	c #010101",
".+@#$%&*",
".=-;>,')",
"+!@#$~&{",
"]^/(_:<[",
"}]]|!112",
"}3}33].}",
"}}}}}}}}",
"}}}}}}}}",
"}}}}}}}}",
"}}}}}}}}",
"}}}}}}}}",
"}}}}}}}}",
"}}}}}}}}",
"}}}}}}}}",
"}}}}}}}}",
"}}}}}}}}",
"}}}}}}}}",
"}}}}}}}}",
"}}}}}}}}",
"}}}}}}}}",
".}}}}}}}",
"!}}}}}}}"};
