/* XPM */
static char * titleAQ_xpm[] = {
"8 22 36 1",
" 	c None",
".	c #767676",
"+	c #707070",
"@	c #5F5F5F",
"#	c #494949",
"$	c #2E2E2E",
"%	c #141414",
"&	c #010101",
"*	c #040404",
"=	c #959595",
"-	c #8E8E8E",
";	c #7C7C7C",
">	c #5C5C5C",
",	c #3A3A3A",
"'	c #202020",
")	c #080808",
"!	c #020202",
"~	c #737373",
"{	c #636363",
"]	c #4A4A4A",
"^	c #2D2D2D",
"/	c #171717",
"(	c #0A0A0A",
"_	c #030303",
":	c #3E3E3E",
"<	c #3D3D3D",
"[	c #373737",
"}	c #2A2A2A",
"|	c #181818",
"1	c #0C0C0C",
"2	c #060606",
"3	c #131313",
"4	c #0E0E0E",
"5	c #000000",
"6	c #050505",
"7	c #121212",
".+@#$%&*",
"=-;>,')!",
"~+{]^/(_",
":<[}|12_",
"3334)__&",
"&!_!&5&5",
"55555555",
"55555555",
"55555555",
"55555555",
"55555555",
"55555555",
"55555555",
"55555555",
"55555555",
"55555555",
"55555555",
"55555555",
"55555555",
"55555555",
"55555556",
"555555&7"};
