/* XPM */
static char * titleAQ_xpm[] = {
"8 22 35 1",
" 	c None",
".	c #ACACAC",
"+	c #A1A1A1",
"@	c #8C8C8C",
"#	c #696969",
"$	c #464646",
"%	c #222222",
"&	c #030303",
"*	c #D1D1D1",
"=	c #C5C5C5",
"-	c #A8A8A8",
";	c #7A7A7A",
">	c #4A4A4A",
",	c #242424",
"'	c #0D0D0D",
")	c #020202",
"!	c #A0A0A0",
"~	c #989898",
"{	c #808080",
"]	c #585858",
"^	c #2F2F2F",
"/	c #151515",
"(	c #0A0A0A",
"_	c #040404",
":	c #565656",
"<	c #545454",
"[	c #2D2D2D",
"}	c #090909",
"|	c #191919",
"1	c #1B1B1B",
"2	c #171717",
"3	c #060606",
"4	c #010101",
"5	c #000000",
"6	c #070707",
".+@#$%&&",
"*=-;>,')",
"!~{]^/(_",
":<$[/}_)",
"|12'3445",
"4))44555",
"55555555",
"55555555",
"55555555",
"55555555",
"55555555",
"55555555",
"55555555",
"55555555",
"55555555",
"55555555",
"55555555",
"55555555",
"55555555",
"55555555",
"55555556",
"555555)/"};
