/* XPM */
static char * titleAJ_xpm[] = {
"8 22 38 1",
" 	c None",
".	c #131313",
"+	c #262626",
"@	c #4C4C4C",
"#	c #707070",
"$	c #919191",
"%	c #A4A4A4",
"&	c #ADADAD",
"*	c #AFAFAF",
"=	c #101010",
"-	c #292929",
";	c #525252",
">	c #828282",
",	c #AEAEAE",
"'	c #C8C8C8",
")	c #D2D2D2",
"!	c #D4D4D4",
"~	c #060606",
"{	c #181818",
"]	c #353535",
"^	c #5E5E5E",
"/	c #858585",
"(	c #9B9B9B",
"_	c #A1A1A1",
":	c #A2A2A2",
"<	c #030303",
"[	c #090909",
"}	c #303030",
"|	c #484848",
"1	c #545454",
"2	c #575757",
"3	c #565656",
"4	c #020202",
"5	c #010101",
"6	c #0E0E0E",
"7	c #171717",
"8	c #191919",
"9	c #000000",
".+@#$%&*",
"=-;>,')!",
"~{]^/(_:",
"<[{}|123",
"45~6788{",
"99954559",
"99999999",
"99999999",
"99999999",
"99999999",
"99999999",
"99999999",
"99999999",
"99999999",
"99999999",
"99999999",
"99999999",
"99999999",
"99999999",
"99999999",
"99999999",
"59999999"};
