/* XPM */
static char *help_16x16[] = {
/* columns rows colors chars-per-pixel */
"17 17 130 2 ",
"   c #2F2D37",
".  c #58343E",
"X  c #7E2020",
"o  c #2F4052",
"O  c #2E4152",
"+  c #304053",
"@  c #314357",
"#  c #334356",
"$  c #3D4254",
"%  c #35475A",
"&  c #34475B",
"*  c #394559",
"=  c #38465A",
"-  c #32485C",
";  c #364A5F",
":  c #374C5E",
">  c #374C5F",
",  c #3A485B",
"<  c #3B485C",
"1  c #3D4C5E",
"2  c #344C61",
"3  c #364D60",
"4  c #374D62",
"5  c #374D63",
"6  c #3E4B60",
"7  c #3A4C62",
"8  c #3F4E61",
"9  c #414355",
"0  c #41485A",
"q  c #404A5A",
"w  c #494E5C",
"e  c #544758",
"r  c #77424F",
"t  c #644A5A",
"y  c #704352",
"u  c #41566B",
"i  c #515A65",
"p  c #515A6F",
"a  c #425C71",
"s  c #605A60",
"d  c #646465",
"f  c #776E66",
"g  c #7B746D",
"h  c #87140E",
"j  c #8A130D",
"k  c #8C130E",
"l  c #94150F",
"z  c #98150F",
"x  c #99150F",
"c  c #9D160F",
"v  c #891C1A",
"b  c #A0170F",
"n  c #A3170F",
"m  c #A31710",
"M  c #A41710",
"N  c #A51710",
"B  c #A71710",
"V  c #A31810",
"C  c #A81811",
"Z  c #AA1810",
"A  c #AA1910",
"S  c #AA1811",
"D  c #AD1811",
"F  c #BC312D",
"G  c #C0161C",
"H  c #EE0402",
"J  c #EB0D07",
"K  c #E10F0C",
"L  c #F01509",
"P  c #F11D0C",
"I  c #F1220E",
"U  c #F12811",
"Y  c #F22911",
"T  c #F33315",
"R  c #F43616",
"E  c #C23229",
"W  c #F6491E",
"Q  c #F64B1F",
"!  c #DE4A3D",
"~  c #DB5D34",
"^  c #F24E2C",
"/  c #F75423",
"(  c #F85A26",
")  c #F75428",
"_  c #E8602F",
"`  c #F0652D",
"'  c #FA682B",
"]  c #FA6A2E",
"[  c #F46D30",
"{  c #874350",
"}  c #A07B5F",
"|  c #9A7861",
" . c #F57C58",
".. c #D66066",
"X. c #E27A7E",
"o. c #98817A",
"O. c #F5806C",
"+. c #F38171",
"@. c #5C798C",
"#. c #6C7987",
"$. c #648597",
"%. c #698699",
"&. c #B2A694",
"*. c #90A0AB",
"=. c #8CABBB",
"-. c #8BACBC",
";. c #E69993",
":. c #D8AFB7",
">. c #EFB8BA",
",. c #8EB7C9",
"<. c #93B1C0",
"1. c #91B9CB",
"2. c #C4D2DD",
"3. c #D2DAD9",
"4. c #C1DEE9",
"5. c #D8E6EB",
"6. c #D0EAF3",
"7. c #D6F1FA",
"8. c #DCF3FA",
"9. c #DEF4FB",
"0. c #E8F7FC",
"q. c #EFF9FB",
"w. c #ECF9FD",
"e. c #EEF9FD",
"r. c #F8F5F4",
"t. c #F3F5F8",
"y. c #F4FBFE",
"u. c #F6FCFE",
"i. c #F7FCFE",
"p. c None",
/* pixels */
"p.p.p.p.p.p.p.p.p.p.p.p.p.p.p.p.p.",
"p.p.N x n p.p.p.p.p.p.p.p.p.p.p.p.",
"p.Z p.p.$ 6 %.=.| d : p.Z n N p.p.",
"p.N p.> g 5.e.r.Q / ~ w p.p.p.k p.",
"p.p.. f ' O.7.2.J L P ! 5 p.p.h p.",
"p.p.q ` R K p 3 < { X.t.-.+ D p.p.",
"p.p.s T H t   p.p.* 1.y.6.q p.p.p.",
"p.p.#.>.:.7 p.p.p.p.$.0.9.5 p.p.p.",
"p.p.@.e.7.a p.p.p.- } ] ^ * p.p.p.",
"p.p.8 8.y.&.1 p.7 i [ Q E % p.p.p.",
"p.Z # *. .( _ o.,.3.) U e X p.p.p.",
"p.p.p.% F I U +.u.u.;.r @ p.p.p.p.",
"p.p.p.p.9 y G ..4.<.u O p.p.c p.p.",
"p.b Z Z j p.& 2 3 O v p.p.p.x p.p.",
"p.p.p.p.p.p.p.p.p.p.p.l V V p.p.p.",
"p.p.p.p.p.p.p.p.p.p.p.p.p.p.p.p.p.",
"p.p.p.p.p.p.p.p.p.p.p.p.p.p.p.p.p."
};
