/* XPM */
static char *help_32x32[] = {
/* columns rows colors chars-per-pixel */
"33 33 166 2 ",
"   c #1C2936",
".  c #1E2D3E",
"X  c #182735",
"o  c #3B2835",
"O  c #680E0A",
"+  c #700F0B",
"@  c #77120C",
"#  c #5C2E37",
"$  c #4C313F",
"%  c #57303B",
"&  c #602227",
"*  c #6C2A31",
"=  c #1F2F41",
"-  c #1F3041",
";  c #223346",
":  c #24374A",
">  c #25394D",
",  c #37394B",
"<  c #293D53",
"1  c #273D52",
"2  c #323D52",
"3  c #493545",
"4  c #4E3E50",
"5  c #523F51",
"6  c #6A3C47",
"7  c #783946",
"8  c #2D4156",
"9  c #2F465B",
"0  c #3A4A5B",
"q  c #33455A",
"w  c #364E63",
"e  c #3B5569",
"r  c #3F586C",
"t  c #464659",
"y  c #4B535D",
"u  c #52585E",
"i  c #744150",
"p  c #485064",
"a  c #435A6D",
"s  c #575A62",
"d  c #445F73",
"f  c #605C60",
"g  c #4A657A",
"h  c #4C697E",
"j  c #466075",
"k  c #5A6670",
"l  c #666160",
"z  c #83130D",
"x  c #88130D",
"c  c #93150E",
"v  c #98150E",
"b  c #861C18",
"n  c #9D1610",
"m  c #971812",
"M  c #9E1D18",
"N  c #A2170F",
"B  c #A3180F",
"V  c #A21710",
"C  c #A81710",
"Z  c #A41912",
"A  c #AE1911",
"S  c #AE151C",
"D  c #B01911",
"F  c #BE291F",
"G  c #9D1D27",
"H  c #A92028",
"J  c #A2242D",
"K  c #D3090C",
"L  c #DC0507",
"P  c #D8130F",
"I  c #D31912",
"U  c #ED0201",
"Y  c #EE0B05",
"T  c #E70202",
"R  c #EF1207",
"E  c #EE180A",
"W  c #F11C0C",
"Q  c #F01509",
"!  c #F1220E",
"~  c #EA2516",
"^  c #F22710",
"/  c #F22C13",
"(  c #EB3317",
")  c #F33516",
"_  c #F43B19",
"`  c #F43817",
"'  c #BC4030",
"]  c #BF5336",
"[  c #F6451C",
"{  c #F64A1F",
"}  c #CB482A",
"|  c #F74D20",
" . c #F44721",
".. c #F75322",
"X. c #F85B26",
"o. c #EF5D3D",
"O. c #D9743B",
"+. c #F9652A",
"@. c #F76B2E",
"#. c #FA6C2C",
"$. c #F7673F",
"%. c #F5683B",
"&. c #E77D39",
"*. c #FC7C34",
"=. c #FA7239",
"-. c #9F5C47",
";. c #8C6D57",
":. c #936C53",
">. c #936252",
",. c #A86547",
"<. c #EE5354",
"1. c #C57445",
"2. c #FA7B4A",
"3. c #DB5E63",
"4. c #DA736F",
"5. c #EA6865",
"6. c #F36767",
"7. c #EA7C77",
"8. c #FB8539",
"9. c #D4857D",
"0. c #68879A",
"q. c #6E8DA0",
"w. c #6C93A8",
"e. c #7292A4",
"r. c #7797A9",
"t. c #77A0B4",
"y. c #A68391",
"u. c #A49FAE",
"i. c #86A7B8",
"p. c #80AABE",
"a. c #B8B3BE",
"s. c #CA9690",
"d. c #DF9A9A",
"f. c #E9AB85",
"g. c #CEA1AA",
"h. c #9ABCCB",
"j. c #A9CDDA",
"k. c #AEDBEC",
"l. c #B1D4E2",
"z. c #B8DCE9",
"x. c #BFE9F8",
"c. c #B8E4F3",
"v. c #CDC8C5",
"b. c #DBCED3",
"n. c #E5CBCC",
"m. c #F1CFC8",
"M. c #E4D5CD",
"N. c #FAD0CD",
"B. c #EFD8D1",
"V. c #C2EAF8",
"C. c #CCEEF9",
"Z. c #C6E7F3",
"A. c #D0EFFA",
"S. c #D3EEF7",
"D. c #D6F1FA",
"F. c #DCF3FB",
"G. c #ECEDEF",
"H. c #F7E5E6",
"J. c #E6EFF3",
"K. c #E3F6FC",
"L. c #EBF8FD",
"P. c #EBF3F5",
"I. c #F5FCFE",
"U. c #FBFEFF",
"Y. c #FBF3F2",
"T. c None",
/* pixels */
"T.T.T.T.T.T.T.T.T.T.T.T.T.T.T.T.T.T.T.T.T.T.T.T.T.T.T.T.T.T.T.T.T.",
"T.T.T.T.T.T.T.T.T.T.T.T.T.T.T.T.T.T.T.T.T.T.T.T.T.T.T.T.T.T.T.T.T.",
"T.T.T.T.D D D D A T.T.T.T.T.T.T.T.T.T.T.T.T.T.T.T.T.T.T.T.T.T.T.T.",
"T.T.T.D N T.T.T.v D C T.T.< < < 8 < T.T.T.T.T.T.T.T.T.T.T.T.T.T.T.",
"T.T.T.A T.T.T.T.T.& 3 1 1 9 g h s 0 < < < T.T.T.D D D D A T.T.T.T.",
"T.T.A V T.T.T.T.< < q 0.j.C.A.S.*.*.&.:.0 < , M A c T.O m A T.T.T.",
"T.T.A V T.T.T.< < k z.S.F.K.L.G.X.X.+.+.+.>.< < T.T.T.T.T.n Z T.T.",
"T.T.T.A T.T.< < :.8.M.L.U.U.U.H.` _ [ [ | | } 9 < T.T.T.T.T.A T.T.",
"T.T.T.D z T.< ;.8.+.2.H.L.K.D.b.E W ^ ^ / ) ) ' < > T.T.T.T.A T.T.",
"T.T.T.C M 1 s *.+.| ` 5.C.V.k.u.L U U Y Y Y ~ d.q.< T.T.T.D C T.T.",
"T.T.T.T.# 1 O.+.| ` ! Y y.h < 1 1 t J U U <.H.K.Z.w 1 T.T.A T.T.T.",
"T.T.T.T.1 s +.| ) W U H < 1 : . = < < 7 g.F.U.L.D.e.< T.D C T.T.T.",
"T.T.T.T.< -.{ ) W Y K 2 2 T.T.T.T.T.> 1 t.A.L.U.F.l.1 * A T.T.T.T.",
"T.T.T.T.< } ) E U U 7 < T.T.T.T.T.T.T.< a V.F.U.K.C.9 $ T.T.T.T.T.",
"T.T.T.1 1 9.7.6.5.3.p > T.T.T.T.T.T.T.< < k.D.U.L.D.j : T.T.T.T.T.",
"T.T.T.< < Z.K.U.F.V.e : T.T.T.T.T.T.T.T.< j.D.I.L.C.j > T.T.T.T.T.",
"T.T.T.< < z.K.U.K.V.h < T.T.T.T.T.T.T.< 8 8.*.=.%.o.t > T.T.T.T.T.",
"T.T.T.T.< h.F.U.L.C.t.8 = T.T.T.T.T.T.< l 8.#.X.[ ( 8 ; T.T.T.T.T.",
"T.T.T.T.1 e.D.L.I.F.c.a < T.T.T.T.T.< 9 O.#.X.{ ) F <   T.T.T.T.T.",
"T.T.T.A 3 w C.K.U.P.f.&.y < < < 8 < q 1.@.X.{ ` ! 6 < T.T.T.T.T.T.",
"T.T.D D o < i.D.B.2.+.#.@.,.f a h w.k.f.X.| ` ^ I 8 % T.T.T.T.T.T.",
"T.T.D T.T.< 9 s. .{ { { ....X.v.V.V.D.J.2._ ^ Q 5 < b A T.T.T.T.T.",
"T.D V T.T.T.> t ~ / ) ) ) _ _ n.K.L.I.U.m.^ Q 7 1 = T.A c T.T.T.T.",
"T.D T.T.T.T.T.1 4 P R R W W ! N.U.U.L.K.S.4.7 < : T.T.T.A T.T.T.T.",
"T.D T.T.T.T.T.T.1 8 G U U U U n.K.K.D.C.h.e < : T.T.T.T.D T.T.T.T.",
"T.A x T.T.T.T.T.T.3 < q 7 S K a.l.h.r.a < <   T.T.T.T.T.A + T.T.T.",
"T.T.D n T.T.T.D D m   > 1 < < < 1 1 < < * b T.T.T.T.T.T.D T.T.T.T.",
"T.T.T.A D A A V T.T.T.T.T.T.. . . X T.T.T.D B T.T.T.T.T.D T.T.T.T.",
"T.T.T.T.T.T.T.T.T.T.T.T.T.T.T.T.T.T.T.T.T.T.A A A D D D z T.T.T.T.",
"T.T.T.T.T.T.T.T.T.T.T.T.T.T.T.T.T.T.T.T.T.T.T.@ v N n T.T.T.T.T.T.",
"T.T.T.T.T.T.T.T.T.T.T.T.T.T.T.T.T.T.T.T.T.T.T.T.T.T.T.T.T.T.T.T.T.",
"T.T.T.T.T.T.T.T.T.T.T.T.T.T.T.T.T.T.T.T.T.T.T.T.T.T.T.T.T.T.T.T.T.",
"T.T.T.T.T.T.T.T.T.T.T.T.T.T.T.T.T.T.T.T.T.T.T.T.T.T.T.T.T.T.T.T.T."
};
