/* XPM */
static char *logout_16x16[] = {
/* columns rows colors chars-per-pixel */
"18 18 131 2 ",
"   c black",
".  c #030201",
"X  c #130D08",
"o  c #332117",
"O  c #352118",
"+  c #362318",
"@  c #3C291F",
"#  c #202020",
"$  c #7E0000",
"%  c #7F0000",
"&  c #7C0301",
"*  c #7D0303",
"=  c #423026",
"-  c #4A382E",
";  c #513F35",
":  c #59463C",
">  c #5A463E",
",  c #644B2C",
"<  c #7C5E23",
"1  c gray27",
"2  c #5C4940",
"3  c #6C6C6C",
"4  c #800000",
"5  c #810502",
"6  c #9B0502",
"7  c #8D1A0A",
"8  c #921807",
"9  c #A40300",
"0  c #A00500",
"q  c #AE0500",
"w  c #B71D16",
"e  c #94260E",
"r  c #9C2F0F",
"t  c #902B15",
"y  c #9E3A19",
"u  c #A43C12",
"i  c #CE0100",
"p  c #CC0500",
"a  c #C10B00",
"s  c #C20B00",
"d  c #D00200",
"f  c #D00300",
"g  c #D20300",
"h  c #DF0800",
"j  c #E40B00",
"k  c #EC0D00",
"l  c #ED0E00",
"z  c #EF0F00",
"x  c #F31000",
"c  c #FA1501",
"v  c #FC1400",
"b  c #FD1400",
"n  c #FF1500",
"m  c #FF1B06",
"M  c #DF3D32",
"N  c #EB3426",
"B  c #A5481F",
"V  c #A74B1F",
"C  c #9F4425",
"Z  c #A35729",
"A  c #816223",
"S  c #C27026",
"D  c #9F5553",
"F  c #996055",
"G  c #826F64",
"H  c #E9594E",
"J  c #F16F65",
"K  c #FF6F62",
"L  c #F07F76",
"P  c #9E802B",
"I  c #A48027",
"U  c #A78229",
"Y  c #B28931",
"T  c #B38931",
"R  c #B38A32",
"E  c #B58B36",
"W  c #B88F3A",
"Q  c #AF9136",
"!  c #BC933E",
"~  c #BAA03F",
"^  c #DA8F2C",
"/  c #C79C30",
"(  c #DBAC34",
")  c #D5AC3E",
"_  c #ECAA34",
"`  c #F2B437",
"'  c #F0BC3A",
"]  c #FDC73D",
"[  c #FFC83D",
"{  c #FFC83E",
"}  c #FFC93E",
"|  c #AD9946",
" . c #BC9342",
".. c #B99444",
"X. c #A18857",
"o. c #B7A045",
"O. c #BAA74B",
"+. c #B9A54C",
"@. c #BCA74D",
"#. c #BEAA4E",
"$. c #AF9261",
"%. c #A99368",
"&. c #D4B14F",
"*. c #C5B254",
"=. c #E9BB4A",
"-. c #CCAA60",
";. c #FCCC45",
":. c #FCCD45",
">. c #FDCD45",
",. c #FCCD46",
"<. c #FAD14D",
"1. c #F8D554",
"2. c #F8D655",
"3. c #F6DA5C",
"4. c #F6DA5D",
"5. c #E0CE6F",
"6. c gray57",
"7. c #A99081",
"8. c #BE9F9D",
"9. c #B1A390",
"0. c #B6B6B6",
"q. c #C6C6C6",
"w. c #CDC8C5",
"e. c #CFCBC7",
"r. c #CCCBCB",
"t. c #D2D2D2",
"y. c #D5D5D5",
"u. c #D7D7D7",
"i. c #D8D7D5",
"p. c gray85",
"a. c None",
/* pixels */
"a.a.a.a.a.a.a.a.a.a.a.a.a.a.a.a.a.a.",
"a.a., o.~ Q P I U U < X X o a.a.a.a.",
"a.a.| 3.1.<.:.' ( / A       + a.a.a.",
"a.a.+.3.1.<.,.{ { { R       O a.a.a.",
"a.a.O.3.1.<.,.{ [ { R       O a.a.a.",
"a.a.@.3.1.<.:.{ [ { R       O a.a.a.",
"a.a.#.3.1.<.,.{ [ ) ..      O a.a.a.",
"a.a.*.3.=.e S { [ &.-.# # # @ a.a.a.",
"a.5 t w 7 a w r ` [ R 1 1 1 = a.a.a.",
"5 N J -.H c K M 8 _ ! 3 3 3 - a.a.a.",
"5 k k z x c c m s u ! 6.6.6.; a.a.a.",
"* i i g g h m j 0 ^  .0.0.0.> a.a.a.",
"a.* C C 5 g i q Z $.9.q.q.q.2 a.a.a.",
"a.a.5.4.V q 6 D r.t.y.p.p.i.> a.a.a.",
"a.a.X.%.7.D 9.e.e.e.w.e.w.G a.a.a.a.",
"a.a.a.a.a.a.a.a.a.a.a.a.a.a.a.a.a.a.",
"a.a.a.a.a.a.a.a.a.a.a.a.a.a.a.a.a.a.",
"a.a.a.a.a.a.a.a.a.a.a.a.a.a.a.a.a.a."
};
