/* XPM */
static char *logout_32x32[] = {
/* columns rows colors chars-per-pixel */
"35 35 158 2 ",
"   c #000000",
".  c #0D0805",
"X  c #1E140D",
"o  c #161616",
"O  c #21160F",
"+  c #39251A",
"@  c gray16",
"#  c #3C3C3C",
"$  c #7E0000",
"%  c #780908",
"&  c #40291D",
"*  c #593F1E",
"=  c #4C3222",
"-  c #4F382C",
";  c #523626",
":  c #543826",
">  c #533B2D",
",  c #593E2E",
"<  c #533728",
"1  c #59411E",
"2  c #5E4232",
"3  c #61442A",
"4  c #6D592C",
"5  c #7A572A",
"6  c #7C592C",
"7  c #674A32",
"8  c #7F5D32",
"9  c #715739",
"0  c #7C6635",
"q  c #505050",
"w  c #755C4F",
"e  c #7F644C",
"r  c #7B6456",
"t  c #626262",
"y  c gray46",
"u  c #810201",
"i  c #8B0200",
"p  c #840F0F",
"a  c #930200",
"s  c #9B0400",
"d  c #8C1608",
"f  c #911D09",
"g  c #A30500",
"h  c #A13A15",
"j  c #8D3C20",
"k  c #C30500",
"l  c #CC0200",
"z  c #C40C00",
"x  c #CE0D00",
"c  c #D20300",
"v  c #DB0700",
"b  c #DB0F00",
"n  c #D50E00",
"m  c #C5150A",
"M  c #E30A00",
"N  c #EC0D00",
"B  c #EB1200",
"V  c #F21201",
"C  c #FE1500",
"Z  c #FF1A06",
"A  c #FF1E0B",
"S  c #FD200C",
"D  c #E62D1F",
"F  c #F83423",
"G  c #AB4C1C",
"H  c #B14F18",
"J  c #B2521A",
"K  c #BD611E",
"L  c #815F34",
"P  c #894727",
"I  c #B35C24",
"U  c #846C2A",
"Y  c #88702B",
"T  c #947326",
"R  c #9C7B26",
"E  c #907328",
"W  c #85653A",
"Q  c #846F39",
"!  c #846637",
"~  c #8A743A",
"^  c #8F7A3C",
"/  c #857030",
"(  c #907A36",
")  c #A27E28",
"_  c #A66D3F",
"`  c #BD7431",
"'  c #B56328",
"]  c #C77122",
"[  c #C17630",
"{  c #9B4040",
"}  c #92554D",
"|  c #925950",
" . c #846747",
".. c #8F754A",
"X. c #937D43",
"o. c #FE6355",
"O. c #B28C2B",
"+. c #BF962E",
"@. c #BA9634",
"#. c #D28329",
"$. c #DE942D",
"%. c #C79239",
"&. c #E49E30",
"*. c #CEAA3D",
"=. c #D1A432",
"-. c #E1A137",
";. c #E6B63A",
":. c #F3BA39",
">. c #FBC33D",
",. c #FFC83D",
"<. c #F7C23B",
"1. c #998346",
"2. c #AB965C",
"3. c #B7A15F",
"4. c #CF9944",
"5. c #D6A146",
"6. c #C6AA53",
"7. c #E3BB49",
"8. c #FF8479",
"9. c #CCB87B",
"0. c #FDCC44",
"q. c #F5CB49",
"w. c #FAD14D",
"e. c #F4CC50",
"r. c #EED85F",
"t. c #F7D756",
"y. c #F9D554",
"u. c #F6DA5C",
"i. c #EBD663",
"p. c #F4DD62",
"a. c #FBD576",
"s. c #888888",
"d. c #9D8E80",
"f. c #9A9A9A",
"g. c #AB9D8F",
"h. c #B0908C",
"j. c #B89B9A",
"k. c #ADA19A",
"l. c #B0A49D",
"z. c gray68",
"x. c #B5A9A2",
"c. c #BBB0AC",
"v. c #BFBDBC",
"b. c #FF8D83",
"n. c #FFA69E",
"m. c #FFBFB9",
"M. c #DAC384",
"N. c #E8D195",
"B. c #C5C5C5",
"V. c #CBCBCB",
"C. c #D4CCCA",
"Z. c gray83",
"A. c #DCDCDC",
"S. c #FFC7C2",
"D. c #FFDAD6",
"F. c #FFE0DD",
"G. c #E5E5E5",
"H. c None",
/* pixels */
"H.H.H.H.H.H.H.H.H.H.H.H.H.H.H.H.H.H.H.H.H.H.H.H.H.H.H.H.H.H.H.H.H.H.H.",
"H.H.H.H.H.H.H.: : : : : : : : : : : : : = = ; ; ; ; H.H.H.H.H.H.H.H.H.",
"H.H.H.H.H.; 4 ( / 0 Y Y Y E T T T R R R O.* X X X O & ; H.H.H.H.H.H.H.",
"H.H.H.H.; ^ u.u.t.q.7.*.@.O.O.O.O.O.O.O.O.1           + H.H.H.H.H.H.H.",
"H.H.H.H.3 r.u.u.t.y.w.w.w.<.;.=.%.O.O.O.O.1           . = H.H.H.H.H.H.",
"H.H.H.H.0 p.u.t.y.y.w.w.0.0.0.,.,.<.;.=.+.1             = H.H.H.H.H.H.",
"H.H.H.H.0 p.u.u.t.y.w.w.0.0.,.,.,.,.,.,.,.5             = H.H.H.H.H.H.",
"H.H.H.H.Q p.u.u.y.y.w.w.w.0.,.,.,.,.,.,.,.5             = H.H.H.H.H.H.",
"H.H.H.H.Q p.u.u.t.y.w.w.0.0.0.,.,.,.,.,.,.6             = H.H.H.H.H.H.",
"H.H.H.H.Q p.u.u.t.y.w.w.0.0.0.,.,.,.,.,.,.6             = H.H.H.H.H.H.",
"H.H.H.H.~ p.u.u.y.y.w.w.w.0.,.,.,.,.,.,.,.5             = H.H.H.H.H.H.",
"H.H.H.H.~ p.u.u.t.y.w.w.0.0.0.,.,.,.,.,.,.5             = H.H.H.H.H.H.",
"H.H.H.H.~ p.u.u.t.y.w.w.0.0.,.,.,.,.,.,.>.6             = H.H.H.H.H.H.",
"H.H.H.H.^ p.u.u.t.y.w.w.w.0.0.,.,.,.@.2.M.6   . .   . . = H.H.H.H.H.H.",
"H.H.H.H.X.p.u.u.y.e.G h -.0.0.,.,.,.X.q.N.6 o o o o o o = H.H.H.H.H.H.",
"H.H.H.H.1.p.u.u.t.I $ $ $ J <.,.,.,.;.9.a.6 @ @ @ @ @ @ ; H.H.H.H.H.H.",
"H.H.H.% j ` ` ` ' u i b s $ f &.,.,.,.,.,.6 # # # # # # ; H.H.H.H.H.H.",
"H.$ $ $ $ $ $ $ $ $ g C o.m $ p ] ,.,.,.,.8 q q q q q q < H.H.H.H.H.H.",
"$ $ x b n x z z z z B C n.D.D p $ J ,.,.,.8 t t t t t t < H.H.H.H.H.H.",
"$ u S b.S.F.F.D.m.8.A C Z F o.F a $ H ,.,.0 y y y y y y > H.H.H.H.H.H.",
"$ u C C C C Z Z C C C C C C C A V u u #.,.! s.s.s.s.s.s.< H.H.H.H.H.H.",
"$ $ v v v v v M M N V C C C C C C s u J ,.! f.f.f.f.f.f., H.H.H.H.H.H.",
"$ $ c l l l l l l l c C C C C N l $ d :.,.W z.z.z.z.z.z., H.H.H.H.H.H.",
"$ $ s k z l l l c l l M C C v c a u $.,.:.W B.v.v.v.v.B., H.H.H.H.H.H.",
"u $ $ $ $ $ $ $ $ $ l l c l c a $ #.%.W  .g.B.B.V.B.B.B.2 H.H.H.H.H.H.",
"H.H.H.H._ 4.5.%.f $ k l l l a u P e d.v.B.B.V.B.B.B.B.B., H.H.H.H.H.H.",
"H.H.H.H.3.p.p.u.[ $ i l k i $ | v.B.B.B.V.B.V.V.Z.Z.V.A.2 H.H.H.H.H.H.",
"H.H.H.H.X.p.p.u.7.u u $ $ p j.Z.Z.A.A.A.G.G.G.G.G.G.G.V.2 H.H.H.H.H.H.",
"H.H.H.H.9 i.6...e | u $ { C.G.G.G.G.G.G.G.G.G.G.G.G.G.r + H.H.H.H.H.H.",
"H.H.H.H.H.7  .l.c.c.j.h.x.l.l.l.l.l.l.l.k.x.x.k.k.k.w > H.H.H.H.H.H.H.",
"H.H.H.H.H.H.H., > > > > , > > > > > 2 - > > > > > - + H.H.H.H.H.H.H.H.",
"H.H.H.H.H.H.H.H.H.H.H.H.H.H.H.H.H.H.H.H.H.H.H.H.H.H.H.H.H.H.H.H.H.H.H.",
"H.H.H.H.H.H.H.H.H.H.H.H.H.H.H.H.H.H.H.H.H.H.H.H.H.H.H.H.H.H.H.H.H.H.H.",
"H.H.H.H.H.H.H.H.H.H.H.H.H.H.H.H.H.H.H.H.H.H.H.H.H.H.H.H.H.H.H.H.H.H.H.",
"H.H.H.H.H.H.H.H.H.H.H.H.H.H.H.H.H.H.H.H.H.H.H.H.H.H.H.H.H.H.H.H.H.H.H."
};
