/* XPM */
static char *reboot_16x16[] = {
/* columns rows colors chars-per-pixel */
"17 17 105 2 ",
"   c #0D3B07",
".  c #0D3D06",
"X  c #0D3C07",
"o  c #0D3D07",
"O  c #0E3C07",
"+  c #0C3E07",
"@  c #0D3E07",
"#  c #0E3B08",
"$  c #0D3C08",
"%  c #0C3D08",
"&  c #0E3C08",
"*  c #0E3D08",
"=  c #0C4106",
"-  c #0E4008",
";  c #0E4208",
":  c #0F4208",
">  c #0E4308",
",  c #0F4209",
"<  c #0F450A",
"1  c #114909",
"2  c #124B09",
"3  c #114A0A",
"4  c #124F0A",
"5  c #124F0B",
"6  c #13510A",
"7  c #12540A",
"8  c #12580A",
"9  c #14590B",
"0  c #145B0C",
"q  c #155E0C",
"w  c #15610B",
"e  c #16630C",
"r  c #16650C",
"t  c #19670D",
"y  c #18680C",
"u  c #18690D",
"i  c #19700E",
"p  c #1A700E",
"a  c #1A710E",
"s  c #1A710F",
"d  c #1A730E",
"f  c #1C780F",
"g  c #1C790F",
"h  c #1F6F15",
"j  c #1B7310",
"k  c #1C7A10",
"l  c #216316",
"z  c #1D800F",
"x  c #1F8910",
"c  c #1F8811",
"v  c #1F8B10",
"b  c #1F8C10",
"n  c #1F8D10",
"m  c #208B11",
"M  c #208D10",
"N  c #208E12",
"B  c #248817",
"V  c #219013",
"C  c #219312",
"Z  c #239713",
"A  c #239115",
"S  c #229214",
"D  c #239A13",
"F  c #249D13",
"G  c #239B14",
"H  c #249B14",
"J  c #249D14",
"K  c #259C15",
"L  c #26A016",
"P  c #27A116",
"I  c #26A316",
"U  c #27A416",
"Y  c #27A616",
"T  c #27A716",
"R  c #27A817",
"E  c #28A816",
"W  c #29A916",
"Q  c #28AA17",
"!  c #29AB17",
"~  c #2AAF18",
"^  c #2BAF19",
"/  c #2BAF1A",
"(  c #2FAB1D",
")  c #2E8A22",
"_  c #338C27",
"`  c #3F8A35",
"'  c #32A822",
"]  c #38AF28",
"[  c #37B426",
"{  c #3AB429",
"}  c #3EA830",
"|  c #428938",
" . c #468C3D",
".. c #40AB30",
"X. c #44B934",
"o. c #4ABB3A",
"O. c #519348",
"+. c #4DA342",
"@. c #5FBC53",
"#. c #70BD66",
"$. c #67C25B",
"%. c #75CB6A",
"&. c #79CD6E",
"*. c #88D27D",
"=. c None",
/* pixels */
"=.=.=.=.=.=.=.$ =.=.=.=.=.=.=.=.=.",
"=.=.=.=.=.=.1 S t =.=.=.=.=.=.=.=.",
"=.=.=.=.=., u *.%.S 1 =.=.=.=.=.=.",
"=.=., ` } { ~ ~ [ X.P 1 =.=.=.=.=.",
"=., #.] D n x E ~ ~ E i =.=.=.=.=.",
"o O.' M w o 5 J U C d $ =.=.=.=.=.",
"o +.F i =.=.o x g < =.$ q 6 =.=.=.",
"=.B E z =.=.=.=.=.=.=.$ L ! 6 =.=.",
"=.9 R M o =.=.=.=.=.=.=._ ~ j =.=.",
"=.=.9 r =.=., | ) $ =.=. .^ k =.=.",
"=.=.=.=.o j $.&.(   $ l @.E u =.=.",
"=.=.=.=.j ^ ~ ~ ~ S ..o.I m o =.=.",
"=.=.=.=.7 J ~ ~ E D D M i $ =.=.=.",
"=.=.=.=.=.9 M ! J e $ =.=.=.=.=.=.",
"=.=.=.=.=.=.= k m , =.=.=.=.=.=.=.",
"=.=.=.=.=.=.=.=.# =.=.=.=.=.=.=.=.",
"=.=.=.=.=.=.=.=.=.=.=.=.=.=.=.=.=."
};
