/* XPM */
static char *settings_16x16[] = {
/* columns rows colors chars-per-pixel */
"18 18 104 2 ",
"   c black",
".  c #010101",
"X  c #020100",
"o  c #020200",
"O  c #020202",
"+  c gray1",
"@  c #070502",
"#  c #040404",
"$  c #070707",
"%  c #0D0902",
"&  c gray4",
"*  c #0B0B0B",
"=  c #140F05",
"-  c #180E06",
";  c #141009",
":  c #17140D",
">  c #181109",
",  c #18150E",
"<  c #1E1809",
"1  c #101010",
"2  c gray8",
"3  c #181818",
"4  c #191919",
"5  c gray10",
"6  c #250C0B",
"7  c #261F0C",
"8  c #2E250F",
"9  c #232323",
"0  c gray15",
"q  c #2C2C2C",
"w  c #343434",
"e  c gray22",
"r  c #3C3C3C",
"t  c #71411B",
"y  c #694E2C",
"u  c #6B5835",
"i  c #414141",
"p  c gray28",
"a  c gray31",
"s  c #5A5A5A",
"d  c #5F5F5F",
"f  c #6D6142",
"g  c gray39",
"h  c gray43",
"j  c #6F6F6F",
"k  c #727272",
"l  c #B31A13",
"z  c #A12C16",
"x  c #993C37",
"c  c #9D5C26",
"v  c #805F34",
"b  c #DB672B",
"n  c #D77E33",
"m  c #CB8331",
"M  c #D48733",
"N  c #D98A34",
"B  c #E38F37",
"V  c #E89537",
"C  c #FD923D",
"Z  c #FF933D",
"A  c #FF943D",
"S  c #FF9E3E",
"D  c #968048",
"F  c #B7A577",
"G  c #DB9747",
"H  c #FC9B40",
"J  c #E19453",
"K  c #E9A54E",
"L  c #FFB546",
"P  c #FFB74A",
"I  c #FFB94D",
"U  c #FFB450",
"Y  c #D4B565",
"T  c #DBB363",
"R  c #FED27E",
"E  c gray52",
"W  c gray55",
"Q  c #9B9B9B",
"!  c gray61",
"~  c gray63",
"^  c gray65",
"/  c gray66",
"(  c gray68",
")  c #AEAEAE",
"_  c #AFAFAF",
"`  c gray69",
"'  c #B1B1B1",
"]  c #B2B2B2",
"[  c gray70",
"{  c #B4B4B4",
"}  c #B9B9B9",
"|  c #BAB9B9",
" . c gray",
".. c #C09997",
"X. c #CFBB87",
"o. c #C0BFBF",
"O. c #E3C984",
"+. c #EAD08B",
"@. c #EED28B",
"#. c #F7DB96",
"$. c #C2C1C0",
"%. c gray76",
"&. c #D7D7D7",
"*. c None",
/* pixels */
"*.*.*.  *.*.*.*.*.*.*.*.*.*.*.*.*.*.",
"*.*.& W 0 *.*.*.*.*.& p # *.*.*.*.*.",
"*.  / &.| g   *.# a ^ ` 4 *.*.*.*.*.",
"*.*.s o.~ ` * *.e _ ` r *.*.*.*.*.*.",
"*.*.  ! _ %.4 *.w ` ` 1 q h   *.*.*.",
"*.*.*.4 i g  .1 k ` | ` ` _ 1 *.*.*.",
"*.*.*.*.*.  g  .e E Q ` Q 2 *.*.*.*.",
"*.*.*.*., F u k ..x 6 0   *.*.*.*.*.",
"*.*.*.f #.U n > l b T 8 *.*.*.*.*.*.",
"*., X.R S H y   z Z L @.8 *.*.*.*.*.",
"*.Y %.J G ; *.*.  M A P +.< *.*.*.*.",
"*.D K v *.*.*.*.*.  N A I O.= *.*.*.",
"*.*.  *.*.*.*.*.*.*.@ B A V c   *.*.",
"*.*.*.*.*.*.*.*.*.*.*.% m Z t   *.*.",
"*.*.*.*.*.*.*.*.*.*.*.*.  -   *.*.*.",
"*.*.*.*.*.*.*.*.*.*.*.*.*.*.*.*.*.*.",
"*.*.*.*.*.*.*.*.*.*.*.*.*.*.*.*.*.*.",
"*.*.*.*.*.*.*.*.*.*.*.*.*.*.*.*.*.*."
};
