/* XPM */
static char *settings_32x32[] = {
/* columns rows colors chars-per-pixel */
"35 35 247 2 ",
"   c black",
".  c #010000",
"X  c #010100",
"o  c #010101",
"O  c #020201",
"+  c #030201",
"@  c #030301",
"#  c #020202",
"$  c #040300",
"%  c #040403",
"&  c #060402",
"*  c #040404",
"=  c gray2",
"-  c #060606",
";  c #080502",
":  c #0C0802",
">  c #090909",
",  c #0B0B0B",
"<  c #0C0C0C",
"1  c gray5",
"2  c #0E0E0E",
"3  c #140E04",
"4  c #1B1206",
"5  c #1A130A",
"6  c #101010",
"7  c #111111",
"8  c #131313",
"9  c gray8",
"0  c #1B1B1B",
"q  c gray11",
"w  c #1E1E1E",
"e  c #250504",
"r  c #2D0604",
"t  c #221408",
"y  c #231708",
"u  c #271609",
"i  c #2C1D0A",
"p  c #261D12",
"a  c #37250D",
"s  c #3E310F",
"d  c #3E2E1B",
"f  c #37301E",
"g  c #39311E",
"h  c #38311F",
"j  c #202020",
"k  c #2F2F2F",
"l  c #343434",
"z  c gray21",
"x  c gray22",
"c  c #3A3A3A",
"v  c gray23",
"b  c #3C3C3C",
"n  c gray24",
"m  c #3F3F3F",
"M  c #422610",
"N  c #462811",
"B  c #4E2D13",
"V  c #483620",
"C  c #504019",
"Z  c #754B1C",
"A  c #7E491E",
"S  c #65521F",
"D  c #4A4028",
"F  c #765F26",
"G  c #75663E",
"H  c #7A693E",
"J  c gray25",
"K  c #434343",
"L  c #444444",
"P  c gray27",
"I  c gray29",
"U  c #505050",
"Y  c #555555",
"T  c #565656",
"R  c gray37",
"E  c gray39",
"W  c #656565",
"Q  c gray40",
"!  c #676767",
"~  c #6A6A6A",
"^  c gray42",
"/  c gray43",
"(  c #727272",
")  c #747474",
"_  c #777777",
"`  c gray48",
"'  c #7B7B7B",
"]  c gray49",
"[  c #8C140D",
"{  c #B01911",
"}  c #B21911",
"|  c #B11A11",
" . c #BC2B17",
".. c #842621",
"X. c #A9322C",
"o. c #CE1F14",
"O. c #E52E24",
"+. c #915423",
"@. c #BF5323",
"#. c #806729",
"$. c #9C6D2E",
"%. c #92752E",
"&. c #B2672B",
"*. c #C77731",
"=. c #D17D32",
"-. c #E46C2C",
";. c #EE6B34",
":. c #AE7F46",
">. c #847B65",
",. c #CB4A42",
"<. c #A48535",
"1. c #D08333",
"2. c #DF8D35",
"3. c #E18536",
"4. c #E38F37",
"5. c #E39336",
"6. c #EA9239",
"7. c #EF943A",
"8. c #F4953A",
"9. c #F7963B",
"0. c #FE923D",
"q. c #FF933D",
"w. c #F9963C",
"e. c #FF943D",
"r. c #FF953D",
"t. c #FF963D",
"y. c #FF973E",
"u. c #F69C3B",
"i. c #FF983D",
"p. c #F0AB3C",
"a. c #FFA83D",
"s. c #FFB43E",
"d. c #FFB53E",
"f. c #FFB63E",
"g. c #FFB63F",
"h. c #FFB93F",
"j. c #FFC83D",
"k. c #978149",
"l. c #9A854F",
"z. c #B88342",
"x. c #BC8644",
"c. c #A18A52",
"v. c #AF9450",
"b. c #B39659",
"n. c #E5904C",
"m. c #E8974A",
"M. c #F79D43",
"N. c #F29D46",
"B. c #F59D44",
"V. c #DBAF53",
"C. c #FFBC47",
"Z. c #FFBA48",
"A. c #ECAF58",
"S. c #CD9466",
"D. c #FFCF53",
"F. c #FFD059",
"G. c #FFD260",
"H. c #FED165",
"J. c #FFD468",
"K. c #FBD173",
"L. c #FFD770",
"P. c #FDD672",
"I. c #F9D374",
"U. c #FFD577",
"Y. c #FFD979",
"T. c #838383",
"R. c #848484",
"E. c gray52",
"W. c #8B8B8B",
"Q. c #939393",
"!. c #969595",
"~. c gray60",
"^. c #A09F9F",
"/. c #A0A0A0",
"(. c #A3A2A2",
"). c gray64",
"_. c #A4A4A4",
"`. c gray65",
"'. c #A7A7A7",
"]. c gray66",
"[. c #A9A9A9",
"{. c #AAAAAA",
"}. c #ACABAB",
"|. c #ACACAC",
" X c gray68",
".X c #AEAEAE",
"XX c #AFAEAE",
"oX c #AFAFAF",
"OX c gray69",
"+X c #B1B1B1",
"@X c #B2B2B2",
"#X c gray70",
"$X c #B4B3B3",
"%X c #B4B4B4",
"&X c gray71",
"*X c #B6B6B6",
"=X c #B7B7B7",
"-X c gray72",
";X c #B9B9B9",
":X c gray73",
">X c #BBBABA",
",X c #BBBBBB",
"<X c #BFBEBB",
"1X c #BCBCBC",
"2X c gray",
"3X c #BFBEBE",
"4X c #F29A95",
"5X c #C9AB8F",
"6X c #EBCD82",
"7X c #ECCE84",
"8X c #EDCF84",
"9X c #FEE7AE",
"0X c #FFE8AE",
"qX c #FEE9B3",
"wX c #FFECBE",
"eX c #FFEDBE",
"rX c #C0C0C0",
"tX c #C2C1C1",
"yX c gray76",
"uX c gray77",
"iX c #C5C4C4",
"pX c #C6C6C6",
"aX c gray78",
"sX c gray79",
"dX c #CAC9C9",
"fX c #CDCDCD",
"gX c #D2D2D2",
"hX c #D6D5D5",
"jX c gray84",
"kX c #D8D8D8",
"lX c gray85",
"zX c #DED9D8",
"xX c gainsboro",
"cX c #DDDDDD",
"vX c gray87",
"bX c #E8DFC6",
"nX c #FFEEC1",
"mX c #FFEEC5",
"MX c #FFEFC5",
"NX c #FEEEC6",
"BX c #FFEFC7",
"VX c #F5EBD1",
"CX c #FFF4D7",
"ZX c gray88",
"AX c gray89",
"SX c gray90",
"DX c None",
/* pixels */
"DXDXDXDXDXDXDXDXDXDXDXDXDXDXDXDXDXDXDXDXDXDXDXDXDXDXDXDXDXDXDXDXDXDXDX",
"DXDXDXDXDXDX    DXDXDXDXDXDXDXDXDXDXDXDXDXDXDXDXDXDXDXDXDXDXDXDXDXDXDX",
"DXDXDXDXDX  0 K     DXDXDXDXDXDXDXDXDXDXDXDX      DXDXDXDXDXDXDXDXDXDX",
"DXDXDXDX  w rXgXR.2   DXDXDXDXDXDXDXDXDX  2 W '.=   DXDXDXDXDXDXDXDXDX",
"DXDXDX  w aXSXhXpX+Xx   * DXDXDXDXDX  < W &X[.&XI   DXDXDXDXDXDXDXDXDX",
"DXDXDX  E.AXlXdX:X|.#X/ * DXDXDX  > R &X[.|.&X'.2   DXDXDXDXDXDXDXDXDX",
"DXDXDX  q iXfX2X.X/.Q.:X, DXDXDX  ^ #X[.:X=X[.7   DXDXDXDXDXDXDXDXDXDX",
"DXDXDXDX  W rX@X).!.#XyX8 # DXDX  ^ .X:X:X|.8   DXDXDX  DXDXDXDXDXDXDX",
"DXDXDXDX  = _.}.~.&XrXaXw * DXDX  W |.:X&XW.  DX    < k   DXDXDXDXDXDX",
"DXDXDXDXDX  z :X@XrXrXrXD   DXDX  ~ |.2X1XrXc   j ) :X@X# DXDXDXDXDXDX",
"DXDXDXDXDX    ~ E.] ` dXcXl       ] :X|.:X&X|.~.rX.X@X&Xx   DXDXDXDXDX",
"DXDXDXDXDXDX          c hXAXv   ) dXdX[.-X1X%X[..X:X=X` =   DXDXDXDXDX",
"DXDXDXDXDXDXDXDXDXDX    P lXZXv < /.aXuX/.@X:X2X&X:XP     DXDXDXDXDXDX",
"DXDXDXDXDXDXDXDXDXDXDX    U xXcXn , P J / 1X2X2X/.0     DXDXDXDXDXDXDX",
"DXDXDXDXDXDXDXDXDX    G >.= T xXcXn e r   7 U T =   DXDXDXDXDXDXDXDXDX",
"DXDXDXDXDXDXDXDX  g 8XbXb.Z   ! zX,.O.4X..        DXDXDXDXDXDXDXDXDXDX",
"DXDXDXDXDXDX    c.qXwXZ.3.&.M   X.} o.;.m.$.    DXDXDXDXDXDXDXDXDXDXDX",
"DXDXDXDXDX  g 6XCXU.a.0.r.*.5   } { -.d.D.nX<.    DXDXDXDXDXDXDXDXDXDX",
"DXDXDXDX  l.9XwXZ.r.0.0.N.p     [  .0.r.s.F.nX%.    DXDXDXDXDXDXDXDXDX",
"DXDX  h 8XVXK.a.r.0.M.z.          @.r.0.r.d.G.MX#.    DXDXDXDXDXDXDXDX",
"DX  D L.3XiX5Xr.0.B.d   DXDXDXDX  $ 2.0.r.0.d.J.MXF @ DXDXDXDXDXDXDXDX",
"DX  v.H.3XcXS.r.z.    DXDXDXDXDXDX  & 4.r.0.r.d.L.MXS @ DXDXDXDXDXDXDX",
"DX  H j.A.n.M.V   DXDXDXDXDXDXDXDXDX  : 6.0.0.0.h.Y.BXC   DXDXDXDXDXDX",
"DX    k.V.x.$   DXDXDXDXDXDXDXDXDXDXDX  3 7.r.0.r.h.0XI.N   DXDXDXDXDX",
"DXDX        DXDXDXDXDXDXDXDXDXDXDXDXDXDX  4 9.0.0.r.p.5.=.t   DXDXDXDX",
"DXDXDXDXDXDXDXDXDXDXDXDXDXDXDXDXDXDXDXDXDX  t 9.0.r.r.r.0.A   DXDXDXDX",
"DXDXDXDXDXDXDXDXDXDXDXDXDXDXDXDXDXDXDXDXDX    i w.u.r.0.r.B   DXDXDXDX",
"DXDXDXDXDXDXDXDXDXDXDXDXDXDXDXDXDXDXDXDXDXDX    a 1.0.0.+.    DXDXDXDX",
"DXDXDXDXDXDXDXDXDXDXDXDXDXDXDXDXDXDXDXDXDXDXDX    ; N u     DXDXDXDXDX",
"DXDXDXDXDXDXDXDXDXDXDXDXDXDXDXDXDXDXDXDXDXDXDXDX          DXDXDXDXDXDX",
"DXDXDXDXDXDXDXDXDXDXDXDXDXDXDXDXDXDXDXDXDXDXDXDXDXDXDXDXDXDXDXDXDXDXDX",
"DXDXDXDXDXDXDXDXDXDXDXDXDXDXDXDXDXDXDXDXDXDXDXDXDXDXDXDXDXDXDXDXDXDXDX",
"DXDXDXDXDXDXDXDXDXDXDXDXDXDXDXDXDXDXDXDXDXDXDXDXDXDXDXDXDXDXDXDXDXDXDX",
"DXDXDXDXDXDXDXDXDXDXDXDXDXDXDXDXDXDXDXDXDXDXDXDXDXDXDXDXDXDXDXDXDXDXDX",
"DXDXDXDXDXDXDXDXDXDXDXDXDXDXDXDXDXDXDXDXDXDXDXDXDXDXDXDXDXDXDXDXDXDXDX"
};
