/* XPM */
static char *shutdown_16x16[] = {
/* columns rows colors chars-per-pixel */
"17 17 168 2 ",
"   c #470000",
".  c #490404",
"X  c #520000",
"o  c #550101",
"O  c #570101",
"+  c #530505",
"@  c #570505",
"#  c #590000",
"$  c #5D0101",
"%  c #590404",
"&  c #5A0404",
"*  c #5B0505",
"=  c #5C0907",
"-  c #5D0907",
";  c #5F0907",
":  c #5D0B0B",
">  c #610000",
",  c #660000",
"<  c #640202",
"1  c #620404",
"2  c #690101",
"3  c #6D0202",
"4  c #680404",
"5  c #690707",
"6  c #6F0707",
"7  c #6A0A08",
"8  c #6D0A08",
"9  c #6E0A08",
"0  c #700202",
"q  c #730303",
"w  c #720505",
"e  c #700606",
"r  c #710606",
"t  c #7F0706",
"y  c #710906",
"u  c #7B0907",
"i  c #710A09",
"p  c #730A0A",
"a  c #750B08",
"s  c #760B0B",
"d  c #750C09",
"f  c #760C09",
"g  c #750D0A",
"h  c #760C0A",
"j  c #760D0A",
"k  c #770E0A",
"l  c #760F0C",
"z  c #7B0908",
"x  c #780A0A",
"c  c #7D0A0A",
"v  c #790D09",
"b  c #7B0D09",
"n  c #790D0A",
"m  c #7E0D0B",
"M  c #7F0E0A",
"N  c #7C0E0C",
"B  c #7F0E0C",
"V  c #6E1412",
"C  c #6B1614",
"Z  c #6C1E1B",
"A  c #781111",
"S  c #781212",
"D  c #7B1212",
"F  c #7D1514",
"G  c #7E1615",
"H  c #772725",
"J  c #8B0605",
"K  c #870A09",
"L  c #800D0B",
"P  c #820C0B",
"I  c #820F0A",
"U  c #870F0B",
"Y  c #810E0E",
"T  c #900908",
"R  c #930908",
"E  c #970A0A",
"W  c #910E0E",
"Q  c #990D0D",
"!  c #83100C",
"~  c #91130D",
"^  c #94130D",
"/  c #9B150E",
"(  c #9F160F",
")  c #891010",
"_  c #8A1111",
"`  c #8E1C1C",
"'  c #971312",
"]  c #921919",
"[  c #931B1B",
"{  c #A20606",
"}  c #A60F0E",
"|  c #AC0E0D",
" . c #B00F0F",
".. c #A0160F",
"X. c #A2160F",
"o. c #A91312",
"O. c #BD1515",
"+. c #B51818",
"@. c #822220",
"#. c #972828",
"$. c #8A3B38",
"%. c #B2302F",
"&. c #B53E3E",
"*. c #C40707",
"=. c #D60A0A",
"-. c #DB0909",
";. c #DE0E0E",
":. c #C31010",
">. c #C61111",
",. c #C91414",
"<. c #C61F1F",
"1. c #CE1E1E",
"2. c #D71414",
"3. c #DD1616",
"4. c #ED0000",
"5. c #EE0202",
"6. c #EF0404",
"7. c #EF0606",
"8. c #EF0E0E",
"9. c #F00808",
"0. c #F10A0A",
"q. c #F20C0C",
"w. c #F30F0F",
"e. c #E81010",
"r. c #E91111",
"t. c #EB1212",
"y. c #ED1313",
"u. c #F31010",
"i. c #F31111",
"p. c #F11313",
"a. c #F41212",
"s. c #F41313",
"d. c #F51414",
"f. c #F51515",
"g. c #F61616",
"h. c #F61717",
"j. c #F01818",
"k. c #F31A1A",
"l. c #F61919",
"z. c #F71919",
"x. c #F51A1A",
"c. c #F71B1B",
"v. c #F01E1E",
"b. c #F81D1D",
"n. c #F81F1F",
"m. c #CC2727",
"M. c #CE2D2D",
"N. c #CD3939",
"B. c #CA3F3F",
"V. c #D03232",
"C. c #E92222",
"Z. c #F52121",
"A. c #F52323",
"S. c #FC2727",
"D. c #F62B2B",
"F. c #F72B2B",
"G. c #F93636",
"H. c #FC3A3A",
"J. c #C44343",
"K. c #FA4747",
"L. c #F75C5C",
"P. c #F96464",
"I. c #F77171",
"U. c #F98F8F",
"Y. c #FA9B9B",
"T. c #F9ABAB",
"R. c #FBB0B0",
"E. c None",
/* pixels */
"E.E.E.E.E.E.E.E.E.E.E.E.E.E.E.E.E.",
"E.: D D D ` [ [ ) ) Y p x p @ E.E.",
"E.#.R.T.U.I.L.%.M.F.Z.c.c.f.5 E.E.",
"E.&.Y.H.S.C.' Z = o.k.c.f.f.6 E.E.",
"E.J.P.S.+.H V C : 1 7 2.f.u.p E.E.",
"E.B.K.1.$.G v.l m 3.8 8 t.u.r E.E.",
"E.N.G.G @.v.b.g m h.:.n E w.r E.E.",
"E.V.F.g m b.c.n I f.p.g z q.q E.E.",
"E.m.Z.n m c.h.X.>.u.e.b u 0.0 E.E.",
"E.<.Z.g I ,.h.f.f.u.T / P 6.3 E.E.",
"E.O.b.W ..g | e.;.T U ! *.6.2 E.E.",
"E. .c.j.p ..^ n m ..~ J 6.6., E.E.",
"E.Q c.h.t.K x ! m y { 6.6.4.< E.E.",
"E.z h.u.u.p.q.=.-.0.7.6.6.4.# E.E.",
"E.. @ * & & 1 5 < o $ o X   E.E.E.",
"E.E.E.E.E.E.E.E.E.E.E.E.E.E.E.E.E.",
"E.E.E.E.E.E.E.E.E.E.E.E.E.E.E.E.E."
};
