/* XPM */
static char *suspend_32x32[] = {
/* columns rows colors chars-per-pixel */
"35 35 195 2 ",
"   c #000000",
".  c #0A0502",
"X  c #0C0C0B",
"o  c #05070B",
"O  c #1B0C03",
"+  c #170A02",
"@  c #1A1206",
"#  c #070E14",
"$  c #141413",
"%  c #1B1B1A",
"&  c #17131D",
"*  c #101018",
"=  c #2A1304",
"-  c #2B1A02",
";  c #3A1A08",
":  c #23161C",
">  c #301C1C",
",  c #342203",
"<  c #382904",
"1  c #292515",
"2  c #2C1723",
"3  c #2D1826",
"4  c #2F1A29",
"5  c #261521",
"6  c #301C2B",
"7  c #301E31",
"8  c gray14",
"9  c #2C2C2B",
"0  c #272827",
"q  c #30302F",
"w  c #343533",
"e  c #373837",
"r  c #3B3B3A",
"t  c #3E3D33",
"y  c #32283F",
"u  c #550000",
"i  c #5F1E00",
"p  c #411C06",
"a  c #6A0D00",
"s  c #731B00",
"d  c #6C1700",
"f  c #5A2A08",
"g  c #523504",
"h  c #583B03",
"j  c #432A0D",
"k  c #6C2E0B",
"l  c #642C0A",
"z  c #663705",
"x  c #793100",
"c  c #3F403D",
"v  c #5E4102",
"b  c #565405",
"n  c #494614",
"m  c #604C02",
"M  c #774D04",
"N  c #655507",
"B  c #765402",
"V  c #42413D",
"C  c #48432D",
"Z  c #1B2A43",
"A  c #2D2E43",
"S  c #332C45",
"D  c #303147",
"F  c #313D5A",
"G  c #333B55",
"H  c #2F3750",
"J  c #1A425B",
"K  c #2E445F",
"L  c #32415F",
"P  c #334565",
"I  c #304C6C",
"U  c #3A4A6C",
"Y  c #37466A",
"T  c #2D5678",
"R  c #3B5677",
"E  c #334972",
"W  c #444543",
"Q  c #474845",
"!  c #484A45",
"~  c #4C4D4C",
"^  c #4F514B",
"/  c #535453",
"(  c #575855",
")  c #5A5B59",
"_  c #5F605D",
"`  c #61625B",
"'  c #676863",
"]  c #656662",
"[  c #6F716C",
"{  c #71736D",
"}  c #747670",
"|  c #797B74",
" . c #820500",
".. c #8F2400",
"X. c #9F2600",
"o. c #8A3C0D",
"O. c #923E0E",
"+. c #A52800",
"@. c #B33C00",
"#. c #864505",
"$. c #97410F",
"%. c #954D0B",
"&. c #875402",
"*. c #9B5E06",
"=. c #BA4A00",
"-. c #A7520D",
";. c #B85805",
":. c #AB4A11",
">. c #A24510",
",. c #B04F10",
"<. c #996802",
"1. c #967800",
"2. c #BA6605",
"3. c #AC7A00",
"4. c #AF6F06",
"5. c #C15D00",
"6. c #CB5A12",
"7. c #C36907",
"8. c #D86F0F",
"9. c #CB7605",
"0. c #D3730D",
"q. c #EE6617",
"w. c #FE6D19",
"e. c #FF7C14",
"r. c #FA7216",
"t. c #7F8279",
"y. c #9B8300",
"u. c #B88500",
"i. c #D08400",
"p. c #D48F00",
"a. c #D79600",
"s. c #DB9603",
"d. c #CB8306",
"f. c #FE8D0F",
"g. c #FF930D",
"h. c #F79B09",
"j. c #FF9C0A",
"k. c #FF8412",
"l. c #FF8B10",
"z. c #DBA500",
"x. c #C9B900",
"c. c #FFAD05",
"v. c #FFA308",
"b. c #E5BC00",
"n. c #E2B400",
"m. c #FFBA01",
"M. c #EAAC01",
"N. c #EAC900",
"B. c #82837C",
"V. c #87897F",
"C. c #2F5D82",
"Z. c #3F5683",
"A. c #2F668E",
"S. c #30658D",
"D. c #2E6C95",
"F. c #387599",
"G. c #1F76A1",
"H. c #2E7CAB",
"J. c #415483",
"K. c #435C8E",
"L. c #435E92",
"P. c #46629A",
"I. c #48649E",
"U. c #4767A2",
"Y. c #4A6DAB",
"T. c #4968A4",
"R. c #4B71B2",
"E. c #4C79BE",
"W. c #4E77BC",
"Q. c #5079BF",
"!. c #4F7AC1",
"~. c #507DC6",
"^. c #3188B9",
"/. c #4080BD",
"(. c #4280A7",
"). c #2F93C9",
"_. c #309AD2",
"`. c #2F98D1",
"'. c #30A9E8",
"]. c #31B5F8",
"[. c #438ACD",
"{. c #4A84CB",
"}. c #5281CC",
"|. c #5385D3",
" X c #558ADA",
".X c #5588D7",
"XX c #5190DE",
"oX c #448AD0",
"OX c #4E94E1",
"+X c #469BE6",
"@X c #43A2EB",
"#X c #93958C",
"$X c #A1A499",
"%X c #AAADA1",
"&X c None",
/* pixels */
"&X&X4 4 3 4 7 7 6 4 7 4 3 4 3 &X&X&X&X&X&X&X&X&X&X&X&X&X&X&X&X&X&X&X&X",
"&XR +X@X+X+X+X+XOXXXXX X X X~.P.: &X&X&X&X&X&X&X&X&X&X&X&X&X&X&X&X&X&X",
"&X^.@XXXXX X X~.G Y..X.X X X X}.5 &X&X&X&X&X&X&X&X&X&X&X&X&X&X&X&X&X&X",
"&X[.OX X X~.U D F.A Y Q. X X X X2 &X&X&X&X&X&X&X&X&X&X&X&X&X&X&X&X&X&X",
"&X[.XX.XR.U R S ^.D L K P. X X X2 &X&X&X&X&X&X&X&X&X&X&X&X&X&X&X&X&X&X",
"&X[..X}.R R R.R `.P Q.F E R. X X2 &X&X&X&X&X&X&X&X&X&X&X&X&X&X&X&X&X&X",
"3 [. XU Y.P. XK.^.E  XR.C.P .X X3 &X&X&X&X&X&X&X&X&X&X&X&X&X&X&X&X&X&X",
"4 [..XI I .X XI.D.R  X XP I |. X3 &X&X&X&X&X&X&X&X&X&X&X&X&X&X&X&X&X&X",
"3 {..XI I .X XW.A U. X XI S.W. X3 &X&X&X&X&X&X&X&X&X&X&X&X&X&X&X&X&X&X",
"2 }. XP D.Y. X X X.X X~.T T ~.|.$     &X&X&X&X&X&X&X&X&X&X&X&X&X&X&X&X",
"&X/..XL ].H |. X X.X.XF '.F I #               &X&X&X&X&X&X&X&X&X&X&X&X",
"&XR. XR.C.'.L Z.T.K.F ).J o   % B.$XV.' W X         &X&X&X&X&X&X&X&X&X",
"&XY. X XJ.S.]._.H.).G.#   $ _ _ n m C | %X%Xt.! X       &X&X&X&X&X&X&X",
"&XI..X X XT.F C.T *   X ( ^ b x.N.b.z.<.g V } #X#X( $     &X&X&X&X&X&X",
"&XJ. X X X X!.Z   . ! [ 1 y.N.N.n.z.s.i.9.;.x ; r [ } ~ X     &X&X&X&X",
"&X6 y S S %   . D B.V.n y.u.a.a.p.i.9.7.5.=.@.X.z r ] ] ) %     &X&X&X",
"&X&X&X&X    q ' } { [ t N 4.&.M 7.5.;.=.@.+...y.b ! ) ~ 9 ~ % &X&X&X&X",
"&X&X&X&X  W / / ) ) ) ) ) W j s  .a ..+.d &.N e ( ~ 9 ! ' _ X &X&X&X&X",
"&X&X&X&X  ! $Xt.) V D ( ) ) ) ~ > u  .i h w ( / q V / 0 o e   &X&X&X&X",
"&X&X&X&X  % B.' / ) ) W e e Q ) ) ~ : $ ~ / e Q L 1 - <.s.@   &X&X&X&X",
"&X&X&X&X    _ 0 h < 8 L ) ) ~ e w e / / e V r $ j 3.d.&.j.z   &X&X&X&X",
"&X&X&X&XO . r , m.M.< 1.h 1 e / ) / r 0 W $ g h h.j.g.h f.%.  &X&X&X&X",
"&X&X&X&X<.- o M c.<.&.c.c.v <.B 1 V / q e M j.<.2.g.k.f e.>.  &X&X&X&X",
"&X&X&X  0.,.= 4.j.h 9.j.h.- v.v.j ^ ^ w / ; l.0.#.e.e.l w.O.  &X&X&X&X",
"&X&X&X  ,.k . 7.k.- l.l.9.z g.g.@ ) ~ e W @ k.r.k w.w.f >.= &X&X&X&X&X",
"&X&X&X&X  &X  6.e.= e.e.-.%.k.8.  $ 8 X   O w.q.k q.o.O   &X&X&X&X&X&X",
"&X&X&X&X&X&X  k 6.= w.w.o.:.r.,.          ; w.:.p .   &X&X&X&X&X&X&X&X",
"&X&X&X&X&X&X&X    . l ,.$.$.w.:.  &X&X&X&X+ O   &X&X&X&X&X&X&X&X&X&X&X",
"&X&X&X&X&X&X&X&X&X&X&X  . ; $.$.  &X&X&X&X  &X&X&X&X&X&X&X&X&X&X&X&X&X",
"&X&X&X&X&X&X&X&X&X&X&X&X&X&X      &X&X&X&X&X&X&X&X&X&X&X&X&X&X&X&X&X&X",
"&X&X&X&X&X&X&X&X&X&X&X&X&X&X&X&X&X&X&X&X&X&X&X&X&X&X&X&X&X&X&X&X&X&X&X",
"&X&X&X&X&X&X&X&X&X&X&X&X&X&X&X&X&X&X&X&X&X&X&X&X&X&X&X&X&X&X&X&X&X&X&X",
"&X&X&X&X&X&X&X&X&X&X&X&X&X&X&X&X&X&X&X&X&X&X&X&X&X&X&X&X&X&X&X&X&X&X&X",
"&X&X&X&X&X&X&X&X&X&X&X&X&X&X&X&X&X&X&X&X&X&X&X&X&X&X&X&X&X&X&X&X&X&X&X",
"&X&X&X&X&X&X&X&X&X&X&X&X&X&X&X&X&X&X&X&X&X&X&X&X&X&X&X&X&X&X&X&X&X&X&X"
};
