/* XPM */
static char *themes_16x16[] = {
/* columns rows colors chars-per-pixel */
"17 17 60 1 ",
"  c #1D0000",
". c #260401",
"X c #200606",
"o c #250704",
"O c #2B0405",
"+ c #3B0A0B",
"@ c #381105",
"# c #38130D",
"$ c #480000",
"% c #440B0E",
"& c #5B0000",
"* c #4E1F0A",
"= c #5E1F1C",
"- c #630000",
"; c #680000",
": c #790000",
"> c #7B0000",
", c #7F0000",
"< c #770B15",
"1 c #582D14",
"2 c #693C1C",
"3 c #583721",
"4 c #72452B",
"5 c #5A4746",
"6 c #735A4F",
"7 c #820000",
"8 c #850000",
"9 c #870000",
"0 c #920000",
"q c #AF1834",
"w c #B51435",
"e c #902C2D",
"r c #823D2D",
"t c #953A32",
"y c #BA2638",
"u c #80461B",
"i c #8B5326",
"p c #8A572B",
"a c #925E30",
"s c #996636",
"d c #9F6E3E",
"f c #C0702A",
"g c #9D7043",
"h c #9F7042",
"j c #9E7046",
"k c #807473",
"l c #E98B2D",
"z c #ED902D",
"x c #9D8371",
"c c #CA9259",
"v c #CD955A",
"b c #F29F41",
"n c #F2B063",
"m c #F2B670",
"M c #F1BA7B",
"N c #F2BC7D",
"B c #A5A3A3",
"V c #EEBB80",
"C c #F2C590",
"Z c None",
/* pixels */
"ZZZZZZZZZZZZZZZZZ",
"ZZZZa1ZZZZZZZZZZZ",
"ZZZ jcZZZZZZZZZZZ",
"ZZZ hM@ZZZZZZZZZZ",
"ZZZZhNiZZZZZZZZZZ",
"ZZZZdnvZZZZZZZZZZ",
"ZZZZsbV.ZZZZZZZZZ",
"ZZZZpzC*ZZZZZZZZZ",
"ZZZZ2lmuZZZZZZZZZ",
"ZZZZofx6ZZZZZZZZZ",
"ZZZZZ5BkZZ;9ZZZZZ",
"ZZZZZX34#Z&-Z:ZZZ",
"ZZZZZZrt=ZZ:&ZZZZ",
"ZZZZZZeyO%,7ZZZZZ",
"ZZZZZZ+qw<09$ZZZZ",
"ZZZZZZZZZZZZZZZZZ",
"ZZZZZZZZZZZZZZZZZ"
};
