/* XPM */
static char *themes_32x32[] = {
/* columns rows colors chars-per-pixel */
"33 33 196 2 ",
"   c #130000",
".  c #160000",
"X  c #180000",
"o  c #190000",
"O  c #1B0000",
"+  c #1C0000",
"@  c #1D0000",
"#  c #1E0000",
"$  c #1F0000",
"%  c #200000",
"&  c #210000",
"*  c #220000",
"=  c #230000",
"-  c #240100",
";  c #270301",
":  c #2B0000",
">  c #2C0000",
",  c #2C0702",
"<  c #2E0802",
"1  c #2D0905",
"2  c #2A0A0A",
"3  c #300506",
"4  c #3A0000",
"5  c #3B0000",
"6  c #310A03",
"7  c #320B03",
"8  c #3F0D0C",
"9  c #301111",
"0  c #3A1E1D",
"q  c #410000",
"w  c #430000",
"e  c #440000",
"r  c #4C0000",
"t  c #4F0000",
"y  c #48070B",
"u  c #46090D",
"i  c #500000",
"p  c #560000",
"a  c #580000",
"s  c #5E0000",
"d  c #5F0000",
"f  c #41180B",
"g  c #461D0C",
"h  c #4A1C08",
"j  c #481F0E",
"k  c #521514",
"l  c #610000",
"z  c #630000",
"x  c #650000",
"c  c #690000",
"v  c #6A0000",
"b  c #6D0000",
"n  c #6E0000",
"m  c #710000",
"M  c #750000",
"N  c #7B0000",
"B  c #7C0000",
"V  c #55240B",
"C  c #5F2C0D",
"Z  c #472218",
"A  c #54311D",
"S  c #6D3610",
"D  c #6B3C1D",
"F  c #771A21",
"G  c #452B27",
"H  c #693223",
"J  c #633D24",
"K  c #703D27",
"L  c #614426",
"P  c #6F4E2E",
"I  c #7E4C24",
"U  c #764B2E",
"Y  c #7B482E",
"T  c #7E502E",
"R  c #584747",
"E  c #5D4E4E",
"W  c #797272",
"Q  c #800000",
"!  c #880000",
"~  c #910000",
"^  c #950000",
"/  c #A80000",
"(  c #AC0000",
")  c #B00000",
"_  c #B10000",
"`  c #B60000",
"'  c #B80000",
"]  c #BB0000",
"[  c #BC0000",
"{  c #8B1628",
"}  c #8F1829",
"|  c #A1152E",
" . c #B81436",
".. c #852A29",
"X. c #812E29",
"o. c #8B352F",
"O. c #82392D",
"+. c #9A3733",
"@. c #943B32",
"#. c #903D32",
"$. c #AE2836",
"%. c #AE2D37",
"&. c #BE2039",
"*. c #BA2639",
"=. c #A23334",
"-. c #A63135",
";. c #C31339",
":. c #CA133B",
">. c #D3103E",
",. c #D8163E",
"<. c #C4213B",
"1. c #8C4D19",
"2. c #8F521D",
"3. c #AD651E",
"4. c #81452F",
"5. c #88552A",
"6. c #905025",
"7. c #844430",
"8. c #894131",
"9. c #966333",
"0. c #996535",
"q. c #9A6636",
"w. c #9E6C3B",
"e. c #9F6E3E",
"r. c #AD6A29",
"t. c #B7662D",
"y. c #B9722C",
"u. c #BF772F",
"i. c #A06F3F",
"p. c #A86B3E",
"a. c #AA6B3E",
"s. c #AE6D3E",
"d. c #B77533",
"f. c #B6753B",
"g. c #B6703E",
"h. c #D97C2F",
"j. c #DB7E2E",
"k. c #CA7333",
"l. c #CD7432",
"z. c #D17730",
"x. c #D07631",
"c. c #D47930",
"v. c #D77B30",
"b. c #E60E42",
"n. c #966E47",
"m. c #9F6C43",
"M. c #996D45",
"N. c #996F46",
"B. c #9C6C44",
"V. c #9E7042",
"C. c #A56B40",
"Z. c #A26C41",
"A. c #A06F40",
"S. c #B47141",
"D. c #827F7F",
"F. c #DA8527",
"G. c #DD8233",
"H. c #F2962C",
"J. c #F2972D",
"K. c #F2972E",
"L. c #E5943A",
"P. c #8D817E",
"I. c #D29049",
"U. c #E49349",
"Y. c #F2A145",
"T. c #ECA95D",
"R. c #F2A852",
"E. c #EAA460",
"W. c #EEAC61",
"Q. c #F2B268",
"!. c #ECB377",
"~. c #F1B671",
"^. c #F2BB7C",
"/. c #878686",
"(. c gray54",
"). c #8B8B8B",
"_. c #A39D9C",
"`. c #BBBBBB",
"'. c #EFB980",
"]. c #F2C187",
"[. c #F2C289",
"{. c #F2C28B",
"}. c #F0C18E",
"|. c #F2C48C",
" X c #F2C99A",
".X c #F2CB9E",
"XX c #F2CCA1",
"oX c #F2CEA4",
"OX c #F2CFA5",
"+X c #F2CFA6",
"@X c #F2CFA7",
"#X c #F2D0A8",
"$X c #C5C5C5",
"%X c gray87",
"&X c #EEEEEE",
"*X c None",
/* pixels */
"*X*X*X*X*X*X*X*X*X*X*X*X*X*X*X*X*X*X*X*X*X*X*X*X*X*X*X*X*X*X*X*X*X",
"*X*X*X*X*X*X*X*X*X% *X*X*X*X*X*X*X*X*X*X*X*X*X*X*X*X*X*X*X*X*X*X*X",
"*X*X*X*X*X*X*X*Xf 6.< *X*X*X*X*X*X*X*X*X*X*X*X*X*X*X*X*X*X*X*X*X*X",
"*X*X*X*X*X*X*X% 9.g.f.% *X*X*X*X*X*X*X*X*X*X*X*X*X*X*X*X*X*X*X*X*X",
"*X*X*X*X*X*X*X% A.S.'.h *X*X*X*X*X*X*X*X*X*X*X*X*X*X*X*X*X*X*X*X*X",
"*X*X*X*X*X*X*X% A.s.XXr.% *X*X*X*X*X*X*X*X*X*X*X*X*X*X*X*X*X*X*X*X",
"*X*X*X*X*X*X*X- V.p.}.W.< *X*X*X*X*X*X*X*X*X*X*X*X*X*X*X*X*X*X*X*X",
"*X*X*X*X*X*X*X% V.p.!.[.S % *X*X*X*X*X*X*X*X*X*X*X*X*X*X*X*X*X*X*X",
"*X*X*X*X*X*X*X% i.C.E.@Xy.% *X*X*X*X*X*X*X*X*X*X*X*X*X*X*X*X*X*X*X",
"*X*X*X*X*X*X*X% w.Z.U.#XT.: *X*X*X*X*X*X*X*X*X*X*X*X*X*X*X*X*X*X*X",
"*X*X*X*X*X*X*X# 0.Z.G.@X].V % *X*X*X*X*X*X*X*X*X*X*X*X*X*X*X*X*X*X",
"*X*X*X*X*X*X*X# 5.B.j.{.OX2.% *X*X*X*X*X*X*X*X*X*X*X*X*X*X*X*X*X*X",
"*X*X*X*X*X*X*X*XD M.h.Q.#XI.% *X*X*X*X*X*X*X*X*X*X*X*X*X*X*X*X*X*X",
"*X*X*X*X*X*X*X*Xg n.v.Y.#X~.7 *X*X*X*X*X*X*X*X*X*X*X*X*X*X*X*X*X*X",
"*X*X*X*X*X*X*X*X% V.c.K..X{.C % *X*X*X*X*X*X*X*X*X*X*X*X*X*X*X*X*X",
"*X*X*X*X*X*X*X*X% A.x.K.^.@X1.% *X*X*X*X*X*X*X*X*X*X*X*X*X*X*X*X*X",
"*X*X*X*X*X*X*X*Xo 0.x.J.R.#Xk.% *X*X*X*X*X*X*X*X*X*X*X*X*X*X*X*X*X",
"*X*X*X*X*X*X*X*X*XI k.J.J. XL.- *X*X*X*X*X*X*X*X*X*X*X*X*X*X*X*X*X",
"*X*X*X*X*X*X*X*X*Xj k.J.F.d.3.7 % *X*X*X*X*X*X*X*X*X*X*X*X*X*X*X*X",
"*X*X*X*X*X*X*X*X*X$ t.T W &X`.R # *X*X*X*X*X*X*X*X*X*X*X*X*X*X*X*X",
"*X*X*X*X*X*X*X*X*Xo Z /.(.%X$XE # *X*X*X*X*Xl *X*X*X*X*X*X*X*X*X*X",
"*X*X*X*X*X*X*X*X*X*X2 P.(._.P.0 # *X*X*X*X^ [ / *X*X*X*X*X*X*X*X*X",
"*X*X*X*X*X*X*X*X*X*X  9 G L P J 1 *X*X*Xi ~ ! B 4 *Xm *X*X*X*X*X*X",
"*X*X*X*X*X*X*X*X*X*X*X# A U Y 7.H % *X*X*X*X*X*X*Xi ` s *X*X*X*X*X",
"*X*X*X*X*X*X*X*X*X*X*X% K 7.8.#.o.% *X*X*X*Xp B Q q : *X*X*X*X*X*X",
"*X*X*X*X*X*X*X*X*X*X*X% O.@.+.=...# *X*X*Xr _ v a r *X*X*X*X*X*X*X",
"*X*X*X*X*X*X*X*X*X*X*X# X.-.%.$.8 % % *Xe ^ _ 5 *X*X*X*X*X*X*X*X*X",
"*X*X*X*X*X*X*X*X*X*X*Xo k *.<.&.% 3 } > x [ ' i *X*X*X*X*X*X*X*X*X",
"*X*X*X*X*X*X*X*X*X*X*X*X# F ,.b.{ :.>.n _ [ [ ( x q *X*X*X*X*X*X*X",
"*X*X*X*X*X*X*X*X*X*X*X*X*X# u | ;. .y M n v l r 4 *X*X*X*X*X*X*X*X",
"*X*X*X*X*X*X*X*X*X*X*X*X*X*X*X  . # # *X*X*X*X*X*X*X*X*X*X*X*X*X*X",
"*X*X*X*X*X*X*X*X*X*X*X*X*X*X*X*X*X*X*X*X*X*X*X*X*X*X*X*X*X*X*X*X*X",
"*X*X*X*X*X*X*X*X*X*X*X*X*X*X*X*X*X*X*X*X*X*X*X*X*X*X*X*X*X*X*X*X*X"
};
