/* XPM */
static char *xterm_32x32[] = {
/* columns rows colors chars-per-pixel */
"35 35 129 2 ",
"   c #000000",
".  c #0B0B0B",
"X  c #160D00",
"o  c #1A0F01",
"O  c #1D1101",
"+  c #131313",
"@  c #1C1C1B",
"#  c #211301",
"$  c #251806",
"%  c #271A08",
"&  c #2B1E0C",
"*  c #322513",
"=  c #362A18",
"-  c #3A2E1D",
";  c #3D301D",
":  c #222222",
">  c #2D2D2D",
",  c #3E3221",
"<  c #30302F",
"1  c #343433",
"2  c #393835",
"3  c #3C3C3C",
"4  c #413523",
"5  c #453827",
"6  c #433828",
"7  c #514736",
"8  c #544937",
"9  c #514638",
"0  c #444444",
"q  c #484642",
"w  c #4C4A47",
"e  c #4C4C4C",
"r  c #5A5041",
"t  c #535353",
"y  c #5A5A5A",
"u  c #655B4C",
"i  c #6C614F",
"p  c #726958",
"a  c #626262",
"s  c #6C6B65",
"d  c #6B6B6B",
"f  c #746B60",
"g  c #7D7260",
"h  c #74726A",
"j  c #7D7B71",
"k  c #807865",
"l  c #877F6D",
"z  c #837D73",
"x  c #8E816F",
"c  c #818076",
"v  c #8D8472",
"b  c #8C847A",
"n  c #8B8A7F",
"m  c #928674",
"M  c #948977",
"N  c #948D7B",
"B  c #9B907E",
"V  c #938C83",
"C  c #949185",
"Z  c #9C9382",
"A  c #95938B",
"S  c #9C9A8E",
"D  c #A39482",
"F  c #A29986",
"G  c #A89A87",
"H  c #A0978B",
"J  c #A49C89",
"K  c #AA9E8C",
"L  c #A49E96",
"P  c #AFA28F",
"I  c #A2A193",
"U  c #AFA997",
"Y  c #AAA49C",
"T  c #AEAC9E",
"R  c #B3A693",
"E  c #B4A996",
"W  c #B7AB99",
"Q  c #B9AF9B",
"!  c #A6A5A0",
"~  c #AAA8A0",
"^  c #B2AEA7",
"/  c #B8ADA1",
"(  c #B7B6A7",
")  c #B8B2A0",
"_  c #B3B1A8",
"`  c #B8B7A8",
"'  c #BFBEAF",
"]  c #BEBAB4",
"[  c #BCBCBC",
"{  c #C6BBAC",
"}  c #C4C1B1",
"|  c #CBC8B6",
" . c #C7C4BF",
".. c #C9C7BC",
"X. c #CFCEBD",
"o. c #D0C7BB",
"O. c #D4D0BF",
"+. c #C8C5C0",
"@. c gray80",
"#. c #D1CEC2",
"$. c #D2CFCB",
"%. c #D5D3C2",
"&. c #D9D7C5",
"*. c #D9D4C8",
"=. c #DEDCCA",
"-. c #D5D5D5",
";. c #DAD7D4",
":. c #DFDDD2",
">. c #DFDDDA",
",. c #E0DDCC",
"<. c #E1DCD3",
"1. c #E3E1CF",
"2. c #E5E3D3",
"3. c #E8E6D7",
"4. c #E3E0DD",
"5. c #E9E7D8",
"6. c #EBEADD",
"7. c #E4E4E3",
"8. c #EEECE2",
"9. c #EEEDEB",
"0. c #F0EFE5",
"q. c #F0EFEE",
"w. c #F1F0E7",
"e. c #F4F3EC",
"r. c #F6F6F0",
"t. c #F8F7F2",
"y. c #F9F9F6",
"u. c #FEFEFE",
"i. c None",
/* pixels */
"i.i.i.i.i.i.i.i.i.i.i.i.i.i.i.i.i.i.i.i.i.i.i.i.i.i.i.i.i.i.i.i.i.i.i.",
"i.i.i.i.i.O O O O o O o i.i.i.i.i.i.i.i.i.i.i.i.i.i.i.i.i.i.i.i.i.i.i.",
"i.# # O # # # # O # # # # # # # O O i.i.i.i.i.i.i.i.i.i.i.i.i.i.i.i.i.",
"i.# - b L ] ;.9.q.r.7.<.+.~ b u * # # # O i.i.i.i.i.i.i.i.i.i.i.i.i.i.",
"i.# f u.u.u.u.u.u.u.u.u.u.u.y.t.e.#.V 7 # # # O i.i.i.i.i.i.i.i.i.i.i.",
"i.# V u.u.u.u.u.u.u.u.u.u.y.y.e.e.q.8.8.#.v = # # O i.i.i.i.i.i.i.i.i.",
"i.# ^ u.u.u.y.-.[ @.@.7.y.y.r.e.w.8.8.6.3.2.=.Z 5 # O O i.i.i.i.i.i.i.",
"i.# $.u.y.A .           . < s ! 2.8.6.3.2.2.1.1.| Z ; # # o i.i.i.i.i.",
"i.# 4.u.<.e                       q A =.2.1.1.1.,.v ) N * # i.i.i.i.i.",
"# # 9.u.*.>                           + s X.1.1.1.1.i Q E O i.i.i.i.i.",
"# # y.u.o..                               . z 1.1.1.g G Q # i.i.i.i.i.",
"# # u.u./                                     j 1.1.x Z E # i.i.i.i.i.",
"# # y.u.H       . 3 t a t :                   @ 1.1.M B E O i.i.i.i.i.",
"# # 9.u.C     > a d d d d d 2                   } 1.N D P O i.i.i.i.i.",
"# # 7.u.N   1 y a a a a a a a .                 I 1.Z J D O i.i.i.i.i.",
"i.# +.u.Z > t y t y y y y y y >                 C 1.N R x O i.i.i.i.i.",
"i.# Y u.L 1 e e e t e t t e t t +               A 1.N R i O i.i.i.i.i.",
"i.# z u.{ > 0 0 0 0 0 e 0 e 0 e 3 .             I 1.M R 4 o i.i.i.i.i.",
"i.# 7 y.&.q 2 3 3 3 3 3 3 0 0 3 0 1 .           ' 1.B E # X i.i.i.i.i.",
"i.# $ 9.e.z > 1 1 1 1 1 1 1 1 2 1 2 2 @       . =.1.M E # i.i.i.i.i.i.",
"i.i.# Y e.<.1 > > > > > > > > < < < < < > +   2 1.1.v D # i.i.i.i.i.i.",
"i.i.# r e.q.~ > > > > > > > > > > > > > > > > h 1.&.M g o i.i.i.i.i.i.",
"i.i.# # ..8.8._ > > > > > > > > > > < > > < : ` 1.E R - o i.i.i.i.i.i.",
"i.i.i.# 6 :.6.3.&.d @ : > < > < > > > > > > 1 2.1.B E # i.i.i.i.i.i.i.",
"i.i.i.i.# , } 3.2.1.%.n 3 + + @ : > > > : @ S 1.,.x m O i.i.i.i.i.i.i.",
"i.i.i.i.i.# $ p | 1.1.1.1.,.` C c h h n T &.1.,.J P * o i.i.i.i.i.i.i.",
"i.i.i.i.i.i.# # $ 8 N %.1.1.1.1.1.1.1.1.2.1.1.=.M B # i.i.i.i.i.i.i.i.",
"i.i.i.i.i.i.i.i.i.# # # 4 i M U } =.1.1.1.1.2.E K % O i.i.i.i.i.i.i.i.",
"i.i.i.i.i.i.i.i.i.i.i.i.# # # # # # & * - * & $ # O i.i.i.i.i.i.i.i.i.",
"i.i.i.i.i.i.i.i.i.i.i.i.i.i.i.i.i.i.O O O # O O i.i.i.i.i.i.i.i.i.i.i.",
"i.i.i.i.i.i.i.i.i.i.i.i.i.i.i.i.i.i.i.i.i.i.i.i.i.i.i.i.i.i.i.i.i.i.i.",
"i.i.i.i.i.i.i.i.i.i.i.i.i.i.i.i.i.i.i.i.i.i.i.i.i.i.i.i.i.i.i.i.i.i.i.",
"i.i.i.i.i.i.i.i.i.i.i.i.i.i.i.i.i.i.i.i.i.i.i.i.i.i.i.i.i.i.i.i.i.i.i.",
"i.i.i.i.i.i.i.i.i.i.i.i.i.i.i.i.i.i.i.i.i.i.i.i.i.i.i.i.i.i.i.i.i.i.i.",
"i.i.i.i.i.i.i.i.i.i.i.i.i.i.i.i.i.i.i.i.i.i.i.i.i.i.i.i.i.i.i.i.i.i.i."
};
