/* XPM */
static char *xterm_16x16[] = {
/* columns rows colors chars-per-pixel */
"18 18 142 2 ",
"   c black",
".  c #030302",
"X  c gray2",
"o  c #080807",
"O  c #090909",
"+  c gray5",
"@  c #160C00",
"#  c #170C00",
"$  c #160E00",
"%  c #190E00",
"&  c #1B0F00",
"*  c #1B0F02",
"=  c #1B1001",
"-  c #1E1101",
";  c #1E1202",
":  c #151514",
">  c #161616",
",  c #181818",
"<  c #201301",
"1  c #211301",
"2  c #221301",
"3  c #211302",
"4  c #211401",
"5  c #211402",
"6  c #221502",
"7  c #231503",
"8  c #221504",
"9  c #241707",
"0  c #251808",
"q  c #261B09",
"w  c #2A1C0C",
"e  c #312413",
"r  c #3B2E1F",
"t  c #262625",
"y  c gray15",
"u  c #2C2C2C",
"i  c #2D2D2D",
"p  c #353535",
"a  c #373737",
"s  c gray22",
"d  c #3A3A3A",
"f  c gray23",
"g  c #3C3C38",
"h  c #3C3C3C",
"j  c #413526",
"k  c #493B2B",
"l  c #4D4334",
"z  c #504537",
"x  c #5A4F3B",
"c  c #464646",
"v  c #494947",
"b  c #484848",
"n  c #494949",
"m  c #4B4B4B",
"M  c #4C4C48",
"N  c #4C4C4C",
"B  c #4E4E4E",
"V  c #5C5242",
"C  c #51504B",
"Z  c #515151",
"A  c #5B5A53",
"S  c #5E5B58",
"D  c gray36",
"F  c #5D5D5D",
"G  c gray37",
"H  c #645746",
"J  c #6A6250",
"K  c #6A6155",
"L  c #66665F",
"P  c #6E6459",
"I  c #766D5C",
"U  c #7A6F5D",
"Y  c #646464",
"T  c gray40",
"R  c #686561",
"E  c #6A6962",
"W  c #6C6B64",
"Q  c #6B6B6A",
"!  c #6F6C69",
"~  c #787470",
"^  c #7C7B73",
"/  c #7C7C7C",
"(  c #827765",
")  c #837C72",
"_  c #807F75",
"`  c #867E75",
"'  c #8D8171",
"]  c #8C8574",
"[  c #848378",
"{  c #898178",
"}  c #938876",
"|  c #988E7C",
" . c #9C907D",
".. c #8D8A85",
"X. c #8B8B88",
"o. c #918A80",
"O. c #9F9582",
"+. c #9C9684",
"@. c #A59A87",
"#. c #A59D8B",
"$. c #A89E8C",
"%. c #A29D95",
"&. c #ABA18F",
"*. c #AFA693",
"=. c #AEAA9C",
"-. c #B2AEA1",
";. c #BDBDB8",
":. c #C1BCAA",
">. c #C0BFAF",
",. c #C4BEAC",
"<. c #C2BEB9",
"1. c #C2C0B1",
"2. c #CAC6B4",
"3. c #CAC8B8",
"4. c #CECAB8",
"5. c #D1CFBF",
"6. c #D4CFBD",
"7. c #D2D0BD",
"8. c #C8C5C0",
"9. c #D4D2C1",
"0. c #DBD9C8",
"q. c #DCDAC8",
"w. c #DCDAC9",
"e. c #DDDCD0",
"r. c #DFDDDA",
"t. c #E0DDCC",
"y. c #E1DFCD",
"u. c #E3E1CF",
"i. c #E6E4D4",
"p. c #E1E0DD",
"a. c #E2E0DF",
"s. c #EBE9DC",
"d. c #EAE9E0",
"f. c #EBEAE0",
"g. c #F0EEE5",
"h. c #F3F2F1",
"j. c #F5F4F3",
"k. c #F8F7F3",
"l. c #FDFDFB",
"z. c #FDFDFD",
"x. c white",
"c. c None",
/* pixels */
"c.c.c.c.c.c.c.c.c.c.c.c.c.c.c.c.c.c.",
"c.j K ) { ` P l 9 * c.c.c.c.c.c.c.c.",
"< <.x.x.x.x.x.k.d.=.V 7 * c.c.c.c.c.",
"< a.a./ Y ! X.;.d.s.i.4.I 0 # c.c.c.",
"4 j...          : E 1.u.2.#.x c.c.c.",
"4 x.!               X _ u.| ( c.c.c.",
"< h.S O c Y Z +       o 0.O.U c.c.c.",
"< r.R B D D D h         >.&.H c.c.c.",
"< 8.~ c m m B M :       4.$.r c.c.c.",
"c.o.%.a a a f f f ,     0.@.= c.c.c.",
"c.z g.m u u i i i i y g t. .# c.c.c.",
"c.< -.w.L y u i i i i ^ ,.] c.c.c.c.",
"c.c.0 ] w.7.[ A M C W 9.*.k c.c.c.c.",
"c.c.c.c.e J +.>.7.t.u.6.} # c.c.c.c.",
"c.c.c.c.c.c.c.- - 8 w - * c.c.c.c.c.",
"c.c.c.c.c.c.c.c.c.c.c.c.c.c.c.c.c.c.",
"c.c.c.c.c.c.c.c.c.c.c.c.c.c.c.c.c.c.",
"c.c.c.c.c.c.c.c.c.c.c.c.c.c.c.c.c.c."
};
