/* XPM */
static char *reboot_32x32[] = {
/* columns rows colors chars-per-pixel */
"33 33 215 2 ",
"   c #0D3B07",
".  c #0D3C06",
"X  c #0D3D06",
"o  c #0C3C07",
"O  c #0D3C07",
"+  c #0C3D07",
"@  c #0D3D07",
"#  c #0E3C07",
"$  c #0E3E07",
"%  c #0E3F07",
"&  c #0D3B08",
"*  c #0C3C08",
"=  c #0D3C08",
"-  c #0D3D08",
";  c #0E3C08",
":  c #0E3D08",
">  c #0E3F08",
",  c #0E4008",
"<  c #0E4108",
"1  c #0F4408",
"2  c #0F4508",
"3  c #0F4708",
"4  c #0F4809",
"5  c #104608",
"6  c #104708",
"7  c #114809",
"8  c #104909",
"9  c #104A09",
"0  c #104B0A",
"q  c #114C09",
"w  c #114D09",
"e  c #114E09",
"r  c #124E0A",
"t  c #124F0A",
"y  c #125109",
"u  c #13510A",
"i  c #12520B",
"p  c #135409",
"a  c #13560A",
"s  c #15540E",
"d  c #14580A",
"f  c #14580B",
"g  c #15590B",
"h  c #145B0B",
"j  c #155C0C",
"k  c #145E0C",
"l  c #16600C",
"z  c #17650D",
"x  c #18670D",
"c  c #16680C",
"v  c #186A0C",
"b  c #196B0D",
"n  c #18690E",
"m  c #186D0C",
"M  c #196C0E",
"N  c #196E0E",
"B  c #196F0F",
"V  c #1A6F0F",
"C  c #1A700F",
"Z  c #1A710F",
"A  c #1A720E",
"S  c #1A730E",
"D  c #19740E",
"F  c #1A770E",
"G  c #1B7B0E",
"H  c #1C7A0E",
"J  c #1C7D0F",
"K  c #1D7E0F",
"L  c #1B7310",
"P  c #1C7810",
"I  c #1C7910",
"U  c #1D7C10",
"Y  c #1D7F11",
"T  c #226618",
"R  c #2A7920",
"E  c #307A26",
"W  c #1C800F",
"Q  c #1E830F",
"!  c #1E840F",
"~  c #1E850F",
"^  c #1E860F",
"/  c #1E870F",
"(  c #1E8B0F",
")  c #1F8B0F",
"_  c #1F8D0F",
"`  c #1E8011",
"'  c #1F8312",
"]  c #1E8510",
"[  c #1F8511",
"{  c #1E8710",
"}  c #1F8810",
"|  c #1E8910",
" . c #1F8A10",
".. c #1E8B10",
"X. c #1F8B10",
"o. c #1E8C10",
"O. c #1F8C10",
"+. c #1F8D10",
"@. c #1F8C11",
"#. c #208512",
"$. c #228015",
"%. c #208812",
"&. c #208912",
"*. c #208B12",
"=. c #208C10",
"-. c #208C11",
";. c #208E10",
":. c #208F10",
">. c #208F11",
",. c #218F12",
"<. c #228E13",
"1. c #219110",
"2. c #209111",
"3. c #209012",
"4. c #209112",
"5. c #229611",
"6. c #229412",
"7. c #229512",
"8. c #249615",
"9. c #239812",
"0. c #229912",
"q. c #229913",
"w. c #239913",
"e. c #249A13",
"r. c #249C13",
"t. c #239A14",
"y. c #249914",
"u. c #259B15",
"i. c #249C14",
"p. c #249D14",
"a. c #259D15",
"s. c #269E16",
"d. c #2A961B",
"f. c #25A114",
"g. c #26A115",
"h. c #26A215",
"j. c #26A315",
"k. c #27A316",
"l. c #27A515",
"z. c #27A516",
"x. c #27A417",
"c. c #27A616",
"v. c #27A716",
"b. c #28A616",
"n. c #28A716",
"m. c #28A617",
"M. c #28A816",
"N. c #28A917",
"B. c #29A917",
"V. c #28AA17",
"C. c #28AB17",
"Z. c #29AB17",
"A. c #29AC17",
"S. c #2AAE17",
"D. c #29AD18",
"F. c #2AAD18",
"G. c #29AE18",
"H. c #2AAE18",
"J. c #2AAF18",
"K. c #2BAF19",
"L. c #2CB01A",
"P. c #2DB01B",
"I. c #2EB11D",
"U. c #2FB11D",
"Y. c #359E27",
"T. c #3F9234",
"R. c #33B222",
"E. c #35B324",
"W. c #36B325",
"Q. c #38B227",
"!. c #3AB529",
"~. c #438D39",
"^. c #48A83B",
"/. c #41B730",
"(. c #43B833",
"). c #47BA38",
"_. c #48BA39",
"`. c #49BB3A",
"'. c #4BBC3C",
"]. c #4EBC3F",
"[. c #4FA643",
"{. c #50A944",
"}. c #4FBD40",
"|. c #54BD46",
" X c #55BF47",
".X c #65BC59",
"XX c #58C04A",
"oX c #60C353",
"OX c #64C557",
"+X c #67C65A",
"@X c #6AC75E",
"#X c #6EC662",
"$X c #6DC860",
"%X c #70C964",
"&X c #77C76C",
"*X c #78C26E",
"=X c #74CB68",
"-X c #79CC6D",
";X c #7DC174",
":X c #7CCE71",
">X c #81D076",
",X c #82D077",
"<X c #90D587",
"1X c #97D88E",
"2X c #9EDB96",
"3X c #A9DEA2",
"4X c #B0E1A9",
"5X c #B0E2AA",
"6X c #B1E2AB",
"7X c #B2E2AC",
"8X c #B3E2AD",
"9X c #B7E3B1",
"0X c #E3F5E1",
"qX c #E5F5E3",
"wX c None",
/* pixels */
"wXwXwXwXwXwXwXwXwXwXwXwXwXwXwXwXwXwXwXwXwXwXwXwXwXwXwXwXwXwXwXwXwX",
"wXwXwXwXwXwXwXwXwXwXwXwXwXO = = = wXwXwXwXwXwXwXwXwXwXwXwXwXwXwXwX",
"wXwXwXwXwXwXwXwXwXwXwXwXO < I M 3 O wXwXwXwXwXwXwXwXwXwXwXwXwXwXwX",
"wXwXwXwXwXwXwXwXwXwXwXO O M J.J.N.A O O wXwXwXwXwXwXwXwXwXwXwXwXwX",
"wXwXwXwXwXwXwXwXwXwXwXO O ` :X6X`.J.y.i O wXwXwXwXwXwXwXwXwXwXwXwX",
"wXwXwXwXwXwXwXwXO O O 8 i p.'.5XqX<XL.S.x O wXwXwXwXwXwXwXwXwXwXwX",
"wXwXwXwXwXO O i G Y.|.XXW.S.G.G.F.XX@XE.J.I = wXwXwXwXwXwXwXwXwXwX",
"wXwXwXO O r {.>XoX).S.L.N.N.G.G.L.G.G.L.J.J.I   wXwXwXwXwXwXwXwXwX",
"wXwXO O T 3X-XP.J.j.q.+.) ( v.L.J.J.J.J.G.L.N.8 = wXwXwXwXwXwXwXwX",
"wXO O s 9X}.Z.p.+.} } ~ A ) q.S.J.J.J.S.M.5.~ O wXwXwXwXwXwXwXwXwX",
"wXO O ;X#Xn.+.) ~ l < O o m 1.S.J.J.v.6._ H O O wXwXwXwXwXwXwXwXwX",
"wXO u 8XJ._ +.v O O wXwX+ r ) v.j.>.) ) a O = wXwXO wXwXwXwXwXwXwX",
"wXO R ,XF.*.} O + wXwXwXwXO ,.) ) ) k O O wXwXO O   O = wXwXwXwXwX",
"wXO ~.).J.,.) O wXwXwXwXwXO A ~ h o O wXwXwXwXO x 8.*.8 O wXwXwXwX",
"wXO R S.J.e.) O = wXwXwXwX= O O O wXwXwXwXwX    p.L.J.n.6 wXwXwXwX",
"wXO a L.J.n.) d O wXwXwXwXwXwXwXwXwXwXwXwXwXwX  *.J.J.J.` O wXwXwX",
"wXwX= p.L.S._ K O wXwXwXwXwXwXwXwXwXwXwXwXwXwXO l R.L.S.v.O wXwXwX",
"wXwXO d G.q.) ) O wXwXwXwXwXwXO O O wXwXwXwXwXO = #XS.L.J.8 = wXwX",
"wXwXwXO a } ,.c O wXwXwX= O = h #.f O wXwXwXwXO O *XP.L.S.i   wXwX",
"wXwXwXwXO + O O O wXO     k ^.4X+X#.O wXwXwXwXO < -XP.F.j.6 O wXwX",
"wXwXwXwXwXwX= wXwXO O i d.2X0X4X/.y.= = wX=   O Y >XJ.S.,.O O wXwX",
"wXwXwXwXwXwXwXwXO O A Q.#X].S.S.J.Z.= = O O a [.2X!.J.e.F   O wXwX",
"wXwXwXwXwXwXwX= O ,.F.L.J.J.J.J.J.J.V V ~.OX=XOXS.S.e.,.O O wXwXwX",
"wXwXwXwXwXwXwXO 8 G.S.L.J.J.J.J.J.J.J.J./.G.S.S.v.+.,.8 O wXwXwXwX",
"wXwXwXwXwXwXwXwXO #.S.J.J.J.J.J.J.J.L.L.M.j.q.,.) G , O wXwXwXwXwX",
"wXwXwXwXwXwXwXwXwX< ~ j.J.J.J.J.J.q.) } ) ,.{ F 3 = O wXwXwXwXwXwX",
"wXwXwXwXwXwXwXwXwXwXO K 5.Z.L.J.J.>.{ 8 O O O = wXwXwXwXwXwXwXwXwX",
"wXwXwXwXwXwXwXwXwXwXwXO v } q.v.j.+.v O O wXwXwXwXwXwXwXwXwXwXwXwX",
"wXwXwXwXwXwXwXwXwXwXwXwX  6 Q ;.} } 4 , wXwXwXwXwXwXwXwXwXwXwXwXwX",
"wXwXwXwXwXwXwXwXwXwXwXwXwXwXO i G A O + wXwXwXwXwXwXwXwXwXwXwXwXwX",
"wXwXwXwXwXwXwXwXwXwXwXwXwXwXwXO O O O wXwXwXwXwXwXwXwXwXwXwXwXwXwX",
"wXwXwXwXwXwXwXwXwXwXwXwXwXwXwXwXwXwXwXwXwXwXwXwXwXwXwXwXwXwXwXwXwX",
"wXwXwXwXwXwXwXwXwXwXwXwXwXwXwXwXwXwXwXwXwXwXwXwXwXwXwXwXwXwXwXwXwX"
};
