/* XPM */
static char *shutdown_32x32[] = {
/* columns rows colors chars-per-pixel */
"33 33 132 2 ",
"   c #160000",
".  c #1C0000",
"X  c #260000",
"o  c #2C0101",
"O  c #330201",
"+  c #3B0302",
"@  c #3E0807",
"#  c #450403",
"$  c #4B0404",
"%  c #540605",
"&  c #5B0505",
"*  c #540806",
"=  c #5C0907",
"-  c #560B0B",
";  c #5C0A0A",
":  c #4D100F",
">  c #630403",
",  c #6C0202",
"<  c #630A07",
"1  c #630A09",
"2  c #6B0C0A",
"3  c #740505",
"4  c #7B0404",
"5  c #730C0A",
"6  c #7B0D0C",
"7  c #69110E",
"8  c #7B1510",
"9  c #672422",
"0  c #7F2622",
"q  c #7F312F",
"w  c #830505",
"e  c #8E0505",
"r  c #840E0E",
"t  c #940606",
"y  c #980101",
"u  c #950D0D",
"i  c #9C0E0E",
"p  c #85110C",
"a  c #8A120C",
"s  c #9C160F",
"d  c #831010",
"f  c #8E1616",
"g  c #A30101",
"h  c #AD0505",
"j  c #A30E0E",
"k  c #A90C0C",
"l  c #B20303",
"z  c #B80404",
"x  c #B20B0B",
"c  c #B90808",
"v  c #A3170F",
"b  c #A61710",
"n  c #AB1212",
"m  c #AC1811",
"M  c #B51010",
"N  c #BC1616",
"B  c #B01911",
"V  c #B51818",
"C  c #B4251D",
"Z  c #822B28",
"A  c #8C3E3B",
"S  c #9A3E39",
"D  c #B02221",
"F  c #B8352E",
"G  c #B63D36",
"H  c #C00505",
"J  c #CC0707",
"K  c #C40C0C",
"L  c #CD0B0B",
"P  c #DC0707",
"I  c #D40D0D",
"U  c #D90B0B",
"Y  c #C71414",
"T  c #CA1212",
"R  c #CB1C1C",
"E  c #D41010",
"W  c #DA1515",
"Q  c #D11E1E",
"!  c #EE0404",
"~  c #E40C0C",
"^  c #EE0909",
"/  c #F00707",
"(  c #F20C0C",
")  c #E11010",
"_  c #ED1212",
"`  c #E41A1A",
"'  c #E91B1B",
"]  c #F41414",
"[  c #F61A1A",
"{  c #F81D1D",
"}  c #C12222",
"|  c #D42626",
" . c #E22121",
".. c #EF2121",
"X. c #E42828",
"o. c #F42222",
"O. c #FB2525",
"+. c #F22C2C",
"@. c #FB2B2B",
"#. c #F43232",
"$. c #FC3434",
"%. c #F33B3B",
"&. c #F83C3C",
"*. c #AD413B",
"=. c #934542",
"-. c #A65551",
";. c #BD5E59",
":. c #F44646",
">. c #FA4444",
",. c #F74C4C",
"<. c #F84F4F",
"1. c #F55252",
"2. c #F95252",
"3. c #F35959",
"4. c #FA5D5D",
"5. c #F46262",
"6. c #FA6262",
"7. c #F56C6C",
"8. c #FB6D6D",
"9. c #F67575",
"0. c #FB7272",
"q. c #F67E7E",
"w. c #F78787",
"e. c #F78E8E",
"r. c #F79090",
"t. c #F99090",
"y. c #F89B9B",
"u. c #F9A4A4",
"i. c #F9ABAB",
"p. c #FAB1B1",
"a. c #FABDBD",
"s. c None",
/* pixels */
"s.s.s.s.s.s.s.s.s.s.s.s.s.s.s.s.s.s.s.s.s.s.s.s.s.s.s.s.s.s.s.s.s.",
"s.s.s.s.s.s.s.s.s.s.s.s.s.s.s.s.s.s.s.s.s.s.s.s.s.s.s.s.s.s.s.s.s.",
"s.s.s.o O O O o o X X o o o o + O o o o X X X o o O O O s.s.s.s.s.",
"s.s.O f } | X.#.#.$.$.@.@.@.@.@.O.O.O.O.{ { { ' ' W Y M & s.s.s.s.",
"s.s.o >.u.p.p.i.u.y.t.w.q.9.7.5.3.1.:.%.#.+.{ [ ] ] ] [ k o s.s.s.",
"s.s.+ 6.a.p.i.u.t.9.6.2.,.&.D + 1 ..{ { [ [ { [ [ ] [ ] x O s.s.s.",
"s.s.# 0.p.u.6.$.@.O.O.O.O...* S + N { { { [ [ [ [ ] [ ] Y + s.s.s.",
"s.s.; 8.i.8.O.@.O.O.O.V = O o *.$ O + r ' [ [ ] ] [ ] ] K O s.s.s.",
"s.s.; 0.y.>.@.@.O. .* : 0 7 o G * # 2 < O j ] [ [ ] ] ] I O s.s.s.",
"s.s.1 8.t.@.O.O.Q + =.Z + p X F < 5 % # p # 6 ] ] ] ] ( I O s.s.s.",
"s.s.7 6.9.O.@. .+ -.9 ; ' o.o D 2 u [ n O a # u ] ] ] ] I O s.s.s.",
"s.s.7 6.6.O.O.1 A A ; o.o.{ o m 2 u [ [ M + s O E ] ( ] I o s.s.s.",
"s.s.7 4.2.O.R @ ;.O ` o.{ { o m < i [ ] ] 5 2 5 > ] ] ( I O s.s.s.",
"s.s.6 2.>.O.6 Z 8 5 { { { { o m < i ] [ ] L + m O ~ ( ] U O s.s.s.",
"s.s.8 ,.$.O.+ s ; n { { { [ # i * M ] ] ] ] O b * x ( ( U O s.s.s.",
"s.s.d >.#.{ o m - N { { [ [ % a $ T [ ] ] ] # s 2 t ( / U o s.s.s.",
"s.s.r &.@. .O B = M { [ [ [ s o $ _ ] ] ] ( O v 5 w ( / U o s.s.s.",
"s.s.5 #.O.{ o B 2 6 [ [ ] [ [ ] ] ] ] ] ] U O B < t ( ( J O s.s.s.",
"s.s.2 +.{ { + s s + ' [ [ ] ] ] ] ] ] ( ] w < B * h / / J O s.s.s.",
"s.s.2 +.{ { 6 5 B ; 3 [ [ ] ] ] ] ] ( ] L O v m O ~ / / z O s.s.s.",
"s.s.1 { { { T + m m # 6 ] ] ] ] ] ( ( K + a B 6 > / / / z O s.s.s.",
"s.s.- ] { { [ < 5 B v % $ k W ] _ K 3 O a B v O J / ! ! l O s.s.s.",
"s.s.* ] [ [ [ W + a B B a * O o o # 2 b B m # e / / ! ! h O s.s.s.",
"s.s.$ ( [ [ [ [ Y O 6 B B B m m B B B B s # 3 / / ! ! ! g o s.s.s.",
"s.s.# ] [ [ ] [ ] E $ $ a m B B B m s 2 O y / ! ! ! ! ! y X s.s.s.",
"s.s.O ] [ [ ] ] ] ] ] k * O $ % * # O 4 P / ! / ! ! ! ! w . s.s.s.",
"s.s.X [ ] [ ] ] ] ( ] ] ( ) K x c J ^ / / ! ! ! ! ! ! ! , . s.s.s.",
"s.s.O W ] ] ] ] ] ] ( ] ( ( ( / ( / / / ! / / / ! ! ! ! $ s.s.s.s.",
"s.s.+ O $ & 1 3 3 w w w w w t t e w w 4 , , > & & # + O O s.s.s.s.",
"s.s.s.s.s.  . . . . . . X . . . . . . . . . .     s.s.s.s.s.s.s.s.",
"s.s.s.s.s.s.s.s.s.s.s.s.s.s.s.s.s.s.s.s.s.s.s.s.s.s.s.s.s.s.s.s.s.",
"s.s.s.s.s.s.s.s.s.s.s.s.s.s.s.s.s.s.s.s.s.s.s.s.s.s.s.s.s.s.s.s.s.",
"s.s.s.s.s.s.s.s.s.s.s.s.s.s.s.s.s.s.s.s.s.s.s.s.s.s.s.s.s.s.s.s.s."
};
