/* XPM */
static char *suspend_16x16[] = {
/* columns rows colors chars-per-pixel */
"18 18 154 2 ",
"   c black",
".  c #060606",
"X  c gray4",
"o  c #140E00",
"O  c #1D0C03",
"+  c #1E0C03",
"@  c #1C140C",
"#  c #161615",
"$  c #1A121F",
"%  c #1C1C1B",
"&  c #261004",
"*  c #3F1008",
"=  c #21201D",
"-  c #0F1B23",
";  c #151E2B",
":  c #161D2D",
">  c #271B2B",
",  c #261D2E",
"<  c #242524",
"1  c #282828",
"2  c #3E3626",
"3  c #3A372F",
"4  c #323332",
"5  c #353633",
"6  c gray21",
"7  c #393938",
"8  c #3A3A39",
"9  c #3E3F3B",
"0  c #3F3F3B",
"q  c gray24",
"w  c #411B06",
"e  c #532309",
"r  c #532408",
"t  c #572508",
"y  c #4D3007",
"u  c #46340F",
"i  c #4B380F",
"p  c #463A15",
"a  c #4A3A1F",
"s  c #7D2A01",
"d  c #613007",
"f  c #6B3003",
"g  c #72310C",
"h  c #432929",
"j  c #59460E",
"k  c #55431E",
"l  c #684D09",
"z  c #795D15",
"x  c #49452D",
"c  c #464030",
"v  c #4D4030",
"b  c #40413D",
"n  c #4C4C38",
"m  c #716E2B",
"M  c #373B5A",
"N  c #264C6D",
"B  c #324D6F",
"V  c #344F74",
"C  c #3E4C77",
"Z  c #394D78",
"A  c #3E4D78",
"S  c #23587A",
"D  c #305375",
"F  c #355578",
"G  c #3E507F",
"H  c #3A567F",
"J  c #3D587B",
"K  c #414241",
"L  c #434542",
"P  c #444544",
"I  c #464745",
"U  c #4A4C46",
"Y  c #50514E",
"T  c #51514F",
"R  c #50524F",
"E  c #515251",
"W  c #565853",
"Q  c #636454",
"!  c #6E6756",
"~  c #616360",
"^  c #676865",
"/  c #787A72",
"(  c #802000",
")  c #812600",
"_  c #86390D",
"`  c #AA3800",
"'  c #9A420F",
"]  c #964C0B",
"[  c #98510A",
"{  c #995509",
"}  c #AE550E",
"|  c #B54E12",
" . c #856E04",
".. c #9C7301",
"X. c #AA6707",
"o. c #A66D05",
"O. c #BB690A",
"+. c #BC7A05",
"@. c #BE7906",
"#. c #C05E00",
"$. c #C25712",
"%. c #C55414",
"&. c #DF5F16",
"*. c #CF6E0E",
"=. c #DC7F0B",
"-. c #F47015",
";. c #998104",
":. c #BE8005",
">. c #CE8000",
",. c #D18706",
"<. c #D99C00",
"1. c #F5860F",
"2. c #FE8411",
"3. c #E0AE00",
"4. c #80827C",
"5. c #3E5988",
"6. c #3D5E92",
"7. c #33628C",
"8. c #35628E",
"9. c #396795",
"0. c #3A679A",
"q. c #3C679A",
"w. c #3F6AA0",
"e. c #3276A5",
"r. c #3B71A7",
"t. c #3C70A4",
"y. c #3377A8",
"u. c #3D73AA",
"i. c #415284",
"p. c #42598C",
"a. c #415B8D",
"s. c #406195",
"d. c #436196",
"f. c #4369A1",
"g. c #406FA0",
"h. c #416DA4",
"j. c #436EA7",
"k. c #456DA5",
"l. c #4470AB",
"z. c #4772AF",
"x. c #4B75B7",
"c. c #4D74B5",
"v. c #4D75B9",
"b. c #4D78BB",
"n. c #5384D0",
"m. c #5285D1",
"M. c #5386D3",
"N. c #5486D4",
"B. c #5487D5",
"V. c #5389D8",
"C. c #538AD9",
"Z. c #558ADA",
"A. c #4C95E3",
"S. c None",
/* pixels */
"S.r.u.w.q.p.i.C S.S.S.S.S.S.S.S.S.S.",
"0.A.C.d.F v.Z.N.S.S.S.S.S.S.S.S.S.S.",
"q.C.J H 7.V l.Z.> S.S.S.S.S.S.S.S.S.",
"6.k.g.v.8.n.B Z., S.S.S.S.S.S.S.S.S.",
"5.g.w.B.z.B.D m.$ S.S.S.S.S.S.S.S.S.",
"5.v.e.f.x.9.N ; U 0 #   S.S.S.S.S.S.",
"C Z.j.y.S - b m ;.z ! / 0 . S.S.S.S.",
"M i.Z : 5 Q  .3.<.>.#.s v ~ <   S.S.",
"S.S.# T ^ W k f ) ` ( l n L T X S.S.",
"S.S.% 4.T q K E h * x I 7 p u   S.S.",
"S.S.o 3 ..j c I q 7 4 i +.X.O.S.S.S.",
"S.S.{ y +.,.o.:.2 6 a =.*.} $.S.S.S.",
"S.S.e d ] 2.[ 1.= 1 @ -.| _ w S.S.S.",
"S.S.S.& r %.' &.    + g + S.S.S.S.S.",
"S.S.S.S.S.S.+ t   S.S.S.S.S.S.S.S.S.",
"S.S.S.S.S.S.S.S.S.S.S.S.S.S.S.S.S.S.",
"S.S.S.S.S.S.S.S.S.S.S.S.S.S.S.S.S.S.",
"S.S.S.S.S.S.S.S.S.S.S.S.S.S.S.S.S.S."
};
